<svg xmlns="http://www.w3.org/2000/svg" version="1.1" viewBox="0 0 2048 1176">
<path transform="translate(0)" d="m0 0h2048v1176h-2048z" fill="#BACEE9"/>
<path transform="translate(1582,258)" d="m0 0h163l8 7 7 6v831l-1 6h-190l-2-7v-2h2l1-16v-104l1-151 9-8 14-8 14-5 4 1 7 10 9 6 5 2h14l10-5 8-9 3-8v-13l-4-10-8-7-9-4h-14l-12 6-6 7-3 6-2 6-16 5-16 8-6 4h-2l-1-466-1-28v-47l3-3 8-2z" fill="#1C2E35"/>
<path transform="translate(1742,258)" d="m0 0 5 1 8 8 5 4v831l-2 4h-50l2-10-1-101v-725l-1-7h-36l-65-1-10-1v-1l138-1z" fill="#0D191F"/>
<path transform="translate(1588,535)" d="m0 0 103 1 1 29v180l-12 1h-27l-65-1-1-1v-193z" fill="#08539E"/>
<path transform="translate(1633,769)" d="m0 0h14l12 6 7 8 3 8v13l-4 9-7 8-8 5-3 1h-14l-10-5-7-6-5-8-10 2-16 8-11 8-2 2-1 162v93l-1 14-3 3-7 2-13 9-8 4-9 2h-29l-9-4-4-4-1-2v-7l3-5 8-5 14-4 39-6 3-1 3-17v-19l-3-26-3-5 2-1-1-12-9-48-4-28-1-13v-25l3-22 7-21 9-15 9-10 4-5 19-11 14-5 7-2 3-9 6-8 9-6z" fill="#017CF4"/>
<path transform="translate(0)" d="m0 0h2048v4h-2043l-5-1z" fill="#F1F4F7"/>
<path transform="translate(1759,548)" d="m0 0h1l1 521 1 13 26 1h58l12-3 9-5 6-5 7-10 6-16 3-20v-53l-4-54v-28l5-45v-9l-2-8-2-4-4 1-8 7-12 7-12 3h-7v-55l1-1h9l11 4 14 10 7 9 10 7 6 9 2 7-1 16-4 32-1 17v12l3 43 2 23v41l-2 18-4 18-5 13-7 10-8 9-11 7-12 4-7 1-83 4-3 8h-1z" fill="#017DF6"/>
<path transform="translate(1646,595)" d="m0 0h28v11h9l-1 11-10 52-7 32-2 3h-51l1-9 7-33 5-26 6-23 2-7 4-1h6l2-9z" fill="#027EF8"/>
<path transform="translate(1742,258)" d="m0 0 5 1 8 8 5 4v277l-1 80-1 451-2 1-2-12v-17l-1-18 1-21v-22l-1-3 1-20-1-25v-51l1-9v-57l-1-7 1-17v-12l-1-15v-27l-1-52v-286l1-109v-18l-2-9-9-6-11-2-20 1-2-6 26-1z" fill="#081115"/>
<path transform="translate(1589,537)" d="m0 0 4 2 11 7 6 5 5 5 10 8-1 10-13 63-17 80-4 7h-1l-1-17v-169z" fill="#016CD8"/>
<path transform="translate(1568,832)" d="m0 0 2 1v195l-2-3-4-25-5-31-7-39-3-24v-22l3-19 4-14 7-14z" fill="#BBCFE9"/>
<path transform="translate(1633,769)" d="m0 0h14l12 6 7 8 3 8v13l-4 9-7 8-8 5-3 1h-14l-10-5-7-6-5-8-2-2 33-4 2-1v-6l-3-2h-14l-17 2 2-9 7-9 9-6z" fill="#08549F"/>
<path transform="translate(1634,311)" d="m0 0h26l-2 5-7 11-9 14-1 2 21 1-2 5-16 24-7 10-10 14h-2l1-6 4-10 7-24-3 1h-17l2-10 5-13 6-16z" fill="#B9CEE9"/>
<path transform="translate(1597,260)" d="m0 0h112l1 5-4-2h-34l-65-1-10-1z" fill="#0D191F"/>
<path transform="translate(1635,637)" d="m0 0h34l-1 10-2 9h-1v-13l-3-3h-27z" fill="#BBCFE9"/>
<path transform="translate(1565,995)" d="m0 0 3 4 1 8 1 1v20l-2-3-3-19z" fill="#C2D4EA"/>
<path transform="translate(1633,384)" d="m0 0 1 3-7 10h-2l1-6 2-4z" fill="#D0DFF1"/>
<path transform="translate(1559,1060)" d="m0 0h1v11l-2 10-2 2h-3v-2l2-1 2-7z" fill="#016DD9"/>
<path transform="translate(1756,1100)" d="m0 0 2 1v5h-15l4-2 6-2z" fill="#070F12"/>
<path transform="translate(1565,995)" d="m0 0 3 4v9l-1-2h-2z" fill="#E7EDF4"/>
<path transform="translate(1582,258)" d="m0 0 11 1-1 2-10 2z" fill="#0E1C25"/>
</svg>