<svg xmlns="http://www.w3.org/2000/svg" version="1.1" viewBox="0 0 2048 1196">
<path transform="translate(0)" d="m0 0h2048v1196h-2048z" fill="#E8E8F9"/>
<path transform="translate(1836,867)" d="m0 0h113l1 5-1 3h-4l1 11v196l2 6 6 7 2 12 8-6 5-2h6l11 8 10 8 3 6 3 11-1 1-62 1h-84l-34-1h-350l-2-1v-72h-22v-21l1-16 5-5 8-2h8l-1-6v-70l-4-1-1-6v-17l4-1 17 1 5 8h134l9 1v-8h1v8l183-1 4-8 2-1h19v-39l-5-1-1-7z" fill="#C6DDEF"/>
<path transform="translate(1034,825)" d="m0 0h12l8 3 7 6 6 12 2 10 2 19 4 9 6 9 12 16 2 4 1 17 1 45-1 11-4 8-12 15-3 15-26 11-2 1-1 50-1 11-6 5h-1l-1-64-17-9-13-5-2-2-3-15-11-14-7-9-2-6-1-8v-64l2-11 7-11 15-16 6-7 2-8 2-11 6-10 8-6z" fill="#C9CBD6"/>
<path transform="translate(1158,732)" d="m0 0 2 1 1 56 3 185 1 73 1 13 1 49 7 2 2 4v14h33l-2-16v-43l2-5 3 3 1 43 1 13 1 6h12l8 1-1-55-13-19-3-3-5-9-8-11-8-12-13-19-2-6 1-2 4 2 7 9 11 16 16 23 15 22 11 16 8 12v2h164l1 2-1 2-19 1h-32v27l14 1h54l12-1 5-3 2-5v-32l1-25h4v58l-3 7-4 3-6 1v2l-269 1-3 1h-11l-8-2-28-1-1-1v-7l2-12 5-6 4 1 1-35 1-9 2-106 1-77 2-121 1-26 1-1z" fill="#B1CAE0"/>
<path transform="translate(1575,661)" d="m0 0h59l5 2 3 3-1 2-4-4-15-1v30h14l3 1 6 8-1 2-7-7-2-1-13-1 3 69 1 19 2 14 2 49 3 59 1 11v9h-67v-1h11v-20l1-7 3-56 2-34 4-65 2-47-14 1-5 5-9 11-2-1 9-12h2l2-4 3-2h13v-29l-13 1-5 4-6 8h-2l-1 3-2-1 5-6 1-3 5-4 1-3h3z" fill="#ABC6DC"/>
<path transform="translate(1346,999)" d="m0 0 4 1 10 16 10 14 8 12 8 11 8 12 11 16 7 10v1h-15l-34-1-10-15-13-18-9-14v-1l27-1-29-1-11-15-11-16-5-7 5 9 14 20 5 9-46 1-5-5-14-20-10-14 7 12 10 14 7 11v1l-11 1h-10l-8-1v2l30-1 6 7 12 18 13 18 3 6h-52l-10-16-12-16-8-12-13-19-13-18-7-9v-1z" fill="#4B7793"/>
<path transform="translate(1142,743)" d="m0 0h2v64l-1 11-22 2-35 6-20 5-3 1-1 2-4-2-8-5-4-1h-12l-8 4-6 8-3 8-2 13-6 8-10 10-11 14-1 2-4-2v-7l3-16 12-42 8-16 5-6 11-8 8-4 11 1 27-12 28-13 24-11 19-10z" fill="#FDFDFE"/>
<path transform="translate(1144,576)" d="m0 0h3l1 3v13l3 49 2 45 1 10 3 3 11 6 3 2 6-1 1-1 8 1 46 23 28 15 24 14 2 3-4 3-6-1-19-7-41-14-32-10-13-6-5 2-4 3-1 58h-1l-1-56-12 2-1 26-2 121-1 77h-1v-101l2-115h-2l-2 4-10 6-31 15-20 9-35 16-9 1-2-3 11-8 81-54 8-6 2-8 2-9v-6l-5-8-2-3v-11l7-60 4-31 2-10z" fill="#C6DDEF"/>
<path transform="translate(1169,725)" d="m0 0 7 2 8 4 7 10 9 10 11 8 15 7 11 3 6 1h9l19-3 8-1 9 8 1 4h2l5 8 6 3-1 3-24 9-21 6-25 5-35 4-25 2h-8l-1-1-1-28v-58z" fill="#FDFDFE"/>
<path transform="translate(1158,732)" d="m0 0 2 1 1 56 3 185 1 73v61h-8l-1-36 4-1v-25l-2-1h-10l-2 2-1 17v7l4 1v36h-9v-43l2-106 1-77 2-121 1-26 1-1z" fill="#728FAE"/>
<path transform="translate(1464,915)" d="m0 0 20 1 5 8h134l9 1v-8h1v8l183-1 4-8 5-1 16 1-1 22h-376l-1-5v-17z" fill="#48617D"/>
<path transform="translate(1764,739)" d="m0 0h29l3 2h-6v8h-1l-1-8h-19v20h14l12 1 1 2h-5l1 40 2 27 1 30 2 21 1 29 1 14h-51v-1h10v-16l3-46 1-21h2v-22l3-56-11 4-7 5 2-4 8-6 8-1-1-19h-6l-8 5-4 3 2-4 6-5z" fill="#B6CFE4"/>
<path transform="translate(1437,730)" d="m0 0h16l11 4 9 6 6 7 5 11 1 4v16l-3 9-6 9-9 8-13 5h-6l-5-5-5-3h-10l-6-11-8-5-6-3-2-3-1-6v-9l5-14 7-9 9-7z" fill="#E1CE8C"/>
<path transform="translate(1606,812)" d="m0 0 3 3 5 8v4h2v4h2l4 9v3h2l4 6 1 5 2 53v18l-40-1 2-5 12-22h2l1 4 2-1-3-5v-4h-2l-4-8 3 7v7l-11 19-3 6-2 2h-7v-26l2-35 1-9 3 4-1-3-1-7h2l2-5 8-17 7-12z" fill="#E2E4F6"/>
<path transform="translate(1260,864)" d="m0 0 10 1 10 5 10 8 5 6 1 4 9 2 11 6 14 10 11 7v3l-18 1h-111l-3-1 1-7 5-6 8-6 6-3 7-14 6-7 9-6z" fill="#FEFEFF"/>
<path transform="translate(1859,1076)" d="m0 0h67v57h-66l-1-1z" fill="#4B7793"/>
<path transform="translate(1239,1084)" d="m0 0 5 5 8 11 5 1h95l11 1 1 29h-128l3-1z" fill="#E3E6F7"/>
<path transform="translate(1900,601)" d="m0 0 9 2 11 6 9 7 19 19 4 7 1 12-14 1h-33l-53-1-6-1 1-7 5-6 13-10 8-13 6-7 10-6z" fill="#FEFEFF"/>
<path transform="translate(1597,715)" d="m0 0h22l-3 10-4 8-4 6v6h2l-1 4-2-5h-2l-2 5-11 19-1 1v8l6 12 2 1 3 8 3 5v2h2l2-6 3-6h2v-2h3l3-9 4-5v6h2l2 14 2 49 3 59 1 11v9h-3l-2-44v-27l-2-1-1-5-2-5h-2l-4-10v-2h-2v-4h-2l-3-7-4-7-4 4-8 16-8 15h-2l3 8 1 5-3-3-1-2-1 7-2 35-1 26 7-1 3-4 12-22v-7l-3-6 1-2 4 6v3h2l3 8 1 4-1-2h-2l-1-4h-2l-2 5-9 17-3 5h31v1h-55v-1h11v-20l1-7 3-56 2-34 4-65 1-19 4-3 9 15 2 3-1 7 2-7-8-14v-2h-2l-3-6z" fill="#ADC7DD"/>
<path transform="translate(1085,1077)" d="m0 0h10l10 6 7 7 19 12 4 5-5 7-3 19-13 1h-11l-9-1-6-8-4-12-10-8-9-7 1-5 9-10z" fill="#C9CBD6"/>
<path transform="translate(1320,1042)" d="m0 0h7l6 7 12 18 13 18 3 6h-49l-8-12-14-20-9-14v-2z" fill="#4B7793"/>
<path transform="translate(1195 1e3)" d="m0 0h90v1l-34 1 2 5 22 33v1l-11 1h-10l-8-1v2h28v1h-48l-14-20-12-17z" fill="#4C7793"/>
<path transform="translate(1661,978)" d="m0 0h2l1 5-5 13-1 4-2 12-4 10-1 5h34l-2 5-11 20-6 10-8 13-7 14-2 3h-3l2-10 6-25 2-13-32-1 1-5 6-10 16-25 8-13z" fill="#E0CD8C"/>
<path transform="translate(1183,995)" d="m0 0 4 2 7 9 11 16 16 23 15 22 11 16 8 12v2h164l1 2-1 2-19 1h-32v27l-4 1-1-1v-27h-106l-6-2-11-15-1 45h-4l-1-54-13-19-3-3-5-9-8-11-8-12-13-19-2-6z" fill="#4F7894"/>
<path transform="translate(1456,1064)" d="m0 0h4v58l-3 7-4 3-3 1-14 1h-259l-14-3-8-5-4-8-1-8 1-3h4l2 10 3 5 7 5 15 3h27l-2-17v-43l2-5 3 3 1 43 1 13 1 6h221l12-1 5-3 2-5v-32z" fill="#E1CE8C"/>
<path transform="translate(1790,824)" d="m0 0h1l2 34v10l-1-3h-2l4 7v3h-2l-3 9-6 11-4 6-4-4 3 6-2 7-3 1-2 6-4 7h-7l2-33 1-12 2-1 7 14-7-16v-5l4-7 1-4h2l2-5 3-7 4 1v3h2l-3-6 1-7 5-9z" fill="#E7E8F9"/>
<path transform="translate(1217,1053)" d="m0 0 2 1v2l4 2 12 18v55l-20-1-2-6-1-13-1-43-2-2-2 4v-7l3-5 3-3z" fill="#E5E7F8"/>
<path transform="translate(1619,719)" d="m0 0h2l1 28v14l-4 1-1-1-1 2h2l4 8-1 8-7 14h-2l-1 5-4 7h-2l-6-11v-4l-3-1-6-12v-8l8-13 7-12h2l2 3 1-2h-2l-1-6 7-11 4-8z" fill="#E6E7F8"/>
<path transform="translate(1764,739)" d="m0 0h29l3 2h-6v8h-1l-1-8h-19v20h14l12 1 1 2h-5v13l-1-2-2 1-16 1 15 1-1 4h-2l-2 6-3 5h-2l1 6 4 4 7 11 2 6h-2l-1 5-3 6h-2l-2 6-3 3-6-11v-2h-2l-2-5v-3l-2-1 1-2h2l3-9-5 1-2 2 1-32 1-15-11 4-7 5 2-4 8-6 8-1-1-19h-6l-8 5-4 3 2-4 6-5z" fill="#C6DDEF"/>
<path transform="translate(1627,855)" d="m0 0h1l2 26 1 26v18l-40-1 2-5 12-22h2l1 4 2-1-3-5 1-5 7-12 1-3h2l3-9 5-10z" fill="#E7E8F9"/>
<path transform="translate(1399,786)" d="m0 0 21 1 6 8 2 5h10l9 6 1 4-8 4-34 2h-30l-2-1 1-5 9-5h2l2-5 5-8z" fill="#FDFDFE"/>
<path transform="translate(1814,966)" d="m0 0h8v142h-8l-1-1v-64z" fill="#B0CAE0"/>
<path transform="translate(1778,966)" d="m0 0h8l1 34v91l-1 17h-7l-1-1z" fill="#B0CAE0"/>
<path transform="translate(1742,966)" d="m0 0h9v54l-1 88h-7l-1-1z" fill="#B0CAE0"/>
<path transform="translate(1561,965)" d="m0 0 7 1v141l-1 1h-7v-142z" fill="#B0CAE0"/>
<path transform="translate(1594,966)" d="m0 0h8v142h-7l-1-1z" fill="#B0CAE0"/>
<path transform="translate(1707,966)" d="m0 0h8v141l-5 1-3-1z" fill="#B0CAE0"/>
<path transform="translate(1041,957)" d="m0 0h6l1 27 1 3 8-8 5-3 4-4v-9h2l1 7h8v2l-9 1-18 18h-2v95l-1 11-6 5h-1v-87l-1-7h-2l-1-3 4 1v-30l-11-7v-2l6 2 5 3z" fill="#B0C9DF"/>
<path transform="translate(1491,966)" d="m0 0h7l1 30v112h-8z" fill="#B0CAE0"/>
<path transform="translate(1623,777)" d="m0 0h1v6h2l2 14 2 49 3 59 1 11v9h-3l-2-44v-27l-2-1-1-5-2-5h-2l-4-10v-2h-2v-4h-2l-3-7-1-8-3-1 1-7 6-10 1-3h2l3-9z" fill="#E0E4F6"/>
<path transform="translate(1584,854)" d="m0 0 3 4 2 3v4h2v4h2l5 9v4h2l4 8v7l-11 19-3 6-2 2h-7v-26l2-35z" fill="#E7E8F9"/>
<path transform="translate(1969,1099)" d="m0 0h6l11 8 10 8 3 6 3 11-1 1h-26l-2-2-3-7-7-8-7-6 3-5 5-4z" fill="#C9CBD6"/>
<path transform="translate(1836,867)" d="m0 0h113l1 5-1 3h-113l-1-7z" fill="#47617D"/>
<path transform="translate(1461,1016)" d="m0 0h7v44h-21v-21l1-16 5-5z" fill="#4B7793"/>
<path transform="translate(1526,966)" d="m0 0h6l1 2v38l-1 101-1 1h-5l-1-1z" fill="#B0CAE0"/>
<path transform="translate(1592,663)" d="m0 0h28v30h-28z" fill="#E7E8F9"/>
<path transform="translate(1250 1e3)" d="m0 0 5 5 12 17 11 16 3 1 44-1-24-36 1-2 11 15 11 16 5 7 43 1v1l-40 2 7 11 12 17 10 14 2 4 34 1v1h-139v-1l51-1-11-16-12-17-8-12-4-2h-28v-2h18l10-1-24-36zm70 40-39 1 2 5 7 11 14 20 8 12h49l-5-9-12-16-14-21-3-3z" fill="#ACC6DD"/>
<path transform="translate(1187,995)" d="m0 0 8 2-1 3 5 4 12 17 14 20 13 19 13 18 7 11 2 4 2 2-1 1-7-1-10-15-16-23-8-12-14-20-16-23-3-4z" fill="#ECF0F7"/>
<path transform="translate(1769,784)" d="m0 0h2l1 4h2l3 5 1 6 4 4 7 11 2 6h-2l-1 5-3 6h-2l-2 6-3 3-6-11v-2h-2l-2-5v-3l-2-1 1-2h2l3-9-4 1v-18z" fill="#E6E8F9"/>
<path transform="translate(1589,778)" d="m0 0 3 4 3 9h2l7 13v9h-2l-1 5h-2l-2 7-10 19-2 4h-1l2-36 2-30z" fill="#E4E7F8"/>
<path transform="translate(1793,879)" d="m0 0h1l3 36v9l-2 1-5-1-2-5v5h-20l7-12 5-4 3 3-4-8 5-9h2l1-5z" fill="#E7E8F9"/>
<path transform="translate(1766,801)" d="m0 0h1v7l6-2-2 7-2 3h-2l3 11h2l5 10-1 2-4-6v-2h-2l-3-3-2 27v11h3l-2 5 1 8 6 12-1 2-8-14-3 40-1 5h7l2-6 4-7 3-3 1-5-3-6 1-2 4 4 6-9 1 4h-2l-1 4-3 6 4 7-1 2-4-4-5 6-5 8 19 1-1-6 2 1 1 5h5v1h-47v-1h10v-16l3-46 1-21h2v-22z" fill="#C2D9EB"/>
<path transform="translate(1903,896)" d="m0 0h23v22l-1 1h-22z" fill="#4C7793"/>
<path transform="translate(1903,985)" d="m0 0h23v22l-3 1h-19l-1-1z" fill="#4E7793"/>
<path transform="translate(1592,695)" d="m0 0h28v18l-28 1-1-1z" fill="#E6E8F9"/>
<path transform="translate(1860,985)" d="m0 0h22v22l-1 1h-21z" fill="#4C7692"/>
<path transform="translate(1903,941)" d="m0 0h23v21l-1 1h-22z" fill="#4C7794"/>
<path transform="translate(1860,896)" d="m0 0h22v22l-1 1h-21z" fill="#4B7591"/>
<path transform="translate(1903,1030)" d="m0 0h23v17l-1 5h-22z" fill="#4B7692"/>
<path transform="translate(1859,941)" d="m0 0h23v22h-22z" fill="#4D7894"/>
<path transform="translate(1859,1030)" d="m0 0h23v22h-22z" fill="#4A7692"/>
<path transform="translate(1605,897)" d="m0 0h2l1 4h2v2l3 1 3 5v3h2l5 10v2h-32l2-5z" fill="#E1E4F6"/>
<path transform="translate(1619,719)" d="m0 0h2l1 28v14l-4 1-1-3-3-1v-2h-2l-2-6v-5h-2l-1-6 7-11 4-8z" fill="#DEE3F5"/>
<path transform="translate(1162,1132)" d="m0 0 15 1h270v2l-269 1-3 1h-11l-8-2-28-1v-1z" fill="#C7D2E1"/>
<path transform="translate(1592,720)" d="m0 0 2 1 5 9 5 8-1 6-6 11-6 12h-2l2-46z" fill="#E3E7F8"/>
<path transform="translate(1335,1093)" d="m0 0h12l6 1v1l60 1 5 1v1h-161l-2-1 1-2 2 1h32l37-1z" fill="#BCD4E8"/>
<path transform="translate(1597,715)" d="m0 0h22l-2 6-3 1-1 6-6 10-3-1-7-13v-2h-2l-3-6z" fill="#E3E7F8"/>
<path transform="translate(1259,1092)" d="m0 0h88l-2 2h-10l-9 2-36 1h-32l3-2z" fill="#E9E9FA"/>
<path transform="translate(1582,863)" d="m0 0h1v21l-2 40 7-1 3-4 12-22v-7l-3-6 1-2 4 6v3h2l3 8 1 4-1-2h-2l-1-4h-2l-2 5-9 17-3 5h31v1h-55v-1h11v-20l1-7 2-33z" fill="#B6CFE4"/>
<path transform="translate(1790,824)" d="m0 0h1l2 34v10l-1-3h-3l-6-11-3-8 1-7 5-9z" fill="#E4E7F8"/>
<path transform="translate(1767,828)" d="m0 0 3 1v2h2l6 11-1 5-7 12-2 5h-2l-2 4v-13l2-24z" fill="#E6E8F9"/>
<path transform="translate(1625,783)" d="m0 0h1l2 14 2 49 3 59 1 11v9h-3l-2-44v-27l-2-1-1-7h2l-2-17-1-25z" fill="#8EAAC5"/>
<path transform="translate(1418,1097)" d="m0 0 2 2-1 2-19 1h-32v27l-4 1-1-1v-16h1l1 6v-16l1-4 2-1z" fill="#557B98"/>
<path transform="translate(1250 1e3)" d="m0 0 5 5 12 17 13 19v2h2l7 11 16 23 5 7v3h-2l-7-11-13-18-10-15-4-2h-28v-2h18l10-1-24-36z" fill="#B7D0E5"/>
<path transform="translate(1792,822)" d="m0 0h1l1 9 1 30 2 21 1 29 1 14-3-1v-9l-3-35-5 9-2 1 2-6 4-9h2l-4-8v-2h2l-1-24v-17z" fill="#BDD5E8"/>
<path transform="translate(1769,764)" d="m0 0h19v12l-18 1-1-1z" fill="#E9E9FA"/>
<path transform="translate(1764,739)" d="m0 0h29l3 2h-6v8h-1l-1-8h-19v20h14l8 1-1 11h-1v-10l-25 1-10 4-5 4 2-4 8-6 8-1-1-19h-6l-8 5-4 3 2-4 6-5z" fill="#C1D8EB"/>
<path transform="translate(1766,801)" d="m0 0h1v7l6-2-2 7-2 3h-2l3 11h2l5 10-1 2-4-6v-2h-2l-3-3-2 27-1 6h-1v-20l1-22z" fill="#BDD5E9"/>
<path transform="translate(1622,719)" d="m0 0h1l2 45v19l-2-4-6 12h-2l2-6 4-10-1-7-2-5h-2l1-4 1 2h3v-41z" fill="#A1BBD3"/>
<path transform="translate(1150,708)" d="m0 0 7 1 4 6-1 4-4 4-5 1-5-3-2-4 1-5z" fill="#4C7692"/>
<path transform="translate(1389,1056)" d="m0 0 4 2 2 2v3l4 2 11 12 3 7v4h2v2l-5-1-11-15-9-13z" fill="#F2F6FB"/>
<path transform="translate(1352 1e3)" d="m0 0 5 1 7 8 9 15 1 6-5-2-14-20-3-7z" fill="#F5F8FB"/>
<path transform="translate(1586,791)" d="m0 0h1v21l-2 36 3 8 1 5-3-3-1-2-1 7h-2v-22l2-34 1-13z" fill="#AAC4DB"/>
<path transform="translate(1786,784)" d="m0 0h2l1 3v25l-4-5-5-8 1-7z" fill="#E7E8F9"/>
<path transform="translate(1769,784)" d="m0 0h2l1 4h2l3 5v9l-5 5-4 1v-18z" fill="#E3E6F7"/>
<path transform="translate(1788,775)" d="m0 0h2l1 2v20l-1 16h-1l-1-29h-2l-2 4-4 7-3 2v-4h2l2-5 3-6h2l1-4h-19l4-2z" fill="#BFD7EA"/>
<path transform="translate(1946,1088)" d="m0 0 4 2 4 5 2 11-4 2h-6z" fill="#C9CBD7"/>
<path transform="translate(1237,1081)" d="m0 0 2 4v45h-4l1-45z" fill="#455E7A"/>
<path transform="translate(1600,882)" d="m0 0 4 4 1 5h2l3 8 1 4-1-2h-2l-1-4h-2l-2 5-9 17-3 5h31v1h-35l4-6 12-22v-7l-3-6z" fill="#B7CDE1"/>
<path transform="translate(1785,890)" d="m0 0 1 4h-2l-1 4-3 6 4 7-1 2-4-4-5 6-5 8 19 1-1-6 2 1 1 5h5v1h-29l7-14 3-3 1-5-3-6 1-2 4 4z" fill="#C4D6E7"/>
<path transform="translate(1775,778)" d="m0 0h12l-1 4h-2l-2 6-3 5h-2l-4-8-3-4v-2z" fill="#E8E8F9"/>
<path transform="translate(1126,1117)" d="m0 0h2v9l-1 7h-13l7-11z" fill="#C7DEF0"/>
<path transform="translate(1217,1053)" d="m0 0 2 1-1 5-4 4-1 48h-1l-1-43-2-2-2 4v-7l3-5 3-3z" fill="#B7CAD4"/>
<path transform="translate(1590,713)" d="m0 0h28l-1 2-20 1-4 1 2 2v3h2l9 16-2 7-2 1 1-8-8-13-3-4-2 1z" fill="#ADC7DD"/>
<path transform="translate(1630,862)" d="m0 0h1l2 43 1 11v9h-3l-2-44v-12z" fill="#ADC5DB"/>
<path transform="translate(1761,881)" d="m0 0h1l1 10-2 28-1 5h6v1h-18v-1h10v-16l1-16z" fill="#C5DCEE"/>
<path transform="translate(1183,995)" d="m0 0 4 2 7 9 2 5h-2l4 6-1 2-5-4-9-14-1-4z" fill="#4A6783"/>
<path transform="translate(1655,1012)" d="m0 0 1 4-3 9h34l-1 5-4 4 2-6h-31l-2-1v-5z" fill="#B0C9DE"/>
<path transform="translate(1605,806)" d="m0 0h2l1 5 2 1 1 6-5-5-5 8-8 16-6 11-2-1 10-21 4-8h2l1-5h2z" fill="#91ADC7"/>
<path transform="translate(1162,1132)" d="m0 0 15 1 1 3-3 1h-11l-8-2-28-1v-1z" fill="#C5DCEF"/>
<path transform="translate(1783,831)" d="m0 0h3l-2 5-3 5v5l2 6h-2l-1-3-3-1-1 5-4 7h-2l-1 6-3 1v-3h2l2-6 7-13v-6h2z" fill="#BCD4E8"/>
<path transform="translate(1224,1040)" d="m0 0h17l5 1v2h28v1h-48z" fill="#7390AF"/>
<path transform="translate(1616,721)" d="m0 0 1 2-5 10-4 6v6h2l-1 4-2-5h-2l-2 5-5 9h-2l1-4 4-7 3-4 3-7 6-11 1-3z" fill="#A0BBD3"/>
<path transform="translate(1301 1e3)" d="m0 0 5 5 16 23 6 9-3 1-24-36z" fill="#BCD4E8"/>
<path transform="translate(1885,1076)" d="m0 0h40v6l-4-3-29-1-7-1z" fill="#455D79"/>
<path transform="translate(1286,1054)" d="m0 0 5 5 14 20 5 7v3h-2l-7-11-13-18-2-3z" fill="#BED5E9"/>
<path transform="translate(1572,663)" d="m0 0h18v30h-1v-29l-13 1-5 4-6 8h-2l-1 3-2-1 5-6 1-3 5-4z" fill="#C6DDEF"/>
<path transform="translate(1443,1045)" d="m0 0h2v14l1 1v-14h1v14h16v1l-18 1-3 1v-11z" fill="#B2C9DE"/>
<path transform="translate(1365,1103)" d="m0 0 2 2 1 12v12l-4 1-1-1v-16h1l1 6z" fill="#567E9B"/>
<path transform="translate(1017,980)" d="m0 0 2 1 2 9 7 6v2l-5-2-5-4h-11v-2l10-1z" fill="#A1BCD4"/>
<path transform="translate(1763,761)" d="m0 0 28 1-1 11h-1v-10l-25 1-10 4-5 4 2-4 8-6z" fill="#B5CEE3"/>
<path transform="translate(1792,822)" d="m0 0h1l1 9v18l-1 9h-1l-1-17v-17z" fill="#C1D8EB"/>
<path transform="translate(1361,1099)" d="m0 0h5l1 1v5h-1v16l-1 6h-1l-1-14v-12h-2z" fill="#4A6480"/>
<path transform="translate(1875,985)" d="m0 0h7v22h-7l4-1v-16l-1-3z" fill="#556F8C"/>
<path transform="translate(1903,985)" d="m0 0h22v9l-3-6-8-1-8 1-1 5h-1z" fill="#455D79"/>
<path transform="translate(1766,801)" d="m0 0h1v7l6-2-2 7-2 3h-2v2h-2z" fill="#BED6EA"/>
<path transform="translate(1903,1030)" d="m0 0h20l-2 2-15 1-1 16h-1z" fill="#46627E"/>
<path transform="translate(1590,713)" d="m0 0h28l-1 2-27 1z" fill="#B7CBDE"/>
<path transform="translate(1923,1030)" d="m0 0h3v17l-1 5-4-1 3-1-1-17h-2v-2z" fill="#536C89"/>
<path transform="translate(1878,1030)" d="m0 0h4v22l-3-1v-19l-3-1z" fill="#57718E"/>
<path transform="translate(1663,983)" d="m0 0 1 4-7 25h-1l1-10 1-2-2-1 4-8z" fill="#B5CADC"/>
<path transform="translate(1793,849)" d="m0 0h1l1 12v17l-2-1-1-7-2-5h2z" fill="#B7D0E5"/>
<path transform="translate(1150,1058)" d="m0 0 5 1v9l-3-1v2h-2z" fill="#E1CE8C"/>
<path transform="translate(1066,963)" d="m0 0h2l1 7h8v2l-9 1-6 6-2-1 6-6z" fill="#9CB7D0"/>
<path transform="translate(1600,882)" d="m0 0 4 4 1 5h2l3 8 1 4-1-2h-2l-1-4-3 1-1-8-3-6z" fill="#91ADC6"/>
<path transform="translate(1595,826)" d="m0 0 2 3-10 19-2-1z" fill="#A9C4DB"/>
<path transform="translate(1785,890)" d="m0 0 1 4h-2l-1 4-3 5-2 5-3-9-1-4 5 4z" fill="#BCD3E6"/>
<path transform="translate(1903,941)" d="m0 0h22v7l-3-4-5-1h-12l-1 4z" fill="#455D79"/>
<path transform="translate(1764,739)" d="m0 0h29l3 2h-6v8h-1l-1-8-24-1z" fill="#B0CAE0"/>
<path transform="translate(1762,841)" d="m0 0h1l1 27-1 2h-2z" fill="#C3DAED"/>
<path transform="translate(1903,896)" d="m0 0h23l-1 5-2-2-4-1-13-1-2 4z" fill="#455F7B"/>
<path transform="translate(1947,1088)" d="m0 0 6 5 1 7-2 1-2-5-3-2z" fill="#B3CBDF"/>
<path transform="translate(1860,941)" d="m0 0h22l-1 7-2-3v-2h-17l-2 2z" fill="#455F7B"/>
<path transform="translate(1572,663)" d="m0 0h3l-2 4-8 10h-2l-1 3-2-1 5-6 1-3 5-4z" fill="#96B1CB"/>
<path transform="translate(1605,739)" d="m0 0 2 4-2 1-2 5-5 9h-2l1-4 4-7 3-4z" fill="#9BB7CF"/>
<path transform="translate(1574,694)" d="m0 0m-1 1 1 2-11 14h-3l9-12h2z" fill="#A7C2D9"/>
<path transform="translate(1666,971)" d="m0 0h2l-3 12-2-3v-2l-2-1z" fill="#B5CADE"/>
<path transform="translate(1300,1073)" d="m0 0 4 5 6 8v3h-2l-7-11z" fill="#BAD3E7"/>
<path transform="translate(1363,1113)" d="m0 0h1l1 9 2-1v8l-3 1-1-1z" fill="#5E809D"/>
<path transform="translate(1645,1089)" d="m0 0 1 3h3l-2 7-4 1z" fill="#B6CADD"/>
<path transform="translate(1348,1070)" d="m0 0 5 5 5 7v2h-2l-8-11z" fill="#BBD4E8"/>
<path transform="translate(1461,1016)" d="m0 0h7v4l-9-1-6 1v-2z" fill="#4A6682"/>
<path transform="translate(1783,784)" d="m0 0h3l-2 4-4 7-3 2v-4h2l2-5z" fill="#C6DDEF"/>
<path transform="translate(999,939)" d="m0 0 5 1-1 5-4-1-1-4z" fill="#F4F4FC"/>
<path transform="translate(1801,766)" d="m0 0 4 1 10 10v2h-2l-7-8z" fill="#C0D6E8"/>
<path transform="translate(1634,694)" d="m0 0h5l6 8-1 2-7-7z" fill="#95B0CA"/>
<path transform="translate(1027,900)" d="m0 0 5 1-1 4h-5v-4z" fill="#F8F8FD"/>
<path transform="translate(1803,744)" d="m0 0 5 2 7 8-1 2-9-9-2-1z" fill="#C3D9EC"/>
<path transform="translate(1278,1044)" d="m0 0 4 1 5 9h-3z" fill="#BAD2E7"/>
<path transform="translate(1375,1039)" d="m0 0 3 4h-20v-1l17-1z" fill="#7390AF"/>
<path transform="translate(1859,1030)" d="m0 0h14l-3 2-10 1z" fill="#48607D"/>
<path transform="translate(1159,716)" d="m0 0 1 3-4 4-5 1-2-1v-2l7-2z" fill="#4A6581"/>
<path transform="translate(1375,1036)" d="m0 0 5 1 1 5h-4z" fill="#F1F4F9"/>
<path transform="translate(1272,1034)" d="m0 0h2l6 10-4-1-4-6z" fill="#C0D7EA"/>
<path transform="translate(1619,833)" d="m0 0 4 4 3 9-2-1v-2h-2z" fill="#89A7C1"/>
</svg>