<svg xmlns="http://www.w3.org/2000/svg" version="1.1" viewBox="0 0 2048 812">
<path transform="translate(0)" d="m0 0h2048v812h-2048z" fill="#DAD2F3"/>
<path transform="translate(1624,349)" d="m0 0h34l18 4 16 5 21 10 11 7 11 9 11 10 9 11 8 11 8 16 4 10 5 14 4 17 1 11v13l-1 14-3 17 13-3 17-3 32-6 3-24 2-9 3-13-11-1-32-5v9h-6l-1-12-1-2 20-4 33-6 5-31 4-29 3-16 1-2 2-18h1l-1 24-3 12-3 18-3 24-3 15 2 1-3 1-2 20 12-9 2 1-11 9-1 3h29l-2 4-10 9-4 1-11-9h-1l11 10-2 4-11 9-4 6 1 5h-5l-1 4 9-2 10 9 4 3 4-2 13-11 1 3 4 1-9 2-9 8 1 4 14 12 4 2 6-1-1-4v-9l2 4v7l22-3 28-6 8-1-20-5-33-6-6-2 4-1 53 10 10 3-1 2h-2v13h-6v-12l-12 3-24 5-19 3-7 2v3l-10-2 3-3-11-10-6-4-11 9-2-1 11-10-5-5-7-6-10 1-2 16-1 9-2-3 1-9 1-11 1-2-15 4-35 6-12 2 2 1 1 9-2 6h-4v-6h-2l-3 9-8 16-10 15-11 12-13 13-8 7-7 9-6 12-4 14-2 20h19l3 3v9l-4 4-4 1-1 8-5 1-139 5-11 1-5 2 2-4 7-2v-4l-7-2-3-4v-9l3-3 12-4v-2l5-1-2-24-1-1-2-10-6-12-12-12-11-9-12-12-10-14-8-14-6-12-3-10-5 2-16 12-19 12-6 4-1 12h18v67l-1 1h-17v125l157-1-26-18-7-5-9-3-5-4-9-3-2-4 1-9 5-3 5-1v-5l-6-1-2-5 2 1h31l93-4 35-2 4-1v-9l-5-1v-1h6l2 1v9l-5 5-4 1-1 8h7v2l-93 3-52 2-13 1-7 1v8l1 3 30-1 98-4 20-1h15l-1 2h-5v9l-6 4-9 2-19 14-12 8h-2v2h105l2-5 2-3h29v-9l3-17 4-30 2-9 2-13 2-4v6h98l1-1-9-7-15-12-14-11-10-8-4 2-13 11-10 8-16 13-2-1 10-9 14-11 10-8 8-7-5-5-13-11-5-5 5 2 9 8 9 7h5l14-12 10-8-3-2 11-4h2v-2h-27l-44-1v-1h70v-2h-2l1-2 2 1v-9l2-4 2 19 19-3 25-5 17-3v-2l-9-1-45-9-9-1 4-2 8 1 31 6 25 5 2 1v2l-3 1-1 11-1 1h-5v-10l-31 6-18 4-9 1 2 6 3 20 3 16 3 26 1 1 2 16 3 17 6 40v4h29l2 2v5h77v2h-872v-2h23l2-1-4-7v-6h5l1 1 1-18 6-5 6 5 8 16v7l-2 7 4-2 5-14v-14h-3l-1 15-2 1-2-9-1-4 4-5 5-1 4 5 1 15-2 11h2l1-11 6-4h8l1-6 3-3v-64l-9-1v-38l1-1 9-1-2-5-17-16-7-7-26-1-4-2 1-3 8-1v-8l4-1 1 1 1 7 6 1v-8h4l1 1v6l21-3 18-6 23-10 25-12 17-10 14-10 10-8 6-5 14-16 1-2h-6l-2-2v-4h14v-3h-4l1-5 4-9h3l3 7 2 4h-2v5h12l2-5h2v-4l-4 7h-2v-6l3-4 2-4 2 2 2 5 1 5-2 1-1 3h100v-26l-1-34-1-6 5-9 6-1v2l-6 3-2 5 1 9 53-1 5-2 2-2v-11l-16-3-3-5-4-4-4-2h-9l-8 5-3 3-2 5-3 1 1-7 8-16 10-14 9-11 8-8 13-10 18-11 16-7 22-6z" fill="#7790A1"/>
<path transform="translate(1375,498)" d="m0 0h3l3 7 2 4h-2v5h12l2-5h2v-4l-4 7h-2v-6l3-4 2-4 2 2 2 5 1 5-2 1-1 3h100v-6h1l4 19 7 21 8 17-1 2-8-15-4-10-2-6-5 2-16 12-19 12-6 4-1 12h18v67l-1 1h-17v125l157-1-26-18-7-5-9-3-5-4-9-3-2-4 1-9 5-3 5-1v-5l-6-1-2-5 2 1h31l93-4 35-2 4-1v-9l-5-1v-1h6l2 1v9l-5 5-4 1-1 8h7v2l-93 3-52 2-13 1-7 1v8l1 3 30-1 98-4 20-1h15l-1 2h-5v9l-6 4-9 2-19 14-12 8h-2v2h105l2-5 2-3h29v-9l3-17 4-30 2-9 2-13 2-4v6h98l1-1-9-7-15-12-14-11-10-8-4 2-13 11-10 8-16 13-2-1 10-9 14-11 10-8 8-7-5-5-13-11-5-5 5 2 9 8 9 7h5l14-12 10-8-3-2 11-4h2v-2h-27l-44-1v-1h70v-2h-2l1-2 2 1v-9l2-4 2 19 19-3 25-5 17-3v-2l-9-1-45-9-9-1 4-2 8 1 31 6 25 5 2 1v2l-3 1-1 11-1 1h-5v-10l-31 6-18 4-9 1 2 6 3 20 3 16 3 26 1 1 2 16 3 17 6 40v4h29l2 2v5h77v2h-872v-2h23l2-1-4-7v-6h5l1 1 1-18 6-5 6 5 8 16v7l-2 7 4-2 5-14v-14h-3l-1 15-2 1-2-9-1-4 4-5 5-1 4 5 1 15-2 11h2l1-11 6-4h8l1-6 3-3v-64l-9-1v-38l1-1 9-1-2-5-17-16-7-7-26-1-4-2 1-3 8-1v-8l4-1 1 1 1 7 6 1v-8h4l1 1v6l21-3 18-6 23-10 25-12 17-10 14-10 10-8 6-5 14-16 1-2h-6l-2-2v-4h14v-3h-4l1-5z" fill="#4B5D68"/>
<path transform="translate(1850,516)" d="m0 0h5l10 9 3 3-11 10 6-4 6-5 8 6 10 9-1 2 6 2 1-3 7-1 5 33 1 10 6 2v1l59 12v2l-12 3-25 5-22 4-3-1-2-15v10h-2v2l-26 1 27 1v2l-9 4-2 4-13 11-10 8-7-1-10-9-9-7 5 5 13 11 4 4-12 11-13 10-16 13 3-2 14-11 16-13 8-7 5 2 13 11 14 11 11 9 8 6-2 2h-96l-3-3-2 13-3 15-3 24-3 17-1 9-29 1-4 7h-105v-2l14-9 19-14 9-2 5-3 1-9 5-1h-14l-90 4-54 2-4-1-2-3 1-8 7-2 13-1 80-3 38-1h27v-2h-7v-8l8-4 1-2 1-9h-3l1 1v9l-5 2-59 3-69 3h-31v3h6l1 1v5l-9 4h-2v9l1 3 10 4 5 4 9 3 12 8 18 13 3 3h-158v-125l17-1 1-67h-18v-12l10-7 16-10 19-14 3 1 3 10 8 16 10 16 9 11 10 10 11 9 11 11 6 12 2 10 1 1 1 24-5 1v2l-4 3-9 3-1 1v9l4 4 6 2-1 5-8 3 4-1 11-1 139-5h5v-8l7-2 1-3v-11l-21-1v-14l3-14 5-13 7-11 10-10 8-7 14-14 10-14 6-10 9-20h2v6l4-1 1-8v-6l-3-1 1-1 24-4 23-4 12-3h3l-1 13v3l2-16z" fill="#DAD2F3"/>
<path transform="translate(1624,349)" d="m0 0h34l18 4 10 3 1 2 17 7 19 11 13 11 13 13 11 15 11 21 8 24 3 14 1 12v11l-2 19-6 24-10 22-3 5-2 1h-28v-53l7-3-2-5-11-14-7-11-14-21h-101l-6 9-7 10-1 4-4 4-8 1-6-3-5-4h-6l-4 6h-5l-2-2-6 1-3 3-2 11-5 2-2 4-1 6 8 8 2 8 4 4h15l-2 35-3 1-36-1-8-16-5-12-6-21-2-12v-19l-1-34-1-6 5-9 6-1v2l-6 3-2 5 1 9 53-1 5-2 2-2v-11l-16-3-3-5-4-4-4-2h-9l-8 5-3 3-2 5-3 1 1-7 8-16 10-14 9-11 8-8 13-10 18-11 16-7 22-6z" fill="#FDCC70"/>
<path transform="translate(1441,560)" d="m0 0h3l1 9-3 3-13 6-9 4-20 7-21 7-12 3-28 5 10-1 18-3 26-8 11-3 10-4 11-4v65h19v125h-143l-2-11-1-1-1-7-4-1-4 4-4-2-2-2h-4l-1 11-5 1-6-4-3-1-2-10-7-5v-64l10-1 1-38h-12l1-6 12-11 8-7 7-6 27-1 1-3 16-2 20-5 9-2 23-7 20-8 19-9 19-10z" fill="#DAD2F3"/>
<path transform="translate(1501,535)" d="m0 0 3 1 3 10 8 16 10 16 9 11 10 10 11 9 11 11 6 12 2 10 1 1 1 24-5 1v2l-4 3-9 3-1 1v9l4 4 6 2-1 5-8 3-1 2v10l3 1v2h6l1 1v5l-9 4h-2v9l1 3 10 4 5 4 9 3 12 8 18 13 3 3h-158v-125l17-1 1-67h-18v-12l10-7 16-10z" fill="#DAD2F3"/>
<path transform="translate(1375,498)" d="m0 0h3l3 7 2 4h-2v5h12l2-5h2v-4l-4 7h-2v-6l3-4 2-4 2 2 2 5 1 5-2 1-1 3h100v-6h1l4 19 7 21 8 17-1 2-8-15-4-10-2-6-5 2-16 12-19 12-6 4-1 12h18v67l-46-1-1-1v-62l6-4v-2l9-4h2v-11l-14 7-19 10-22 10-36 12-16 3-15 4h-12l-1 4-29 1-2 4-8 7-13 11-3 7h12v36l-6 1h-20l-1 2v-38l1-1 9-1-2-5-17-16-7-7-26-1-4-2 1-3 8-1v-8l4-1 1 1 1 7 6 1v-8h4l1 1v6l21-3 18-6 23-10 25-12 17-10 14-10 10-8 6-5 14-16 1-2h-6l-2-2v-4h14v-3h-4l1-5z" fill="#2D3543"/>
<path transform="translate(1522,570)" d="m0 0h237l-4 7-11 13-10 10-8 7-7 7-8 12-6 18-2 10-2 13h-122l-4-26-4-15-7-11-11-10-11-9-10-10-10-14z" fill="#FDCD70"/>
<path transform="translate(1850,516)" d="m0 0h5l10 9 3 3-11 10 6-4 6-5 8 6 10 9-1 2 6 2 1-3 7-1 5 33 1 10 6 2v1l59 12v2l-12 3-25 5-22 4-3-1-2-15v10h-2v2l-26 1 27 1v2l-9 4-2 4-13 11-10 8-7-1-10-9-9-7 5 5 13 11 4 4-12 11-13 10-16 13 3-2 14-11 16-13 8-7 5 2 13 11 14 11 11 9 8 6-2 2h-96l-2-1-1-13 4-22 5-34-9-1-31-7-16-3v9l-5 1-1-1v-12h-5v-3l20-3 23-5 21-4 8-1 4-30 2-13 1-2-17-2-38-7-1 3v-6l-3-1 1-1 24-4 23-4 12-3h3l-1 13v3l2-16z" fill="#353F4C"/>
<path transform="translate(1868,353)" d="m0 0h1l-1 24-3 12-3 18-3 24-3 15 2 1-3 1-2 20 12-9 2 1-11 9-1 3h29l-2 4-10 9-4 1-11-9h-1l11 10-2 4-11 9-4 6 1 5h-5l-1 4 9-2 10 9 4 3 4-2 13-11 1 3 4 1-9 2-9 8 1 4 14 12 4 2 6-1-1-4v-9l2 4v7l22-3 28-6 8-1-20-5-33-6-6-2 4-1 53 10 10 3-1 2h-2v13h-6v-12l-12 3-24 5-19 3-7 2v3l-10-2 3-3-11-10-6-4-11 9-2-1 11-10-5-5-7-6-10 1-2 16-1 9-2-3 1-9 1-11 1-2-15 4-35 6-12 2 2 1 1 9-2 6h-4v-6h-2l-3 9-8 16-10 15-11 12-13 13-8 7-7 9-6 12-4 14-2 20h19l3 3v9l-4 4-4 1-1 8-5 1-139 5-11 1-5 2 2-4 7-2v-4l-7-2-3-4v-9l3-3 12-4v-2l5-1-2-24-1-1-2-10-6-12-12-12-11-9-12-12-10-14-2-5 40 1v-14l1-16 1-5-6 1h-9l-5-5-3-10-6-4-1-5 4-7 5-2 1-11 6-5 5 1 6 2 2-5 2-2h6l8 6 5 1 6-1 3-3-2 7h-9l-8-4-4-3-4-1-2 5-4 3-5-1-1-1h-7l-2 13-8 7 1 5 6 3 2 9 4 4 6 1v-2l-5-4v-5l5 1 6 3-1-16-1-6h4l2 8 1 7 2 1 2-3h4v11l1-3 5-3h5v6l-1-2-5 1 1 4h3v2h-2l-1 2v-2h-7v36h6l1-21h1l1 24h-57l6 9 8 10 8 8 11 9 10 9 7 11 5 19 2 14v8h122l2-19 5-17 5-10 8-10 11-11 8-7 7-7 10-13 1-2-29-1 1-55h-95v-3l2-1 11-1h75l12 1-1-4-7-10-18-27-2-5h-2v-3l-10 1h-88l-3 1-8 11-5 7-1-2 8-11 6-9h101l7 10 18 27 10 13-1 3-7 2v53l30-1 2-5 10-22 6-24 2-19v-11l-2-17-5-19-6-16-10-19-12-16-15-15-14-10-18-10-13-5-1-2 6 1 21 10 11 7 11 9 11 10 9 11 8 11 8 16 4 10 5 14 4 17 1 11v13l-1 14-3 17 13-3 17-3 32-6 3-24 2-9 3-13-11-1-32-5v9h-6l-1-12-1-2 20-4 33-6 5-31 4-29 3-16 1-2z" fill="#86A1B5"/>
<path transform="translate(1818,690)" d="m0 0h102l8 52 3 21h-123l1-13 3-24 2-9z" fill="#DAD2F3"/>
<path transform="translate(1912,589)" d="m0 0 8 1 31 6 25 5 2 1v2l-3 1-1 11-1 1h-5v-10l-31 6-18 4-9 1 2 6 3 20 3 16 3 26 1 1 2 16 3 17 6 40v4h29l2 2v5h77v2h-425l-3-5-13-9-14-10-3-3 18-1 102-1v2l-17 12-10 7-6 4h-2v2h105l2-5 2-3h29v-9l3-17 4-30 2-9 2-13 2-4v6h98l1-1-9-7-15-12-14-11-10-8-4 2-13 11-10 8-16 13-2-1 10-9 14-11 10-8 8-7-5-5-13-11-5-5 5 2 9 8 9 7h5l14-12 10-8-3-2 11-4h2v-2h-27l-44-1v-1h70v-2h-2l1-2 2 1v-9l2-4 2 19 19-3 25-5 17-3v-2l-9-1-45-9-9-1zm-94 101-2 15-2 12-4 22-2 19v5h123l-6-41-5-32z" fill="#2D3542"/>
<path transform="translate(1371,521)" d="m0 0h18l-6 7-13 11-17 13-23 15-17 10-23 11-29 11 16-5 15-6 25-12 21-13 16-11 12-9 13-11 11-9 2-2h7l6 4 12 11 8 7 14 12 2 4-14 8-15 8-28 12-11 4-17 5-21 5-17 2h-16l-1-8-3 1-1 8h-8v-9l-4 2-1 7-1 1h-41v-3l16-6 11-5 25-11 24-13 18-12 11-9 12-11 9-10z" fill="#D8D1F2"/>
<path transform="translate(1604,463)" d="m0 0h2v4l-6 8-10 16-1 5 3 7 4 4 1-1-6-5v-11l12-16 3-2 3 5v2h2l12 18v2h2l8 11 1 3v55l-2 2h-53l-2-3-1 1h-6l-1-1v-28l1-8h10l-4-2v-4l5-1 1-4-6 2-4 1-1 4-1-1v-7l1-4-4 1-2 4-1-2-2 1-2-15-1-2h-2l2 21-1 2-11-5 2 6 5 4-1 2-7-1-5-5-2-9-6-3-1-5 8-7 2-11 3-3h5l4 2 4-1 4-6 6 1 5 4 7 2 7 1 3-9 9-12z" fill="#89A5BA"/>
<path transform="translate(1636,515)" d="m0 0h94v53h-94z" fill="#F2F3F9"/>
<path transform="translate(28)" d="m0 0h2006l-2 2h-11l-9 1h-1880l-66-1h-29l-9-1z" fill="#F4F5FA"/>
<path transform="translate(1869,353)" d="m0 0h1l2 13 5 30 5 34 2 10v9l30 5 12 3 11 1v4 11l-1 1h-6v-7l1-4-15 3-23 4-4 1 1 10 3 17 1 18h-1l-1-7-7 4-10 9-5 4-4-2-11-9h-4-6l1-5h4l-1-4 4-6 10-9 3-2-2-4-10-9 1-2 11 10 4 1 11-9 3-4h-29l1-4 10-8-5 3-7 6-2-1 2-18 3-3-1-5 4-25 2-15 4-23 1-2z" fill="#2F3745"/>
<path transform="translate(1831,615)" d="m0 0 8 6 13 11 11 9 5 5-12 11-13 10-16 13 3-2 14-11 16-13 8-7 5 2 13 11 14 11 11 9 8 6-2 2h-96l-2-1 3-23 2-13 5-32z" fill="#D9D1F2"/>
<path transform="translate(1440,572)" d="m0 0 5 1v4l-3 1 29 1 1 1 2-2v67l-46-1-1-1v-62l6-4v-2z" fill="#88A4B9"/>
<path transform="translate(1315,567)" d="m0 0 2 1-10 6-19 10-19 8-11 5-16 6v1h41l1-7 2-2h3v9h8v-8l4-1 1 2v6l26-1v2l-6 2h-12l-1 4-29 1-2 4-8 7-13 11-3 7h12v36l-6 1h-20l-1 2v-38l1-1 9-1-2-5-17-16-7-7-26-1-4-2 1-3 8-1v-8l4-1 1 1 1 7 6 1v-8h4l1 1v6l21-3 18-6 23-10 25-12z" fill="#2D3543"/>
<path transform="translate(1264,674)" d="m0 0 2 4-1 1h-10l1 64 7 5 1 10 5 1 4 3h4l1-11 5-1 4 4 4-2 2-2 4 1 1 1 1 7 2 4-1 9-4 1h-127v-2h23l2-1-4-7v-6h5l1 1 1-18 6-5 6 5 8 16v7l-2 7 4-2 5-14v-14h-3l-1 15-2 1-2-9-1-4 4-5 5-1 4 5 1 15-2 11h2l1-11 6-4h8l1-6 3-3v-64l-8-1v-2l7-1h17z" fill="#2B3240"/>
<path transform="translate(1605,472)" d="m0 0 3 3 1 4h2l12 18v2h2l8 11 1 3v55h-17v-46h-23v46h-15v-34l11 1 1-14 6-7 3-2v-4l-8-6-1-1v-11l12-16z" fill="#D7D1F1"/>
<path transform="translate(1432,576)" d="m0 0 2 1-6 4v62l45 1v2h-17v125l157-1-13-9-9-7 2-1 18 13 5 4v3h-320l4-1 1-3v2h143v-125h-19l-1-64-20 8-17 5-20 6-22 4h-14v-1l26-4 25-6 10-3 8-3 12-4 8-3z" fill="#4B5D69"/>
<path transform="translate(1836,558)" d="m0 0 2 3-1 12-3 14 26-5h5l-2 5-16 13-11 9-1-2 11-9 8-7 7-6-27 4-2 18-1 4h3l1 5 4 2 21 3h20l10-2h7l-1 4-14 12-10 8-7-1-10-9-9-7-5-2-9-7-2 2-5 32-3 18-2 15-2-3 1-13 3-16 5-34-9-1-31-7-16-3v9l-5 1-1-1v-12h-5v-3l20-3 23-5 21-4 8-1z" fill="#333D4A"/>
<path transform="translate(1868,353)" d="m0 0h1l-1 24-3 12-3 18-3 24-3 15 2 1-3 1-2 20 12-9 2 1-11 9-1 3h29l-2 4-10 9-4 1-11-9h-1l11 10-2 4-11 9-4 6 1 5h-5l-1 4 9-2 10 9 4 3 4-2 13-11 1 3 4 1-9 2-9 8 1 4 14 12 4 2 6-1-1-4v-9l2 4v7l22-3 28-6 8-1-20-5-33-6-6-2 4-1 53 10 10 3-1 2h-2v13h-6v-12l-12 3-24 5-19 3-7 2v3l-10-2 3-3-11-10-6-4-11 9-2-1 11-10-5-5-7-6-10 1-2 16-1 9-2-3 1-9 1-11 1-2-15 4-35 6-13 2v-6l1 4 13-3 17-3 32-6 3-24 2-9 3-13-11-1-32-5v9h-6l-1-12-1-2 20-4 33-6 5-31 4-29 3-16 1-2z" fill="#3B4754"/>
<path transform="translate(1717,691)" d="m0 0h5l2 3v9l-5 2-59 3-69 3h-31-3l-1-2v-8l6-3 11-1 139-5z" fill="#88A4B8"/>
<path transform="translate(1723,717)" d="m0 0 3 2v9l-4 3h-15l-90 4-54 2-4-1-2-3 1-8 7-2 13-1 80-3z" fill="#88A3B8"/>
<path transform="translate(1601,745)" d="m0 0h98l-5 5-17 12-11 8-3 1h-45l-14-9-15-11-6-4v-1z" fill="#89A5BA"/>
<path transform="translate(1866,583)" d="m0 0h5l12 10 14 11 6 4v2h2v2l-26 1 27 1v2l-7 3-19 3h-20l-21-3-5-3-1-3 1-2h-3l2-19 1-3 9-2 19-3-6 7-9 7-10 9 2-1 11-10 12-9z" fill="#D8D1F1"/>
<path transform="translate(1561,481)" d="m0 0h6l8 6 5 1 6-1 3-3-2 7h-9l-8-4-4-3-4-1-2 5-4 3-5-1-1-1h-7l-2 13-8 7 1 5 6 3 2 9 4 4 6 1v-2l-5-4v-5l5 1 6 3-1-16-1-6h4l2 8 1 7 2 1 2-3h4v11l1-3 5-3h5v6l-1-2-5 1 1 4h3v2h-2l-1 2v-2h-7v36h6l1-21h1l1 24h-57l6 9 8 10 8 8 11 9 10 9 7 11 5 19 2 14v8h122l1-9h1v10l-5 1-43 1-78 3h-11l3-4h2v-2l5-1-2-24-1-1-2-10-6-12-12-12-11-9-12-12-10-14-2-5 40 1v-14l1-16 1-5-6 1h-9l-5-5-3-10-6-4-1-5 4-7 5-2 1-11 6-5 5 1 6 2 2-5z" fill="#2F3744"/>
<path transform="translate(1869,364)" d="m0 0h1l7 44 3 20 2 17-4 1 1 2h4l2 10 1 12-8 1h-23l2-4 9-7-5 3-7 6-2-1 2-18 3-3-1-5 4-25 2-15 4-23 1-2 1-11z" fill="#D8D1F1"/>
<path transform="translate(1686,357)" d="m0 0 6 1 21 10 11 7 11 9 11 10 9 11 8 11 8 16 4 10 5 14 4 17 1 11v13l-1 14-4 20h3l1 9-2 6h-4v-6h-2l-3 9-8 16-10 15-11 12-13 13-8 7-7 9-6 12-4 14-2 10h-1v-9l5-17 5-10 8-10 11-11 8-7 7-7 10-13 1-2-29-1 1-55h-95v-3l2-1 11-1h75l12 1-1-4-7-10-18-27-2-5h-2v-3l-10 1h-88l-3 1-8 11-5 7-1-2 8-11 6-9h101l7 10 18 27 10 13-1 3-7 2v53l30-1 2-5 10-22 6-24 2-19v-11l-2-17-5-19-6-16-10-19-12-16-15-15-14-10-18-10-13-5z" fill="#303947"/>
<path transform="translate(1625,398)" d="m0 0h10l9 5 4 8v3h10l7 4 1 2v11l-3 3h-63l-3-5v-7l4-6 3-2 7-1 5-9 5-4z" fill="#F0F1F8"/>
<path transform="translate(1707,730)" d="m0 0h15l-1 2h-5v9l-6 4-109 1-17 1 8 5-2 2-10-7-9-3-2-2v-3l2-1 18-1v-2l98-4z" fill="#4D606B"/>
<path transform="translate(1723,668)" d="m0 0h2l1 2v9l-4 4-4 1-1 8-5 1-139 5-11 1-5 2 2-4 7-2v-4l-6-2v-1l10-1 114-5h19l19-2 1-2z" fill="#4F626D"/>
<path transform="translate(1596,513)" d="m0 0 2 1-6 7-1 11-1 3h-9l-2-1v34h15v-46h23v46h16l-1 2h-53l-2-3-1 1h-6l-1-1v-28l1-8h10l-4-2 1-2 4 1 1 4 7 1v-12l3-5z" fill="#5A6F7C"/>
<path transform="translate(1831,615)" d="m0 0 8 6 13 11 11 9 5 5-12 11-13 10-16 13-4 5-2 3-2-1 3-23 2-13 5-32z" fill="#D7D0F1"/>
<path transform="translate(1907,615)" d="m0 0 2 3 2 15 3 16 5 34h-3l-14-12-9-7-14-11-7-6 1-4 11-9 14-12 8-5z" fill="#D7D1F1"/>
<path transform="translate(1912,589)" d="m0 0 8 1 31 6 25 5 2 1v2l-3 1-1 11-1 1h-5v-10l-31 6-18 4-9 1 2 6 3 20 3 16 3 26 1 1 2 16 3 17 4 26-1 9h-1l-9-58v-7h-102l-1 15-2 12-4 22-3 24-2-2 1-15 2-9 4-30 2-9 2-13 2-4v6h98l1-1-9-7-15-12-14-11-10-8-4 2-13 11-10 8-16 13-2-1 10-9 14-11 10-8 8-7-5-5-13-11-5-5 5 2 9 8 9 7h5l14-12 10-8-3-2 11-4h2v-2h-27l-44-1v-1h70v-2h-2l1-2 2 1v-9l2-4 2 19 19-3 25-5 17-3v-2l-9-1-45-9-9-1zm-5 26-4 4-11 8-11 10-9 7 1 4 12 10 20 16 12 10 2-1-5-34-4-23-2-11z" fill="#3D4A57"/>
<path transform="translate(1524,426)" d="m0 0h9l7 4 4 5v3h7l9 3 1 2v9l-4 4-4 1h-53l-2-5 1-7 5-5h3l1-2v3l3-2 2-5 7-6z" fill="#F1F3F9"/>
<path transform="translate(1889,509)" d="m0 0h3l2 5 1 2 4 1 4 2 42 8 13 3-2 2-48 9h-10l-1-7v9l-7 2-13-11-6-5 1-4 11-9 3-1 1-4z" fill="#D7D1F1"/>
<path transform="translate(1371,521)" d="m0 0h18l-6 7-13 11-17 13-23 15-17 10-23 11-30 11-4 2-4-1 1-2 41-18 24-13 18-12 11-9 12-11 9-10z" fill="#D1CDEC"/>
<path transform="translate(1649,521)" d="m0 0h28v31l-5 1h-23z" fill="#768FA0"/>
<path transform="translate(1689,521)" d="m0 0h27v32h-22l-6-1v-30z" fill="#7992A3"/>
<path transform="translate(1907,590)" d="m0 0 15 2 49 10v2l-12 3-25 5-22 4-3-1-2-19z" fill="#D6D0F0"/>
<path transform="translate(1828,590)" d="m0 0h4l-2 19-1 7-11-1-12-3-17-3-22-5v-2l12-2 2-1 13-2 7-2 23-4z" fill="#D6D0F0"/>
<path transform="translate(1686,357)" d="m0 0 6 1 21 10 11 7 11 9 11 10 9 11 8 11 8 16 4 10 5 14 4 17 1 11v13l-1 14-4 20h3l1 9-2 6h-4v-6h-2l-3 9-8 16-10 15-11 12-13 13-8 7-7 9-6 12-4 14-2 10h-1v-9l5-17 5-10 8-10 11-11 8-7 7-7 10-13 1-2-29-1 1-55h1l1 5v48l30-1 2-5 10-22 6-24 2-19v-11l-2-17-5-19-6-16-10-19-12-16-15-15-14-10-18-10-13-5z" fill="#485864"/>
<path transform="translate(1860,584)" d="m0 0 2 1-10 9-11 9-4 4h-2l1 3 61 1v1l-18 1 27 1v2l-7 3-19 3h-20l-21-3-5-3-1-3 1-2h-3l2-19 1-3 9-2z" fill="#D2CDED"/>
<path transform="translate(1868,489)" d="m0 0 4 2 16 13 1 3-6 8-11 9-4 2-14-12-9 1 1-5h4l-1-4 13-12z" fill="#C4C3E0"/>
<path transform="translate(1203,735)" d="m0 0 6 5 8 16v7l-2 7 4-2 5-14v-14h-3l-1 15-2 1-2-9-1-4 4-5 5-1 4 5 1 15-2 12-1 1-7 1h-20l-6-7v-5l3-1 1-18z" fill="#FCCD74"/>
<path transform="translate(1597,523)" d="m0 0h17v45h-17z" fill="#ECEBF7"/>
<path transform="translate(1840,518)" d="m0 0h3l-1 13-2 10-2 1-2-1-16-2-28-5-12-3 1-2 24-4 23-4z" fill="#D6D0F0"/>
<path transform="translate(1242,642)" d="m0 0h21l1 1v33l-4 1h-19v-16z" fill="#8FA7BD"/>
<path transform="translate(1856,442)" d="m0 0 1 3h23l-2 1 1 2h4l2 10 1 12-8 1h-23l2-4 9-7-5 3-7 6-2-1 2-18 3-3z" fill="#3D4956"/>
<path transform="translate(1441,560)" d="m0 0h3l1 9-3 3-13 6-9 4-20 7-21 7-12 3-28 5-1 2h-16l4-2 20-5 9-2 23-7 20-8 19-9 19-10z" fill="#D2CDED"/>
<path transform="translate(1561,481)" d="m0 0h6l8 6 5 1 6-1 3-3-2 7h-9l-8-4-4-3-4-1-2 5-4 3-5-1-1-1h-7l-2 13-8 7 1 5 6 3 2 9 4 4 6 1v-2l-5-4v-5l5 1 6 3-1-16-1-6h4l2 8 1 7 2 1 2-2v7h-2l-1 5 4 1v13l-2 26h-4v-21l1-15-9 2h-9l-5-5-3-10-6-4-1-5 4-7 5-2 1-11 6-5 5 1 6 2 2-5z" fill="#343E4B"/>
<path transform="translate(1841,555)" d="m0 0h54l-2 4-10 9-13 10h-3l-14-11-12-10z" fill="#D7D0F1"/>
<path transform="translate(1410,522)" d="m0 0h34v32l-4-2-7-7-8-7-15-13z" fill="#D8D1F1"/>
<path transform="translate(1841,620)" d="m0 0 21 3h17l10-2h8l-5 5-10 9-10 8-7-1-10-9-13-10z" fill="#D4CFEF"/>
<path transform="translate(1889,509)" d="m0 0h3l2 5 1 2 4 1-2 1v25l-7 2-13-11-6-5 1-4 11-9 3-1 1-4z" fill="#D4CFEF"/>
<path transform="translate(1897,556)" d="m0 0h2l3 14 2 17-30-4-4-2 2-4 11-8z" fill="#D6D0F0"/>
<path transform="translate(1591,521)" d="m0 0 3 2v45h-15v-34l11 1z" fill="#DAD2F3"/>
<path transform="translate(1838,557)" d="m0 0 4 2 13 11 12 9-2 3-26 5h-5l1-7z" fill="#D6D0F0"/>
<path transform="translate(1457,522)" d="m0 0h33l-1 3-11 9-9 7-11 7h-2v-22z" fill="#D8D1F1"/>
<path transform="translate(1850,516)" d="m0 0h5l10 9 3 3-12 11-7 5h-7v-10l2-16z" fill="#D5D0F0"/>
<path transform="translate(1885,512)" d="m0 0 1 3 4 1-9 2-9 8 1 4 14 12 4 2 6-1-1-4v-9l2 4v7l22-3 28-6 8-1-20-5-33-6-6-2 4-1 53 10 10 3-1 2h-2v13h-6v-12l-12 3-24 5-19 3-7 2v3l-10-2 3-3-11-10-6-4-11 9-2-1 11-10v-2l5-3z" fill="#333D4A"/>
<path transform="translate(1836,614)" d="m0 0h70v2l-7 3-19 3h-20l-21-3-5-3z" fill="#D5CFF0"/>
<path transform="translate(1885,451)" d="m0 0 19 3 24 5 2 2-5 2-31 5-7 1-2-13z" fill="#D5D0EF"/>
<path transform="translate(1432,576)" d="m0 0 2 1-6 4v62l45 1v2h-17l-1 3-1-2-7-1-1 9h-1v-9h-20l-1-64-20 8-17 5-20 6-22 4h-14v-1l26-4 25-6 10-3 8-3 12-4 8-3z" fill="#3D4A57"/>
<path transform="translate(1723,668)" d="m0 0h2l1 2v9l-4 4h-6v7h-1l-2-6-55 2-49 3-40 2h-3l-6-2v-1l10-1 114-5h19l19-2 1-2z" fill="#2F3845"/>
<path transform="translate(1849,452)" d="m0 0h3l-1 16-13-1-19-3-12-2 1-3 21-4z" fill="#D8D1F1"/>
<path transform="translate(1702,658)" d="m0 0h1v10l-5 1-43 1-78 3h-11l5-5 65-1h65z" fill="#262C3A"/>
<path transform="translate(1701,744)" d="m0 0h2v2l-17 12-10 7-6 4h-2v2h104l-1 2h-155l-1-3h48l9-5 13-10z" fill="#465661"/>
<path transform="translate(1497,522)" d="m0 0h3l2 11-20 15-14 9-10 6h-2l1-5 11-8 16-15 7-7 5-4z" fill="#D0CDEC"/>
<path transform="translate(1624,349)" d="m0 0h34l18 4 10 3v1l-8-1-15-3-8-1h-30l-18 3-17 5-19 9-15 10-10 8-11 10-10 13-9 14-4 9 2 1-3 6-3 1 1-7 8-16 10-14 9-11 8-8 13-10 18-11 16-7 22-6z" fill="#333D4A"/>
<path transform="translate(1841,545)" d="m0 0 11 2h38l2 1 1-3h5v7l-3-1v2l-5 1h-47l-3-2v-6z" fill="#D1CDED"/>
<path transform="translate(1818,681)" d="m0 0h1v6l99 1v1l-8 1h-92l-1 15-2 12-4 22-3 24-2-2 1-15 2-9 4-30 2-9 2-13z" fill="#272D3A"/>
<path transform="translate(1518,567)" d="m0 0 37 1v2h-33l6 9 8 10 8 8 11 9 10 9 7 11 5 19 2 14v8h57v1h-65l3-2h2l-2-24-1-1-2-10-6-12-12-12-11-9-12-12-10-14z" fill="#303946"/>
<path transform="translate(1400,514)" d="m0 0h98l-1 3h-8l-3 1h-45l-8 1h-8l-5-2h-22z" fill="#4F626D"/>
<path transform="translate(1686,357)" d="m0 0 6 1 21 10 11 7 11 9 11 10 9 11 8 11 8 16 4 10 5 14 4 17 1 11v13l-1 14h-1l-1-6v-19l-2-17-5-19-6-16-10-19-12-16-15-15-14-10-18-10-13-5z" fill="#394452"/>
<path transform="translate(1778,767)" d="m0 0h45l10 1 7 3 8 1v1h-69v-2l-3-1z" fill="#4E616C"/>
<path transform="translate(1591,753)" d="m0 0 5 2 15 11 5 4v3h-147l1-2 143-1-13-9-9-7z" fill="#4B5D69"/>
<path transform="translate(1524,424)" d="m0 0h9l6 3 7 8 12 3 5 5v8l-3 5-6 3-53 1-2 28h-1l-1-34-1-6 5-9 6-1v2l-6 3-2 5 1 9 53-1 5-2 2-2v-11l-16-3-3-5-4-4-4-2h-9l-8 5-2 1 2-4 5-4z" fill="#657B8A"/>
<path transform="translate(1869,529)" d="m0 0 8 6 10 9-1 2h-35l2-4 11-9z" fill="#D5D0F0"/>
<path transform="translate(1876,585)" d="m0 0 14 1 14 3 2 7 1 14-7-4-8-7-11-9z" fill="#D2CEED"/>
<path transform="translate(1604,460)" d="m0 0h101v2l-10 1h-88l-3 1-8 11-5 7-1-2 8-11z" fill="#414F5B"/>
<path transform="translate(1234,609)" d="m0 0h15v23l-4-2-15-14-5-6z" fill="#CBC9E8"/>
<path transform="translate(1634,512)" d="m0 0 2 3v53h94l-1 2h-97l1-2z" fill="#647A89"/>
<path transform="translate(1606,464)" d="m0 0 5 3 9 13 4 6v2l3 1 9 13 1 5-4-4-9-13-8-11-2-5h-2l-1 3 1 3h2l3 5v2h2l6 9 7 10-1 2-6-7v-2h-2l-7-11-5-7v-2h-2l-3-6-5 5-9 12v11l7 6-3 1-4-2-4-10 1-5 7-11 8-11v-3z" fill="#849FB3"/>
<path transform="translate(1885,474)" d="m0 0h2l4 25v5l-4-2-16-13 2-4 10-9z" fill="#D2CEED"/>
<path transform="translate(1852,474)" d="m0 0 7 6 8 7-2 4-11 9-5 5h-2l1-11 3-18z" fill="#D5D0F0"/>
<path transform="translate(1255,610)" d="m0 0h24l-6 7-14 12-3 3h-2v-16z" fill="#D2CDED"/>
<path transform="translate(1600,529)" d="m0 0h9v29l-1 1h-6l-3-3v-20z" fill="#88A3B8"/>
<path transform="translate(1594,522)" d="m0 0h23v46h-3v-45h-17v38l-2 7h-1z" fill="#728A9B"/>
<path transform="translate(1561,481)" d="m0 0h6l8 6 5 1 6-1 3-3-2 7h-9l-8-4-4-3-4-1-2 5-4 3-5-1-1-1h-7l-2 13-8 7 1 5 6 3 2 9 4 4 6 1 3-2-1 5h-9l-5-5-3-10-6-4-1-5 4-7 5-2 1-11 6-5 5 1 6 2 2-5z" fill="#3E4C58"/>
<path transform="translate(1899,544)" d="m0 0h1l5 33-1 9h-1l-4-27v-3l-8 7-10 9-9 6-2-1 14-11 10-9 1-2-4 1h-45l-3-2 52-1v-2h2z" fill="#414E5D"/>
<path transform="translate(1250,746)" d="m0 0h7l1 1v16l-3 8h-10l1-2v-16z" fill="#4B5D69"/>
<path transform="translate(1570,531)" d="m0 0h6v37h-6l-1-1v-28z" fill="#FCCC70"/>
<path transform="translate(1854,471)" d="m0 0 30 1-2 4-10 9-4 1-11-9-3-3z" fill="#D2CEEE"/>
<path transform="translate(1258,650)" d="m0 0h3l-1 10h2l1 5-1 2h-2v-2l-15 1 1 5 4-3 9 1v4l-7-1v2h9v2l-20 1v-16h4v-5h1l1 5 11-1z" fill="#87A2B6"/>
<path transform="translate(1379,530)" d="m0 0 3 1-17 14-18 13-17 11-17 10-25 12-23 8-8 1 3-2 25-9 20-9 19-10 33-22 16-13z" fill="#333C49"/>
<path transform="translate(1567,693)" d="m0 0 1 2 44-2h47v1l-5 1-81 3-11 1-5 2 2-4 7-2z" fill="#2F3845"/>
<path transform="translate(1858,512)" d="m0 0h27l-5 5-10 9-4-2-11-9-1-2z" fill="#B3B4CF"/>
<path transform="translate(1844,625)" d="m0 0 5 2 9 8 10 8 3 1 5 6 13 10 16 13 13 11h-3l-17-14-9-7-16-13-5-2-11 10-13 10-17 14-2-1 10-9 14-11 10-8 8-7-5-5-13-11z" fill="#353F4C"/>
<path transform="translate(1452,554)" d="m0 0h2v8l1 1 1-3v3l9-5 2 1-10 7-1 12h17v61h-1l-1-59-19-1v-11l-5-2v-9z" fill="#36404D"/>
<path transform="translate(1602,414)" d="m0 0 2 1-5 5-1 2v7l2 4h63l3-2-2 4-1 1-7 1h-53l-5-2-3-6 1-9 4-5z" fill="#475563"/>
<path transform="translate(1891,451)" d="m0 0 12 1 23 5 11 1v4 11l-1 1h-6v-7l1-4-15 3-15 2-2-2 26-4 4-1-5-2-32-6z" fill="#353E4C"/>
<path transform="translate(1852,513)" d="m0 0 4 2 12 10-3 1-10-9-10 1-2 16-1 9-2-3 1-9 1-11 1-2-15 4-35 6-13 2v-6l1 4 13-3 17-3 32-6 1-1 7-1z" fill="#3E4A58"/>
<path transform="translate(1439,559)" d="m0 0h2v2l-16 9-16 8-20 9-36 12-16 3-9 2v-3l12-2 16-4 22-7 16-6 14-7 7-3 20-10z" fill="#37424F"/>
<path transform="translate(1689,521)" d="m0 0h27v31h-7v-1h5l-1-19-1-2h2l-1-6-12-1v5h-1v-6l-9 1 1 8-1 1v18l2 2h-5v-30z" fill="#4C5F6A"/>
<path transform="translate(1868,459)" d="m0 0 4 2 10 7v2l-4 1h-23l2-4z" fill="#D0D0EA"/>
<path transform="translate(1203,735)" d="m0 0 6 5 8 16v7l-3 6h-3l1-4v-9l-5-14-3-3-3 1-1 2v10l3 15-5-3-1-2v-22z" fill="#2F3845"/>
<path transform="translate(1438,629)" d="m0 0h24v7l-2 1h-21l-1-1z" fill="#EDEDF8"/>
<path transform="translate(1221,739)" d="m0 0 3 1 1 2v12l-5 14-2 2h-3l1-14-3-6 1-4 3 1 2 8 1-15z" fill="#F2EFEC"/>
<path transform="translate(1221,737)" d="m0 0 4 1 3 4 1 15-3 11h-5l1-9 2-5v-14h-3l-1 15-2 1-2-9-1-4 4-5z" fill="#343D4B"/>
<path transform="translate(1760,602)" d="m0 0h7v2l12 2 17 3 13 3 15 3-2 2-7-1-28-6-16-3v9l-5 1-1-1v-12h-5z" fill="#4A5967"/>
<path transform="translate(1562,526)" d="m0 0 2 2 4 1v13l-2 26h-4z" fill="#4F636E"/>
<path transform="translate(1782,505)" d="m0 0h1v9l-3 17h3l1 9-2 6h-4v-6h-2l-3 9-4 8-2 1 3-9 5-12 5-21z" fill="#2E3643"/>
<path transform="translate(1885,507)" d="m0 0h3l-2 5-28 1-7 2h-6l1-5 5 1v-2l3-1z" fill="#DBD5F3"/>
<path transform="translate(1448,521)" d="m0 0h5v31l-6 1v-15z" fill="#4F626D"/>
<path transform="translate(1919,767)" d="m0 0 8 1v2l8-2h16l8 1 1 2 3 2h-63v-1l15-1 3-1z" fill="#4E616C"/>
<path transform="translate(1879,448)" d="m0 0h4l2 10v11h-2l-5-5-8-6 5-5z" fill="#D4D0EE"/>
<path transform="translate(1885,512)" d="m0 0 1 3 4 1-9 2-9 8 1 4 14 12 4 2 6-1-1-4v-9l2 4 1 7 4 2-4 2-6 1v3l-10-2 3-3-11-10-6-4-11 9-2-1 11-10v-2l5-3z" fill="#323C49"/>
<path transform="translate(1423,580)" d="m0 0v3l-18 6-7 3-21 6-10 3-22 4h-14v-1l26-4 25-6 10-3 8-3 12-4 8-3z" fill="#42505D"/>
<path transform="translate(1279,750)" d="m0 0 4 1v2l4 9v2l2-1 2-7h2l1 11-2 4h-9l-2-2 2-3-1-4-2 1v-7h-2v-5z" fill="#5D717F"/>
<path transform="translate(1686,357)" d="m0 0 6 1 21 10 11 7 11 9 11 10 9 11 5 8-2 1-8-11-9-10-9-9-14-10-18-10-13-5z" fill="#303947"/>
<path transform="translate(1816,688)" d="m0 0 2 2-1 15-2 12-4 22-3 24-2-2 1-15 2-9 4-30 2-9z" fill="#4A5967"/>
<path transform="translate(1612,474)" d="m0 0h2l4 6 10 14 7 10 1 7h-2l-10-15-5-7v-2h-2l-3-5v-2h-2l-2-5z" fill="#CCCBE9"/>
<path transform="translate(1636,515)" d="m0 0h93v2l-7 1-7-1v2h-14v-2l-65-1z" fill="#DBD3F4"/>
<path transform="translate(1500,525)" d="m0 0 3 2 7 21 8 17-1 2-8-15-4-10-2-6-5 2-16 12-14 9-2-2 10-6 14-10 10-8h2l-2-5z" fill="#36414E"/>
<path transform="translate(1449,597)" d="m0 0 3 1 4 7 1 6-6 1h-9v-5l6-9z" fill="#FACB72"/>
<path transform="translate(1560,531)" d="m0 0 3 1v15l-1 21 2 1-1 1h-8l1-2h2v-14z" fill="#303946"/>
<path transform="translate(1855,449)" d="m0 0 4 2 8 6-5 5-8 7-2-1 2-18z" fill="#D4D0EE"/>
<path transform="translate(1629,396)" d="m0 0 9 1 7 5 4 7v3h8l7 3 3 4 1 3v7l-2 2-1-11-4-4-13-2-4-9-3-3-6-3h-10l-8 5-6 10h-7l2-2 4-1 6-9 5-4z" fill="#37424F"/>
<path transform="translate(1723,668)" d="m0 0h2l1 2v9l-4 4h-6v7h-1l-2-6-38 1-17-1v-1l26-1h19l19-2 1-2z" fill="#3A4653"/>
<path transform="translate(1190,757)" d="m0 0h5v2h-2l2 6 4 5h12l5 1-1 2h-46v-2h23l2-1-4-7z" fill="#313A47"/>
<path transform="translate(1558,709)" d="m0 0 2 1h75v1l-47 2h-20l-1 3-7-2z" fill="#2E3643"/>
<path transform="translate(1878,583)" d="m0 0 24 3 2 1 1-4 1 4 6 2v1h-5v10l-2-4-1-6-14-3-13-1 22 18 4 4-5-2-13-11-9-7-2-4z" fill="#3B4654"/>
<path transform="translate(1827,618)" d="m0 0h1l1 9-7 42-2 15-2-3 1-13 3-16z" fill="#3C4755"/>
<path transform="translate(1524,424)" d="m0 0h9l6 3 7 8 12 3 5 5v8l-3 5-3 2-3-1 6-5v-11l-16-3-3-5-4-4-4-2h-9l-8 5-2 1 2-4 5-4z" fill="#4D5D6C"/>
<path transform="translate(1624,349)" d="m0 0h34l18 4 10 3v1l-8-1-15-3-8-1h-40l3-2z" fill="#3B4755"/>
<path transform="translate(1437,627)" d="m0 0h26l1 3-2 2v-3h-24l1 7h25l-1 3h-27v-11z" fill="#667C8B"/>
<path transform="translate(1868,353)" d="m0 0h1l-1 24-3 12-3 18-3 24-2-3 2-19 3-20 3-16 1-2z" fill="#516371"/>
<path transform="translate(1568,532)" d="m0 0h1l1 35h6l1-21h1l1 24h-16l1-2h2v-11l1-24z" fill="#272D3B"/>
<path transform="translate(1616,522)" d="m0 0h1v46h-3v-44z" fill="#89A5BA"/>
<path transform="translate(1831,607)" d="m0 0 1 2 3-1 1 2 61 1v1l-18 1v1l-46 1 1-4h-3z" fill="#7E98AB"/>
<path transform="translate(1263,659)" d="m0 0h1v17l-4 1 1-3h-9v-2l7 1v-4h-5l-1 2v-3l-5 3-2 3-1-8 2-1h13v2h2z" fill="#728A9B"/>
<path transform="translate(1824,589)" d="m0 0h4v2l-19 4-12 2-7 2-9 1-2 1-9 1h-10v-1l20-3 23-5z" fill="#536473"/>
<path transform="translate(1869,353)" d="m0 0h1l2 13 5 30 3 21-1 4-2-4-5-34-3-17h-1z" fill="#343D4B"/>
<path transform="translate(1596,561)" d="m0 0h1v7h18l1-2v2h17l-1 2h-53l2-2h14v-6z" fill="#526571"/>
<path transform="translate(1448,595)" d="m0 0h4l5 7 3 9v2l-5 1h-14l-1-1v-6l6-10zm1 2-4 5-3 5v5h9l6-1-2-8-4-6z" fill="#313A47"/>
<path transform="translate(1575,648)" d="m0 0 2 3 2 8v8h57v1h-65l3-2h2l-1-9z" fill="#5E7481"/>
<path transform="translate(1922,706)" d="m0 0h3l6 40-1 9h-1l-7-45z" fill="#5B6F7E"/>
<path transform="translate(1615,770)" d="m0 0h52v2l-3 1h-48z" fill="#36414E"/>
<path transform="translate(1604,463)" d="m0 0h2v4l-6 8-10 16h-2l1-7 9-13z" fill="#CBCAE8"/>
<path transform="translate(1237,756)" d="m0 0 5 1 1 4v9l-5-1-2-1-2 3v-11z" fill="#4F626D"/>
<path transform="translate(1258,650)" d="m0 0h3l-1 10h2l1 5-1 2h-2v-2l-14 1-2-1-1-4h2v-5h1l1 5 11-1z" fill="#DAD2F3"/>
<path transform="translate(1860,447)" d="m0 0h18l-6 7-2 2-4-1-6-4z" fill="#D6D0F0"/>
<path transform="translate(1362,529)" d="m0 0 2 1-9 10-11 10-15 11-12 7-1-2 16-10 14-11 7-6 7-8z" fill="#313947"/>
<path transform="translate(1705,461)" d="m0 0 4 4 7 11 10 15 8 11 4 6-3 3-1-4-7-10-18-27-2-5h-2z" fill="#313A47"/>
<path transform="translate(1473,578)" d="m0 0h1v67l-3-1v-28h1z" fill="#7891A2"/>
<path transform="translate(1561,481)" d="m0 0h6l8 6 5 1 6-1 3-3-2 7h-9l-8-4-4-3-4-1-2 5-4 3-5-1 2-2h4l2-5z" fill="#313A48"/>
<path transform="translate(1255,640)" d="m0 0h11v36l-1-2h-2v-25l1-8h-9z" fill="#384350"/>
<path transform="translate(1845,619)" d="m0 0 10 1 5 1h20l10-2h7l-4 2-14 3h-17l-19-3z" fill="#3A4553"/>
<path transform="translate(1783,532)" d="m0 0 9 1 33 6 11 1-3 2-11-1-38-7-1 3z" fill="#3E4B59"/>
<path transform="translate(1917,666)" d="m0 0 2 4 2 16 1 1 2 16v6l-2-3-2-9v-7h-10v-1l7-1 1-5z" fill="#404E5B"/>
<path transform="translate(1251,649)" d="m0 0h6l2 3v8l-5 1 1-9-3 1-1 7h-4l1-9z" fill="#475764"/>
<path transform="translate(1948,532)" d="m0 0h8l-1 3v-2l-12 3-24 5-16 2-4-2 21-3z" fill="#3E4A58"/>
<path transform="translate(1955,529)" d="m0 0 9 1-1 2h-2v13h-6v-10l1-4z" fill="#282E3B"/>
<path transform="translate(1971,602)" d="m0 0h7v2l-3 1-1 11-1 1h-5v-9l1-2-3-1 5-1z" fill="#313947"/>
<path transform="translate(1440,572)" d="m0 0 5 1v4l-3 1 29 1v1h-38v-3-2z" fill="#586C79"/>
<path transform="translate(1439,559)" d="m0 0h2v2l-16 9-16 8-16 7-2-2 16-7 16-8 15-8z" fill="#404D5A"/>
<path transform="translate(1436,644)" d="m0 0h37v2h-17l-1 3-1-2-7-1-1 9h-1v-9h-7z" fill="#384451"/>
<path transform="translate(1553,606)" d="m0 0 4 2 8 7 7 11 5 19v6l-2-3-4-17-6-12-12-12z" fill="#404E5B"/>
<path transform="translate(1854,539)" d="m0 0 3 1-5 4-1 2h32l4 2h-35l-4-1 1-4z" fill="#4C5C6A"/>
<path transform="translate(1239,642)" d="m0 0 3 1v18l-1 16-2 2z" fill="#495A65"/>
<path transform="translate(1609,467)" d="m0 0h2l9 13 4 6v2l3 1 9 13 1 5-4-4-9-13-8-11-6-9z" fill="#3D4B57"/>
<path transform="translate(1904,616)" d="m0 0h2v2l-10 7-13 11-10 8-2 2v-2l-3-1 5-2 13-11 10-8-3-2z" fill="#3A4653"/>
<path transform="translate(1818,681)" d="m0 0h1v6l33 1v2h-35z" fill="#37434F"/>
<path transform="translate(1847,450)" d="m0 0 2 1v2l-20 3-16 3h-7l3-2 23-4z" fill="#4E5E6D"/>
<path transform="translate(1315,567)" d="m0 0 2 1-10 6-19 10-12 5-2-1 15-8 19-9z" fill="#2D3543"/>
<path transform="translate(1452,554)" d="m0 0h2v8l1 1 1-3 1 4h-4v2l-5 1-1-1v-9z" fill="#51646F"/>
<path transform="translate(1889,509)" d="m0 0h3l2 5 1 2 4 1-2 1v12l-1 5h-1l-2-17-3-1v-2h-4l1-4z" fill="#536573"/>
<path transform="translate(1782,467)" d="m0 0h1l2 17v13l-1 14h-1l-1-6v-19l-1-14z" fill="#607684"/>
<path transform="translate(1569,736)" d="m0 0h37v1l-35 2-1 3-4-2-4-3z" fill="#2E3644"/>
<path transform="translate(1760,602)" d="m0 0h7v2l4 1-1 12-5-1v-12h-5z" fill="#292F3D"/>
<path transform="translate(1379,530)" d="m0 0 3 1-17 14-18 13-4 2-1-2 15-10 16-13z" fill="#3C4855"/>
<path transform="translate(1800,459)" d="m0 0h8l-1 5 1 9h-6l-1-12z" fill="#252A38"/>
<path transform="translate(1597,526)" d="m0 0 1 3h2v28h-2v11h-1z" fill="#DBD3F4"/>
<path transform="translate(1705,523)" d="m0 0h8l1 1v6h-8l-4-1v-5z" fill="#EAE8F7"/>
<path transform="translate(1860,582)" d="m0 0h5l-2 5-16 13-11 9-1-2 11-9 8-7 7-6-7-1v-1z" fill="#384350"/>
<path transform="translate(1521,571)" d="m0 0 5 5 9 12 9 9 10 8-3 1-16-15-9-10-5-7z" fill="#35404D"/>
<path transform="translate(1525,406)" d="m0 0 2 1-11 17-4 9 2 1-3 6-3 1 1-7 8-16z" fill="#343E4B"/>
<path transform="translate(1640,684)" d="m0 0h35v1l-30 2h-15l4-2z" fill="#2B323F"/>
<path transform="translate(1718,614)" d="m0 0 2 1-8 13-5 14-3 15h-1v-9l5-17 5-10z" fill="#37414E"/>
<path transform="translate(1500,533)" d="m0 0 3 1-5 4-16 12-14 9-2-2 10-6 14-10z" fill="#3A4653"/>
<path transform="translate(1731,382)" d="m0 0 4 2 11 10 9 11 5 8-2 1-8-11-9-10-10-10z" fill="#313A47"/>
<path transform="translate(1280,751)" d="m0 0 5 1 4 2 4-1 2 3-2 3v-3h-2l-1 7-3 1-5-11z" fill="#37414F"/>
<path transform="translate(1883,657)" d="m0 0 5 2 12 10 11 9 7 6h-3l-17-14-9-7-6-5z" fill="#333D4A"/>
<path transform="translate(1688,522)" d="m0 0 3 1 1 8-1 1v18l2 2h-5z" fill="#637988"/>
<path transform="translate(1664,523)" d="m0 0h8l3 1v5l-2 1h-8l-1-1z" fill="#EAE8F7"/>
<path transform="translate(1211,749)" d="m0 0 3 1 3 6v7l-3 6h-3l1-4v-9z" fill="#2E3643"/>
<path transform="translate(1596,539)" d="m0 0h1v22l-2 7h-1v-26z" fill="#7D97AA"/>
<path transform="translate(1265,760)" d="m0 0 5 2 1 6-10 2-1-6 2-2h3z" fill="#4F626D"/>
<path transform="translate(1811,522)" d="m0 0 6 1v1l-24 4-13 2v-6l1 4 13-3z" fill="#495967"/>
<path transform="translate(1652,523)" d="m0 0h9v7h-10v-6z" fill="#D9D2F2"/>
<path transform="translate(1827,618)" d="m0 0h1l1 9-4 24-2-3 1-11z" fill="#657A8A"/>
<path transform="translate(1346,599)" d="m0 0 6 2v1l-13 2-1 2h-16l4-2z" fill="#7E99AB"/>
<path transform="translate(1563,550)" d="m0 0h3v18h-4v-17z" fill="#FECD70"/>
<path transform="translate(1610,477)" d="m0 0 2 1v2h2l3 5v2h2l6 9 7 10-1 2-6-7v-2h-2l-7-11-6-9z" fill="#607684"/>
<path transform="translate(1203,745)" d="m0 0h2l2 5 1 6v11h-4l1-7-2-13z" fill="#333D4A"/>
<path transform="translate(1597,479)" d="m0 0 1 3-6 8v11l7 6-3 1-4-2-4-10 1-5 7-11z" fill="#50636F"/>
<path transform="translate(1437,627)" d="m0 0h26l1 3-2 2v-3h-24v5h-1z" fill="#627887"/>
<path transform="translate(1748,585)" d="m0 0v3l-17 17-8 7-4 2 6-7 7-7 8-7z" fill="#29303D"/>
<path transform="translate(1901,556)" d="m0 0h1l3 21-1 9h-1l-3-20z" fill="#576978"/>
<path transform="translate(1561,721)" d="m0 0h5l-1 3-7 1v8l1 3 4 1 1 2-5-1-3-2-1-8 1-4z" fill="#5C707E"/>
<path transform="translate(1272,588)" d="m0 0h2v2l-15 6-8 4-7 2v-3l24-9z" fill="#36404D"/>
<path transform="translate(1423,580)" d="m0 0v3l-18 6-7 3-5-1v-1l13-4 14-5z" fill="#4E5F6D"/>
<path transform="translate(1731,562)" d="m0 0h1v6h26l-4 2h-25z" fill="#2C3340"/>
<path transform="translate(1540,520)" d="m0 0h1l2 7 3 3 6 1 3-2-1 5h-9l-5-5-1-5z" fill="#43535F"/>
<path transform="translate(1856,442)" d="m0 0 1 3h23l-2 2h-18l-1 3-4-2 2-1z" fill="#576A77"/>
<path transform="translate(1875,391)" d="m0 0h1l4 26-1 4-2-4-3-20z" fill="#4B5B69"/>
<path transform="translate(1250,668)" d="m0 0 9 1v4l-7-1v2h9l-1 2-12-2 1-5z" fill="#DBD3F4"/>
<path transform="translate(1612,474)" d="m0 0h2l4 6 4 7-2 1-3-1-3-5v-2h-2l-2-5z" fill="#BAC1DD"/>
<path transform="translate(1759,413)" d="m0 0 4 3 10 20v5l-2-2-9-19-3-5z" fill="#37424F"/>
<path transform="translate(1279,750)" d="m0 0 4 1v2l2 6-2 4h-3v-7h-2v-5z" fill="#4E606C"/>
<path transform="translate(1649,521)" d="m0 0h18l-2 2-1 7h-2l-1-7-11 1z" fill="#4E616D"/>
<path transform="translate(1650,412)" d="m0 0h7l7 3 3 4 1 3v7l-2 2-1-11-4-4-11-2z" fill="#586B79"/>
<path transform="translate(1562,526)" d="m0 0 2 2 4 1-2 9h-1l-1 12-2 1z" fill="#8DA0A8"/>
<path transform="translate(1691,523)" d="m0 0h8v6l-5 1-3-1z" fill="#E6E4F6"/>
<path transform="translate(1868,353)" d="m0 0h1l-1 24-2 9-2-2 1-11 1-2z" fill="#5A6D7C"/>
<path transform="translate(1808,462)" d="m0 0 20 2 4 1v2l-11-1-13-2-1 4-1-5z" fill="#516270"/>
<path transform="translate(1808,740)" d="m0 0 2 3-1 15-1 5-2-2 1-15z" fill="#5A6D7C"/>
<path transform="translate(1452,567)" d="m0 0h1v11l-5-1-1-6z" fill="#677D8C"/>
<path transform="translate(1591,753)" d="m0 0 5 2 15 11 5 4-5-1-18-13z" fill="#43515E"/>
<path transform="translate(1242,602)" d="m0 0 3 1 38 1v1h-41z" fill="#7992A4"/>
<path transform="translate(1596,561)" d="m0 0h1v9h-18l2-2h14v-6z" fill="#495A66"/>
<path transform="translate(1596,513)" d="m0 0 2 1-6 7-1 11-1 3h-2l1-14 3-5z" fill="#485864"/>
<path transform="translate(1857,428)" d="m0 0h1l-1 14-1 4 2 1-3 1-1 3-6 1 1-2 4-1z" fill="#2D3442"/>
<path transform="translate(1629,396)" d="m0 0 9 1 7 5 5 10v2h-2l-4-9-3-3-6-3-7-1z" fill="#3F4D59"/>
<path transform="translate(1214,746)" d="m0 0 3 1 2 8 1 3-3 4-2-8-2-4z" fill="#F9DFAF"/>
<path transform="translate(1251,649)" d="m0 0 5 1-4 1-1 9h-4l1-9z" fill="#37424F"/>
<path transform="translate(1347,597)" d="m0 0 6 1v1l-16 3-9 2v-3l12-2z" fill="#44515F"/>
<path transform="translate(1932,523)" d="m0 0 22 4 2 2-3 1-17-4-7-1z" fill="#404D5B"/>
<path transform="translate(1904,583)" d="m0 0 2 4 6 2v1h-5v10l-2-4-1-6-6-2v-1h6z" fill="#2F3744"/>
<path transform="translate(1472,540)" d="m0 0 2 1-3 3h-2v2l-11 7-3 1 2-4 14-9z" fill="#96A6BC"/>
<path transform="translate(1685,405)" d="m0 0 5 2 1 6 4-1h7l-1 2-11 2-2-8-3-1z" fill="#36404D"/>
<path transform="translate(1221,739)" d="m0 0 3 1 1 2v12h-1l-1-8h-1l-1 8h-1v-14z" fill="#FCD180"/>
<path transform="translate(1707,730)" d="m0 0h15l-1 2h-5l-1 6h-1l-1-5h-9l-1-2z" fill="#2E3744"/>
<path transform="translate(1562,672)" d="m0 0 4 1-7 3v9l2 3h-3l-2-3v-9l3-3z" fill="#627785"/>
<path transform="translate(1836,558)" d="m0 0 2 3-1 12-1 7-2-2 1-14z" fill="#627786"/>
<path transform="translate(1723,490)" d="m0 0 3 1 8 11 4 6-3 3-1-4-7-10z" fill="#394551"/>
<path transform="translate(1219,741)" d="m0 0h1v14l-2 1-2-9-1-4z" fill="#37424E"/>
<path transform="translate(1723,668)" d="m0 0h2l1 2v9l-4 4-10-1v-1l10-1 1-2z" fill="#516370"/>
<path transform="translate(1407,521)" d="m0 0h37v1l-34 1-2 1-2-2z" fill="#536773"/>
<path transform="translate(1395,498)" d="m0 0 3 2v4h-2l-2 5-1 3h-2v-6l3-4z" fill="#313B48"/>
<path transform="translate(1891,451)" d="m0 0 12 1 11 2-3 2-7-1-12-2z" fill="#455361"/>
<path transform="translate(1558,439)" d="m0 0 4 2 1 2v8l-3 5-3 2-3-1 6-5v-11h-2z" fill="#384350"/>
<path transform="translate(1558,709)" d="m0 0 2 1 24 1v1h-18v2h-6z" fill="#556875"/>
<path transform="translate(1619,487)" d="m0 0h4l5 8-1 2-4-2-4-6z" fill="#C6C7E5"/>
<path transform="translate(1921,687)" d="m0 0h1l2 16v6l-2-3-2-9v-7z" fill="#4E5F6D"/>
<path transform="translate(1865,577)" d="m0 0 6 1v3l7 2-4 2-9-1 1-5z" fill="#2C3441"/>
<path transform="translate(1546,485)" d="m0 0 5 1 2 3h-10l-1 5h-2l1-5z" fill="#36404D"/>
<path transform="translate(1561,481)" d="m0 0 4 2h-3l-2 5-4 3-5-1 2-2h4l2-5z" fill="#445460"/>
<path transform="translate(1915,648)" d="m0 0h1l2 12-1 10h-1l-2-18z" fill="#4A5967"/>
<path transform="translate(1362,529)" d="m0 0 2 1-9 10-5 4v-3l6-5z" fill="#44525F"/>
<path transform="translate(1867,488)" d="m0 0v3l-11 10-5 3 2-4 10-9z" fill="#3B4753"/>
<path transform="translate(1203,735)" d="m0 0 6 5 4 9-3 1-4-9-4-4z" fill="#35404D"/>
<path transform="translate(1840,540)" d="m0 0 2 3 7 1-1 3-8-1-1-3-6-1v-1h6z" fill="#313A47"/>
<path transform="translate(1896,530)" d="m0 0 2 4 1 7 4 2-4 2h-6l4-2-1-4z" fill="#2D3542"/>
<path transform="translate(1852,513)" d="m0 0 4 2 12 10-3 1-10-9-4-2z" fill="#42505D"/>
<path transform="translate(1888,503)" d="m0 0 5 2 1 4v7h-1l-1-7-6 3 2-7z" fill="#2C3341"/>
<path transform="translate(1407,576)" d="m0 0 3 1-16 8-3-2z" fill="#3F4C59"/>
<path transform="translate(1883,540)" d="m0 0 8 4h2v5l-10-2 3-3z" fill="#323B49"/>
<path transform="translate(1889,509)" d="m0 0h3l1 6h-7l1-4z" fill="#C6C8E3"/>
<path transform="translate(1703,682)" d="m0 0h15l-2 1v7h-1l-2-6h-12z" fill="#252A38"/>
<path transform="translate(1575,648)" d="m0 0 2 3 1 2-1 14-3-1h2l-1-9z" fill="#708899"/>
<path transform="translate(1446,573)" d="m0 0h2l1 4 3 2h-17v-1l10-2z" fill="#272D3B"/>
<path transform="translate(1472,538)" d="m0 0m-2 1h2l-2 4-11 6-1-2z" fill="#333C49"/>
<path transform="translate(1379,530)" d="m0 0 3 1-15 12-2-1z" fill="#343E4B"/>
<path transform="translate(1922,706)" d="m0 0h3l1 12-2 4z" fill="#677D8D"/>
<path transform="translate(1844,625)" d="m0 0 5 2 9 8 3 3h-3l-9-8z" fill="#36404D"/>
<path transform="translate(1451,611)" d="m0 0h6l-2 3h-14l3-2z" fill="#3B4654"/>
<path transform="translate(1811,522)" d="m0 0 6 1v1l-12 2h-5l-1-2z" fill="#586A79"/>
<path transform="translate(1396,504)" d="m0 0 2 1-1 4h-2l-2 6h-3v-8h1v5h2l1-4z" fill="#899CB0"/>
<path transform="translate(1543,433)" d="m0 0 3 2 12 3v2l-14-2z" fill="#3E4A58"/>
<path transform="translate(1731,382)" d="m0 0 4 2 10 9-2 2-12-12z" fill="#384450"/>
<path transform="translate(1245,666)" d="m0 0h8v2l-5 3-2 3z" fill="#596D7A"/>
<path transform="translate(1262,594)" d="m0 0 2 1-1 3-7 3-4-1 1-2z" fill="#B6BDD8"/>
<path transform="translate(1860,582)" d="m0 0h5l-2 5-2 2-3-1 2-3-6-1v-1z" fill="#485665"/>
<path transform="translate(1893,545)" d="m0 0h5v7l-4-1-2-5z" fill="#CBCAE8"/>
<path transform="translate(1566,516)" d="m0 0h1v7h-2v2h-3v-6l2-2 1 1z" fill="#526471"/>
<path transform="translate(1889,489)" d="m0 0h2l2 9v7l-3-1z" fill="#404C5A"/>
<path transform="translate(1524,424)" d="m0 0h7l-14 7-3 2 2-4 5-4z" fill="#333D4A"/>
<path transform="translate(1261,669)" d="m0 0 2 2 1 5-4 1 1-3h-9v-2h8z" fill="#88A3B8"/>
<path transform="translate(1783,532)" d="m0 0 9 1 6 1-1 2-13-2-1 3z" fill="#536472"/>
<path transform="translate(1846,510)" d="m0 0 7 2-2 3h-6z" fill="#C3C7E2"/>
<path transform="translate(1604,469)" d="m0 0h2l-2 5-5 7-1-4z" fill="#6C8393"/>
<path transform="translate(1553,378)" d="m0 0 3 1-10 8-2 2-3-1z" fill="#384450"/>
<path transform="translate(1882,634)" d="m0 0 2 1-11 9-2 2v-2l-3-1 5-2z" fill="#546574"/>
<path transform="translate(1443,601)" d="m0 0 3 1-3 5-1 5 2 1h-4v-6z" fill="#333D4A"/>
<path transform="translate(1346,599)" d="m0 0 6 2v1l-13 1 1-2z" fill="#8AA4B9"/>
<path transform="translate(1948,532)" d="m0 0h8l-1 3v-2l-12 3-3-1 4-2z" fill="#475563"/>
<path transform="translate(1497,522)" d="m0 0h3v4l-6 4h-3l3-5z" fill="#89A2B6"/>
<path transform="translate(1854,474)" d="m0 0 8 6 6 5-2 2-12-11z" fill="#37424F"/>
<path transform="translate(1819,668)" d="m0 0h1l1 10-1 6-2-3z" fill="#596C7A"/>
<path transform="translate(1441,573)" d="m0 0h4v4h-10l4-3z" fill="#D5CFEF"/>
<path transform="translate(1588,484)" d="m0 0 1 2-2 5h-9l2-3 6-1z" fill="#42505C"/>
<path transform="translate(1510,433)" d="m0 0 4 1-3 6-3 1 1-7z" fill="#404D5B"/>
<path transform="translate(1515,424)" d="m0 0 5 1v2l-5 4-1 2h-2z" fill="#DEDED8"/>
<path transform="translate(1701,744)" d="m0 0h2v2l-11 7v-3z" fill="#36404D"/>
<path transform="translate(1555,728)" d="m0 0 2 3 2 5 4 1 1 2-5-1-3-2z" fill="#708898"/>
<path transform="translate(1813,707)" d="m0 0h1l1 10-1 6-2-4z" fill="#627787"/>
<path transform="translate(1834,617)" d="m0 0 11 2-4 1 3 5-4-2-6-5z" fill="#2E3643"/>
<path transform="translate(1705,523)" d="m0 0h8l1 1v6l-4-5-3-1v2h-3z" fill="#CCCAE9"/>
<path transform="translate(1658,523)" d="m0 0h3v6h-6l1-4z" fill="#F3F3F9"/>
<path transform="translate(1532,514)" d="m0 0 7 2 1 1v7l-2-3-4-4-2-1z" fill="#2F3845"/>
<path transform="translate(1663,770)" d="m0 0h4v2l-3 1h-10l1-2z" fill="#282E3C"/>
<path transform="translate(1236,603)" d="m0 0h5l1 2-4 1h-11v-1z" fill="#526571"/>
<path transform="translate(1649,521)" d="m0 0h12v2l-11 1z" fill="#5F7482"/>
<path transform="translate(1885,512)" d="m0 0 1 3 4 1-9 2-3 3-2-1z" fill="#2B3240"/>
<path transform="translate(1883,440)" d="m0 0h1v10l-1-2-6 1 1-3 4-2z" fill="#353F4D"/>
</svg>