<svg xmlns="http://www.w3.org/2000/svg" version="1.1" viewBox="0 0 2048 1121">
<path transform="translate(0)" d="m0 0h2048v1121h-2048z" fill="#DFF4E8"/>
<path transform="translate(1378,542)" d="m0 0h12l18 4 13 3 17 4 9 4 6 4 2 3v18l6 2 6 4 1 134 12-1 31-3 54-3 31-1h48l27 2 23 3 26 6 23 7 24 10 22 11 26 16 16 11 14 10 18 13 15 10 17 14 5 4v2l-11-2-16-3-13-3-14-3-9-1v7l-3 2h-7l-9-3-3-2-9-3-2-4-58-7-92-11-46-6-26-2-124-1v49l37-1 10-4 10-7 11-11 5-3 40 2-4 2-7 3-9 3-15 3-30 14-10 3-7 1-29 1-1 5v78l20 8 9 5 6 5 12 22h38l2-4 5-13 2-18 3-16 6-16 7-13 11-12 5-5 10-6 14-3 11 1 12 4 9 6 5 4 7 10 6 14 3 13v34l-4 15-3 6 49-1h164l-2-7v-23l3-17 5-15 8-13 4-5 13-10 10-4 10-1 12 3 9 7 7 8 7 14 4 13 2 11v26l-2 6-7 8-3 5 11 3 14 2 21 6 12 6 4 5-1 5-5 5-8 4-10 3-27 5-8 2-30 3-15 2-23 2-19 1-20 2-21 1-5 1-36 2-40 1-188 3h-54l-67-2-62-4-4-1-59-3-58-5-29-4-20-4-18-5-10-6-2-9 5-4 14-7 32-7 12-4 1-1h12l-1-4-26-1-4-14v-8l9-8 14-8 7-3 5-1h50v-99h-68l2-4 4-4 11-1h52v-9l1-10 1-236 6-5 10-4 15-3 16-4 12-2 7-2z" fill="#051E2E"/>
<path transform="translate(1433,552)" d="m0 0 10 3 7 4 5 5v18l6 2 6 4 1 134 12-1 31-3 54-3 31-1h48l27 2 23 3 26 6 23 7 24 10 22 11 26 16 16 11 14 10 18 13 15 10 17 14 5 4v2l-11-2-16-3-13-3-14-3-9-1v7l-3 2h-7l-9-3-3-2-9-3-2-4-58-7-92-11-46-6-26-2-124-1v49l37-1 10-4 10-7 11-11 5-3 40 2-4 2-7 3-9 3-15 3-30 14-10 3-7 1-29 1-1 5v78l3 7-1 3 9 3 13 7 9 8 8 10 2 4h-8l-2-1h-34v18l11 1 15 1 7 1h16l24 2 7 2-3 2h-48l-14-1-15 1-4 2-11 1-69-1h-49l10 1 176 1 74 1h3v3h-263l-7-1v-2l-4-1-1-5 3-3-4-2-14-4-1-2-17-1v-3l5-1h7l22 5 9 1 21 1h16l13-1 7-2 1-24 1-165v-233l1-7 39-1h12z" fill="#044053"/>
<path transform="translate(1458,791)" d="m0 0h124l26 2 70 9 45 5 91 11v1h-9l3 3 8 3 6 3 5 1h7l2-1 1-7h9l25 5 2 1v2l8 1 20 5 8 5 12 11 9 9 11 9 12 11 6 7 3 6 2 16 2 24v10l-2 11-5 5v-29l-4-18-6-15-7-10-9-8-8-3-9-1-11 2-9 5-8 7h-2l-2 4-7 10-5 12-4 16-1 8v23l1 7-5 1h-208l1-5 3-8 2-8v-34l-4-16-8-16-5-6-10-7-10-4-11-2-11 1-11 4-8 6h-2l-2 4-9 10-9 17-5 16-3 18-1 12-5 13-5 5h-36l-5-8-8-15-8-6-15-7-12-5v-78l2-6 29-1 14-3 16-7 14-7 11-3 10-2 10-3 3-2-10-1-26-1-8 6-10 10-9 6-9 3h-37z" fill="#BADC08"/>
<path transform="translate(1378,542)" d="m0 0h12l18 4 13 3 12 3 4 3h-54v265l-1 147-1 14-1 3-7 3-13 1h-16l-21-1-14-2-17-4h-10l2-2h9l7 1v-11l-53-1-1 3v-2l-26-1-4-14v-8l9-8 14-8 7-3 5-1h50v-99h-68l2-4 4-4 11-1h52v-9l1-10 1-236 6-5 10-4 15-3 16-4 12-2 7-2z" fill="#033F52"/>
<path transform="translate(1458,791)" d="m0 0h124l26 2 70 9 45 5v2h-4l3 6 7 11 4 8v5l-51 1-13 3-8 5-6 7-4 6-1 4-11 2-10-6-11-3-10-1v4l7 1v1l-17 3-10 5-5 4h-2l-2 4-9 10-9 17-5 16-3 18-1 12-5 13-5 5h-36l-5-8-8-15-8-6-15-7-12-5v-78l2-6 29-1 14-3 16-7 14-7 11-3 10-2 10-3 3-2-10-1-26-1-8 6-10 10-9 6-9 3h-37z" fill="#ECEE2F"/>
<path transform="translate(1855,869)" d="m0 0 4 1 1 50 3 5-1 12v16h2l1-10h1l1 19 1 7-5 1h-208l1-5 3-8 2-8v-34l-4-18 5-5 7 2 1 3 21-5 23-3 13-1h14l29 4 26 6 20 7 9 6 5 9 3 11 16 12 7 4v-18l1-59z" fill="#95CF15"/>
<path transform="translate(1551,836)" d="m0 0h3v2l4 2 9 9 6 8 9 6 5 2-1 3-4 2-8 8-2 9-6 9-6 13-4 13-3 18-1 12-5 13-5 5h-36l-5-8-8-15-8-6-15-7-12-5v-64l1 2 10-1 29-1 16-3 9-4 11-8 14-12z" fill="#B9DB08"/>
<path transform="translate(1378,542)" d="m0 0h12l18 4 13 3 12 3 4 3h-54v265l-1 147-1 14-1 3-6 2h-12l-1-2v-424l-2-1-21 3-19 2h-13l1-4 9-5 12-3 16-3 11-3 10-2z" fill="#041C2C"/>
<path transform="translate(1786,816)" d="m0 0h9l19 2v1h-9l3 3 8 3 6 3 5 1h7l2-1 1-7h9l25 5 2 1v2l8 1 20 5 8 5 12 11 9 9 11 9 12 11 6 7 3 6 2 16 2 24v10l-2 11-5 5v-29l-4-18-6-15-7-10-9-8-8-3-9-1-11 2-9 5-8 7h-2l-2 4-7 10-5 12-4 16-2 12-1 16h-1v-6h-2l-1-11v-10l1-8-3-4-1-53h-3l-10-2-30-8-51-13 1-5 3-3v-12h-26l-1-4 5-1 18 2h13l9-3z" fill="#CEE412"/>
<path transform="translate(1609,863)" d="m0 0 11 1 12 4 9 6 5 4 7 10 6 14 3 13v34l-4 15-4 3-2-1 2-17v-20l-1-1-2-16-5-13v-2h-4l-6-9-5-2v-2h-2v2l-2-1 1-2-8-1-5-1-9 1-4 2-10 1-8 4h-2v2l-3 3h-2l-2 5-5 10-1 7-4 9-1 4v9l2 12 1 8 2 14 4 10 7 11v3l5 2v3h-250l-12-1 2-2h49l73 1 7-1 4-2 16-1 13 1h49l-5-2-27-2h-17l-7-1-17-1-6-2v-14l1-4 21-1h13l10 2-9-11-6-7-11-7-13-6-2-1-1-6v-3l10 3 17 8 7 6 12 22h38l2-4 5-13 2-18 3-16 6-16 7-13 11-12 5-5 10-6z" fill="#06131F"/>
<path transform="translate(1694,736)" d="m0 0 18 1 24 4 17 6 35 16 23 14 15 10 6 5-1 6-1 3h-2l-2 4-3 3h-2l-1 4-2 3-8 3-15-1-22-3v-2l-15-1-39-5-5-10-14-38-6-18z" fill="#58ACBA"/>
<path transform="translate(1916,874)" d="m0 0 12 2 6 3 10 9 7 11 6 16 3 15v26l-2 6-6 7h-2l1-9 2-10-1-25-3-13-5-13-5-6v-2l-4-2-11-5h-14l-9 4-4 1v2l-7 6-8 14-3 12-1 6v25l4 15 9 17 4 4v4h-13l-1-5-48-1-94 1h-96l8-18 3-2v2l49-1 1-1h164l-2-7v-23l3-17 5-15 8-13 4-5 13-10 10-4z" fill="#000406"/>
<path transform="translate(1665,734)" d="m0 0h5l4 5 9 21 4 9 7 18 4 14-1 4-43-5-15-2v-1l-36-7-23-8-3-6-3-18-2-9 3-3 16-3 1-1 47-5z" fill="#4790A1"/>
<path transform="translate(1393,636)" d="m0 0h39v23l-1 11-2 4h-2v2l-2 2v11l1 6-2 16-1 18-2 9-19 1-1 3v9l2 2 3-2h11l5 5 1 5v17l-1 15-3 5-4 1v66l2 40v67l-3 7-5 5-7 4-11 2-16 1h-34l-24-1-20-5-17-1v-3l5-1h7l16 5 13 2 16 1h24l27-2 12-3 7-5 3-5v-47l-2-99-1-28-4-1-3-5v-33h-2l-2 12h-2l-1-2z" fill="#041C2C"/>
<path transform="translate(1605,892)" d="m0 0h13l8 3 10 8 7 11 4 13v25l-5 16-6 9-6 7-12 6h-11l-9-3-6-4-6-7-7-14-3-15v-16l4-16 5-9 9-9 7-4z" fill="#043F52"/>
<path transform="translate(1643,799)" d="m0 0h11l59 7 10 1v2h-4l3 6 7 11 4 8v5l-51 1-13 3-8 5-6 7-4 6-1 4-11 2-10-6-11-3-10-1v4l7 1v1l-17 3-10 5-5 4h-2l-2 4-7 7-1-2 4-9 4-3h2l1-3 20-11 1-11 4-13 8-11 6 4 7 7-2-4-1-1 1-9 4-10 7-6 4-2z" fill="#FAF95D"/>
<path transform="translate(1467,806)" d="m0 0h38l95 1v2h-13l-1 4-14 8-11 7-11 8-5 6-11 9-11 8-9 4-16 3-39 1-1-2v-14l2-6 29-1 14-3 16-7 14-7 11-3 10-2 10-3 3-2-10-1-26-1-8 6-10 10-9 6-9 3h-37v-33z" fill="#95CF15"/>
<path transform="translate(1913,895)" d="m0 0h9l7 3 6 4 8 9 4 8 3 12v19l-5 16-6 9-5 5-10 5h-10l-10-5-8-9-5-11-3-12v-19l2-9 4-10 9-10z" fill="#043F52"/>
<path transform="translate(1213,878)" d="m0 0 24 1 58 4 7 1v42l-1 1h-50l-9 3-14 7-11 9-2 4-2-10z" fill="#B9DB08"/>
<path transform="translate(1279,826)" d="m0 0h22l1 1v57l-20-1-62-4-6-1 2-3-1-5 4-9 10-27 4-7z" fill="#F6FCC5"/>
<path transform="translate(1910,883)" d="m0 0h14l12 6 5 5 5 7 5 14 2 10 1 27-3 11v7l-3 5 11 3 14 2 21 6 12 6 2 5h-47l-21-1-99-1-5-3-7-2h-187l1-2h96l100-1 42 1 2 4-1 2h13l-2-5-6-8-7-15-3-12v-25l3-15 7-14 8-9h2v-2l8-4zm3 12-10 5-7 7-5 9-2 6-1 7v19l4 15 5 9 8 9 9 4h10l10-5 5-5 4-5 5-12 2-8v-19l-3-12-4-8-9-10-8-5-4-1z" fill="#071622"/>
<path transform="translate(1786,816)" d="m0 0h9l19 2v1h-9l3 3 8 3 6 3 5 1h7l2-1 1-7h9l12 3-3 2 1 3 4 1 8 13 5 13 2 7v11l-7-1-9-3-1-3h-3l-10-2-30-8-51-13 1-5 3-3v-12h-26l-1-4 5-1 18 2h13l9-3z" fill="#FBF95E"/>
<path transform="translate(1596,714)" d="m0 0h48l27 2 23 3 26 6 23 7 24 10 22 11 26 16 16 11 14 10 18 13 15 10 16 13h-3l-11-7-9-7-11-8-15-10-14-9-6-5-9-5-10-6v-2l-7-1-5-5-6-4-1 2-27-12-1-3-5-1-8-4 1-2-15-6-22-6-22-3-40 1-29 3-20 2-99 1h-32l-1-7 13-1 31-3 54-3z" fill="#59ADBB"/>
<path transform="translate(1460,930)" d="m0 0 10 3 17 8 7 6 12 22h38l2-4 5-13 2-5 4 5 4 20 5 12 3 4v2l-8 2h-26l-14-3-42-1-19-1-1-1v-15l32-1 11 1-9-11-6-7-11-7-13-6-2-1-1-6z" fill="#000203"/>
<path transform="translate(1406,751)" d="m0 0h11l5 5 1 5v17l-1 15-3 5-4 1v66l2 40v67l-3 7-5 5-7 4-11 2-16 1h-34l-24-1-20-5-17-1v-3l5-1h7l16 5 13 2 16 1h24l27-2 12-3 7-5 3-5v-47l-2-99-1-28-4-1-3-5v-36l4-5z" fill="#EDFBF3"/>
<path transform="translate(1673,739)" d="m0 0 3 4 7 17 4 9 7 18 4 14-1 4-43-5-15-2v-1l-36-7-23-8-3-6-3-18-2-9 3-3 16-3 1-1 11-1h9l-3 2-14 2-10 3h-4v4l3 1 1 2h2v8l-5-1-3 1 4 7 6 1 5 4 5 5 10 3 9 2 6-2 14 1 5 1h9l1-3 6-3h9l3-3 3-12v-6l1-5h-2l-2-7z" fill="#2487A3"/>
<path transform="translate(1586,810)" d="m0 0v3l-14 8-11 7-11 8-5 6-11 9-11 8-9 4-16 3-39 1-1-2v-14l2-6 29-1 14-3 16-7 14-7 11-3 10-2 10-3 8-4z" fill="#F6FCC2"/>
<path transform="translate(1590,808)" d="m0 0 10 1v2l5 2 8 6v5 3l-6 9-3 11-1 11-8 5-7 4-2-1-11-6-8-9-7-8-6-5v-2l-5 1 5-5 10-7 14-8 8-5 1-3z" fill="#F0F031"/>
<path transform="translate(1780,756)" d="m0 0 5 1h3l5 2 6 6 7 2v2l5 2 10 6 33 22 13 9 10 8 15 10 7 4 1 3-11-2-16-3-13-3-14-3-9-1v7l-3 2h-7l-9-3-3-2-9-3-1-3 5-1 4-3h4l2-4 1-3 6-5 1-2h2l1-9-5-4-15-10 1-2-9-6-14-9-9-4z" fill="#044053"/>
<path transform="translate(1279,826)" d="m0 0h22l1 1v9h-37l-2 6-7 13-6 5-3 3-15 6-16 4 1-6 10-28 6-12z" fill="#D1E616"/>
<path transform="translate(1837,821)" d="m0 0h9l12 3-3 2 1 3 4 1 8 13 5 13 2 7v11l-7-1-9-3-1-3h-3l-10-2-14-4 3-1-2-9-5-9-12-15-3-3 4 1 6 3 5 1h7l2-1z" fill="#EDEF2F"/>
<path transform="translate(1609,863)" d="m0 0 11 1 12 4 9 6 5 4 7 10 6 14 3 13v34l-4 15-4 3-2-1 2-17v-20l-1-1-2-16-6-15-8-11-11-8-7-3h-20l-9 2v2l-10 8-5-2 1-4 5-6 14-9z" fill="#000508"/>
<path transform="translate(1793,767)" d="m0 0 10 5 23 15 6 5-1 6-1 3h-2l-2 4-3 3h-2l-1 4-2 3-8 3-15-1-22-3v-1h12l1-5 6-10 1-3v-16l-1-4v-7z" fill="#2487A3"/>
<path transform="translate(1723,808)" d="m0 0 14 1 52 6v3l-12 4h-13l-21-2h-2l1 3 26 1 1 7v5l-4 4-2 4-17-4-13-1-3-9-6-11-5-7v-3z" fill="#E9ED2E"/>
<path transform="translate(1859,870)" d="m0 0 18 4 11 3-3 5 7-4 10-4 7 1-4 2-9 5-8 7h-2l-2 4-7 10-5 12-4 16-2 12-1 16h-1v-6h-2l-1-11v-10l1-8-3-4z" fill="#B9DC08"/>
<path transform="translate(1508,817)" d="m0 0h18l-6 7-7 7-9 6-9 3h-37v-21l1-1z" fill="#F6FCC7"/>
<path transform="translate(1247,968)" d="m0 0h51l2 1v11h-16l-6 2 3 7v3h-19l-14-1-10-2-6-7-1-4 4-5h12z" fill="#000406"/>
<path transform="translate(1458,791)" d="m0 0h124v1l-12 1-1 7-1 1-43 1-57-1-9-1-1-1z" fill="#C8E212"/>
<path transform="translate(1907,839)" d="m0 0 8 6 15 15 11 9 12 11 6 7 3 6 2 16 2 24v10l-2 11-5 5v-29l-4-18 1-4 1-1-4-11-6-11-3-4v-2l-4-2-8-5-11-2-11-1v-5l-3-1-2-4 4-4h2l-1-5-4-7z" fill="#95CF15"/>
<path transform="translate(1505,720)" d="m0 0 27 1 116 1v1l-29 3-20 2-99 1h-32l1-4 19-2 4-2z" fill="#2788A3"/>
<path transform="translate(1398,693)" d="m0 0h22v43h-22z" fill="#CCE312"/>
<path transform="translate(1605,892)" d="m0 0h13l8 3 10 8 7 11 4 13v25l-5 16-6 9-6 7-12 6h-11l-9-3-6-4-6-7-7-14-3-15v-16l4-16 5-9 9-9 7-4zm-2 5-9 5-8 9-5 11-1 4v30l5 12 6 8 8 7 6 3h14l9-6 5-4 6-10 4-11 1-7v-18l-2-11-6-10-7-7-11-5z" fill="#D5EEE8"/>
<path transform="translate(1889,953)" d="m0 0 2 4 5 12 8 10 10 5h10l10-5 3-1 2-4 5-8 4-13 2 3v8l1 6-3 5 11 3 14 2 12 3v1l-9-1-13-2 1 4-5 2h-19-4l-2 2-10 3-11 1-5 1-6-2-5-5-4-8-5-7v-3h-2l-1-9h3z" fill="#062030"/>
<path transform="translate(1455,590)" d="m0 0 5 1 1 1v135h-6z" fill="#E0F5E9"/>
<path transform="translate(1315,999)" d="m0 0 16 2 257 1v3h-263l-7-1z" fill="#57A4B2"/>
<path transform="translate(1455,583)" d="m0 0 6 1 6 4v140h-5l-1-86-1-50-5-4z" fill="#061E2C"/>
<path transform="translate(1676,719)" d="m0 0h12l16 2 23 6 21 7 21 9 20 10 26 16 16 11 14 10 18 13 15 10 16 13h-3l-11-7-9-7-11-8-15-10-14-9-6-5-9-5-10-6v-2l-7-1-5-5-6-4-1 2-27-12-1-3-5-1-8-4 1-2-15-6-22-6-22-3h-38v-1z" fill="#2D8EA8"/>
<path transform="translate(1229,976)" d="m0 0 2 1-2 2 3 4 3 6v2l2 1-2 3-28 1-25 2-1 1h-8l-2-1 2-4 12-7 5-2 32-7z" fill="#062030"/>
<path transform="translate(1458,799)" d="m0 0 10 1 57 1h71l4 4v2l-3 1-92-1h-47z" fill="#F2FCE4"/>
<path transform="translate(1913,895)" d="m0 0h9l7 3 6 4 8 9 4 8 3 12v19l-5 16-6 9-5 5-10 5h-10l-10-5-8-9-5-11-3-12v-19l2-9 4-10 9-10zm-1 4-8 4-7 8-4 8-2 10v22l5 13 6 9 9 7 3 1h11l8-5 8-9 6-17v-16l-2-12-7-13-7-6-8-4z" fill="#D8EFE9"/>
<path transform="translate(1694,736)" d="m0 0 18 1 24 4 17 6 13 6-3 1h-23l-29-2h-13l-4-12z" fill="#4690A1"/>
<path transform="translate(1287,993)" d="m0 0 5 1v4l-3 1-82 3-15 1h-17l1 3-3-1-2-7h10l1-1 25-2 28-1z" fill="#033F52"/>
<path transform="translate(1554,822)" d="m0 0 3 1-16 8-24 14-15 5-6 1-38 2 1-7 1-1 29-1 14-3 16-7 14-7 11-3z" fill="#95CF15"/>
<path transform="translate(1378,542)" d="m0 0h12l18 4 13 3 12 3 4 3h-15l-10-1-7-3-7-2-3-2-10-1-21 5-18 4-24 5-8 2-1 1h-5v-4l8-4 12-3 16-3 11-3 10-2z" fill="#0A1E2B"/>
<path transform="translate(1302,801)" d="m0 0h1l-1 17-20 1h-43l3-3 10-4 22-5z" fill="#CBE317"/>
<path transform="translate(1531,993)" d="m0 0h37l3 3-6 2-38 1h-70l-1 2h-121l-12-1 2-2h49l73 1 7-1 4-2 16-1 13 1h49l-5-2z" fill="#051B2B"/>
<path transform="translate(1725,1034)" d="m0 0h57v1l-40 1-188 3h-54l-67-2-14-1v-1h28l57 1h47z" fill="#246779"/>
<path transform="translate(1833,987)" d="m0 0 48 1 2 4v3h-42l-5-3-7-2h-187l1-2h96z" fill="#061420"/>
<path transform="translate(1656,852)" d="m0 0 1 3-3 6 1 5 4 12 1 8-4-1 1 3-4 1-9-12-10-7-10-4-11-2-3-2-2-1v-4h10l13 4 8 5 11-1 1-5z" fill="#CEE414"/>
<path transform="translate(1460,930)" d="m0 0 10 3 17 8 7 6 12 22 36 1v1h-37l-1 1h-10v-1h8l-9-11-6-7-11-7-13-6-2-1-1-6z" fill="#061825"/>
<path transform="translate(1842,996)" d="m0 0h119l26 1 17 2 2 2h-10l-10-1-143-1z" fill="#81BEC4"/>
<path transform="translate(1644,946)" d="m0 0h2v9l-4 13-6 9-6 7-12 6h-11l-9-3-6-4-6-7-7-14-1-6h3l5 12 6 8 7 6 6 3h14l9-6 5-5 5-8 4-11z" fill="#E0F4ED"/>
<path transform="translate(1279,826)" d="m0 0h22l1 1v9l-13-1v-1h11v-4l-6 1-30 1-13 2-18-1-2-1 2-5z" fill="#DAE829"/>
<path transform="translate(1479,969)" d="m0 0h13l2 2h-35l1 15 19 1 42 1 14 3 26 1-4 2h-16l-40-2h-14l-7-1-17-1-6-2v-14l1-4z" fill="#07131F"/>
<path transform="translate(1695,921)" d="m0 0 45 2 65 3 13 1 2 2-7 1-44-2-38-1-27-2-9-2z" fill="#E9F8D6"/>
<path transform="translate(1280,995)" d="m0 0 10 1v1l-9 1-61 2-48 3-1-5 30-1 16-1z" fill="#4C98A8"/>
<path transform="translate(1572,879)" d="m0 0 1 3-2 6-6 10-5 11-4 13-2 12-2 1-1-6-1-2 2-16 4-12 6-10 6-9z" fill="#CDE414"/>
<path transform="translate(1420,693)" d="m0 0h1v45l-19 1-1 3v9l1 4-2 5h-2l-2 12h-2l-1-2v-36l5 2h22z" fill="#042334"/>
<path transform="translate(1585 1e3)" d="m0 0h3v3h-72l-145-1v-1z" fill="#DDF3E8"/>
<path transform="translate(1586,810)" d="m0 0v3l-14 8-11 7-11 8-1 2h-5v-5l3-6 8-4h2v-2l8-3 17-7z" fill="#EFFBE2"/>
<path transform="translate(1232,975)" d="m0 0 2 1-2 4 4 6 2 2 10 2 23 1 10 1-3-6 1-2 1 3 7 1 1-3h7l1 2-3 1-1 5-5 1h-51l-2-5-5-9-3-2 5-2z" fill="#061522"/>
<path transform="translate(1814,818)" d="m0 0h10l17 2-4 1v7l-3 2h-7l-9-3-3-2-9-3-1-3z" fill="#BBDD0F"/>
<path transform="translate(1907,839)" d="m0 0 7 5 4 7 1 4 2 10 3 3v2l-14-1v-5l-3-1-2-4 4-4h2l-1-5-4-7z" fill="#B8DB08"/>
<path transform="translate(1285,980)" d="m0 0h7l16 5 13 2 16 1h40l14 1v1l-16 1h-34l-24-1-20-5-17-1v-3z" fill="#D7F0E6"/>
<path transform="translate(1908,897)" d="m0 0h5l1 2-10 5-6 7-4 8-2 10v22l5 13 1 4-3 1-5-12-2-9v-19l2-9 4-10 9-10z" fill="#EBFAF0"/>
<path transform="translate(1913,895)" d="m0 0h9l7 3 6 4 8 9 4 8 3 12v19l-3-2-2-21-3-9-6-10-9-6-4-2-9-1-4-3z" fill="#C6E6DF"/>
<path transform="translate(1460,930)" d="m0 0 10 3 11 5 2 4 1 3 2 1 2 5 7 8-1 2-7-8-11-7-13-6-2-1-1-6z" fill="#051D2C"/>
<path transform="translate(1458,799)" d="m0 0 10 1 57 1h71l1 2h-135v2l5 1v1h-9z" fill="#F6FDC8"/>
<path transform="translate(1928,871)" d="m0 0 6 1 10 7 8 13 5 11 1 5-4 1-6-14-7-9-8-7-5-2v-3z" fill="#B1D90B"/>
<path transform="translate(1569,792)" d="m0 0h23l-4 3v4l7 1v1l-7 1h-57v-1l37-1z" fill="#FAF858"/>
<path transform="translate(1620,893)" d="m0 0 6 2 10 8 7 11 4 13v25h-1v-6h-2l-2-23-4-10-9-10-11-5 2-4z" fill="#CDEAE6"/>
<path transform="translate(1609,932)" d="m0 0 4 1 6 7v7l-4 5-4 1-5-4-1-2v-8z" fill="#042839"/>
<path transform="translate(1950,976)" d="m0 0 9 2 14 2 12 3v1l-9-1-13-2 1 4-5 2h-19l-3-3 4-4h3l1-2h5v-1z" fill="#0A293A"/>
<path transform="translate(1404,656)" d="m0 0 11 1 3 3h-13v3l8-1 2 1v7l-2 2h-8l1 3 9 1v1h-13l-1-1v-16z" fill="#061623"/>
<path transform="translate(1904,869)" d="m0 0h17l7 2 2 5-14-1h-14l-13 5-4 2 2-4 9-6z" fill="#F2FBBD"/>
<path transform="translate(1457,741)" d="m0 0h9l1 22-6 1-3-1-1-2z" fill="#07131F"/>
<path transform="translate(1419,1035)" d="m0 0h28l56 1v2h51v1h-54l-67-2-14-1z" fill="#378091"/>
<path transform="translate(1395,691)" d="m0 0 3 1v45l-4-2-1-1 1-42z" fill="#07131F"/>
<path transform="translate(1948,953)" d="m0 0 2 3v8l1 6-3 5 6 3-3 2-5-1-8 4-4 1-2 1 1-4 2-3h2l2-4 5-8z" fill="#061724"/>
<path transform="translate(1603,851)" d="m0 0 2 1 2 11-16 6-8 6h-2l-2 4-7 7-1-2 4-9 4-3h2l1-3 20-11z" fill="#ECF9E4"/>
<path transform="translate(1881,915)" d="m0 0 3 4-1 24 1 7h2l1 4-4 1-3-3-1-9-1-1v-19l1-6h2z" fill="#051B2B"/>
<path transform="translate(1531,993)" d="m0 0h37l3 3-6 2-38 1h-6v-2l15-1-5-2z" fill="#051C2C"/>
<path transform="translate(1607,928)" d="m0 0 6 2 6 5 3 5-1 8-4 6-2 1h-6l-6-7-1-2 1-9zm2 4-4 7v8l4 5 4 1 5-4 1-2v-7l-7-8z" fill="#2588A3"/>
<path transform="translate(1902,874)" d="m0 0 7 1-4 2-9 5-8 7h-2l-2 4-7 10-3 3v-4h2l2-5 4-6v-7l3-3 4-2z" fill="#DEEA2E"/>
<path transform="translate(1760,749)" d="m0 0 5 1 5 2 8 2 2 1v2l9 3 14 9 10 7-4 1-13-8-14-8-20-9v-2z" fill="#042738"/>
<path transform="translate(1641,909)" d="m0 0h3l4 8 2 8v19l-1 12h-2l-1 3v-32l-4-13z" fill="#061C2A"/>
<path transform="translate(1751,747)" d="m0 0 6 2 9 4-3 1h-23l-16-2-1-3 11-1 9 2 5 1h4z" fill="#2788A3"/>
<path transform="translate(1462,802)" d="m0 0 42 1v1l6 1v1h-48z" fill="#E0F5E9"/>
<path transform="translate(1842,789)" d="m0 0 4 2 19 13 17 12 12 10h-3l-11-7-9-7-11-8-15-10z" fill="#3694AB"/>
<path transform="translate(1962,923)" d="m0 0 3 2 1 8v10l-2 11-5 5v-3h2v-26z" fill="#C2DF15"/>
<path transform="translate(1832,992)" d="m0 0 8 1 1 1 99 1v1l-101 1-7-3z" fill="#094659"/>
<path transform="translate(1235,932)" d="m0 0h2l-2 5-4 5-10 7-2 6-2-2-1-7 9-8z" fill="#051C2C"/>
<path transform="translate(1742,824)" d="m0 0h26l1 4-4 2-20-1-3-3z" fill="#051A29"/>
<path transform="translate(1580,920)" d="m0 0h1l-1 38-2-2-2-9v-16l2-10z" fill="#CBE8E4"/>
<path transform="translate(1470,988)" d="m0 0 42 1 18 3v1h-10l-22-1h-11l-7-1-11-1z" fill="#051C2C"/>
<path transform="translate(1621,945)" d="m0 0 3 1-1 5-4 7-7 3h-3v-5l-4 1-3-4-1-5h3l5 6h6l4-4z" fill="#041F2F"/>
<path transform="translate(1833,822)" d="m0 0h4v6l-3 2h-7l-9-3v-4z" fill="#061C2A"/>
<path transform="translate(1949,997)" d="m0 0h38l17 2 2 2h-10l-10-1-38-1z" fill="#56A9B7"/>
<path transform="translate(1924,893)" d="m0 0 11 3 1 3 4 1 6 9v7l-4-5-9-10-7-4-4-2h2z" fill="#072738"/>
<path transform="translate(1289,810)" d="m0 0h13v6h-20l-1-4z" fill="#F6FDC8"/>
<path transform="translate(1636,997)" d="m0 0 6 1 3 3-6 2-9 2h-9v-3l10-4z" fill="#07131F"/>
<path transform="translate(1907,896)" d="m0 0 3 1-8 5-7 8-3 6-2-1v-4h-5l2-2 1-3 5-3 7-3 3-3z" fill="#062132"/>
<path transform="translate(1479,969)" d="m0 0h13l2 2h-35l1 15 11 1-3 3-10-1-1-1v-14l1-4z" fill="#061522"/>
<path transform="translate(1822,1029)" d="m0 0h18l-4 2-34 2h-31v-1l27-1z" fill="#061926"/>
<path transform="translate(1572,879)" d="m0 0 1 3-2 6-6 10-4 7h-2l1-8 6-11z" fill="#F1F556"/>
<path transform="translate(1862,826)" d="m0 0h9l2 1v2l8 1 20 5v1h-11l-17-4-3-2-10-2z" fill="#F3F23B"/>
<path transform="translate(1457,741)" d="m0 0h9l1 22-6 1-3-1-1-2zm1 1v17l1 3h5v-19l-1-1z" fill="#051C2C"/>
<path transform="translate(1393,636)" d="m0 0h18l-4 3-9 6-5 1z" fill="#07131F"/>
<path transform="translate(1609,919)" d="m0 0h6v2l5 2 5 4 4 2-1 7h-3l-1-5-1-3-5-2-4-2h-11l4-4z" fill="#041C2C"/>
<path transform="translate(1458,799)" d="m0 0 10 1 57 1v1l-63 1v2l5 1v1h-9z" fill="#F9F968"/>
<path transform="translate(1857,830)" d="m0 0h3l2 3 3 9 1 2-1 2-6 1-1 2-1-4z" fill="#FBF95D"/>
<path transform="translate(1280,995)" d="m0 0 10 1v1l-9 1h-24l-37-1v-1z" fill="#4891A1"/>
<path transform="translate(1928,872)" d="m0 0 5 2 7 5v2l3 1v2l3 1 4 8-1 3-8-10-8-7-5-2v-3z" fill="#CCE319"/>
<path transform="translate(1361,988)" d="m0 0h16l14 1v1l-16 1h-34v-2z" fill="#E1F5E9"/>
<path transform="translate(1908,897)" d="m0 0h5l1 2-10 5-6 7-4 8-3 1 1-5 4-8 8-8z" fill="#E4F7ED"/>
<path transform="translate(1405,660)" d="m0 0h12v14l-1 1h-11v-4h8l1-1 1-7h-10z" fill="#AFD923"/>
<path transform="translate(1695,921)" d="m0 0 45 2v1l-16 1h-20l-9-2z" fill="#E2F5E2"/>
<path transform="translate(1743,819)" d="m0 0 21 2 3 2-1 1h-24l-1-4z" fill="#ECFAE5"/>
<path transform="translate(1226,969)" d="m0 0h20l1 4-12 1-4 1v-2l-4-2z" fill="#E9F9F1"/>
<path transform="translate(1278,984)" d="m0 0 2 1v2l7 1 1-3h7l1 2-3 1-1 5h-13l2-1-3-6z" fill="#06131F"/>
<path transform="translate(1506,833)" d="m0 0 2 1-7 4-6 2h-36l1-4 7 1 4 1h22l10-3z" fill="#EEFBF3"/>
<path transform="translate(1180,992)" d="m0 0h4v2l4 1 1 2-7 1-1 1h-8l-2-1 2-4z" fill="#061C2A"/>
<path transform="translate(1676,719)" d="m0 0h12l11 1-1 2h-48v-1z" fill="#278AA5"/>
<path transform="translate(1694,736)" d="m0 0 18 1 13 2 2 2h-9l-9-2-3 1-1 2-4-1v-2l-7 1z" fill="#2488A4"/>
<path transform="translate(1913,934)" d="m0 0h4v6 2l3-2-1 9-5-1-2-6v-7z" fill="#042333"/>
<path transform="translate(1902,874)" d="m0 0 7 1-4 2-9 5h-6l-5 3h-2l2-4 4-2z" fill="#E8F049"/>
<path transform="translate(1458,791)" d="m0 0 60 1v1l-54 1-1 1h-5z" fill="#EBEE2D"/>
<path transform="translate(1315,999)" d="m0 0 16 2 13 1v1h-9v2h-10l-7-1z" fill="#59A5B2"/>
<path transform="translate(1524,817)" d="m0 0 2 1-13 13-5 2 4-5 2-7 3-2v-1z" fill="#EDFBF0"/>
<path transform="translate(2007,994)" d="m0 0 3 3-1 5-4 4-1-3-8-1v-1l8-1-17-2v-1l20-1z" fill="#0D4B5D"/>
<path transform="translate(1652,960)" d="m0 0h1v6l1-1 2 2-1 3h48v1h-49-3v-7z" fill="#051F2E"/>
<path transform="translate(1948,947)" d="m0 0h1l-1 11-5 12h-3v-3l7-19z" fill="#DDF2EA"/>
<path transform="translate(1913,895)" d="m0 0h9l7 3 1 4-5-1-2-1-9-1-4-3z" fill="#C5E5DE"/>
<path transform="translate(1458,807)" d="m0 0 5 1 2 7 5 1v1l-12 2z" fill="#B3D90A"/>
<path transform="translate(1405,664)" d="m0 0h9v7l-1 1h-6v-2h-2z" fill="#00070A"/>
<path transform="translate(1490,720)" d="m0 0m-10 1h10v2l-10 2h-11v2h-2v-5z" fill="#57ABBA"/>
<path transform="translate(1814,818)" d="m0 0h10l10 2-4 2-5-1h-13v3l-6-2-1-3z" fill="#DEEA31"/>
<path transform="translate(1734,838)" d="m0 0 12 1 12 3v1l-13-1-4-1-34-1v-1z" fill="#CFE512"/>
<path transform="translate(1928,871)" d="m0 0 6 1 10 7 6 9-1 2h-2l-2-5-5-4-2-3-5-3z" fill="#BBDC08"/>
<path transform="translate(1842,789)" d="m0 0 4 2 19 13 3 3-5-1-15-10-5-5z" fill="#3D99AE"/>
<path transform="translate(1298,839)" d="m0 0h4v11l-5-2-2-3 1-5z" fill="#D1E621"/>
<path transform="translate(1608,857)" d="m0 0h10l-1 2 3 2v2l3 1h-10l-3-2-2-1z" fill="#E8ED2D"/>
<path transform="translate(1760,749)" d="m0 0 5 1 5 2 8 2 2 1-1 4-6-2-11-5v-2z" fill="#042536"/>
<path transform="translate(1588 1e3)" d="m0 0 9 1 3 1v4h-10z" fill="#06131F"/>
<path transform="translate(1584,868)" d="m0 0 2 1-7 7-2 5-6 5 3-10 5-4h2l1-3z" fill="#ECF6B3"/>
<path transform="translate(1603,851)" d="m0 0 2 1 2 11-7 2v-1l-5-1 4-3 3-2z" fill="#F2FBBF"/>
<path transform="translate(1600,808)" d="m0 0 9 6 11 10-1 2-4-2h-3l1-5-4-2-9-6z" fill="#CEE411"/>
<path transform="translate(1614,939)" d="m0 0h3l1 3v7l-3 3-5-2 1-2 2-3h2z" fill="#051B29"/>
<path transform="translate(1456,572)" d="m0 0 4 2 1 9-6-1v-8z" fill="#F0FCF4"/>
<path transform="translate(1234,828)" d="m0 0h25l-3 2-5 1h-10l-7-2z" fill="#FCFA5F"/>
<path transform="translate(1751,747)" d="m0 0 6 2 9 4-3 1-17-1 2-2h4z" fill="#2989A3"/>
<path transform="translate(1914,869)" d="m0 0h7l7 2 2 5-11-1 1-5h-6z" fill="#ECF7A9"/>
<path transform="translate(1921,850)" d="m0 0 6 2 4 2 2 4-1 3-4-2-7-7z" fill="#EDFBF2"/>
<path transform="translate(1891,951)" d="m0 0 2 4 5 11-1 3h-2l-5-12z" fill="#E8F8F0"/>
<path transform="translate(1646,927)" d="m0 0h1v25h-1v-6h-2v-12z" fill="#C8E6E1"/>
<path transform="translate(1612,927)" d="m0 0 5 2 6 5v6l-3-1-4-6-4-4z" fill="#042637"/>
<path transform="translate(1283,811)" d="m0 0h12v4h-11z" fill="#F1FDF1"/>
<path transform="translate(1642,916)" d="m0 0 3 3 1 3v11l-2 1-3-17z" fill="#DCF2E9"/>
<path transform="translate(1881,885)" d="m0 0 2 1-1 7-6 9-1-4z" fill="#CFE512"/>
<path transform="translate(1948,953)" d="m0 0 2 3v6l-7 10-2-1 5-10z" fill="#0B4051"/>
<path transform="translate(1644,946)" d="m0 0h2v9l-2 8-3-3 2-12z" fill="#E8F9F0"/>
<path transform="translate(1605,935)" d="m0 0 1 4v8l3 4v2l-4-2-3-5 1-9h2z" fill="#4EA3B4"/>
<path transform="translate(1780,756)" d="m0 0 5 1h3l5 2 3 3 4 5-5-2-6-4-9-4z" fill="#033F52"/>
<path transform="translate(1457,974)" d="m0 0h1v12l13 1-3 3-10-1-1-1z" fill="#051827"/>
<path transform="translate(1910,944)" d="m0 0 5 4 4 1v-2l3-1-1 4-1 1h-7l-5-4 1-2z" fill="#2386A2"/>
<path transform="translate(1635,905)" d="m0 0 4 2 4 7-2 4-2-2-4-7z" fill="#CFEBE3"/>
<path transform="translate(1415,669)" d="m0 0h1v6h-11v-4h8z" fill="#D7EA44"/>
<path transform="translate(1564,889)" d="m0 0 1 3-1 4 1 2-4 7h-2l1-8z" fill="#E6ED36"/>
<path transform="translate(1602,947)" d="m0 0 7 7 5 1v1l-9 1-3-4-1-5z" fill="#042637"/>
<path transform="translate(1912,899)" d="m0 0h11l9 5-1 2-5-3-14-2z" fill="#0C3040"/>
<path transform="translate(1778,757)" d="m0 0 6 1 7 3 1 4-6-2-8-5z" fill="#051D2C"/>
<path transform="translate(1897,906)" d="m0 0 2 1-3 8-2 4-3 1 1-5 4-8z" fill="#C5E5DE"/>
<path transform="translate(1651,919)" d="m0 0h2l1 9v16h-1l-2-16z" fill="#033F52"/>
<path transform="translate(1803,803)" d="m0 0 3 1 1 12 2 1h-7l1-4z" fill="#033F52"/>
<path transform="translate(1607,897)" d="m0 0h11l6 3-2 1-18-2z" fill="#051F2E"/>
<path transform="translate(1590,866)" d="m0 0m-1 1 1 3-7 5h-2l-2 4-1-3 8-8z" fill="#D4ECE7"/>
<path transform="translate(1587,807)" d="m0 0h13v2h-10l-4 2h-6l3-3z" fill="#A6D50F"/>
<path transform="translate(1991,998)" d="m0 0 13 1 2 2h-10l-10-1v-1z" fill="#4891A1"/>
<path transform="translate(1559,994)" d="m0 0h10l2 2-4 1h-10l-1-2z" fill="#033F52"/>
<path transform="translate(1574,939)" d="m0 0 2 1 1 7v10l-2-2-1-7z" fill="#061926"/>
<path transform="translate(1764,824)" d="m0 0h4l1 4-4 2-3-2h2v-2h-9v-1z" fill="#061826"/>
<path transform="translate(1426,551)" d="m0 0 7 1 4 3h-15z" fill="#041E2E"/>
<path transform="translate(1928,872)" d="m0 0 5 2 4 4v2l-4-1-5-2v-3z" fill="#E7EF46"/>
<path transform="translate(1580,863)" d="m0 0 7 2-1 3-4 2-1 2-2-1 1-4z" fill="#D4E719"/>
<path transform="translate(1246,814)" d="m0 0h3l-1 4 2 1h-11l3-3z" fill="#A2D310"/>
<path transform="translate(1212,980)" d="m0 0h4l-1 3-6 2h-3v-2l-2-1z" fill="#051F2E"/>
<path transform="translate(1886,832)" d="m0 0 8 1 7 2v1h-11l-3-1z" fill="#F4F341"/>
<path transform="translate(1280,812)" d="m0 0 2 3 20 1v1h-24z" fill="#F9F754"/>
<path transform="translate(1285,980)" d="m0 0h7l2 3h-13l1-2z" fill="#ECFAF1"/>
<path transform="translate(1938,969)" d="m0 0 3 1-1 4-3 4h-2l-1-4z" fill="#CAE8E2"/>
<path transform="translate(1907,896)" d="m0 0 3 1-8 5-5 4 1-5 5-4z" fill="#104F62"/>
<path transform="translate(1896,876)" d="m0 0m-2 1 2 1-3 3-8 4h-2l2-4 4-2z" fill="#FCFA5F"/>
<path transform="translate(1742,824)" d="m0 0h22v1l-6 1-4 2-1-2h-11z" fill="#033F52"/>
<path transform="translate(1862,826)" d="m0 0h9l2 1v2h-8l-5-1z" fill="#E2ED70"/>
<path transform="translate(1617,949)" d="m0 0 2 2-4 4h-6v-3l6-1z" fill="#3991A6"/>
<path transform="translate(1913,934)" d="m0 0h4v6l-3 3-1-2z" fill="#061420"/>
<path transform="translate(1419,721)" d="m0 0h1v15l-4-1z" fill="#EDEF30"/>
<path transform="translate(1832,992)" d="m0 0 8 1 1 3h-6l-3-2z" fill="#BBE0DD"/>
<path transform="translate(1504,960)" d="m0 0 2 1 3 7h-5l-1-6z" fill="#C8E212"/>
<path transform="translate(1492,721)" d="m0 0h9l-4 3h-9z" fill="#4891A1"/>
<path transform="translate(1637,998)" d="m0 0 5 2-3 2h-8l3-3z" fill="#000203"/>
<path transform="translate(1892,919)" d="m0 0h1l-1 10-3-3 1-6z" fill="#DBF1E9"/>
<path transform="translate(1581,913)" d="m0 0 3 1-1 5-2 3-2-1 1-6z" fill="#E4F6EE"/>
<path transform="translate(1791,762)" d="m0 0 7 4 1 3-5-1-3-3z" fill="#042232"/>
<path transform="translate(1773,753)" d="m0 0 5 1 2 1-1 4-6-2z" fill="#042D3E"/>
</svg>