<svg xmlns="http://www.w3.org/2000/svg" xmlns:xlink="http://www.w3.org/1999/xlink" id="body_1" viewBox="0 271.43 1434 532.15">

<g transform="matrix(0.7001953 0 0 0.7001953 -0 271.42578)">
    <path transform="matrix(1 0 0 1 0 0)" d="M0 0L2048 0L2048 760L0 760L0 0z" stroke="none" fill="#D2E7EF" fill-rule="nonzero"/>
    <path transform="matrix(1 0 0 1 1597 533)" d="M0 0L4 0L5 3L202 4L202 0L232 0L231 189L239 189L240 194L239 200L236 200L236 194L120 195L6 195L-23 194L-30 193L-30 200L-33 200L-33 189L-25 189L-25 119L-32 122L-38 148L-47 179L-53 190L-60 197L-68 201L-183 201L-230 198L-262 197L-275 195L-275 194L-268 194L-268 171L-298 171L-303 162L-310 137L-314 125L-318 129L-322 139L-327 151L-331 161L-332 170L-329 179L-323 187L-318 192L-327 189L-330 187L-335 176L-336 172L-336 164L-330 142L-329 138L-331 138L-335 149L-338 159L-339 160L-339 177L-334 186L-334 189L-339 187L-344 177L-344 161L-340 150L-330 125L-325 114L-321 105L-322 97L-326 84L-329 70L-329 67L-327 67L-327 64L-331 64L-334 52L-336 45L-340 30L-339 21L-333 14L-190 14L-187 17L-184 26L-181 36L-176 53L-173 66L-173 73L-171 73L-162 99L-156 122L-151 139L-147 154L-147 162L-150 167L-152 171L-215 171L-215 191L-73 191L-65 184L-60 174L-56 164L-54 155L-52 155L-51 147L-50 140L-48 140L-46 126L-43 123L-39 124L-44 136L-45 144L-46 147L-44 151L-46 156L-48 155L-49 157L-43 158L-42 149L-38 130L-38 124L-43 119L-46 118L-46 121L-53 120L-58 116L-58 112L-54 113L-56 114L-56 116L-49 117L-49 115L-51 115L-52 108L-50 103L-47 102L-47 104L-49 104L-48 108L-48 112L-46 113L-46 98L-49 98L-50 102L-54 110L-56 110L-54 101L-48 96L-44 97L-44 99L-42 99L-41 86L-37 81L-36 77L-34 77L-34 80L-27 80L-27 82L-36 82L-38 97L-40 103L-37 104L-41 104L-42 117L-37 119L-34 121L-34 119L-29 115L-28 113L-25 113L-26 110L-30 109L-31 107L-36 105L-36 102L-37 99L-33 100L-28 105L-25 107L-25 1L0 0z" stroke="none" fill="#CFE5EC" fill-rule="nonzero"/>
    <path transform="matrix(1 0 0 1 1575 561)" d="M0 0L250 0L250 139L114 140L0 140L0 0z" stroke="none" fill="#D2E7EF" fill-rule="nonzero"/>
    <path transform="matrix(1 0 0 1 1215 222)" d="M0 0L4 2L7 13L14 61L21 105L22 116L21 118L27 117L37 122L41 128L41 138L53 136L58 134L67 133L79 139L98 151L107 156L128 168L144 177L150 182L151 184L151 195L140 192L132 188L126 184L110 178L96 173L87 170L67 163L49 157L40 153L38 158L36 160L27 163L12 163L13 220L16 271L16 360L18 370L19 398L20 399L20 436L19 478L25 478L26 481L-12 481L-11 490L-7 496L-24 495L-26 493L-26 471L-21 458L-15 447L-10 441L-9 438L-12 438L-13 434L-12 409L-10 402L-8 381L-8 283L-5 282L-4 189L-15 195L-23 199L-33 205L-39 208L-56 218L-67 224L-72 228L-78 231L-87 230L-90 227L-89 222L-69 206L-51 192L-25 170L-18 165L-15 165L-15 163L-29 163L-37 160L-37 123L-33 121L8 120L7 116L3 114L-7 106L-9 104L-9 9L0 0z" stroke="none" fill="#596B6E" fill-rule="nonzero"/>
    <path transform="matrix(1 0 0 1 1597 533)" d="M0 0L4 0L5 3L202 4L202 0L232 0L231 189L239 189L240 194L239 200L236 200L236 194L120 195L6 195L-23 194L-30 193L-30 200L-33 200L-33 189L-25 189L-25 119L-32 122L-38 148L-47 179L-53 190L-60 197L-68 201L-183 201L-188 200L-188 199L-182 198L-190 197L-190 196L-185 196L-184 194L-183 195L-83 195L-77 197L-68 197L-66 198L-66 196L-63 196L-63 193L-61 193L-60 190L-58 190L-56 185L-52 177L-49 168L-52 172L-55 172L-60 184L-68 192L-73 192L-68 187L-62 179L-58 168L-55 159L-54 155L-52 155L-51 147L-50 140L-48 140L-46 126L-43 123L-39 124L-44 136L-45 144L-46 147L-44 151L-46 156L-48 155L-49 157L-43 158L-42 149L-38 130L-38 124L-43 119L-46 118L-46 121L-53 120L-58 116L-58 112L-54 113L-56 114L-56 116L-49 117L-49 115L-51 115L-52 108L-50 103L-47 102L-47 104L-49 104L-48 108L-48 112L-46 113L-46 98L-49 98L-50 102L-54 110L-56 110L-54 101L-48 96L-44 97L-44 99L-42 99L-41 86L-37 81L-36 77L-34 77L-34 80L-27 80L-27 82L-36 82L-38 97L-40 103L-37 104L-41 104L-42 117L-37 119L-34 121L-34 119L-29 115L-28 113L-25 113L-26 110L-30 109L-31 107L-36 105L-36 102L-37 99L-33 100L-28 105L-25 107L-25 1L0 0zM-22 28L-22 168L92 168L228 167L228 28z" stroke="none" fill="#2E383D" fill-rule="nonzero"/>
    <path transform="matrix(1 0 0 1 1875 428)" d="M0 0L11 0L15 1L16 6L16 18L38 18L41 24L44 37L46 37L47 49L43 48L40 36L37 27L36 20L17 21L17 37L20 64L22 109L24 126L26 170L28 192L30 235L32 258L33 300L34 306L30 305L24 293L13 273L5 260L2 262L-4 273L-12 288L-21 304L-25 305L-25 293L-22 249L-21 236L-20 207L-17 173L-16 146L-15 141L-13 140L-12 137L-10 137L-11 147L-3 160L3 170L3 172L5 172L7 166L19 148L20 147L21 138L18 137L14 128L13 122L16 122L20 132L20 124L18 110L17 96L17 81L15 80L16 74L9 65L4 57L-5 72L-7 76L-2 86L-3 90L-7 84L-7 81L-9 81L-9 104L-11 108L-11 75L1 55L1 50L-4 43L-6 42L-7 50L-8 50L-8 25L-29 26L-34 43L-35 49L-38 49L-37 40L-35 36L-34 25L-30 20L-29 17L-7 17L-7 4L-5 1L0 0z" stroke="none" fill="#3B474B" fill-rule="nonzero"/>
    <path transform="matrix(1 0 0 1 1413 206)" d="M0 0L19 0L32 3L41 7L41 9L46 11L56 19L69 32L73 38L73 41L82 38L97 42L104 49L106 55L106 62L105 63L-81 63L-88 62L-87 54L-84 45L-77 35L-69 28L-62 24L-44 24L-40 25L-38 21L-31 13L-22 7L-6 1L0 0z" stroke="none" fill="#FCFCFC" fill-rule="nonzero"/>
    <path transform="matrix(1 0 0 1 1606 350)" d="M0 0L4 2L13 12L17 14L27 15L28 17L31 18L31 15L42 14L43 10L45 10L46 36L52 43L66 50L67 55L59 61L53 68L52 70L52 85L54 85L54 94L33 94L24 103L18 112L16 116L13 115L9 109L2 103L-9 102L-26 104L-27 83L-34 75L-41 70L-46 68L-46 63L-35 51L-35 25L-38 25L-38 23L-12 22L-10 18L-2 9L0 0z" stroke="none" fill="#D4CDA4" fill-rule="nonzero"/>
    <path transform="matrix(1 0 0 1 1778 321)" d="M0 0L6 0L15 4L23 6L35 13L42 20L48 29L49 34L51 35L52 30L64 35L70 39L77 47L77 50L-71 50L-71 40L-66 31L-58 24L-56 23L-38 22L-30 13L-22 8L-14 4L-7 3L0 0z" stroke="none" fill="#FBFCFB" fill-rule="nonzero"/>
    <path transform="matrix(1 0 0 1 1575 704)" d="M0 0L250 0L250 18L0 18L0 0z" stroke="none" fill="#D1E7EF" fill-rule="nonzero"/>
    <path transform="matrix(1 0 0 1 1593 535)" d="M0 0L4 0L5 6L209 6L209 2L232 2L232 23L-18 23L-18 1L0 0z" stroke="none" fill="#CFE5ED" fill-rule="nonzero"/>
    <path transform="matrix(1 0 0 1 1221 400)" d="M0 0L2 0L3 42L5 64L6 82L7 175L8 187L10 248L11 300L-16 300L-14 284L-9 272L-2 258L2 242L3 233L5 233L5 209L-10 209L-10 124L-7 77L-6 7L-1 2L0 0z" stroke="none" fill="#ADD2D0" fill-rule="nonzero"/>
    <path transform="matrix(1 0 0 1 1264 547)" d="M0 0L143 0L146 3L149 12L152 22L157 39L160 52L160 59L162 59L171 85L177 108L182 125L186 140L186 148L183 153L181 157L118 157L118 177L265 177L272 170L278 157L281 157L285 150L286 153L280 168L275 176L272 179L270 179L270 182L267 182L267 184L256 184L250 182L148 182L154 184L154 185L145 186L130 186L103 184L71 183L58 181L58 180L65 180L65 157L35 157L31 150L31 144L35 138L37 134L37 144L35 146L34 153L178 152L179 149L183 148L180 134L169 92L165 77L162 70L160 67L153 41L146 17L143 5L143 2L139 3L1 2L1 11L-1 12L-3 24L-5 24L-7 16L-6 7L0 0z" stroke="none" fill="#667F85" fill-rule="nonzero"/>
    <path transform="matrix(1 0 0 1 1875 428)" d="M0 0L11 0L15 1L16 6L16 18L38 18L41 24L44 37L46 37L47 49L43 48L40 36L37 27L36 20L17 21L17 37L20 64L22 109L24 126L26 170L28 192L28 223L23 222L24 212L11 191L5 182L5 180L2 183L-9 201L-16 212L-18 213L-15 204L-4 185L0 179L1 174L-11 153L-11 151L-13 151L-13 154L-15 154L-15 141L-13 140L-12 137L-10 137L-11 147L-3 160L3 170L3 172L5 172L7 166L19 148L20 147L21 138L18 137L14 128L13 122L16 122L20 132L20 124L18 110L17 96L17 81L15 80L16 74L9 65L4 57L-5 72L-7 76L-2 86L-3 90L-7 84L-7 81L-9 81L-9 104L-11 108L-11 75L1 55L1 50L-4 43L-6 42L-7 50L-8 50L-8 25L-29 26L-34 43L-35 49L-38 49L-37 40L-35 36L-34 25L-30 20L-29 17L-7 17L-7 4L-5 1L0 0z" stroke="none" fill="#323C40" fill-rule="nonzero"/>
    <path transform="matrix(1 0 0 1 1866 469)" d="M0 0L1 0L2 5L3 1L6 2L11 9L10 16L2 29L-1 34L-1 63L0 40L2 40L6 48L5 43L1 35L3 31L13 15L17 20L24 31L26 33L25 39L26 40L28 69L30 83L30 92L27 89L25 81L22 81L28 96L30 97L30 106L22 117L14 131L12 131L-2 107L-3 106L-3 101L-1 96L-3 96L-4 100L-6 100L-6 89L-4 67L-3 30L0 0z" stroke="none" fill="#3E4B4F" fill-rule="nonzero"/>
    <path transform="matrix(1 0 0 1 1710 579)" d="M0 0L1 3L-4 13L-7 18L-10 25L-20 41L-30 59L-34 68L-40 79L-42 80L-50 73L-56 67L-62 66L-63 69L-73 77L-86 88L-98 98L-102 101L-105 101L-104 96L-94 78L-85 63L-69 34L-64 25L-61 22L-51 33L-46 39L-38 33L-26 22L-18 15L-8 6L0 0z" stroke="none" fill="#D1CBA4" fill-rule="nonzero"/>
    <path transform="matrix(1 0 0 1 1215 222)" d="M0 0L4 2L7 13L14 61L21 105L22 120L22 124L25 122L31 122L38 128L39 134L38 137L30 138L27 131L20 127L17 114L5 32L2 9L-4 9L-3 104L10 115L16 120L15 128L14 124L12 124L12 122L8 124L7 146L3 151L-8 159L-14 160L-33 160L-34 159L-34 125L-33 121L8 120L7 116L3 114L-7 106L-9 104L-9 9L0 0z" stroke="none" fill="#627374" fill-rule="nonzero"/>
    <path transform="matrix(1 0 0 1 1597 533)" d="M0 0L1 4L0 2L-4 3L-22 3L-22 25L227 25L227 28L-22 28L-22 168L-23 168L-24 114L-25 119L-32 122L-38 148L-47 179L-53 190L-60 197L-68 201L-183 201L-188 200L-188 199L-182 198L-190 197L-190 196L-185 196L-184 194L-183 195L-83 195L-77 197L-68 197L-66 198L-66 196L-63 196L-63 193L-61 193L-60 190L-58 190L-56 185L-52 177L-49 168L-52 172L-55 172L-60 184L-68 192L-73 192L-68 187L-62 179L-58 168L-55 159L-54 155L-52 155L-51 147L-50 140L-48 140L-46 126L-43 123L-39 124L-44 136L-45 144L-46 147L-44 151L-46 156L-48 155L-49 157L-43 158L-42 149L-38 130L-38 124L-43 119L-46 118L-46 121L-53 120L-58 116L-58 112L-54 113L-56 114L-56 116L-49 117L-49 115L-51 115L-52 108L-50 103L-47 102L-47 104L-49 104L-48 108L-48 112L-46 113L-46 98L-49 98L-50 102L-54 110L-56 110L-54 101L-48 96L-44 97L-44 99L-42 99L-41 86L-37 81L-36 77L-34 77L-34 80L-27 80L-27 82L-36 82L-38 97L-40 103L-37 104L-41 104L-42 117L-37 119L-34 121L-34 119L-29 115L-28 113L-25 113L-26 110L-30 109L-31 107L-36 105L-36 102L-37 99L-33 100L-28 105L-25 107L-25 1L0 0z" stroke="none" fill="#4E5E62" fill-rule="nonzero"/>
    <path transform="matrix(1 0 0 1 1753 596)" d="M0 0L41 0L41 53L40 57L36 58L0 58L0 0z" stroke="none" fill="#D0E6ED" fill-rule="nonzero"/>
    <path transform="matrix(1 0 0 1 1611 383)" d="M0 0L12 0L21 4L28 12L32 23L32 32L29 41L22 49L13 53L8 54L1 54L-10 50L-17 44L-21 36L-22 31L-22 23L-19 13L-12 5L-4 1L0 0z" stroke="none" fill="#FDFDFC" fill-rule="nonzero"/>
    <path transform="matrix(1 0 0 1 1213 485)" d="M0 0L1 0L0 25L-1 39L-2 124L0 125L-2 125L-2 146L3 145L1 143L1 129L2 127L11 127L11 143L9 151L8 156L7 165L2 173L-1 183L-6 196L-10 198L-10 200L-12 200L-14 204L-15 207L-11 207L-11 215L-13 230L-10 230L-11 228L-11 219L-10 219L-8 229L-5 233L-22 232L-24 230L-24 208L-19 195L-13 184L-8 178L-7 175L-10 175L-11 171L-10 146L-8 139L-6 118L-6 20L-3 19L-2 2L0 0z" stroke="none" fill="#7A8E8A" fill-rule="nonzero"/>
    <path transform="matrix(1 0 0 1 1213 230)" d="M0 0L5 1L12 52L20 106L22 116L21 121L17 125L13 134L9 136L9 116L11 114L14 114L14 116L17 116L16 111L-2 96L-2 1L0 0z" stroke="none" fill="#D2E7EF" fill-rule="nonzero"/>
    <path transform="matrix(1 0 0 1 1878 608)" d="M0 0L2 0L22 32L22 38L10 58L2 71L-1 68L-10 52L-18 38L-19 37L-19 30L-13 21L-1 1L0 0z" stroke="none" fill="#D1E6EE" fill-rule="nonzero"/>
    <path transform="matrix(1 0 0 1 1342 655)" d="M0 0L23 0L26 8L31 0L53 0L53 3L57 3L61 16L62 23L57 29L36 29L36 25L32 24L32 9L30 9L29 29L8 29L3 24L-1 11L-2 1L0 0z" stroke="none" fill="#607C85" fill-rule="nonzero"/>
    <path transform="matrix(1 0 0 1 1315 562)" d="M0 0L22 0L22 5L26 4L30 0L51 0L55 7L60 22L60 25L56 27L50 28L35 28L33 25L28 25L25 28L6 28L1 23L-4 10L-4 4L0 0z" stroke="none" fill="#607C85" fill-rule="nonzero"/>
    <path transform="matrix(1 0 0 1 1278 359)" d="M0 0L7 1L22 9L25 12L50 26L71 38L82 45L84 47L84 53L79 52L67 46L51 40L40 36L5 23L-7 18L-24 12L-23 9L-16 5L-5 1L0 0z" stroke="none" fill="#D0E5EC" fill-rule="nonzero"/>
    <path transform="matrix(1 0 0 1 1224 368)" d="M0 0L2 0L2 5L-1 5L-3 17L-5 33L-21 41L-35 51L-59 64L-73 72L-87 81L-93 82L-94 79L-89 73L-79 65L-66 55L-54 46L-40 34L-24 21L-12 12L-5 6L-3 6L-3 4L-1 4L0 0z" stroke="none" fill="#EDF8F9" fill-rule="nonzero"/>
    <path transform="matrix(1 0 0 1 1332 623)" d="M0 0L22 0L27 2L28 11L30 11L30 1L32 0L53 0L55 2L59 15L60 27L35 27L32 16L30 27L4 27L1 18L-1 6L-1 1L0 0z" stroke="none" fill="#627E87" fill-rule="nonzero"/>
    <path transform="matrix(1 0 0 1 1279 355)" d="M0 0L6 1L22 10L34 18L43 23L64 35L80 44L86 49L87 51L87 62L76 59L68 55L62 51L46 45L32 40L23 37L3 30L-15 24L-24 20L-26 25L-28 27L-37 30L-52 30L-54 12L-52 12L-51 15L-47 15L-48 13L-48 2L-47 1L-39 1L-37 5L-34 7L-35 11L-25 8L-23 5L-11 3L-6 1L0 0zM-1 4L-11 7L-21 11L-25 14L-25 16L-5 23L6 28L42 41L58 47L68 51L80 57L83 57L83 51L75 45L52 32L38 24L22 15L20 12L3 4z" stroke="none" fill="#49585D" fill-rule="nonzero"/>
    <path transform="matrix(1 0 0 1 1895 521)" d="M0 0L1 0L3 25L4 33L6 77L8 99L8 130L3 129L4 119L-9 98L-15 89L-15 87L-18 90L-29 108L-36 119L-38 120L-35 111L-24 92L-20 86L-19 81L-31 60L-31 58L-33 58L-33 61L-35 61L-35 48L-33 47L-32 44L-30 44L-31 54L-23 67L-17 77L-17 79L-15 79L-13 73L-1 55L0 54L1 45L-2 44L-6 35L-7 29L-4 29L0 39L0 31L-2 17L-2 9L-1 9L0 0z" stroke="none" fill="#3B474B" fill-rule="nonzero"/>
    <path transform="matrix(1 0 0 1 1353 594)" d="M0 0L24 0L28 10L31 22L31 27L7 27L5 26L5 19L1 19L0 27L-24 27L-28 17L-31 4L-29 1L-4 1L-3 15L-1 9L0 0z" stroke="none" fill="#627F88" fill-rule="nonzero"/>
    <path transform="matrix(1 0 0 1 1777 319)" d="M0 0L6 0L13 3L20 3L34 10L44 18L51 29L58 32L67 34L75 40L81 49L81 56L78 57L-71 57L-75 56L-75 48L-72 40L-66 30L-58 24L-51 20L-37 21L-36 18L-34 18L-34 16L-21 7L-11 3L-3 2L0 0zM1 2L-9 6L-15 7L-21 10L-31 17L-37 24L-55 25L-64 32L-69 39L-70 42L-70 52L78 52L77 47L69 39L64 36L53 32L52 37L50 36L48 30L42 21L33 13L22 7L14 5L7 2z" stroke="none" fill="#AED4D2" fill-rule="nonzero"/>
    <path transform="matrix(1 0 0 1 1238 339)" d="M0 0L6 1L15 6L18 11L18 22L21 23L9 27L6 27L6 23L2 19L2 17L-6 18L-6 31L-2 32L-10 31L-11 33L-11 28L-14 30L-15 33L-17 33L-17 35L-31 46L-44 56L-55 65L-65 74L-81 86L-94 96L-106 106L-107 110L-101 109L-82 97L-54 82L-46 77L-35 73L-34 76L-46 82L-56 88L-62 91L-79 101L-90 107L-95 111L-101 114L-110 113L-113 110L-112 105L-92 89L-74 75L-48 53L-41 48L-38 48L-38 46L-52 46L-60 43L-60 6L-59 5L-52 5L-56 6L-56 42L-37 42L-30 40L-19 32L-15 26L-11 22L-8 15L-3 10L5 14L7 20L15 20L14 11L8 6L2 6L-2 8L-3 4L0 0z" stroke="none" fill="#354145" fill-rule="nonzero"/>
    <path transform="matrix(1 0 0 1 1182 346)" d="M0 0L34 0L34 24L32 30L25 35L19 36L0 36L-1 35L-1 1L0 0z" stroke="none" fill="#9AB5BA" fill-rule="nonzero"/>
    <path transform="matrix(1 0 0 1 1879 537)" d="M0 0L2 0L11 19L15 28L17 29L17 38L9 49L1 63L-1 63L-15 39L-16 38L-16 33L-13 28L-4 7L0 0z" stroke="none" fill="#D2E7EE" fill-rule="nonzero"/>
    <path transform="matrix(1 0 0 1 1227 621)" d="M0 0L2 0L3 3L4 27L5 79L-22 79L-20 63L-15 51L-8 37L-4 21L-3 12L-1 11L0 0z" stroke="none" fill="#ADD2D1" fill-rule="nonzero"/>
    <path transform="matrix(1 0 0 1 1228 543)" d="M0 0L2 0L3 31L4 47L5 49L6 77L7 78L7 115L6 157L12 157L13 160L-25 161L-25 172L-28 172L-28 163L-26 149L-30 149L-29 145L-27 142L-25 142L-25 140L-22 138L-15 120L-13 113L-9 107L-8 96L-5 88L-7 87L-5 87L-4 69L-13 69L-13 85L-9 88L-17 88L-17 67L-15 66L-2 66L-2 90L-4 90L-4 99L-8 115L-16 131L-20 141L-23 157L4 157L3 154L1 70L0 44L-1 32L-1 1L0 0z" stroke="none" fill="#546467" fill-rule="nonzero"/>
    <path transform="matrix(1 0 0 1 1710 579)" d="M0 0L1 3L-4 13L-7 18L-10 25L-20 41L-30 59L-34 68L-40 79L-42 80L-50 73L-56 67L-62 66L-63 69L-73 77L-86 88L-98 98L-102 101L-105 101L-104 96L-94 78L-85 63L-69 34L-64 25L-61 22L-51 33L-46 39L-38 33L-26 22L-18 15L-8 6L0 0zM-17 18L-32 32L-40 39L-44 42L-48 42L-55 33L-60 28L-63 28L-79 59L-82 65L-86 72L-88 77L-90 77L-90 80L-92 80L-99 94L-98 96L-93 91L-90 89L-90 87L-86 85L-78 77L-75 75L-75 73L-71 71L-67 68L-67 66L-62 64L-58 60L-53 65L-43 76L-41 76L-30 53L-22 37L-22 35L-20 35L-16 27L-14 25L-15 22z" stroke="none" fill="#394549" fill-rule="nonzero"/>
    <path transform="matrix(1 0 0 1 1332 704)" d="M0 0L48 0L48 21L47 22L1 22L0 21L0 0z" stroke="none" fill="#ADD2D1" fill-rule="nonzero"/>
    <path transform="matrix(1 0 0 1 1549 697)" d="M0 0L1 3L-5 18L-10 26L-13 29L-15 29L-15 32L-18 32L-18 34L-29 34L-35 32L-137 32L-131 34L-131 35L-140 36L-155 36L-182 34L-214 33L-227 31L-227 30L-216 28L-170 28L-170 23L-169 23L-168 10L-167 10L-167 27L-20 27L-13 20L-7 7L-4 7L0 0z" stroke="none" fill="#798D89" fill-rule="nonzero"/>
    <path transform="matrix(1 0 0 1 1597 533)" d="M0 0L1 4L0 2L-4 3L-22 3L-22 25L227 25L227 28L-22 28L-22 168L-23 168L-24 114L-25 119L-28 119L-28 117L-26 117L-26 114L-28 113L-25 113L-26 110L-30 109L-31 107L-36 105L-36 102L-37 99L-33 100L-28 105L-25 107L-25 1L0 0z" stroke="none" fill="#556970" fill-rule="nonzero"/>
    <path transform="matrix(1 0 0 1 1284 621)" d="M0 0L2 2L2 11L0 19L0 25L3 15L6 17L6 26L1 38L-4 39L-14 63L-18 73L-19 82L-16 91L-10 99L-5 104L-14 101L-17 99L-22 88L-23 84L-23 76L-17 54L-16 50L-18 50L-22 61L-25 71L-26 72L-26 89L-21 98L-21 101L-26 99L-31 89L-31 73L-27 62L-17 37L-12 26L-8 17L-6 9L0 0z" stroke="none" fill="#7D928E" fill-rule="nonzero"/>
    <path transform="matrix(1 0 0 1 1301 684)" d="M0 0L1 0L1 9L109 9L142 10L144 12L142 12L141 16L-3 16L-3 9L-1 7L0 0z" stroke="none" fill="#9AB5B9" fill-rule="nonzero"/>
    <path transform="matrix(1 0 0 1 1858 649)" d="M0 0L2 0L16 26L19 32L17 39L5 61L-2 75L-4 76L-4 56L0 0z" stroke="none" fill="#D1E6ED" fill-rule="nonzero"/>
    <path transform="matrix(1 0 0 1 1899 651)" d="M0 0L2 0L5 30L7 76L4 72L-4 56L-17 34L-16 27L-8 14L-1 3L0 0z" stroke="none" fill="#D0E5ED" fill-rule="nonzero"/>
    <path transform="matrix(1 0 0 1 1213 485)" d="M0 0L1 0L0 25L-1 39L-2 124L0 125L-2 125L-2 147L4 147L4 150L0 159L-2 166L-4 171L-8 173L-7 175L-10 175L-11 171L-10 146L-8 139L-6 118L-6 20L-3 19L-2 2L0 0z" stroke="none" fill="#7B8F8A" fill-rule="nonzero"/>
    <path transform="matrix(1 0 0 1 1311 655)" d="M0 0L23 0L27 8L29 13L30 25L25 29L5 29L4 28L4 23L2 23L-4 5L-2 1L0 0z" stroke="none" fill="#5F7A82" fill-rule="nonzero"/>
    <path transform="matrix(1 0 0 1 1557 495)" d="M0 0L2 1L6 9L16 19L16 21L24 21L23 24L12 31L6 38L2 46L-1 46L-3 39L-12 29L-17 25L-23 23L-23 21L-16 19L-6 10L-2 5L0 0z" stroke="none" fill="#CEE4EB" fill-rule="nonzero"/>
    <path transform="matrix(1 0 0 1 1241 701)" d="M0 0L5 0L7 5L7 21L-18 20L-37 18L-34 16L-38 11L-38 2L0 2L0 0z" stroke="none" fill="#AED4D2" fill-rule="nonzero"/>
    <path transform="matrix(1 0 0 1 1382 594)" d="M0 0L27 0L33 18L34 26L33 27L10 27L7 26L3 17L0 6L0 0z" stroke="none" fill="#5C777F" fill-rule="nonzero"/>
    <path transform="matrix(1 0 0 1 1393 623)" d="M0 0L24 0L26 1L31 19L32 26L28 27L7 27L3 21L-3 3L-3 1L0 0z" stroke="none" fill="#607C85" fill-rule="nonzero"/>
    <path transform="matrix(1 0 0 1 1300 681)" d="M0 0L1 0L1 10L-1 12L-2 19L142 18L147 16L146 22L145 23L82 23L81 42L80 42L80 23L32 23L32 45L29 45L29 23L-1 23L-5 16L-5 10L-1 4L0 0z" stroke="none" fill="#485559" fill-rule="nonzero"/>
    <path transform="matrix(1 0 0 1 1404 655)" d="M0 0L23 0L29 12L30 17L30 25L29 28L26 29L8 29L3 21L0 11L0 0z" stroke="none" fill="#607C86" fill-rule="nonzero"/>
    <path transform="matrix(1 0 0 1 1392 655)" d="M0 0L3 0L3 3L7 3L11 16L12 23L7 29L-14 29L-14 25L-18 24L-19 5L-18 3L-5 1L0 0z" stroke="none" fill="#607D86" fill-rule="nonzero"/>
    <path transform="matrix(1 0 0 1 1490 240)" d="M0 0L7 0L17 2L25 7L31 16L31 32L-168 32L-168 29L28 28L28 21L25 14L18 8L9 4L0 1L0 0z" stroke="none" fill="#4E5D5F" fill-rule="nonzero"/>
    <path transform="matrix(1 0 0 1 1298 624)" d="M0 0L27 0L30 6L33 19L34 22L33 26L8 26L4 20L0 5L0 0z" stroke="none" fill="#5C7780" fill-rule="nonzero"/>
    <path transform="matrix(1 0 0 1 1375 562)" d="M0 0L23 0L26 3L31 20L30 25L20 27L5 27L0 15L-1 11L-1 1L0 0z" stroke="none" fill="#607D87" fill-rule="nonzero"/>
    <path transform="matrix(1 0 0 1 1871 431)" d="M0 0L17 0L17 34L9 46L6 45L0 36L-1 32L-1 4L0 0z" stroke="none" fill="#D0E6EE" fill-rule="nonzero"/>
    <path transform="matrix(1 0 0 1 1315 562)" d="M0 0L22 0L22 5L26 4L30 0L51 0L55 7L55 14L52 10L51 5L48 4L32 4L27 10L25 17L18 21L16 21L16 23L4 25L0 21L-4 10L-4 4L0 0z" stroke="none" fill="#607D86" fill-rule="nonzero"/>
    <path transform="matrix(1 0 0 1 1303 595)" d="M0 0L13 0L17 8L20 18L20 23L18 21L18 24L18 26L-4 26L-7 25L-11 14L-13 7L-13 2L-12 1L0 0z" stroke="none" fill="#5F7B84" fill-rule="nonzero"/>
    <path transform="matrix(1 0 0 1 1282 562)" d="M0 0L21 0L23 1L29 18L29 25L26 27L5 27L-1 13L-1 1L0 0z" stroke="none" fill="#607B83" fill-rule="nonzero"/>
    <path transform="matrix(1 0 0 1 1279 355)" d="M0 0L6 1L22 10L34 18L43 23L64 35L80 44L86 49L87 51L87 62L76 59L68 55L62 51L46 45L32 40L23 37L3 30L-9 25L-6 24L2 25L22 33L46 41L58 46L68 50L83 57L81 50L68 42L47 30L24 17L20 13L3 5L-7 3L-6 1L0 0z" stroke="none" fill="#384348" fill-rule="nonzero"/>
    <path transform="matrix(1 0 0 1 1414 203)" d="M0 0L15 0L30 3L40 7L52 14L62 23L71 34L76 40L78 41L78 43L72 44L67 35L52 20L42 13L40 12L40 10L31 7L18 4L-1 4L-13 7L-27 13L-37 22L-41 28L-63 28L-74 35L-81 43L-86 52L-89 63L-91 64L-90 55L-86 45L-80 36L-72 29L-63 24L-43 24L-33 13L-20 5L-12 2L0 0z" stroke="none" fill="#58696B" fill-rule="nonzero"/>
    <path transform="matrix(1 0 0 1 1364 623)" d="M0 0L21 0L23 2L27 15L28 27L3 27L0 15L1 2L0 0z" stroke="none" fill="#617D86" fill-rule="nonzero"/>
    <path transform="matrix(1 0 0 1 1753 596)" d="M0 0L41 0L41 53L40 57L36 58L0 58L0 0zM4 4L3 5L3 55L38 55L38 4z" stroke="none" fill="#506166" fill-rule="nonzero"/>
    <path transform="matrix(1 0 0 1 1777 319)" d="M0 0L6 0L13 3L20 3L34 10L44 18L51 29L58 32L67 34L75 40L81 49L81 55L79 55L75 46L67 39L58 35L53 33L52 37L49 36L47 30L41 21L33 14L22 8L14 6L7 3L1 3L-9 7L-15 8L-21 11L-31 18L-37 25L-55 26L-64 33L-70 43L-71 55L-74 54L-74 45L-71 38L-65 29L-55 22L-51 20L-37 21L-36 18L-34 18L-34 16L-21 7L-11 3L-3 2L0 0z" stroke="none" fill="#556467" fill-rule="nonzero"/>
    <path transform="matrix(1 0 0 1 1225 294)" d="M0 0L2 1L8 42L10 52L9 57L5 61L1 70L-3 72L-3 52L-1 50L2 50L2 52L5 52L4 47L-8 37L-13 33L-13 28L-10 26L-2 26L-1 24L-1 17L-2 8L0 0z" stroke="none" fill="#ECF7F9" fill-rule="nonzero"/>
    <path transform="matrix(1 0 0 1 1221 245)" d="M0 0L2 0L6 26L14 74L16 95L15 100L17 100L19 99L25 99L32 105L33 111L32 114L24 115L21 108L14 104L11 91L-1 9L-1 2L0 0z" stroke="none" fill="#48565B" fill-rule="nonzero"/>
    <path transform="matrix(1 0 0 1 1879 484)" d="M0 0L4 5L11 16L13 18L12 23L10 23L9 28L1 44L-2 40L-11 23L-12 18L-8 13L0 0z" stroke="none" fill="#D2E7EE" fill-rule="nonzero"/>
    <path transform="matrix(1 0 0 1 1324 595)" d="M0 0L25 0L25 17L24 22L5 22L4 25L-1 9L-2 3L0 0z" stroke="none" fill="#5E7982" fill-rule="nonzero"/>
    <path transform="matrix(1 0 0 1 1895 579)" d="M0 0L2 0L5 41L6 58L3 55L-3 44L-13 28L-14 27L-14 22L-4 7L0 0z" stroke="none" fill="#CFE5EC" fill-rule="nonzero"/>
    <path transform="matrix(1 0 0 1 1572 652)" d="M0 0L1 0L2 51L183 51L183 52L3 52L3 70L242 70L242 71L1 71L0 70L0 0z" stroke="none" fill="#596B6F" fill-rule="nonzero"/>
    <path transform="matrix(1 0 0 1 1213 609)" d="M0 0L13 0L13 24L11 24L11 33L7 49L-1 65L-5 75L-8 92L28 92L28 94L-10 95L-10 106L-13 106L-13 97L-11 83L-15 83L-14 79L-12 76L-10 76L-10 74L-7 72L0 54L2 47L6 41L7 30L10 22L8 21L10 21L11 3L2 3L2 19L6 22L-2 22L-2 1L0 0z" stroke="none" fill="#516064" fill-rule="nonzero"/>
    <path transform="matrix(1 0 0 1 1210 434)" d="M0 0L1 0L1 67L0 70L-2 71L-2 169L-4 190L-6 197L-7 214L-8 214L-8 192L-6 152L-4 59L-2 30L-1 24L0 0z" stroke="none" fill="#A3C2C5" fill-rule="nonzero"/>
    <path transform="matrix(1 0 0 1 1381 707)" d="M0 0L1 0L1 17L37 18L37 19L31 19L31 22L37 24L37 25L28 26L13 26L-14 24L-46 23L-59 21L-59 20L-48 18L-2 18L-2 13L-1 13L0 0z" stroke="none" fill="#809590" fill-rule="nonzero"/>
    <path transform="matrix(1 0 0 1 1764 618)" d="M0 0L19 0L19 26L0 26L0 0z" stroke="none" fill="#AFD5D3" fill-rule="nonzero"/>
    <path transform="matrix(1 0 0 1 1231 523)" d="M0 0L1 0L3 37L5 68L6 137L7 157L8 164L8 177L3 177L3 123L4 98L2 97L1 69L-1 59L-1 20L0 0z" stroke="none" fill="#9FBBBF" fill-rule="nonzero"/>
    <path transform="matrix(1 0 0 1 1561 610)" d="M0 0L2 0L2 3L9 3L9 5L0 5L-2 20L-4 26L-1 27L-5 27L-6 40L-1 42L2 44L2 42L8 37L10 37L10 40L8 40L8 43L4 45L-2 71L-7 87L-9 89L-10 87L-10 81L-7 81L-6 72L-2 53L-2 47L-7 42L-10 41L-10 44L-17 43L-22 39L-22 35L-18 36L-20 37L-20 39L-13 40L-13 38L-15 38L-16 31L-14 26L-11 25L-11 27L-13 27L-12 31L-12 35L-10 36L-10 21L-13 21L-14 25L-18 33L-20 33L-18 24L-12 19L-8 20L-8 22L-6 22L-5 9L-1 4L0 0z" stroke="none" fill="#313C41" fill-rule="nonzero"/>
    <path transform="matrix(1 0 0 1 1862 579)" d="M0 0L2 0L15 23L13 30L6 41L-1 53L-3 54L-2 35L0 0z" stroke="none" fill="#D2E7EE" fill-rule="nonzero"/>
    <path transform="matrix(1 0 0 1 1710 579)" d="M0 0L1 3L-4 13L-8 20L-12 22L-10 16L-6 9L-14 16L-23 25L-31 32L-41 41L-44 43L-49 42L-55 35L-55 33L-58 32L-62 28L-78 59L-81 65L-85 71L-90 75L-89 70L-75 45L-64 25L-61 22L-51 33L-46 39L-38 33L-26 22L-18 15L-8 6L0 0z" stroke="none" fill="#343F44" fill-rule="nonzero"/>
    <path transform="matrix(1 0 0 1 1859 574)" d="M0 0L1 0L1 8L3 8L3 24L1 51L1 60L-1 66L0 68L-2 68L-1 78L-1 92L-4 131L-4 152L-7 152L-8 157L-9 157L-8 128L-5 90L-4 61L-1 27L0 0z" stroke="none" fill="#586A6D" fill-rule="nonzero"/>
    <path transform="matrix(1 0 0 1 1575 561)" d="M0 0L250 0L250 1L1 1L2 90L3 118L1 138L0 138L0 0z" stroke="none" fill="#96B0B3" fill-rule="nonzero"/>
    <path transform="matrix(1 0 0 1 1895 521)" d="M0 0L1 0L3 25L4 33L6 77L7 88L7 97L5 97L4 99L2 74L2 58L0 58L-2 63L-12 79L-15 82L-15 80L-17 79L-15 79L-13 73L-1 55L0 54L1 45L-2 44L-6 35L-7 29L-4 29L0 39L0 31L-2 17L-2 9L-1 9L0 0z" stroke="none" fill="#3A464A" fill-rule="nonzero"/>
    <path transform="matrix(1 0 0 1 1215 612)" d="M0 0L9 0L9 16L7 24L6 29L5 38L0 46L-1 46L-2 41L-7 51L-9 51L-9 47L-11 46L-9 44L-6 44L-3 32L1 23L2 21L-4 21L-5 17L-4 19L1 18L-1 16L-1 2L0 0z" stroke="none" fill="#788A86" fill-rule="nonzero"/>
    <path transform="matrix(1 0 0 1 1866 509)" d="M0 0L2 0L7 11L12 21L11 26L0 51L-2 55L-3 55L-3 46L-1 23L0 0z" stroke="none" fill="#ECF7F8" fill-rule="nonzero"/>
    <path transform="matrix(1 0 0 1 1554 656)" d="M0 0L4 1L-1 13L-2 21L-3 24L-1 28L-3 33L-5 32L-6 34L-2 35L-2 42L-2 45L-5 46L-5 43L-9 49L-12 49L-17 61L-25 69L-30 69L-25 64L-19 56L-15 45L-12 36L-11 32L-9 32L-8 24L-7 17L-5 17L-3 3L0 0z" stroke="none" fill="#8A9B93" fill-rule="nonzero"/>
    <path transform="matrix(1 0 0 1 1515 490)" d="M0 0L3 1L8 9L8 11L16 15L12 17L5 27L0 29L-8 19L-8 17L-14 17L-14 13L-8 11L-2 6L0 0z" stroke="none" fill="#313C41" fill-rule="nonzero"/>
    <path transform="matrix(1 0 0 1 1572 562)" d="M0 0L3 0L3 139L2 139L1 85L0 90L-3 90L-3 88L-1 88L-1 85L-3 84L0 84L-1 81L-5 80L-6 78L-11 76L-11 73L-12 70L-8 71L-3 76L0 78L0 0z" stroke="none" fill="#516266" fill-rule="nonzero"/>
    <path transform="matrix(1 0 0 1 1606 350)" d="M0 0L4 2L13 12L17 14L23 15L23 17L16 17L5 9L4 6L2 7L0 12L-2 12L-4 16L-12 24L-19 27L-31 27L-30 37L-31 49L-40 60L-45 66L-40 68L-31 75L-26 80L-26 82L-30 80L-34 75L-41 70L-46 68L-46 63L-35 51L-35 25L-38 25L-38 23L-12 22L-10 18L-2 9L0 0z" stroke="none" fill="#445154" fill-rule="nonzero"/>
    <path transform="matrix(1 0 0 1 1871 452)" d="M0 0L17 0L17 13L9 25L6 24L0 15L-1 11L-1 1L0 0z" stroke="none" fill="#D1E6EE" fill-rule="nonzero"/>
    <path transform="matrix(1 0 0 1 1557 495)" d="M0 0L2 1L6 9L16 19L16 21L24 21L23 24L12 31L6 38L2 46L-1 46L-3 39L-12 29L-17 25L-23 23L-23 21L-16 19L-6 10L-2 5L0 0zM-1 8L-9 17L-15 21L-14 24L-6 31L0 38L2 38L9 30L17 23L12 19L3 10L2 8z" stroke="none" fill="#354044" fill-rule="nonzero"/>
    <path transform="matrix(1 0 0 1 1217 403)" d="M0 0L2 0L2 2L-1 4L-2 74L-4 86L-6 84L-6 7L-8 6L0 0z" stroke="none" fill="#5B7176" fill-rule="nonzero"/>
    <path transform="matrix(1 0 0 1 1241 701)" d="M0 0L5 0L7 5L7 21L-2 21L-3 12L-4 6L-11 7L-29 7L-37 4L-38 7L-38 2L0 2L0 0z" stroke="none" fill="#9DB8BD" fill-rule="nonzero"/>
    <path transform="matrix(1 0 0 1 1702 367)" d="M0 0L1 0L2 6L153 6L154 4L154 7L156 8L153 9L4 9L0 8L0 0z" stroke="none" fill="#A2C0C3" fill-rule="nonzero"/>
    <path transform="matrix(1 0 0 1 1741 729)" d="M0 0L68 0L90 1L90 3L-25 4L-37 3L-37 2L0 0z" stroke="none" fill="#ACD0CF" fill-rule="nonzero"/>
    <path transform="matrix(1 0 0 1 1891 510)" d="M0 0L1 0L4 36L5 42L5 51L2 48L-3 36L-9 26L-8 17L-1 3L0 0z" stroke="none" fill="#CFE4EB" fill-rule="nonzero"/>
    <path transform="matrix(1 0 0 1 1203 412)" d="M0 0L1 3L-11 9L-21 15L-27 18L-44 28L-55 34L-60 38L-66 41L-75 40L-78 37L-77 34L-77 36L-73 35L-72 37L-66 36L-47 24L-19 9L-11 4L0 0z" stroke="none" fill="#374246" fill-rule="nonzero"/>
    <path transform="matrix(1 0 0 1 1414 203)" d="M0 0L15 0L30 3L40 7L52 14L62 23L71 34L76 40L78 41L78 43L72 44L67 35L52 20L42 13L40 12L40 10L31 7L18 4L5 3L5 2L0 1L0 0z" stroke="none" fill="#798E8D" fill-rule="nonzero"/>
    <path transform="matrix(1 0 0 1 1299 692)" d="M0 0L1 3L58 3L58 5L55 5L55 7L49 8L-1 8L-1 1L0 0z" stroke="none" fill="#AFD5D3" fill-rule="nonzero"/>
    <path transform="matrix(1 0 0 1 1791 597)" d="M0 0L2 0L3 2L3 52L2 56L-2 57L-38 57L-37 48L-36 48L-35 53L0 54L-1 1L0 0z" stroke="none" fill="#425054" fill-rule="nonzero"/>
    <path transform="matrix(1 0 0 1 1649 360)" d="M0 0L2 0L3 26L9 33L23 40L24 45L16 51L10 58L8 63L7 74L3 72L5 62L10 52L14 47L20 43L7 35L-1 27L-1 7L-11 8L-11 5L-1 4L0 0z" stroke="none" fill="#505F62" fill-rule="nonzero"/>
    <path transform="matrix(1 0 0 1 1218 406)" d="M0 0L4 0L4 29L2 47L1 49L-1 49L-2 51L-2 1L0 0z" stroke="none" fill="#D2E7EF" fill-rule="nonzero"/>
    <path transform="matrix(1 0 0 1 1765 322)" d="M0 0L4 1L3 4L-3 5L-9 8L-19 15L-25 22L-43 23L-52 30L-58 40L-59 52L-62 51L-62 42L-59 35L-53 26L-43 19L-39 17L-25 18L-24 15L-22 15L-22 13L-9 4L0 0z" stroke="none" fill="#4F5F62" fill-rule="nonzero"/>
    <path transform="matrix(1 0 0 1 1300 681)" d="M0 0L1 0L1 10L-1 12L-2 19L33 19L32 22L32 45L29 45L29 23L-1 23L-5 16L-5 10L-1 4L0 0z" stroke="none" fill="#3A454A" fill-rule="nonzero"/>
    <path transform="matrix(1 0 0 1 1272 649)" d="M0 0L1 2L-2 11L-5 17L-13 43L-14 44L-14 61L-9 70L-9 73L-14 71L-19 61L-19 45L-15 34L-5 9L0 0z" stroke="none" fill="#607171" fill-rule="nonzero"/>
    <path transform="matrix(1 0 0 1 1846 445)" d="M0 0L21 0L21 8L0 9L-5 26L-6 32L-9 32L-8 23L-6 19L-5 8L-1 3L0 0z" stroke="none" fill="#9CB7BB" fill-rule="nonzero"/>
    <path transform="matrix(1 0 0 1 1227 621)" d="M0 0L2 0L3 3L3 55L2 55L2 45L-1 45L-3 36L-5 35L-5 26L-3 12L-1 11L0 0z" stroke="none" fill="#CFE5EC" fill-rule="nonzero"/>
    <path transform="matrix(1 0 0 1 1228 543)" d="M0 0L2 0L3 31L4 47L5 49L6 77L4 78L3 72L1 71L0 44L-1 32L-1 1L0 0z" stroke="none" fill="#7B8E88" fill-rule="nonzero"/>
    <path transform="matrix(1 0 0 1 1264 547)" d="M0 0L142 1L141 3L1 2L1 11L-1 12L-3 24L-5 24L-7 16L-6 7L0 0z" stroke="none" fill="#A9CCCC" fill-rule="nonzero"/>
    <path transform="matrix(1 0 0 1 1182 343)" d="M0 0L38 0L36 4L40 5L40 25L36 30L33 31L34 3L0 3L0 0z" stroke="none" fill="#637E85" fill-rule="nonzero"/>
    <path transform="matrix(1 0 0 1 1227 476)" d="M0 0L2 0L4 17L4 67L0 68L0 0z" stroke="none" fill="#667E83" fill-rule="nonzero"/>
    <path transform="matrix(1 0 0 1 1242 371)" d="M0 0L8 0L9 1L9 6L1 11L-4 12L0 14L-15 14L-15 7L-13 3L0 0z" stroke="none" fill="#9CB8BB" fill-rule="nonzero"/>
    <path transform="matrix(1 0 0 1 1266 668)" d="M0 0L3 1L1 11L-4 29L-4 37L0 48L2 52L6 55L-3 55L-6 48L-9 42L-9 25L-6 19L-2 6L0 0z" stroke="none" fill="#D3CDA6" fill-rule="nonzero"/>
    <path transform="matrix(1 0 0 1 1363 638)" d="M0 0L2 1L4 12L24 12L24 13L18 14L18 15L31 16L31 17L10 18L6 26L4 25L2 18L-9 17L-10 14L-21 13L-21 12L-1 12L-1 5L0 0z" stroke="none" fill="#CAE2E7" fill-rule="nonzero"/>
    <path transform="matrix(1 0 0 1 1581 434)" d="M0 0L3 2L4 16L28 16L32 19L32 21L36 23L40 27L50 14L56 9L58 10L49 19L43 28L41 32L38 31L34 25L27 19L16 18L-1 20L-1 1L0 0z" stroke="none" fill="#4F5D5F" fill-rule="nonzero"/>
    <path transform="matrix(1 0 0 1 1903 639)" d="M0 0L1 0L2 24L3 33L3 42L0 42L-2 20L-2 12L-4 12L-5 16L-15 33L-20 41L-21 46L-24 42L-24 39L-21 35L-7 12L-6 11L-1 11L0 0z" stroke="none" fill="#4E5D61" fill-rule="nonzero"/>
    <path transform="matrix(1 0 0 1 1172 410)" d="M0 0L2 0L1 3L-15 15L-28 25L-40 35L-43 38L-46 38L-45 33L-32 23L-16 10L-7 3L-2 1L0 0z" stroke="none" fill="#343F43" fill-rule="nonzero"/>
    <path transform="matrix(1 0 0 1 1206 574)" d="M0 0L2 4L2 29L0 50L-2 57L-3 74L-4 74L-4 52L-2 12L-1 1L0 0z" stroke="none" fill="#9FBCC0" fill-rule="nonzero"/>
    <path transform="matrix(1 0 0 1 1238 339)" d="M0 0L6 1L15 6L18 11L18 22L21 23L9 27L6 27L6 23L2 19L2 17L-6 17L-6 16L4 16L5 14L7 20L15 20L14 11L8 6L2 6L-2 8L-3 4L0 0z" stroke="none" fill="#445255" fill-rule="nonzero"/>
    <path transform="matrix(1 0 0 1 1560 634)" d="M0 0L3 3L7 6L7 8L12 9L12 12L9 12L7 16L3 18L3 20L-2 18L-6 14L-5 5L-3 1L0 0z" stroke="none" fill="#9EBCBE" fill-rule="nonzero"/>
    <path transform="matrix(1 0 0 1 1300 391)" d="M0 0L10 2L20 6L36 12L46 17L51 20L55 23L50 22L19 11L-3 2L0 0z" stroke="none" fill="#A0BEC0" fill-rule="nonzero"/>
    <path transform="matrix(1 0 0 1 1213 485)" d="M0 0L1 0L0 25L-2 51L-6 51L-6 20L-3 19L-2 2L0 0z" stroke="none" fill="#7B8E88" fill-rule="nonzero"/>
    <path transform="matrix(1 0 0 1 1551 651)" d="M0 0L4 1L9 6L8 18L3 40L-3 39L-2 36L0 37L1 33L0 31L-2 34L-1 27L0 25L1 18L4 12L6 6L1 6L0 8L0 0z" stroke="none" fill="#ABC5BD" fill-rule="nonzero"/>
    <path transform="matrix(1 0 0 1 1223 373)" d="M0 0L4 0L3 50L1 51L0 26L-3 22L-3 12L0 0z" stroke="none" fill="#2F393E" fill-rule="nonzero"/>
    <path transform="matrix(1 0 0 1 1279 355)" d="M0 0L6 1L22 10L34 18L42 22L39 25L27 19L21 15L20 13L3 5L-7 3L-6 1L0 0z" stroke="none" fill="#414E52" fill-rule="nonzero"/>
    <path transform="matrix(1 0 0 1 1344 571)" d="M0 0L1 4L-2 11L-2 14L-2 17L-4 19L-23 19L-27 15L-13 14L-13 12L-8 9L-4 8L-3 1L0 0z" stroke="none" fill="#7B8E89" fill-rule="nonzero"/>
    <path transform="matrix(1 0 0 1 1435 641)" d="M0 0L2 0L9 24L15 46L15 54L9 58L8 55L12 54L9 40L0 6L0 0z" stroke="none" fill="#58696D" fill-rule="nonzero"/>
    <path transform="matrix(1 0 0 1 1226 385)" d="M0 0L1 0L2 57L4 87L4 97L3 97L3 91L1 91L1 97L0 97L-2 71L-2 60L-1 60L0 0z" stroke="none" fill="#789296" fill-rule="nonzero"/>
    <path transform="matrix(1 0 0 1 1549 697)" d="M0 0L1 3L-5 18L-10 26L-13 29L-15 29L-15 32L-19 33L-25 31L-25 29L-20 27L-13 20L-7 7L-4 7L0 0z" stroke="none" fill="#A2B8B3" fill-rule="nonzero"/>
    <path transform="matrix(1 0 0 1 1271 676)" d="M0 0L1 2L-5 18L-6 27L-3 36L3 44L8 49L-1 46L-4 44L-9 33L-10 29L-10 21L-7 12L-4 5L-2 5L-2 1L0 0z" stroke="none" fill="#5E6F70" fill-rule="nonzero"/>
    <path transform="matrix(1 0 0 1 1208 383)" d="M0 0L2 1L-1 4L7 5L7 10L-6 19L-12 19L-13 16L-5 7L-4 3L0 0z" stroke="none" fill="#D3E8EF" fill-rule="nonzero"/>
    <path transform="matrix(1 0 0 1 1233 340)" d="M0 0L1 0L2 10L-3 15L-7 24L-11 26L-11 6L-9 4L-6 4L-6 6L-3 6L0 0z" stroke="none" fill="#ABCFCD" fill-rule="nonzero"/>
    <path transform="matrix(1 0 0 1 1233 621)" d="M0 0L2 0L2 37L1 79L7 79L7 80L-28 80L-28 79L-1 79L-1 11L0 0z" stroke="none" fill="#758A88" fill-rule="nonzero"/>
    <path transform="matrix(1 0 0 1 1355 604)" d="M0 0L2 0L2 8L-1 8L-2 17L-26 17L-26 13L-7 13L-6 6L-2 1L0 0z" stroke="none" fill="#475459" fill-rule="nonzero"/>
    <path transform="matrix(1 0 0 1 1575 570)" d="M0 0L1 0L2 81L3 109L1 129L0 129L0 0z" stroke="none" fill="#A2C0C3" fill-rule="nonzero"/>
    <path transform="matrix(1 0 0 1 1215 612)" d="M0 0L9 0L9 16L8 17L0 17L-1 16L-1 2L0 0z" stroke="none" fill="#CAE0E7" fill-rule="nonzero"/>
    <path transform="matrix(1 0 0 1 1890 434)" d="M0 0L1 0L1 12L23 12L26 18L29 31L31 31L32 43L28 42L25 30L22 21L21 14L1 15L0 14L0 0z" stroke="none" fill="#506064" fill-rule="nonzero"/>
    <path transform="matrix(1 0 0 1 1790 727)" d="M0 0L43 0L43 4L17 3L-45 3L-49 1L0 0z" stroke="none" fill="#D3E8F0" fill-rule="nonzero"/>
    <path transform="matrix(1 0 0 1 1561 610)" d="M0 0L2 0L2 3L9 3L9 5L0 5L-2 20L-4 26L-1 27L-6 27L-8 33L-9 33L-10 21L-13 21L-14 25L-18 33L-20 33L-18 24L-12 19L-8 20L-8 22L-6 22L-5 9L-1 4L0 0z" stroke="none" fill="#364247" fill-rule="nonzero"/>
    <path transform="matrix(1 0 0 1 1889 468)" d="M0 0L1 0L2 16L4 31L0 27L-8 14L-7 9L0 0z" stroke="none" fill="#C9E0E7" fill-rule="nonzero"/>
    <path transform="matrix(1 0 0 1 1345 562)" d="M0 0L21 0L25 7L25 14L22 10L21 5L18 4L2 4L-3 10L-5 17L-8 16L-8 10L-2 1L0 0z" stroke="none" fill="#48565A" fill-rule="nonzero"/>
    <path transform="matrix(1 0 0 1 1240 344)" d="M0 0L6 0L13 6L14 12L13 15L5 16L2 9L-1 7L-1 1L0 0z" stroke="none" fill="#CAE1E8" fill-rule="nonzero"/>
    <path transform="matrix(1 0 0 1 1351 227)" d="M0 0L12 0L16 2L3 3L-8 9L-16 16L-23 28L-26 39L-28 40L-27 31L-23 21L-17 12L-9 5L0 0z" stroke="none" fill="#425054" fill-rule="nonzero"/>
    <path transform="matrix(1 0 0 1 1309 587)" d="M0 0L2 0L3 7L5 8L-19 10L-21 3L-21 2L-1 1L0 0z" stroke="none" fill="#ACCECF" fill-rule="nonzero"/>
    <path transform="matrix(1 0 0 1 1569 647)" d="M0 0L2 0L2 3L0 3L0 6L-4 8L-10 34L-15 50L-17 52L-18 50L-18 44L-15 44L-14 35L-10 16L-9 9L-7 8L-6 5L0 0z" stroke="none" fill="#2E383C" fill-rule="nonzero"/>
    <path transform="matrix(1 0 0 1 1587 540)" d="M0 0L6 2L7 7L5 12L4 13L-7 13L-7 1L0 0z" stroke="none" fill="#697D80" fill-rule="nonzero"/>
    <path transform="matrix(1 0 0 1 1869 470)" d="M0 0L3 1L8 8L7 15L-1 28L-2 31L-4 31L-1 12L0 0z" stroke="none" fill="#CCE2E9" fill-rule="nonzero"/>
    <path transform="matrix(1 0 0 1 1960 321)" d="M0 0L5 2L12 11L15 17L20 17L23 15L41 15L40 18L21 19L16 24L13 25L11 16L5 7L0 2L0 0z" stroke="none" fill="#384549" fill-rule="nonzero"/>
    <path transform="matrix(1 0 0 1 1904 681)" d="M0 0L2 0L3 5L4 47L5 53L1 52L-4 42L-3 39L1 44L0 24L0 0z" stroke="none" fill="#3A4649" fill-rule="nonzero"/>
    <path transform="matrix(1 0 0 1 1866 469)" d="M0 0L1 0L2 5L3 5L3 13L0 32L-1 34L-1 77L-2 86L-3 86L-4 79L-3 30L0 0z" stroke="none" fill="#516266" fill-rule="nonzero"/>
    <path transform="matrix(1 0 0 1 1881 482)" d="M0 0L4 5L11 16L11 18L14 18L14 49L12 48L11 42L11 27L9 26L10 20L3 11L-1 4L0 0z" stroke="none" fill="#39454A" fill-rule="nonzero"/>
    <path transform="matrix(1 0 0 1 1160 434)" d="M0 0L4 1L4 3L-12 12L-17 16L-23 19L-32 18L-35 15L-34 12L-34 14L-30 13L-29 15L-23 14L-4 2L0 0z" stroke="none" fill="#3A464A" fill-rule="nonzero"/>
    <path transform="matrix(1 0 0 1 1515 498)" d="M0 0L4 1L10 6L7 11L2 16L0 16L-4 10L-8 6L0 0z" stroke="none" fill="#CCE2E8" fill-rule="nonzero"/>
    <path transform="matrix(1 0 0 1 1900 618)" d="M0 0L2 0L3 2L3 33L-2 32L-1 22L-10 7L-9 3L-5 8L0 18L0 0z" stroke="none" fill="#333E43" fill-rule="nonzero"/>
    <path transform="matrix(1 0 0 1 1611 383)" d="M0 0L12 0L13 4L-6 9L-11 11L-11 8L-17 12L-15 8L-10 4L0 0z" stroke="none" fill="#F0FAFB" fill-rule="nonzero"/>
    <path transform="matrix(1 0 0 1 1214 333)" d="M0 0L4 2L9 7L9 10L-32 10L-31 8L-27 7L2 7L0 0z" stroke="none" fill="#9FBCC0" fill-rule="nonzero"/>
    <path transform="matrix(1 0 0 1 1946 259)" d="M0 0L4 1L3 4L-3 6L-9 13L-14 22L-24 17L-34 17L-39 20L-42 19L-36 14L-28 13L-14 18L-13 14L-7 5L-3 1L0 0z" stroke="none" fill="#404D51" fill-rule="nonzero"/>
    <path transform="matrix(1 0 0 1 1420 586)" d="M0 0L2 3L4 13L4 20L6 20L15 46L16 55L14 57L9 38L6 31L4 28L-1 9L0 0z" stroke="none" fill="#748A88" fill-rule="nonzero"/>
    <path transform="matrix(1 0 0 1 1375 562)" d="M0 0L23 0L25 4L22 4L1 4L3 12L5 21L6 25L4 25L-1 11L-1 1L0 0z" stroke="none" fill="#4E5D62" fill-rule="nonzero"/>
    <path transform="matrix(1 0 0 1 1270 379)" d="M0 0L8 0L53 17L54 19L48 18L32 13L12 6L0 1L0 0z" stroke="none" fill="#374347" fill-rule="nonzero"/>
    <path transform="matrix(1 0 0 1 1207 536)" d="M0 0L4 0L3 44L0 42L0 0z" stroke="none" fill="#5B7278" fill-rule="nonzero"/>
    <path transform="matrix(1 0 0 1 1333 700)" d="M0 0L40 0L40 1L34 2L47 3L47 4L-1 4L-2 2L0 2L0 0z" stroke="none" fill="#52656B" fill-rule="nonzero"/>
    <path transform="matrix(1 0 0 1 1572 376)" d="M0 0L2 0L2 5L3 6L3 23L-6 34L-11 40L-6 42L3 49L8 54L8 56L4 54L0 49L-7 44L-12 42L-12 37L-1 25L0 0z" stroke="none" fill="#384347" fill-rule="nonzero"/>
    <path transform="matrix(1 0 0 1 1570 617)" d="M0 0L1 0L1 20L-3 21L-6 18L-6 16L-10 14L-8 13L-8 7L-2 2L0 2L0 0z" stroke="none" fill="#EFF9FB" fill-rule="nonzero"/>
    <path transform="matrix(1 0 0 1 1271 357)" d="M0 0L7 2L7 3L-3 6L-13 10L-17 13L-27 12L-27 9L-17 6L-15 3L-3 1L0 0z" stroke="none" fill="#576A6E" fill-rule="nonzero"/>
    <path transform="matrix(1 0 0 1 1702 588)" d="M0 0L2 0L0 5L-3 12L0 11L-2 16L-11 31L-16 32L-14 26L-12 26L-11 21L-7 16L-9 11L-6 6L0 0z" stroke="none" fill="#3F4C50" fill-rule="nonzero"/>
    <path transform="matrix(1 0 0 1 1557 495)" d="M0 0L2 1L6 9L16 19L16 21L19 22L17 23L12 20L2 10L2 8L-1 9L-8 17L-13 21L-15 21L-16 23L-15 18L-7 11L-2 5L0 0z" stroke="none" fill="#3C484C" fill-rule="nonzero"/>
    <path transform="matrix(1 0 0 1 1301 684)" d="M0 0L1 0L1 9L55 9L69 10L69 11L-1 11L0 0z" stroke="none" fill="#7C8F89" fill-rule="nonzero"/>
    <path transform="matrix(1 0 0 1 1870 435)" d="M0 0L1 0L1 10L18 10L18 17L0 18L0 0z" stroke="none" fill="#9DB9BD" fill-rule="nonzero"/>
    <path transform="matrix(1 0 0 1 1244 701)" d="M0 0L3 1L4 5L4 21L-5 21L-5 19L-3 19L-3 6L-1 1L0 0z" stroke="none" fill="#9EBABF" fill-rule="nonzero"/>
    <path transform="matrix(1 0 0 1 1377 597)" d="M0 0L2 2L5 12L7 19L7 24L-17 24L-19 23L-18 19L-9 20L3 19L1 7L0 0z" stroke="none" fill="#48565A" fill-rule="nonzero"/>
    <path transform="matrix(1 0 0 1 1597 533)" d="M0 0L1 4L0 2L-4 3L-22 3L-22 26L-17 26L-19 28L-25 29L-25 1L0 0z" stroke="none" fill="#4E5D60" fill-rule="nonzero"/>
    <path transform="matrix(1 0 0 1 1232 356)" d="M0 0L8 0L11 5L11 10L7 13L0 13L-1 12L-1 1L0 0z" stroke="none" fill="#CFE5EC" fill-rule="nonzero"/>
    <path transform="matrix(1 0 0 1 1209 326)" d="M0 0L4 1L15 10L22 16L21 24L20 20L18 20L18 18L14 20L11 24L11 22L8 21L9 19L7 18L14 16L13 12L9 10L0 3L0 0z" stroke="none" fill="#475559" fill-rule="nonzero"/>
    <path transform="matrix(1 0 0 1 1643 612)" d="M0 0L1 3L-11 26L-14 32L-18 38L-23 42L-22 37L-8 12L-2 1L0 0z" stroke="none" fill="#394448" fill-rule="nonzero"/>
    <path transform="matrix(1 0 0 1 1282 562)" d="M0 0L21 0L23 1L28 15L28 22L26 19L23 11L21 6L19 5L0 5L0 0z" stroke="none" fill="#47555A" fill-rule="nonzero"/>
    <path transform="matrix(1 0 0 1 1561 615)" d="M0 0L10 0L11 1L11 25L8 24L9 22L9 4L2 9L0 17L-1 20L-4 20L-3 15L-1 2L0 0z" stroke="none" fill="#CAE1E6" fill-rule="nonzero"/>
    <path transform="matrix(1 0 0 1 1855 684)" d="M0 0L1 0L0 21L0 42L-3 42L-4 47L-5 47L-4 18L-3 4L-1 3L0 0z" stroke="none" fill="#58696C" fill-rule="nonzero"/>
    <path transform="matrix(1 0 0 1 1856 695)" d="M0 0L1 0L2 9L6 10L7 15L0 29L-2 30L-2 10L0 0z" stroke="none" fill="#E1F0F3" fill-rule="nonzero"/>
    <path transform="matrix(1 0 0 1 1765 322)" d="M0 0L4 1L3 4L-3 5L-9 8L-19 15L-24 21L-38 21L-37 18L-25 18L-24 15L-22 15L-22 13L-9 4L0 0z" stroke="none" fill="#5C6D70" fill-rule="nonzero"/>
    <path transform="matrix(1 0 0 1 1210 549)" d="M0 0L1 0L1 60L3 61L-1 64L-2 61L-2 30L-1 30L0 0z" stroke="none" fill="#6A8387" fill-rule="nonzero"/>
    <path transform="matrix(1 0 0 1 1812 539)" d="M0 0L6 1L9 4L8 10L3 14L-2 12L-4 9L-4 4L0 0z" stroke="none" fill="#4F5F62" fill-rule="nonzero"/>
    <path transform="matrix(1 0 0 1 1235 349)" d="M0 0L7 3L7 6L-3 6L-3 21L1 22L-7 21L-8 23L-8 18L-12 20L-12 16L-8 12L-5 5L0 0z" stroke="none" fill="#2A3338" fill-rule="nonzero"/>
    <path transform="matrix(1 0 0 1 1275 591)" d="M0 0L2 1L3 13L2 15L0 15L-2 21L-5 21L-7 12L-7 9L-5 9L-3 4L0 0z" stroke="none" fill="#7A8F8B" fill-rule="nonzero"/>
    <path transform="matrix(1 0 0 1 1882 685)" d="M0 0L4 5L17 28L21 35L20 37L16 35L6 16L-3 2L0 0z" stroke="none" fill="#526164" fill-rule="nonzero"/>
    <path transform="matrix(1 0 0 1 1323 396)" d="M0 0L6 2L24 9L39 16L39 10L40 10L40 17L38 19L32 18L24 14L18 10L2 4L0 2L0 0z" stroke="none" fill="#58696C" fill-rule="nonzero"/>
    <path transform="matrix(1 0 0 1 1179 344)" d="M0 0L7 0L3 1L3 37L5 39L-1 38L-1 1L0 0z" stroke="none" fill="#252E33" fill-rule="nonzero"/>
    <path transform="matrix(1 0 0 1 1300 681)" d="M0 0L1 0L1 10L-1 12L-2 19L14 19L14 20L28 22L28 23L-1 23L-5 16L-5 10L-1 4L0 0z" stroke="none" fill="#586F76" fill-rule="nonzero"/>
    <path transform="matrix(1 0 0 1 1623 650)" d="M0 0L2 1L-1 6L-3 6L-3 9L-5 9L-11 24L-9 24L-7 20L-5 22L-15 30L-18 30L-17 25L-7 7L-3 2L-2 3L0 0z" stroke="none" fill="#404D50" fill-rule="nonzero"/>
    <path transform="matrix(1 0 0 1 1284 621)" d="M0 0L2 2L2 11L-1 23L-3 23L-4 18L-8 19L-6 9L0 0z" stroke="none" fill="#596E73" fill-rule="nonzero"/>
    <path transform="matrix(1 0 0 1 1227 501)" d="M0 0L3 0L3 42L0 43L0 0z" stroke="none" fill="#49565B" fill-rule="nonzero"/>
    <path transform="matrix(1 0 0 1 1861 613)" d="M0 0L10 0L8 5L0 19L-2 20L-1 1L0 0z" stroke="none" fill="#ECF7F9" fill-rule="nonzero"/>
    <path transform="matrix(1 0 0 1 1543 689)" d="M0 0L4 0L4 2L2 2L0 11L-4 24L-8 30L-14 36L-19 36L-14 31L-8 23L-4 12L-1 3L0 0z" stroke="none" fill="#313C40" fill-rule="nonzero"/>
    <path transform="matrix(1 0 0 1 1753 596)" d="M0 0L27 0L23 3L9 3L1 2L1 56L0 56L0 0z" stroke="none" fill="#7C979D" fill-rule="nonzero"/>
    <path transform="matrix(1 0 0 1 1846 450)" d="M0 0L21 1L21 3L0 4L-5 21L-6 27L-9 27L-8 18L-6 14L-5 5L0 0z" stroke="none" fill="#889E9C" fill-rule="nonzero"/>
    <path transform="matrix(1 0 0 1 1195 390)" d="M0 0L3 1L-2 6L-12 14L-20 21L-25 22L-25 19L-11 7L-3 1L0 0z" stroke="none" fill="#435155" fill-rule="nonzero"/>
    <path transform="matrix(1 0 0 1 1217 403)" d="M0 0L2 0L2 2L-1 4L-2 9L-3 36L-3 52L-5 52L-6 8L-8 6L0 0z" stroke="none" fill="#242C31" fill-rule="nonzero"/>
    <path transform="matrix(1 0 0 1 1221 245)" d="M0 0L2 0L5 19L5 39L3 37L-1 9L-1 2L0 0z" stroke="none" fill="#4B5A5D" fill-rule="nonzero"/>
    <path transform="matrix(1 0 0 1 1648 601)" d="M0 0L5 5L16 17L21 15L18 20L14 21L7 13L7 11L4 10L0 6L-3 12L-6 12L-4 6L0 0z" stroke="none" fill="#3A464A" fill-rule="nonzero"/>
    <path transform="matrix(1 0 0 1 1213 609)" d="M0 0L13 0L13 5L11 4L2 3L2 19L6 22L-2 22L-2 1L0 0z" stroke="none" fill="#4E5E63" fill-rule="nonzero"/>
    <path transform="matrix(1 0 0 1 1279 607)" d="M0 0L2 1L4 10L-1 18L-4 21L-6 17L-6 9L0 0z" stroke="none" fill="#7B8E88" fill-rule="nonzero"/>
    <path transform="matrix(1 0 0 1 1298 610)" d="M0 0L2 1L1 7L15 7L22 8L23 11L1 11L-2 10L-3 3L0 0z" stroke="none" fill="#3F4B4F" fill-rule="nonzero"/>
    <path transform="matrix(1 0 0 1 1779 637)" d="M0 0L4 1L4 7L-14 7L-14 1L0 0z" stroke="none" fill="#D3CCA4" fill-rule="nonzero"/>
    <path transform="matrix(1 0 0 1 1551 700)" d="M0 0L1 0L0 8L-4 18L-8 24L-12 26L-15 26L-14 23L-12 23L-10 18L-2 2L0 2L0 0z" stroke="none" fill="#4E5C5F" fill-rule="nonzero"/>
    <path transform="matrix(1 0 0 1 1572 652)" d="M0 0L1 0L2 51L3 51L3 71L0 70L0 0z" stroke="none" fill="#576A6E" fill-rule="nonzero"/>
    <path transform="matrix(1 0 0 1 1775 631)" d="M0 0L7 2L8 0L8 7L-10 7L-10 13L-11 13L-11 2L-1 1L0 0z" stroke="none" fill="#AFD5D3" fill-rule="nonzero"/>
    <path transform="matrix(1 0 0 1 1490 240)" d="M0 0L7 0L17 2L25 7L31 16L29 21L27 17L20 9L12 5L0 1L0 0z" stroke="none" fill="#7C9391" fill-rule="nonzero"/>
    <path transform="matrix(1 0 0 1 1270 577)" d="M0 0L2 1L4 10L-2 20L-4 20L-6 9L0 0z" stroke="none" fill="#647C81" fill-rule="nonzero"/>
    <path transform="matrix(1 0 0 1 1671 400)" d="M0 0L2 2L1 6L-5 10L-12 18L-14 23L-15 34L-19 32L-17 22L-12 12L-8 7L-2 3L0 2L0 0z" stroke="none" fill="#526265" fill-rule="nonzero"/>
    <path transform="matrix(1 0 0 1 1791 597)" d="M0 0L2 0L3 2L3 52L1 53L0 3L0 0z" stroke="none" fill="#2C353A" fill-rule="nonzero"/>
    <path transform="matrix(1 0 0 1 1315 562)" d="M0 0L18 0L21 1L21 4L-1 4L-1 12L-3 12L-4 10L-4 4L0 0z" stroke="none" fill="#4C5B60" fill-rule="nonzero"/>
    <path transform="matrix(1 0 0 1 1182 343)" d="M0 0L38 0L35 5L34 3L0 3L0 0z" stroke="none" fill="#62777A" fill-rule="nonzero"/>
    <path transform="matrix(1 0 0 1 1272 649)" d="M0 0L1 2L-2 11L-5 17L-9 30L-14 40L-16 40L-15 34L-5 9L0 0z" stroke="none" fill="#526164" fill-rule="nonzero"/>
    <path transform="matrix(1 0 0 1 1857 642)" d="M0 0L2 0L8 11L19 31L20 34L17 35L6 14L3 9L3 7L1 7L0 10L0 0z" stroke="none" fill="#394449" fill-rule="nonzero"/>
    <path transform="matrix(1 0 0 1 1201 700)" d="M0 0L40 1L40 3L2 4L2 15L-1 15L-1 6L0 0z" stroke="none" fill="#424E52" fill-rule="nonzero"/>
    <path transform="matrix(1 0 0 1 1859 574)" d="M0 0L1 0L1 8L3 8L3 24L2 40L0 44L-1 38L0 0z" stroke="none" fill="#4D5C60" fill-rule="nonzero"/>
    <path transform="matrix(1 0 0 1 1591 372)" d="M0 0L4 1L-4 5L-16 5L-15 15L-16 15L-18 8L-17 4L-19 4L-19 9L-20 9L-20 3L-23 3L-23 1L0 0z" stroke="none" fill="#677A7C" fill-rule="nonzero"/>
    <path transform="matrix(1 0 0 1 1296 665)" d="M0 0L2 3L3 13L0 16L-2 23L-4 22L-5 19L-5 10L0 0z" stroke="none" fill="#536467" fill-rule="nonzero"/>
    <path transform="matrix(1 0 0 1 1263 548)" d="M0 0L2 0L2 10L0 11L-2 23L-4 23L-6 15L-5 6L0 0z" stroke="none" fill="#758B8B" fill-rule="nonzero"/>
    <path transform="matrix(1 0 0 1 1866 501)" d="M0 0L2 3L7 13L6 17L2 11L2 8L0 8L0 31L-2 35L-2 2L0 0z" stroke="none" fill="#323D42" fill-rule="nonzero"/>
    <path transform="matrix(1 0 0 1 1778 321)" d="M0 0L6 0L15 4L21 5L21 6L8 7L0 7L-4 4L0 0z" stroke="none" fill="#EBF6F7" fill-rule="nonzero"/>
    <path transform="matrix(1 0 0 1 1354 613)" d="M0 0L4 0L4 7L9 9L10 11L8 11L8 21L6 21L4 12L-3 10L0 0z" stroke="none" fill="#C4DDE2" fill-rule="nonzero"/>
    <path transform="matrix(1 0 0 1 1426 612)" d="M0 0L1 0L4 12L8 27L7 32L4 33L-1 9L0 0z" stroke="none" fill="#AED0D0" fill-rule="nonzero"/>
    <path transform="matrix(1 0 0 1 1265 559)" d="M0 0L2 3L4 10L4 15L1 20L-2 24L-4 19L-4 13L-1 6L0 0z" stroke="none" fill="#5A6D70" fill-rule="nonzero"/>
    <path transform="matrix(1 0 0 1 1834 352)" d="M0 0L8 0L18 7L24 16L24 22L22 22L18 13L10 6L0 1L0 0z" stroke="none" fill="#526265" fill-rule="nonzero"/>
    <path transform="matrix(1 0 0 1 1413 206)" d="M0 0L19 0L32 3L36 6L30 6L30 4L8 4L0 2L0 0z" stroke="none" fill="#E5EEE9" fill-rule="nonzero"/>
    <path transform="matrix(1 0 0 1 1767 645)" d="M0 0L13 0L16 2L16 4L21 3L24 5L-6 5L-2 3L0 0z" stroke="none" fill="#F3FCFD" fill-rule="nonzero"/>
    <path transform="matrix(1 0 0 1 1233 313)" d="M0 0L1 0L4 25L3 32L6 32L6 38L2 36L-1 23L0 0z" stroke="none" fill="#627B81" fill-rule="nonzero"/>
    <path transform="matrix(1 0 0 1 1567 726)" d="M0 0L7 0L7 1L1 1L1 5L41 5L41 6L35 7L-3 8L0 7L0 0z" stroke="none" fill="#A7C9C9" fill-rule="nonzero"/>
    <path transform="matrix(1 0 0 1 1404 655)" d="M0 0L23 0L24 4L19 2L2 3L5 19L8 26L11 28L6 27L2 18L0 11L0 0z" stroke="none" fill="#4E5E62" fill-rule="nonzero"/>
    <path transform="matrix(1 0 0 1 1558 638)" d="M0 0L8 1L9 4L14 5L14 8L11 8L9 12L5 14L4 7L5 6L2 5L0 0z" stroke="none" fill="#C2DADF" fill-rule="nonzero"/>
    <path transform="matrix(1 0 0 1 1414 203)" d="M0 0L15 0L30 3L40 7L41 9L31 7L18 4L5 3L5 2L0 1L0 0z" stroke="none" fill="#5D7276" fill-rule="nonzero"/>
    <path transform="matrix(1 0 0 1 1299 692)" d="M0 0L1 3L54 3L54 4L9 5L9 7L-1 8L-1 1L0 0z" stroke="none" fill="#9DB8BD" fill-rule="nonzero"/>
    <path transform="matrix(1 0 0 1 1548 631)" d="M0 0L3 0L4 4L4 13L3 15L0 14L0 6L2 6L2 4L-1 6L-2 14L-2 17L0 17L0 19L-7 18L-6 15L-7 12L-5 11L-2 4L0 0z" stroke="none" fill="#B3CED2" fill-rule="nonzero"/>
    <path transform="matrix(1 0 0 1 1874 611)" d="M0 0L2 0L0 5L-8 18L-15 29L-17 30L-14 21L-3 2L0 0z" stroke="none" fill="#3F4B4F" fill-rule="nonzero"/>
    <path transform="matrix(1 0 0 1 1228 543)" d="M0 0L2 0L3 31L0 31L-1 20L-1 1L0 0z" stroke="none" fill="#6A8386" fill-rule="nonzero"/>
    <path transform="matrix(1 0 0 1 1895 521)" d="M0 0L1 0L3 25L3 43L0 42L0 31L-2 17L-2 9L-1 9L0 0z" stroke="none" fill="#57686C" fill-rule="nonzero"/>
    <path transform="matrix(1 0 0 1 1236 660)" d="M0 0L1 0L2 20L3 27L3 40L-1 39L-1 12L0 0z" stroke="none" fill="#B1D6D4" fill-rule="nonzero"/>
    <path transform="matrix(1 0 0 1 1351 395)" d="M0 0L8 4L14 9L15 11L15 22L10 21L12 11L8 9L1 5L1 3L-1 1L0 0z" stroke="none" fill="#516064" fill-rule="nonzero"/>
    <path transform="matrix(1 0 0 1 1387 212)" d="M-2 1L0 2L-2 6L-10 13L-14 19L-33 18L-33 17L-24 16L-24 15L-16 15L-6 4z" stroke="none" fill="#4F5E61" fill-rule="nonzero"/>
    <path transform="matrix(1 0 0 1 1206 682)" d="M0 0L1 0L1 8L-1 19L-4 18L-4 10L-8 10L-7 6L-3 2L0 0z" stroke="none" fill="#4B595D" fill-rule="nonzero"/>
    <path transform="matrix(1 0 0 1 1903 639)" d="M0 0L1 0L2 24L3 33L3 42L0 42L-1 31L-1 12L0 0z" stroke="none" fill="#475559" fill-rule="nonzero"/>
    <path transform="matrix(1 0 0 1 1292 652)" d="M0 0L2 0L2 10L-2 20L-4 20L-6 11L0 0z" stroke="none" fill="#536467" fill-rule="nonzero"/>
    <path transform="matrix(1 0 0 1 1227 442)" d="M0 0L1 0L3 30L3 40L2 40L2 34L0 34L0 40L-1 40L-2 16L0 16L0 0z" stroke="none" fill="#788C88" fill-rule="nonzero"/>
    <path transform="matrix(1 0 0 1 1553 667)" d="M0 0L3 1L3 7L0 8L2 9L3 15L1 24L-5 23L-4 20L-2 21L-1 17L-2 15L-4 18L-3 11L-2 9L-1 2L0 0z" stroke="none" fill="#A0B4AF" fill-rule="nonzero"/>
    <path transform="matrix(1 0 0 1 1862 548)" d="M0 0L1 0L2 15L6 5L9 4L8 10L4 19L3 17L1 17L0 21L-2 21L-2 10L0 0z" stroke="none" fill="#465457" fill-rule="nonzero"/>
    <path transform="matrix(1 0 0 1 1554 656)" d="M0 0L4 1L-1 13L-2 21L-5 23L-5 21L-7 21L-7 17L-5 17L-3 3L0 0z" stroke="none" fill="#384347" fill-rule="nonzero"/>
    <path transform="matrix(1 0 0 1 1287 636)" d="M0 0L3 2L3 11L-1 20L-6 21L-6 18L-4 18L-4 12L-1 5L0 0z" stroke="none" fill="#516266" fill-rule="nonzero"/>
    <path transform="matrix(1 0 0 1 1242 353)" d="M0 0L3 6L14 7L17 9L5 13L2 13L2 9L-2 5L-2 3L-10 3L-10 2L0 2L0 0z" stroke="none" fill="#394549" fill-rule="nonzero"/>
    <path transform="matrix(1 0 0 1 1373 655)" d="M0 0L19 0L19 1L1 3L1 8L-1 11L-3 11L-3 19L-5 16L-6 12L-2 2L0 0z" stroke="none" fill="#364246" fill-rule="nonzero"/>
    <path transform="matrix(1 0 0 1 1891 465)" d="M0 0L1 0L4 27L4 35L1 34L-1 19L-2 2L0 2L0 0z" stroke="none" fill="#5D7174" fill-rule="nonzero"/>
    <path transform="matrix(1 0 0 1 1327 400)" d="M0 0L14 5L21 10L28 13L25 14L1 5L1 3L-1 1L0 0z" stroke="none" fill="#9DB8BC" fill-rule="nonzero"/>
    <path transform="matrix(1 0 0 1 1388 637)" d="M0 0L2 4L4 13L-21 13L-20 9L-18 10L0 9L2 10L0 5L0 0z" stroke="none" fill="#4C5B5F" fill-rule="nonzero"/>
    <path transform="matrix(1 0 0 1 1889 507)" d="M0 0L2 1L3 3L-1 12L-5 20L-7 28L-8 28L-8 23L-10 23L-8 17L0 0z" stroke="none" fill="#62767A" fill-rule="nonzero"/>
    <path transform="matrix(1 0 0 1 1358 646)" d="M0 0L4 0L4 4L-22 4L-22 1L0 0z" stroke="none" fill="#48565A" fill-rule="nonzero"/>
    <path transform="matrix(1 0 0 1 1466 340)" d="M0 0L4 0L3 3L-7 6L-13 11L-15 11L-18 22L-20 22L-21 17L-15 8L-5 2L0 0z" stroke="none" fill="#404E53" fill-rule="nonzero"/>
    <path transform="matrix(1 0 0 1 1214 402)" d="M0 0L2 0L0 4L-4 7L-3 9L-10 12L-11 11L-18 14L-21 13L-6 3L0 0z" stroke="none" fill="#687C7D" fill-rule="nonzero"/>
    <path transform="matrix(1 0 0 1 1765 628)" d="M0 0L18 0L17 5L12 5L9 5L0 5L0 0z" stroke="none" fill="#D2CBA3" fill-rule="nonzero"/>
    <path transform="matrix(1 0 0 1 1230 615)" d="M0 0L2 3L3 6L2 37L0 33L0 0z" stroke="none" fill="#566668" fill-rule="nonzero"/>
    <path transform="matrix(1 0 0 1 1354 584)" d="M0 0L3 2L5 0L12 1L11 6L-4 6L-5 3L-3 1L0 2L0 0z" stroke="none" fill="#7B8E88" fill-rule="nonzero"/>
    <path transform="matrix(1 0 0 1 1620 656)" d="M0 0L2 3L1 5L3 5L4 8L0 10L0 12L-5 16L-8 19L-9 17L-2 3L0 3L0 0z" stroke="none" fill="#81958F" fill-rule="nonzero"/>
    <path transform="matrix(1 0 0 1 1362 624)" d="M0 0L22 0L22 1L3 1L3 14L1 14L0 21L-1 21L-2 14L-1 12L0 0z" stroke="none" fill="#435055" fill-rule="nonzero"/>
    <path transform="matrix(1 0 0 1 1307 696)" d="M0 0L18 0L20 3L14 4L-7 4L-7 3L1 3L0 0z" stroke="none" fill="#D3E8F0" fill-rule="nonzero"/>
    <path transform="matrix(1 0 0 1 1329 637)" d="M0 0L1 0L3 9L2 13L-3 13L1 12L0 10L-23 9L-23 8L-5 6L-2 6L-2 4L0 4L0 0z" stroke="none" fill="#7A8E8B" fill-rule="nonzero"/>
    <path transform="matrix(1 0 0 1 1649 378)" d="M0 0L1 0L2 9L12 17L22 22L22 24L17 23L7 17L-1 9L0 0z" stroke="none" fill="#3E4A4E" fill-rule="nonzero"/>
    <path transform="matrix(1 0 0 1 1226 271)" d="M0 0L1 0L5 25L5 28L3 28L1 24L0 24L-1 13L-1 2L0 0z" stroke="none" fill="#4F5E62" fill-rule="nonzero"/>
    <path transform="matrix(1 0 0 1 1475 227)" d="M0 0L7 6L15 16L17 17L17 19L11 20L6 11L3 8L2 4L0 0z" stroke="none" fill="#516164" fill-rule="nonzero"/>
    <path transform="matrix(1 0 0 1 1298 624)" d="M0 0L24 0L23 2L6 3L3 10L1 9L0 0z" stroke="none" fill="#4C5B5F" fill-rule="nonzero"/>
    <path transform="matrix(1 0 0 1 1539 717)" d="M0 0L2 0L0 6L-3 9L-5 9L-5 12L-9 13L-15 11L-15 9L-8 7L0 0z" stroke="none" fill="#CFCDA9" fill-rule="nonzero"/>
    <path transform="matrix(1 0 0 1 1224 368)" d="M0 0L2 0L2 5L-1 5L-3 17L-6 15L-9 14L-9 12L-11 11L-5 6L-3 6L-3 4L-1 4L0 0z" stroke="none" fill="#CCE2E8" fill-rule="nonzero"/>
    <path transform="matrix(1 0 0 1 1342 655)" d="M0 0L23 0L23 3L0 2L1 4L1 11L-1 11L-2 1L0 0z" stroke="none" fill="#48565A" fill-rule="nonzero"/>
    <path transform="matrix(1 0 0 1 1301 684)" d="M0 0L1 0L1 9L51 10L51 11L-1 11L0 0z" stroke="none" fill="#627D85" fill-rule="nonzero"/>
    <path transform="matrix(1 0 0 1 1890 582)" d="M0 0L3 2L-7 18L-10 21L-10 19L-12 18L-10 18L-8 12L0 0z" stroke="none" fill="#536367" fill-rule="nonzero"/>
    <path transform="matrix(1 0 0 1 1294 655)" d="M0 0L1 0L3 10L-2 20L-3 26L-4 26L-6 17L-4 17L-3 11L-1 7L0 0z" stroke="none" fill="#B3D1D4" fill-rule="nonzero"/>
    <path transform="matrix(1 0 0 1 1402 647)" d="M0 0L21 0L22 2L19 3L-2 3L-2 1L0 0z" stroke="none" fill="#323D42" fill-rule="nonzero"/>
    <path transform="matrix(1 0 0 1 1657 434)" d="M0 0L3 1L3 10L-18 9L-17 7L0 7L0 0z" stroke="none" fill="#374245" fill-rule="nonzero"/>
    <path transform="matrix(1 0 0 1 1519 257)" d="M0 0L2 1L2 14L-19 14L-18 12L-1 11L0 0z" stroke="none" fill="#272F34" fill-rule="nonzero"/>
    <path transform="matrix(1 0 0 1 1191 691)" d="M0 0L1 4L1 24L-2 24L-2 2L0 0z" stroke="none" fill="#536367" fill-rule="nonzero"/>
    <path transform="matrix(1 0 0 1 1813 539)" d="M0 0L5 1L8 4L7 10L2 14L-1 13L-1 10L3 9L3 4L0 3L0 0z" stroke="none" fill="#303B3F" fill-rule="nonzero"/>
    <path transform="matrix(1 0 0 1 1892 507)" d="M0 0L3 0L3 24L1 23L-1 2L0 0z" stroke="none" fill="#2F393D" fill-rule="nonzero"/>
    <path transform="matrix(1 0 0 1 1219 227)" d="M0 0L2 4L4 18L2 18L1 20L-1 11L-2 4L-8 4L-7 2L-1 2L0 0z" stroke="none" fill="#526366" fill-rule="nonzero"/>
    <path transform="matrix(1 0 0 1 1558 675)" d="M0 0L1 0L0 9L-4 22L-6 24L-7 22L-7 16L-4 16L-3 7L-2 1L0 0z" stroke="none" fill="#364145" fill-rule="nonzero"/>
    <path transform="matrix(1 0 0 1 1305 647)" d="M0 0L25 0L25 2L21 3L1 3L0 0z" stroke="none" fill="#323C40" fill-rule="nonzero"/>
    <path transform="matrix(1 0 0 1 1688 598)" d="M-4 3L-2 4L-7 9L-10 14L-18 21L-23 23L-17 15z" stroke="none" fill="#333E43" fill-rule="nonzero"/>
    <path transform="matrix(1 0 0 1 1710 579)" d="M0 0L1 3L-4 13L-8 20L-12 22L-10 16L-4 5L0 0z" stroke="none" fill="#374348" fill-rule="nonzero"/>
    <path transform="matrix(1 0 0 1 1637 443)" d="M0 0L2 1L-7 10L-13 19L-15 23L-18 22L-19 18L-15 17L-6 5L0 0z" stroke="none" fill="#333E43" fill-rule="nonzero"/>
    <path transform="matrix(1 0 0 1 1917 460)" d="M0 0L2 3L2 5L4 5L5 17L1 16L-2 4L-2 1L-1 2L0 0z" stroke="none" fill="#5F7479" fill-rule="nonzero"/>
    <path transform="matrix(1 0 0 1 1888 429)" d="M0 0L2 0L2 37L-1 38L0 2L-15 2L-15 1L0 0z" stroke="none" fill="#566B72" fill-rule="nonzero"/>
    <path transform="matrix(1 0 0 1 1547 677)" d="M0 0L2 0L3 5L5 3L6 9L3 12L0 12L-4 11L-2 11L-1 3L0 0z" stroke="none" fill="#6A7C7B" fill-rule="nonzero"/>
    <path transform="matrix(1 0 0 1 1289 647)" d="M0 0L5 5L2 8L-2 16L-4 16L-6 12L-4 12L-3 7L0 0z" stroke="none" fill="#B8D6D9" fill-rule="nonzero"/>
    <path transform="matrix(1 0 0 1 1889 434)" d="M0 0L1 0L2 14L2 33L0 33L-1 36L-4 35L-1 32L1 32L0 30L0 0z" stroke="none" fill="#272F34" fill-rule="nonzero"/>
    <path transform="matrix(1 0 0 1 1251 349)" d="M0 0L2 1L3 7L2 10L-6 11L-4 9L-6 1L-2 2L0 2L0 0z" stroke="none" fill="#9FBEBF" fill-rule="nonzero"/>
    <path transform="matrix(1 0 0 1 1543 689)" d="M0 0L4 0L4 2L2 2L0 11L-3 22L-6 21L-4 12L-1 3L0 0z" stroke="none" fill="#364246" fill-rule="nonzero"/>
    <path transform="matrix(1 0 0 1 1282 617)" d="M0 0L2 0L3 4L-5 17L-7 13L-5 8L0 0z" stroke="none" fill="#A8CACB" fill-rule="nonzero"/>
    <path transform="matrix(1 0 0 1 1362 406)" d="M0 0L1 0L1 7L-1 9L-7 8L-15 4L-18 1L-9 2L0 6L0 0z" stroke="none" fill="#62797D" fill-rule="nonzero"/>
    <path transform="matrix(1 0 0 1 1863 565)" d="M0 0L2 0L1 10L3 13L3 16L1 16L1 14L-1 14L-1 17L-3 17L-3 4L-1 3L0 0z" stroke="none" fill="#2C363A" fill-rule="nonzero"/>
    <path transform="matrix(1 0 0 1 1525 506)" d="M0 0L1 2L-3 8L-8 13L-12 11L-13 7L-8 7L0 0z" stroke="none" fill="#303B3F" fill-rule="nonzero"/>
    <path transform="matrix(1 0 0 1 1844 454)" d="M0 0L1 4L-3 17L-4 23L-7 23L-6 14L-2 4L0 0z" stroke="none" fill="#5A6F73" fill-rule="nonzero"/>
    <path transform="matrix(1 0 0 1 1223 442)" d="M0 0L1 0L3 22L3 40L2 40L1 28L0 26L0 0z" stroke="none" fill="#9DB8BD" fill-rule="nonzero"/>
    <path transform="matrix(1 0 0 1 1299 676)" d="M0 0L2 4L0 10L-3 15L-5 19L-6 12L-3 4L0 0z" stroke="none" fill="#BCD6DB" fill-rule="nonzero"/>
    <path transform="matrix(1 0 0 1 1395 588)" d="M0 0L8 0L11 2L10 3L-13 3L-15 1L0 0z" stroke="none" fill="#9EBBBF" fill-rule="nonzero"/>
    <path transform="matrix(1 0 0 1 1195 390)" d="M0 0L3 1L-2 6L-11 12L-12 8L-3 1L0 0z" stroke="none" fill="#516164" fill-rule="nonzero"/>
    <path transform="matrix(1 0 0 1 1214 333)" d="M0 0L4 2L9 7L9 10L0 9L-6 8L-6 7L2 7L0 0z" stroke="none" fill="#A9CCCC" fill-rule="nonzero"/>
    <path transform="matrix(1 0 0 1 1875 676)" d="M0 0L3 0L5 4L6 4L7 11L4 10L2 14L-1 15L0 11L1 5L0 0z" stroke="none" fill="#333E43" fill-rule="nonzero"/>
    <path transform="matrix(1 0 0 1 1780 596)" d="M0 0L14 0L13 3L13 1L11 3L11 4L-3 4L-2 1L0 0z" stroke="none" fill="#55666A" fill-rule="nonzero"/>
    <path transform="matrix(1 0 0 1 1702 588)" d="M0 0L2 0L0 5L-5 14L-8 14L-9 11L-6 6L0 0z" stroke="none" fill="#7B8F8A" fill-rule="nonzero"/>
    <path transform="matrix(1 0 0 1 1960 321)" d="M0 0L5 2L12 11L15 18L12 19L7 9L0 2L0 0z" stroke="none" fill="#3D4B51" fill-rule="nonzero"/>
    <path transform="matrix(1 0 0 1 1892 705)" d="M0 0L4 2L11 15L10 17L6 15L0 3L0 0z" stroke="none" fill="#4A585C" fill-rule="nonzero"/>
    <path transform="matrix(1 0 0 1 1213 609)" d="M0 0L13 0L13 5L11 4L2 3L0 8L-1 8L-1 1L0 0z" stroke="none" fill="#2D363B" fill-rule="nonzero"/>
    <path transform="matrix(1 0 0 1 1501 503)" d="M0 0L5 0L5 2L10 4L14 9L10 11L6 6L6 4L0 4L0 0z" stroke="none" fill="#3D4A4E" fill-rule="nonzero"/>
    <path transform="matrix(1 0 0 1 1860 614)" d="M0 0L3 4L3 7L5 8L2 17L-1 19L0 0z" stroke="none" fill="#CEE3E9" fill-rule="nonzero"/>
    <path transform="matrix(1 0 0 1 1233 340)" d="M0 0L1 0L2 10L-5 17L-5 6L-3 6L0 0z" stroke="none" fill="#9DB6BB" fill-rule="nonzero"/>
    <path transform="matrix(1 0 0 1 1913 272)" d="M0 0L9 1L14 3L14 4L-1 4L-6 7L-9 6L-3 1L0 0z" stroke="none" fill="#38454A" fill-rule="nonzero"/>
    <path transform="matrix(1 0 0 1 1858 612)" d="M0 0L1 0L2 13L2 22L1 24L-1 24L-1 16L-2 15L-1 2L0 0z" stroke="none" fill="#698389" fill-rule="nonzero"/>
    <path transform="matrix(1 0 0 1 1226 609)" d="M0 0L3 1L4 6L4 15L3 12L1 12L1 23L0 23L0 0z" stroke="none" fill="#9AB5B9" fill-rule="nonzero"/>
    <path transform="matrix(1 0 0 1 1898 598)" d="M0 0L3 0L4 11L4 20L2 20L1 22L0 11L0 0z" stroke="none" fill="#4B5A5D" fill-rule="nonzero"/>
    <path transform="matrix(1 0 0 1 1307 370)" d="M0 0L5 2L14 7L11 10L-1 4L0 0z" stroke="none" fill="#475559" fill-rule="nonzero"/>
    <path transform="matrix(1 0 0 1 1254 363)" d="M0 0L5 0L5 2L-1 4L-1 6L-10 6L-10 3L0 0z" stroke="none" fill="#B7CFD5" fill-rule="nonzero"/>
    <path transform="matrix(1 0 0 1 1429 621)" d="M0 0L3 2L7 16L6 22L4 18L0 3L0 0z" stroke="none" fill="#6A8388" fill-rule="nonzero"/>
    <path transform="matrix(1 0 0 1 1643 612)" d="M0 0L1 3L-7 18L-10 18L-8 12L-2 1L0 0z" stroke="none" fill="#323D42" fill-rule="nonzero"/>
    <path transform="matrix(1 0 0 1 1875 485)" d="M0 0L3 2L-5 15L-8 17L-7 11L0 0z" stroke="none" fill="#435256" fill-rule="nonzero"/>
    <path transform="matrix(1 0 0 1 1435 641)" d="M0 0L2 0L7 17L7 19L4 20L0 6L0 0z" stroke="none" fill="#5E7377" fill-rule="nonzero"/>
    <path transform="matrix(1 0 0 1 1279 605)" d="M0 0L2 1L1 3L-3 8L-5 11L-6 16L-8 12L-9 7L-6 7L-4 1L0 0z" stroke="none" fill="#A7C8CA" fill-rule="nonzero"/>
    <path transform="matrix(1 0 0 1 1260 373)" d="M0 0L5 1L15 5L12 7L4 6L-1 4L0 0z" stroke="none" fill="#5A6B6F" fill-rule="nonzero"/>
    <path transform="matrix(1 0 0 1 1867 658)" d="M0 0L3 4L10 16L10 18L7 19L-1 4L0 0z" stroke="none" fill="#435155" fill-rule="nonzero"/>
    <path transform="matrix(1 0 0 1 1635 653)" d="M-3 2L-1 3L-5 9L-16 18L-18 18L-17 15L-15 15L-15 13L-7 6z" stroke="none" fill="#333E43" fill-rule="nonzero"/>
    <path transform="matrix(1 0 0 1 1539 645)" d="M0 0L4 1L2 2L2 4L14 5L12 6L12 9L5 8L0 4L0 0z" stroke="none" fill="#506166" fill-rule="nonzero"/>
    <path transform="matrix(1 0 0 1 1882 536)" d="M0 0L3 3L8 12L8 14L6 14L5 16L-1 4L0 0z" stroke="none" fill="#526062" fill-rule="nonzero"/>
    <path transform="matrix(1 0 0 1 1562 411)" d="M0 0L0 3L-1 5L4 7L13 14L18 19L18 21L14 19L10 14L3 9L-2 7L-2 2L0 0z" stroke="none" fill="#354146" fill-rule="nonzero"/>
    <path transform="matrix(1 0 0 1 1241 701)" d="M0 0L3 1L1 6L0 19L-2 19L-2 3L-15 3L-15 2L0 2L0 0z" stroke="none" fill="#798D88" fill-rule="nonzero"/>
    <path transform="matrix(1 0 0 1 1279 607)" d="M0 0L2 1L1 4L-4 17L-6 17L-6 9L0 0z" stroke="none" fill="#668188" fill-rule="nonzero"/>
    <path transform="matrix(1 0 0 1 1291 596)" d="M0 0L6 0L4 7L1 11L-1 6L-1 1L0 0z" stroke="none" fill="#445156" fill-rule="nonzero"/>
    <path transform="matrix(1 0 0 1 1800 327)" d="M0 0L10 5L18 12L16 14L7 7L5 5L1 4L1 2L-1 1L0 0z" stroke="none" fill="#E2F0F0" fill-rule="nonzero"/>
    <path transform="matrix(1 0 0 1 1224 613)" d="M0 0L2 1L2 20L-1 21L-1 18L-3 17L-1 17L0 0z" stroke="none" fill="#4B595C" fill-rule="nonzero"/>
    <path transform="matrix(1 0 0 1 1866 469)" d="M0 0L1 0L2 5L3 5L3 13L1 24L0 24L-1 19L0 0z" stroke="none" fill="#5F7276" fill-rule="nonzero"/>
    <path transform="matrix(1 0 0 1 1225 367)" d="M0 0L2 0L3 3L17 4L13 6L4 8L2 11L0 0z" stroke="none" fill="#6F8484" fill-rule="nonzero"/>
    <path transform="matrix(1 0 0 1 1209 326)" d="M0 0L4 1L12 7L13 12L9 10L0 3L0 0z" stroke="none" fill="#343F44" fill-rule="nonzero"/>
    <path transform="matrix(1 0 0 1 1555 643)" d="M0 0L4 0L6 5L6 10L0 7L-1 1L0 0z" stroke="none" fill="#BCD9DC" fill-rule="nonzero"/>
    <path transform="matrix(1 0 0 1 1286 628)" d="M0 0L1 0L2 8L-1 18L-3 19L-2 6L0 0z" stroke="none" fill="#B0CDD0" fill-rule="nonzero"/>
    <path transform="matrix(1 0 0 1 1900 720)" d="M0 0L8 8L9 14L5 13L0 3L0 0z" stroke="none" fill="#374246" fill-rule="nonzero"/>
    <path transform="matrix(1 0 0 1 1300 681)" d="M0 0L1 0L1 10L-2 14L-4 17L-5 16L-5 10L-1 4L0 0z" stroke="none" fill="#394449" fill-rule="nonzero"/>
    <path transform="matrix(1 0 0 1 1890 434)" d="M0 0L1 0L1 12L12 12L21 13L21 14L1 15L0 14L0 0z" stroke="none" fill="#5E777F" fill-rule="nonzero"/>
    <path transform="matrix(1 0 0 1 1875 428)" d="M0 0L11 0L13 2L-4 3L-4 7L-6 7L-7 9L-6 2L0 0z" stroke="none" fill="#485658" fill-rule="nonzero"/>
    <path transform="matrix(1 0 0 1 1231 328)" d="M0 0L1 0L2 8L2 17L-3 12L-5 8L-1 6L0 0z" stroke="none" fill="#CBE2E9" fill-rule="nonzero"/>
    <path transform="matrix(1 0 0 1 1777 319)" d="M0 0L6 0L16 4L16 6L7 3L1 3L-8 6L-7 3L0 0z" stroke="none" fill="#6B7F7F" fill-rule="nonzero"/>
    <path transform="matrix(1 0 0 1 1263 550)" d="M0 0L1 0L1 5L-1 5L-3 10L-4 13L-6 13L-5 4L-3 1L0 0z" stroke="none" fill="#323D41" fill-rule="nonzero"/>
    <path transform="matrix(1 0 0 1 1429 354)" d="M0 0L6 0L2 2L-7 6L-14 10L-13 6L-7 2L0 0z" stroke="none" fill="#5F7479" fill-rule="nonzero"/>
    <path transform="matrix(1 0 0 1 1793 322)" d="M0 0L5 1L14 5L13 8L8 6L0 4L0 0z" stroke="none" fill="#59696B" fill-rule="nonzero"/>
    <path transform="matrix(1 0 0 1 1224 264)" d="M0 0L2 0L2 20L0 18L-1 12L-1 1L0 0z" stroke="none" fill="#394549" fill-rule="nonzero"/>
    <path transform="matrix(1 0 0 1 1426 612)" d="M0 0L1 0L4 12L5 20L1 16L-1 9L0 0z" stroke="none" fill="#9EB9BE" fill-rule="nonzero"/>
    <path transform="matrix(1 0 0 1 1864 546)" d="M0 0L1 0L1 5L3 5L4 10L0 18L-1 18L-1 9L0 0z" stroke="none" fill="#CDE3E9" fill-rule="nonzero"/>
    <path transform="matrix(1 0 0 1 1656 417)" d="M0 0L2 1L0 17L-4 15L-2 5L0 0z" stroke="none" fill="#617171" fill-rule="nonzero"/>
    <path transform="matrix(1 0 0 1 1648 367)" d="M0 0L3 1L4 21L2 20L1 14L0 14L0 0z" stroke="none" fill="#5C6C6C" fill-rule="nonzero"/>
    <path transform="matrix(1 0 0 1 1226 346)" d="M0 0L2 0L2 15L-1 19L-3 19L-2 12L0 12L0 0z" stroke="none" fill="#C1D7DD" fill-rule="nonzero"/>
    <path transform="matrix(1 0 0 1 1765 322)" d="M0 0L4 1L3 4L-3 5L-9 8L-12 9L-11 5L0 0z" stroke="none" fill="#435155" fill-rule="nonzero"/>
    <path transform="matrix(1 0 0 1 1490 240)" d="M0 0L7 0L17 2L21 6L9 4L0 1L0 0z" stroke="none" fill="#667E83" fill-rule="nonzero"/>
    <path transform="matrix(1 0 0 1 1884 610)" d="M0 0L4 5L7 11L5 14L-2 3L-2 1L0 0z" stroke="none" fill="#526265" fill-rule="nonzero"/>
    <path transform="matrix(1 0 0 1 1265 557)" d="M0 0L1 2L-2 14L-5 17L-6 14L-4 14L-4 7L-2 1L0 0z" stroke="none" fill="#AAC8CB" fill-rule="nonzero"/>
    <path transform="matrix(1 0 0 1 1362 404)" d="M0 0L3 0L4 2L4 13L-1 12L0 9L0 0z" stroke="none" fill="#323D41" fill-rule="nonzero"/>
    <path transform="matrix(1 0 0 1 1241 347)" d="M0 0L6 2L5 4L7 12L3 12L1 6L-1 4L2 4L2 2L0 2L0 0z" stroke="none" fill="#B7D6D8" fill-rule="nonzero"/>
    <path transform="matrix(1 0 0 1 1935 269)" d="M0 0L2 0L1 5L-3 12L-7 10L-11 7L-3 8L-2 4L0 0z" stroke="none" fill="#3D4A4E" fill-rule="nonzero"/>
    <path transform="matrix(1 0 0 1 1497 246)" d="M0 0L11 1L15 4L14 7L2 2L0 0z" stroke="none" fill="#EFF9FB" fill-rule="nonzero"/>
    <path transform="matrix(1 0 0 1 1541 723)" d="M0 0L0 3L-6 8L-10 10L-19 10L-19 9L-11 8L-10 6L-7 6L-7 3L-1 1L0 0z" stroke="none" fill="#3A464A" fill-rule="nonzero"/>
    <path transform="matrix(1 0 0 1 1564 722)" d="M0 0L7 0L5 3L3 3L3 11L0 11L0 0z" stroke="none" fill="#39464B" fill-rule="nonzero"/>
    <path transform="matrix(1 0 0 1 1560 632)" d="M0 0L4 1L9 6L12 8L11 11L7 10L6 8L1 6L1 3L0 0z" stroke="none" fill="#546468" fill-rule="nonzero"/>
    <path transform="matrix(1 0 0 1 1890 621)" d="M0 0L5 5L9 14L5 13L0 4L0 0z" stroke="none" fill="#3A464B" fill-rule="nonzero"/>
    <path transform="matrix(1 0 0 1 1601 450)" d="M0 0L8 0L12 3L12 5L16 7L18 11L14 9L7 3L0 2L0 0z" stroke="none" fill="#465558" fill-rule="nonzero"/>
    <path transform="matrix(1 0 0 1 1216 223)" d="M0 0L3 1L3 7L-4 7L-6 13L-7 13L-6 6L0 0z" stroke="none" fill="#293237" fill-rule="nonzero"/>
    <path transform="matrix(1 0 0 1 1340 567)" d="M0 0L2 0L3 4L0 12L-3 11L-3 5L0 0z" stroke="none" fill="#283136" fill-rule="nonzero"/>
    <path transform="matrix(1 0 0 1 1862 536)" d="M0 0L3 0L3 10L2 19L1 19L0 12L0 0z" stroke="none" fill="#57676A" fill-rule="nonzero"/>
    <path transform="matrix(1 0 0 1 1243 361)" d="M0 0L2 1L2 8L5 10L-7 10L-11 8L-2 6L0 0z" stroke="none" fill="#4D5E63" fill-rule="nonzero"/>
    <path transform="matrix(1 0 0 1 1726 339)" d="M0 0L3 1L1 4L14 4L14 5L-6 6L-7 4L0 0z" stroke="none" fill="#67787A" fill-rule="nonzero"/>
    <path transform="matrix(1 0 0 1 1377 651)" d="M0 0L15 0L15 3L0 3L0 0z" stroke="none" fill="#F3FCFD" fill-rule="nonzero"/>
    <path transform="matrix(1 0 0 1 1628 640)" d="M0 0L1 4L-3 10L-8 14L-7 9L-3 2L0 0z" stroke="none" fill="#323D41" fill-rule="nonzero"/>
    <path transform="matrix(1 0 0 1 1549 629)" d="M0 0L2 0L2 2L-1 2L-2 6L-6 14L-8 14L-6 5L0 0z" stroke="none" fill="#5C6E72" fill-rule="nonzero"/>
    <path transform="matrix(1 0 0 1 1859 574)" d="M0 0L1 0L1 8L3 8L3 24L2 24L2 16L0 16L0 0z" stroke="none" fill="#5C6D70" fill-rule="nonzero"/>
    <path transform="matrix(1 0 0 1 1345 573)" d="M0 0L3 1L3 9L-3 10L-2 6L0 0z" stroke="none" fill="#4E5D61" fill-rule="nonzero"/>
    <path transform="matrix(1 0 0 1 1222 368)" d="M0 0L1 4L-1 4L-1 6L-9 12L-11 9L-1 1L0 0z" stroke="none" fill="#323D41" fill-rule="nonzero"/>
    <path transform="matrix(1 0 0 1 1238 339)" d="M0 0L6 1L6 4L2 4L2 6L-2 8L-3 4L0 0z" stroke="none" fill="#313B40" fill-rule="nonzero"/>
    <path transform="matrix(1 0 0 1 1439 205)" d="M0 0L11 3L16 6L14 7L6 5L-1 3L0 0z" stroke="none" fill="#5C6E72" fill-rule="nonzero"/>
    <path transform="matrix(1 0 0 1 1299 692)" d="M0 0L2 3L9 5L9 7L-1 8L-1 1L0 0z" stroke="none" fill="#AACECD" fill-rule="nonzero"/>
    <path transform="matrix(1 0 0 1 1211 650)" d="M0 0L1 0L0 7L-3 13L-5 13L-5 9L-7 8L-5 6L-2 6L0 0z" stroke="none" fill="#3A454A" fill-rule="nonzero"/>
    <path transform="matrix(1 0 0 1 1548 635)" d="M0 0L2 0L2 2L0 2L1 6L2 13L0 14L-2 13L-3 6L-1 1L0 0z" stroke="none" fill="#5B6E72" fill-rule="nonzero"/>
    <path transform="matrix(1 0 0 1 1688 618)" d="M0 0L2 0L0 6L-4 11L-7 12L-5 6L-3 2L0 0z" stroke="none" fill="#3C474B" fill-rule="nonzero"/>
    <path transform="matrix(1 0 0 1 1885 671)" d="M0 0L2 0L0 6L-2 9L-3 14L-6 10L-6 7L-3 3L0 0z" stroke="none" fill="#586C70" fill-rule="nonzero"/>
    <path transform="matrix(1 0 0 1 1215 615)" d="M0 0L1 0L2 8L5 11L8 12L8 14L0 14L0 0z" stroke="none" fill="#EBF7F9" fill-rule="nonzero"/>
    <path transform="matrix(1 0 0 1 1279 355)" d="M0 0L6 1L9 4L-4 4L-7 2L0 0z" stroke="none" fill="#343E42" fill-rule="nonzero"/>
    <path transform="matrix(1 0 0 1 1491 241)" d="M0 0L5 1L15 5L12 6L3 4L1 5L1 3L-1 2L0 0z" stroke="none" fill="#CCE2E8" fill-rule="nonzero"/>
    <path transform="matrix(1 0 0 1 1351 227)" d="M0 0L12 0L16 2L3 3L-3 4L-2 1L0 0z" stroke="none" fill="#2B3439" fill-rule="nonzero"/>
    <path transform="matrix(1 0 0 1 1897 650)" d="M0 0L5 0L5 9L4 9L4 1L2 1L1 5L-1 8L-4 7L-1 1L0 0z" stroke="none" fill="#516164" fill-rule="nonzero"/>
    <path transform="matrix(1 0 0 1 1764 618)" d="M0 0L18 0L18 2L2 3L0 2L0 0z" stroke="none" fill="#C1D1BC" fill-rule="nonzero"/>
    <path transform="matrix(1 0 0 1 1420 586)" d="M0 0L2 3L3 9L3 18L1 16L-1 7L0 0z" stroke="none" fill="#6D8386" fill-rule="nonzero"/>
    <path transform="matrix(1 0 0 1 1304 566)" d="M0 0L2 0L6 11L6 18L4 15L1 7L0 0z" stroke="none" fill="#3D4A4E" fill-rule="nonzero"/>
    <path transform="matrix(1 0 0 1 1245 369)" d="M0 0L7 0L15 4L16 7L12 7L11 5L0 1L0 0z" stroke="none" fill="#313B40" fill-rule="nonzero"/>
    <path transform="matrix(1 0 0 1 1328 250)" d="M0 0L1 3L-3 16L-5 17L-4 8L-1 1L0 0z" stroke="none" fill="#4D5C5E" fill-rule="nonzero"/>
    <path transform="matrix(1 0 0 1 1904 663)" d="M0 0L1 0L2 9L2 18L-1 18L-1 9L0 0z" stroke="none" fill="#4A595D" fill-rule="nonzero"/>
    <path transform="matrix(1 0 0 1 1210 629)" d="M0 0L1 2L6 1L6 0L13 0L13 5L7 6L7 4L1 4L0 0z" stroke="none" fill="#627D85" fill-rule="nonzero"/>
    <path transform="matrix(1 0 0 1 1561 610)" d="M0 0L2 0L2 3L9 3L9 5L0 5L-1 13L-2 13L-3 7L0 0z" stroke="none" fill="#5C6E70" fill-rule="nonzero"/>
    <path transform="matrix(1 0 0 1 1344 571)" d="M0 0L1 4L-1 9L-5 10L-3 1L0 0z" stroke="none" fill="#BED7DD" fill-rule="nonzero"/>
    <path transform="matrix(1 0 0 1 1590 542)" d="M0 0L4 1L3 9L-1 10L-4 8L1 7L0 0z" stroke="none" fill="#3C484D" fill-rule="nonzero"/>
    <path transform="matrix(1 0 0 1 1203 412)" d="M0 0L1 3L-7 7L-13 6L-11 4L0 0z" stroke="none" fill="#48575C" fill-rule="nonzero"/>
    <path transform="matrix(1 0 0 1 1214 402)" d="M0 0L2 0L1 3L-5 6L-7 6L-7 8L-14 9L-9 5L0 0z" stroke="none" fill="#9CB8BA" fill-rule="nonzero"/>
    <path transform="matrix(1 0 0 1 1357 403)" d="M0 0L4 2L5 3L5 9L0 8L-2 6L0 6L0 0z" stroke="none" fill="#CBE1E7" fill-rule="nonzero"/>
    <path transform="matrix(1 0 0 1 1657 394)" d="M0 0L4 1L14 6L14 8L9 7L0 2L0 0z" stroke="none" fill="#455356" fill-rule="nonzero"/>
    <path transform="matrix(1 0 0 1 1307 391)" d="M0 0L6 1L16 5L17 7L11 6L0 2L0 0z" stroke="none" fill="#364146" fill-rule="nonzero"/>
    <path transform="matrix(1 0 0 1 1706 360)" d="M0 0L1 2L0 14L-3 13L-3 4L0 0z" stroke="none" fill="#526264" fill-rule="nonzero"/>
    <path transform="matrix(1 0 0 1 1989 336)" d="M0 0L12 0L11 3L-1 3L0 0z" stroke="none" fill="#58696C" fill-rule="nonzero"/>
    <path transform="matrix(1 0 0 1 1228 283)" d="M0 0L1 0L3 16L1 16L-1 12L-2 12L-1 3L0 0z" stroke="none" fill="#56676A" fill-rule="nonzero"/>
    <path transform="matrix(1 0 0 1 1328 725)" d="M0 0L1 2L-1 4L-19 3L-19 2L0 0z" stroke="none" fill="#A5C5C7" fill-rule="nonzero"/>
    <path transform="matrix(1 0 0 1 1375 665)" d="M0 0L2 1L2 14L-1 14L-1 3L0 0z" stroke="none" fill="#4A585C" fill-rule="nonzero"/>
    <path transform="matrix(1 0 0 1 1856 627)" d="M0 0L2 1L2 13L3 15L-1 16L0 0z" stroke="none" fill="#4F5E61" fill-rule="nonzero"/>
    <path transform="matrix(1 0 0 1 1391 633)" d="M0 0L2 3L1 8L3 9L4 16L0 14L-1 5L0 0z" stroke="none" fill="#9FBCBE" fill-rule="nonzero"/>
    <path transform="matrix(1 0 0 1 1230 603)" d="M0 0L2 1L3 13L4 17L2 18L1 12L-1 11L0 0z" stroke="none" fill="#637F87" fill-rule="nonzero"/>
    <path transform="matrix(1 0 0 1 1271 676)" d="M0 0L1 2L-3 12L-5 11L-5 6L-2 5L-2 1L0 0z" stroke="none" fill="#596A6D" fill-rule="nonzero"/>
    <path transform="matrix(1 0 0 1 1873 676)" d="M0 0L3 3L4 7L3 11L1 11L-1 6L0 0z" stroke="none" fill="#E8F5F7" fill-rule="nonzero"/>
    <path transform="matrix(1 0 0 1 1266 668)" d="M0 0L3 1L1 11L-2 12L-3 9L0 0z" stroke="none" fill="#C3C6AD" fill-rule="nonzero"/>
    <path transform="matrix(1 0 0 1 1339 658)" d="M0 0L2 2L3 14L1 14L-1 9L0 0z" stroke="none" fill="#E3F1F4" fill-rule="nonzero"/>
    <path transform="matrix(1 0 0 1 1377 657)" d="M0 0L15 0L15 1L-4 4L-3 1L0 0z" stroke="none" fill="#748A88" fill-rule="nonzero"/>
    <path transform="matrix(1 0 0 1 1896 637)" d="M0 0L2 0L4 3L4 9L3 11L1 10L-1 2L0 0z" stroke="none" fill="#E7F4F7" fill-rule="nonzero"/>
    <path transform="matrix(1 0 0 1 1227 621)" d="M0 0L2 0L3 3L3 11L1 11L0 13L-1 11L0 0z" stroke="none" fill="#AFD5D3" fill-rule="nonzero"/>
    <path transform="matrix(1 0 0 1 1343 586)" d="M0 0L5 0L1 2L0 5L-21 5L-21 4L-3 3L0 0z" stroke="none" fill="#A4C2C5" fill-rule="nonzero"/>
    <path transform="matrix(1 0 0 1 1708 581)" d="M-2 1L0 2L-4 7L-12 14L-12 11L-6 4z" stroke="none" fill="#303A3F" fill-rule="nonzero"/>
    <path transform="matrix(1 0 0 1 1866 509)" d="M0 0L2 1L2 14L3 14L3 21L1 23L0 18L0 0z" stroke="none" fill="#BBD3D9" fill-rule="nonzero"/>
    <path transform="matrix(1 0 0 1 1884 470)" d="M0 0L4 1L-2 9L-4 12L-4 8L-6 7L-4 7L-2 3L0 0z" stroke="none" fill="#5E7071" fill-rule="nonzero"/>
    <path transform="matrix(1 0 0 1 1321 594)" d="M0 0L24 0L24 1L3 2L0 5L0 0z" stroke="none" fill="#9FBCC0" fill-rule="nonzero"/>
    <path transform="matrix(1 0 0 1 1573 542)" d="M0 0L1 0L2 16L7 17L5 19L0 20L0 0z" stroke="none" fill="#242C31" fill-rule="nonzero"/>
    <path transform="matrix(1 0 0 1 1190 397)" d="M0 0L3 3L2 6L-5 7L-5 4L0 0z" stroke="none" fill="#CDE3EB" fill-rule="nonzero"/>
    <path transform="matrix(1 0 0 1 1572 376)" d="M0 0L2 0L2 5L3 6L2 17L1 17L0 11L0 0z" stroke="none" fill="#242C31" fill-rule="nonzero"/>
    <path transform="matrix(1 0 0 1 1603 360)" d="M0 0L2 0L0 5L-7 12L-9 12L-7 8L0 0z" stroke="none" fill="#3F4A4C" fill-rule="nonzero"/>
    <path transform="matrix(1 0 0 1 1873 690)" d="M0 0L3 1L1 6L-3 11L-5 11L-3 6L0 0z" stroke="none" fill="#465457" fill-rule="nonzero"/>
    <path transform="matrix(1 0 0 1 1342 668)" d="M0 0L2 4L3 12L0 11L-2 7L-2 4L0 4L0 0z" stroke="none" fill="#D7E8EB" fill-rule="nonzero"/>
    <path transform="matrix(1 0 0 1 1362 628)" d="M0 0L1 0L2 7L3 10L1 10L0 17L-1 17L-2 10L0 0z" stroke="none" fill="#48585C" fill-rule="nonzero"/>
    <path transform="matrix(1 0 0 1 1332 628)" d="M0 0L2 3L2 6L4 6L4 13L1 13L0 0z" stroke="none" fill="#516064" fill-rule="nonzero"/>
    <path transform="matrix(1 0 0 1 1874 611)" d="M0 0L2 0L0 5L-4 10L-6 9L-4 4L0 0z" stroke="none" fill="#4A595D" fill-rule="nonzero"/>
    <path transform="matrix(1 0 0 1 1376 572)" d="M0 0L2 2L4 11L5 15L3 15L-1 5L0 0z" stroke="none" fill="#556569" fill-rule="nonzero"/>
    <path transform="matrix(1 0 0 1 1892 487)" d="M0 0L2 0L3 5L3 13L0 12L0 0z" stroke="none" fill="#586B6F" fill-rule="nonzero"/>
    <path transform="matrix(1 0 0 1 1221 400)" d="M0 0L2 0L2 15L1 15L1 6L-5 7L-1 2L0 0z" stroke="none" fill="#A2BDC1" fill-rule="nonzero"/>
    <path transform="matrix(1 0 0 1 1514 248)" d="M0 0L5 4L7 10L4 13L1 4L0 0z" stroke="none" fill="#5D6F71" fill-rule="nonzero"/>
    <path transform="matrix(1 0 0 1 1616 670)" d="M0 0L2 2L-7 9L-8 5L-4 1L-4 4L-2 4L0 0z" stroke="none" fill="#576A6E" fill-rule="nonzero"/>
    <path transform="matrix(1 0 0 1 1297 668)" d="M0 0L1 0L2 10L-2 13L-3 9L0 0z" stroke="none" fill="#6E8688" fill-rule="nonzero"/>
    <path transform="matrix(1 0 0 1 1674 642)" d="M0 0L4 0L2 5L-3 10L-4 8L0 0z" stroke="none" fill="#424E51" fill-rule="nonzero"/>
    <path transform="matrix(1 0 0 1 1558 638)" d="M0 0L8 1L7 5L3 6L0 0z" stroke="none" fill="#CDE3EA" fill-rule="nonzero"/>
    <path transform="matrix(1 0 0 1 1400 568)" d="M0 0L2 1L5 11L5 16L3 16L2 14L0 0z" stroke="none" fill="#506166" fill-rule="nonzero"/>
    <path transform="matrix(1 0 0 1 1814 542)" d="M0 0L3 1L2 6L-1 7L-3 5L-3 1L0 0z" stroke="none" fill="#C7DEE5" fill-rule="nonzero"/>
    <path transform="matrix(1 0 0 1 1764 325)" d="M0 0L7 0L5 2L-7 6L-9 5L-5 2L0 0z" stroke="none" fill="#D3E6E8" fill-rule="nonzero"/>
    <path transform="matrix(1 0 0 1 1347 229)" d="M0 0L2 1L3 3L-7 8L-5 3L0 0z" stroke="none" fill="#455255" fill-rule="nonzero"/>
    <path transform="matrix(1 0 0 1 1433 207)" d="M0 0L9 1L16 4L16 5L10 5L10 3L-1 2L0 0z" stroke="none" fill="#D0E2E2" fill-rule="nonzero"/>
    <path transform="matrix(1 0 0 1 1852 721)" d="M0 0L1 0L1 6L3 6L2 11L-2 12L0 0z" stroke="none" fill="#333D41" fill-rule="nonzero"/>
    <path transform="matrix(1 0 0 1 1275 591)" d="M0 0L1 4L-2 10L-6 9L0 0z" stroke="none" fill="#617A81" fill-rule="nonzero"/>
    <path transform="matrix(1 0 0 1 1266 576)" d="M0 0L3 2L1 7L-2 10L-4 6L-1 3L0 0z" stroke="none" fill="#B5D2D6" fill-rule="nonzero"/>
    <path transform="matrix(1 0 0 1 1374 563)" d="M0 0L6 0L3 2L3 9L0 10L0 0z" stroke="none" fill="#4B5B5F" fill-rule="nonzero"/>
    <path transform="matrix(1 0 0 1 1407 549)" d="M0 0L3 1L4 4L4 13L2 11L0 0z" stroke="none" fill="#526368" fill-rule="nonzero"/>
    <path transform="matrix(1 0 0 1 1572 399)" d="M0 0L2 0L0 4L-8 13L-9 10L-1 2L0 0z" stroke="none" fill="#4B595B" fill-rule="nonzero"/>
    <path transform="matrix(1 0 0 1 1227 340)" d="M0 0L4 2L3 10L2 6L0 6L-2 1L0 0z" stroke="none" fill="#2E393E" fill-rule="nonzero"/>
    <path transform="matrix(1 0 0 1 1407 207)" d="M0 0L4 1L1 2L0 4L-11 5L-9 3L0 0z" stroke="none" fill="#E4F2F5" fill-rule="nonzero"/>
    <path transform="matrix(1 0 0 1 1402 665)" d="M0 0L3 1L4 8L2 8L1 11L0 0z" stroke="none" fill="#D5E7EA" fill-rule="nonzero"/>
    <path transform="matrix(1 0 0 1 1269 660)" d="M0 0L2 4L1 9L-1 9L-2 11L-3 6L0 0z" stroke="none" fill="#99A99F" fill-rule="nonzero"/>
    <path transform="matrix(1 0 0 1 1643 646)" d="M-4 3L-2 4L-6 10L-11 13L-9 9L-8 6z" stroke="none" fill="#374247" fill-rule="nonzero"/>
    <path transform="matrix(1 0 0 1 1557 642)" d="M0 0L8 1L7 3L5 3L6 12L4 12L2 1L0 0z" stroke="none" fill="#97B3B5" fill-rule="nonzero"/>
    <path transform="matrix(1 0 0 1 1317 618)" d="M0 0L4 1L4 3L-18 3L-18 2L0 1L0 0z" stroke="none" fill="#4F5E62" fill-rule="nonzero"/>
    <path transform="matrix(1 0 0 1 1260 559)" d="M0 0L1 0L1 12L-1 12L-2 4L0 0z" stroke="none" fill="#56686C" fill-rule="nonzero"/>
    <path transform="matrix(1 0 0 1 1876 477)" d="M0 0L4 1L5 7L0 9L0 0z" stroke="none" fill="#2E383D" fill-rule="nonzero"/>
    <path transform="matrix(1 0 0 1 1631 388)" d="M0 0L4 2L7 6L5 9L3 8L0 3L0 0z" stroke="none" fill="#F5FBFC" fill-rule="nonzero"/>
    <path transform="matrix(1 0 0 1 1960 321)" d="M0 0L5 2L9 8L6 8L0 2L0 0z" stroke="none" fill="#445358" fill-rule="nonzero"/>
    <path transform="matrix(1 0 0 1 1466 221)" d="M0 0L7 6L13 11L11 13L0 2L0 0z" stroke="none" fill="#687978" fill-rule="nonzero"/>
    <path transform="matrix(1 0 0 1 1299 676)" d="M0 0L2 4L1 9L-2 9L-4 10L-4 5L0 0z" stroke="none" fill="#A4C4C5" fill-rule="nonzero"/>
    <path transform="matrix(1 0 0 1 1338 669)" d="M0 0L2 2L3 11L0 12L0 0z" stroke="none" fill="#3D4A4E" fill-rule="nonzero"/>
    <path transform="matrix(1 0 0 1 1569 647)" d="M0 0L2 0L2 3L0 3L0 6L-5 8L-6 5L0 0z" stroke="none" fill="#374348" fill-rule="nonzero"/>
    <path transform="matrix(1 0 0 1 1551 630)" d="M0 0L2 0L2 2L4 2L3 7L2 13L1 13L0 0z" stroke="none" fill="#49575A" fill-rule="nonzero"/>
    <path transform="matrix(1 0 0 1 1303 595)" d="M0 0L13 0L15 3L14 8L12 7L12 1L0 1L0 0z" stroke="none" fill="#7D9390" fill-rule="nonzero"/>
    <path transform="matrix(1 0 0 1 1269 359)" d="M0 0L3 1L-2 4L-10 5L-14 3L0 0z" stroke="none" fill="#799191" fill-rule="nonzero"/>
    <path transform="matrix(1 0 0 1 1448 352)" d="M0 0L2 0L0 10L-2 10L-3 5L0 0z" stroke="none" fill="#45565C" fill-rule="nonzero"/>
    <path transform="matrix(1 0 0 1 1255 350)" d="M0 0L1 0L1 10L-6 10L-2 9L-2 2L0 2L0 0z" stroke="none" fill="#5E7174" fill-rule="nonzero"/>
    <path transform="matrix(1 0 0 1 1828 349)" d="M0 0L7 2L5 4L2 3L1 7L-2 6L-1 1L0 0z" stroke="none" fill="#73878A" fill-rule="nonzero"/>
    <path transform="matrix(1 0 0 1 1728 340)" d="M0 0L9 1L12 3L-1 3L0 0z" stroke="none" fill="#242C31" fill-rule="nonzero"/>
    <path transform="matrix(1 0 0 1 1862 629)" d="M0 0L2 1L-1 8L-5 12L-2 3L0 0z" stroke="none" fill="#333D42" fill-rule="nonzero"/>
    <path transform="matrix(1 0 0 1 1282 617)" d="M0 0L2 0L3 4L-1 8L-3 4L0 0z" stroke="none" fill="#A8C8C9" fill-rule="nonzero"/>
    <path transform="matrix(1 0 0 1 1561 609)" d="M0 0L6 0L9 2L9 4L2 4L2 1L0 0z" stroke="none" fill="#9EB9BB" fill-rule="nonzero"/>
    <path transform="matrix(1 0 0 1 1701 599)" d="M0 0L0 3L-4 10L-6 6L-4 2L0 0z" stroke="none" fill="#4D5E62" fill-rule="nonzero"/>
    <path transform="matrix(1 0 0 1 1132 444)" d="M0 0L4 2L5 5L-1 6L-2 3L0 0z" stroke="none" fill="#C8DEE6" fill-rule="nonzero"/>
    <path transform="matrix(1 0 0 1 1300 391)" d="M0 0L8 2L8 4L4 5L-3 2L0 0z" stroke="none" fill="#AED2D1" fill-rule="nonzero"/>
    <path transform="matrix(1 0 0 1 1215 222)" d="M0 0L2 1L-5 9L-7 13L-8 13L-8 8L0 0z" stroke="none" fill="#435054" fill-rule="nonzero"/>
</g>
</svg>