<svg xmlns="http://www.w3.org/2000/svg" version="1.1" viewBox="0 0 2048 1194">
<path transform="translate(0)" d="m0 0h2048v1194h-2048z" fill="#BDE4D2"/>
<path transform="translate(1439,509)" d="m0 0 5 2 8 5 7 4 18 6 17 4 2 3v203h2l1 2 5-1 8-4 4-6 3-13v-13l1-13 1-3v-38l-1-6h2v-3l3-1 29-1v11l-3 27-1 15-2 13h2l13-19 13-18 9-13 12-17 8-11-2-2h-30l1-11 3-23 3-28 1-5-5 5-24 34-14 19-12 18-3 3-1 2h-3l-1-6 3-7 1-78v-11h62l18-1 34-5 25-6 19-8 8-5h2l1 139 4 2 12 2 12 6 7 7 6 12 2 9 13-2 16 4 8 6 7 8 5 12 1 8 4 2 7 9 3 3 3-5 6-1-2-7 1-6 6-4-1-8 5-7 5-2 1-9 6-7 1-2 8 1 1 4h2l4 11 2 2 1 8 4 1v9l2 4 5 2 1 4-5 3 1 5 5 8v5l-4 3 1 3 3 2v2l5 2 5 5v2l-5 2 3 5 6 4-2 5-5 5-11 10v1l9 2 3 2v6l7-3 9 1 33 9 21 7 3 4 3 16 1 8 11-6 11-2 9 1 10 4 10 9 6 12v15l-6 15 8 1 11 6 6 8 3 6 13 1 6 4 3 5 2 1v13l-8 7-3 1v2l-8 2v10l-8 6h-9l-4-3v-2h-2l-3-3-13 2-6 1-1-3-10-2-3 8 1 2-5 2-10-2-12-1v10l-4 16-4 4-11 4-21 5-11 3-17 4-9 2-13 5-12 3-18 5-10 2h-4v-2h-6l-5-2-28-7-17-5-9-2-3-5-2-5-2 7-14-2-4-1-2 35-2 8-3 6-7 3-18 5-28 7-26 7-8 3-24 6-13 3h-14l-50-14-4-3-4-1-2-4-1 1h-7l-31-8-23-6-7-2-2-4-1-63-1 64-10-1-54-14-5-3-2-2-3 1-26-6-39-10-2-1-2-13-1 10-10-1-33-8-24-7-20-6-6-3-1-1 1-16 4-21h2v-2h3l-1-56-7-1-1-13 1-25v-13l2-1-1-4 4-3 15-5 26-7 13-3 6-9 9-7 12-5-6-14v-13l4-10 9-10 8-5 8-2h10l11 4 9 7h3l6-9 9-13-1-3-4-2-3-3 1-4 6-6h2v-2h2l2-12-2-5 1-4 18-18v-11l7-16 8-15h4l9 16 3 6v2h2l1 7-4 1 1 5 7 8 5 5v4l-4 1 2 5 8 8v2h4v-183z" fill="#E0E2E3"/>
<path transform="translate(1439,509)" d="m0 0 5 2 8 5 7 4 18 6 17 4 2 3v203h2l1 2 5-1 8-4 4-6 3-13v-13l1-13 1-3v-38l-1-6h2v-3l3-1 29-1v11l-3 27-1 15-2 13h2l13-19 13-18 9-13 12-17 8-11-2-2h-30l1-11 3-23 3-28 1-5-5 5-24 34-14 19-12 18-3 3-1 2h-3l-1-6 3-7 1-78v-11h62l18-1 34-5 25-6 19-8 8-5h2l1 139 4 2 12 2 12 6 7 7 6 12 2 9 13-2 16 4 8 6 7 8 5 12 1 8 4 2 7 9 3 3 3-5 6-1-2-7 1-6 6-4-1-8 5-7 5-2 1-9 6-7 1-2 8 1 1 4h2l4 11 2 2 1 8 4 1v9l2 4 5 2 1 4-5 3 1 5 5 8v5l-4 3 1 3 3 2v2l5 2 5 5v2l-5 2 3 5 6 4-2 5-5 5-11 10v1l9 2 3 2v6l7-3 9 1 33 9 21 7 2 3-5 3-23 7-31 8-13-3-1 7-41 11-14 4-10-1-46-12-7-3v-5h-5l-3 2-10-1-46-12-8-3v-6l-7 2h-8l-36-9-19-5-1-1v-6l-9 2h-7l-53-14-8-2-1 13-6 2-9-1-30-8-46-12-5-2h-4l-1 30 10-3 11 2 46 13 6 2-2 4 16-1 22 6v-29l18 4 29 8 2 1v30l19 4 4 1v-29l20 5 29 8v30l17 4 4 1 1-28 8 1 41 11 1 1v130l-8-1-2-2-1-96-9 1-40 11-12 3-14-1-3 6-18 5-19 5-16 4h-8l-21-5-33-9-2-2v-6l-7 3h-7l-25-6-32-9-1-5-7 1-2 1-25-6-35-9-2-4v-3l-9 2-10-1-56-15h-2l-2 14-7 1-25-6-48-13-12-4-2-2 1-4 9-4 23-7 25-6 6-9 9-7 12-5-6-14v-13l4-10 9-10 8-5 8-2h10l11 4 9 7h3l6-9 9-13-1-3-4-2-3-3 1-4 6-6h2v-2h2l2-12-2-5 1-4 18-18v-11l7-16 8-15h4l9 16 3 6v2h2l1 7-4 1 1 5 7 8 5 5v4l-4 1 2 5 8 8v2h4v-183z" fill="#029F84"/>
<path transform="translate(1206,838)" d="m0 0 9 1 35 10 39 10 10 1h2l1-14 3-1 60 16 15-1 2 6 43 11 18 4 3-2h6v6l10 2 33 9 14 3h7l4-2h3l2 7 48 13 6 1h8l24-6 27-7 2-1 3-6 14 1 38-10 18-5h5v6l-2 5-2 1-1 9-2 10-10 1-3-2-2-6-10 1-8 3-2 10-9 5-3 1-1 41v28l1 16 7 2v7l-7 20-6 15-1 8 5 1-1 2-8 2h-5v-105l-1-41-4 1-1 4-3 5-11 1-2-3-1-5-18 3-1 10-5 3-5 2-2 3-1 83 3 3 4 3-2 9-6 17-4 14-2 5v6h-8l-24-6-28-8-9-2-2-4-1 1h-7l-31-8-23-6-7-2-2-4-1-63-1 64-10-1-54-14-5-3-2-2-3 1-26-6-39-10-2-1-2-13-1 10-10-1-33-8-24-7-20-6-6-3-1-1 1-16 4-21h2v-2h3l-1-56-7-1-1-13 1-25z" fill="#E0E3E4"/>
<path transform="translate(1554,318)" d="m0 0h31l24 2 25 4 24 6 19 9 10 9 3 7v28l1 41v74l-3 9-3 5-16 8-15 5-24 5-28 4-18 1h-52l-10-1 1 19-1 70-3 7v6h3l2-5h2l2-5 8-11 12-17 13-18 16-23 4-2-1 13-4 37-3 17 31-1 2 3-8 11-10 14-11 16-13 18-9 13-6 8-2-3 2-12 3-36 2-17-5 1-27 1v3h-2l2 6v38l-1 5-1 11v14l-4 14-4 5-9 5-5-1v-2h-2l-1-3v-200l-1-2-24-6-14-5-8-5-7-5-1-4v-141h-2v-12l1-4h2l2-4 5-4 1-2 18-7 4-2 26-6 36-5z" fill="#E1E3E4"/>
<path transform="translate(1426,780)" d="m0 0h1v28l10-3 11 2 46 13 6 2-2 4 16-1 22 6v-29l18 4 29 8 2 1v30l19 4 4 1v-29l20 5 29 8v30l17 4 4 1 1-28 8 1 41 11 1 1v130l-8-1-2-2-1-96-9 1-40 11-12 3-14-1-3 6-18 5-19 5-16 4h-8l-21-5-33-9-2-2v-6l-7 3h-7l-25-6-32-9-1-5-7 1-2 1-25-6-35-9-2-4v-3l-9 2-10-1-56-15h-2l-2 14-7 1-25-6-48-13-12-4-2-2 1-4 9-4 23-7 18-4h10l9 1 2-1 2-5 4-3 22-7 20-5h7l22 4v2h13l3 3 26 8h8l15-5 4-2z" fill="#797E8F"/>
<path transform="translate(1546,739)" d="m0 0h19l56 14 3 1h8l10-2 15-5h12l21 5 20 5 12 5 2 5 3-1h13l36 8 13 4 7 5 4 1 13 1 31 7 11 3 6 2 7 3v6l7-3 9 1 33 9 21 7 2 3-5 3-23 7-31 8-13-3-1 7-41 11-14 4-10-1-46-12-7-3v-5h-5l-3 2-10-1-46-12-8-3v-6l-7 2h-8l-36-9-19-5-1-1v-6l-9 2h-7l-53-14-8-2-1 13-6 2-9-1-30-8-46-12-9-3 5-5 5-3 22-7 18-5h15l33 9 5 1-25-7-2-2v-7l22-7z" fill="#7A7E8F"/>
<path transform="translate(1439,509)" d="m0 0 5 2 7 6 4 4v242h-2v2l-15 5-6 4-4 2-1 4-1 27-10 5-10 3h-8l-16-5-12-4-1-3h-13v-2l-10-1-12-2h-7l-27 7-17 6-3 4v3l-8 1-11-2 4-2 6-9 9-7 12-5-6-14v-13l4-10 9-10 8-5 8-2h10l11 4 9 7h3l6-9 9-13-1-3-4-2-3-3 1-4 6-6h2v-2h2l2-12-2-5 1-4 18-18v-11l7-16 8-15h4l9 16 3 6v2h2l1 7-4 1 1 5 7 8 5 5v4l-4 1 2 5 8 8v2h4v-183z" fill="#02887A"/>
<path transform="translate(1688,509)" d="m0 0h2l1 139 4 2 12 2 12 6 7 7 6 12 2 9 13-2 16 4 8 6 7 8 5 12 1 8 4 2 7 9 3 3 3-5 6-1-2-7 1-6 6-4-1-8 5-7 5-2 1-9 6-7 1-2 8 1 1 4h2l4 11 2 2 1 8 4 1v9l2 4 5 2 1 4-5 3 1 5 5 8v5l-4 3 1 3 3 2v2l5 2 5 5v2l-5 2 3 5 6 4-2 5-5 5-11 10-8-1-22-5-13-3-13-1-5-2-8-5-11-3-36-8h-16l-3-5-18-6-28-7-6-1h-12l-18 6h-6v-13l4-11 4-6 6-7 14-7h3l-6-16v-14l5-12 9-10 9-6 7-2z" fill="#01C18D"/>
<path transform="translate(1426,780)" d="m0 0h1v28l10-3 11 2 46 13 6 2-2 4 16-1 22 6v-29l18 4 18 5v1l-7 1-2-2-10-1-9-2v25h7l13 4 12 2 1 3-13 2-33 9-15 4h-4v2l6 1-2 2-12 3h-5l-2-3-44 12-9 2h-12l-15-3-2-2-13-2v-2l-15-2v-2l-5-1-2 1v-3l-9 2-10-1-56-15h-2l-2 14-7 1-25-6-48-13-12-4-2-2 1-4 9-4 23-7 18-4h10l9 1 2-1 2-5 4-3 22-7 20-5h7l22 4v2h13l3 3 26 8h8l15-5 4-2z" fill="#7A7E8F"/>
<path transform="translate(1448,515)" d="m0 0 6 2 5 3 18 6 17 4 2 3v203h2l1 2 5-1 8-4 4-6 3-13v-13l1-13 1-3v-38l-1-6h2v-3l3-1 29-1v11l-3 27-1 15-2 13h3l-2 4-1 1-1 9-1 22 2 1-5 2-17 4-16 5-6 1 1 7 8 3 24 7v1l-9-1-23-7-12-3h-15l-22 6-3-1h2l-1-4v-238l-3-3z" fill="#39C6A5"/>
<path transform="translate(1494,530)" d="m0 0 16 2 16 1-4 1 1 19-1 70-3 7v6h3l2-5h2l2-5 8-11 12-17 13-18 16-23 4-2-1 13-4 37-3 17 31-1 2 3-8 11-10 14-11 16-13 18-9 13-6 8-2-3 2-12 3-36 2-17-5 1-27 1v3h-2l2 6v38l-1 5-1 11v14l-4 14-4 5-9 5-5-1v-2h-2l-1-3v-200z" fill="#9BDACA"/>
<path transform="translate(1967,840)" d="m0 0 9 1 10 4 10 9 6 12v15l-6 15 8 1 11 6 6 8 3 6 13 1 6 4 3 5 2 1v13l-8 7-3 1v2l-8 2v10l-8 6h-9l-4-3v-2h-2l-3-3-13 2-6 1-1-3-10-2-3 8 1 2-5 2-10-2-9-1-2-1-1-28 1-90 9-6 6-2z" fill="#01C28D"/>
<path transform="translate(1439,509)" d="m0 0 5 2 7 6 4 4v242h-2v2l-15 5-6 4-4 2-1 4-1 27-5 3-3-1 3-3h4l-2-11h-2v-2l-4-1-5-4-3-3-3-1-4-4-11-9-3-3 1-3 24-6v-7l-4-1-1 2-3-1-1-5h-6l1-9-4-3-1-5 2-8-1-8 4-3h3l-3-5v-2l-3-1 1-3h-2l-2-6 2-6h3l1-2 6-2v-6l-3-1 4-9h-2v-2h-7l-3-5 3-5 4-1 1-8-1-2 2-10-3-1v-6h4l9 16 3 6v2h2l1 7-4 1 1 5 7 8 5 5v4l-4 1 2 5 8 8v2h4v-183z" fill="#016B66"/>
<path transform="translate(1941,830)" d="m0 0 2 3 2 15v119l2 1h-3v10l-4 16-4 4-11 4-21 5-11 3-17 4-9 2-13 5-12 3-18 5-10 2h-4v-2l7-3 38-10 9-3 10-2 7-1v-11h2l2-11 5-11 4-11 1-10-6-1-1-3-1-29 1-51 2-5h2v-2l7-4h2l3-10 10-4 7-1 3 4v4l11-1 3-5 2-8z" fill="#BAC1C6"/>
<path transform="translate(1647,920)" d="m0 0h1l1 45v103l-1 2 27-6 8-3 29-8h2l-2 4-11 3-8 3-33 8-26 7-8 3-24 6-13 3h-14l-50-14-3-3 7 1 44 12 13 2-1-6 3-7 5-19 6-16-1-4-6-4v-19l1-65 4-5 8-3 2-10 16-4 3 1 2 7 11-1 4-8 4-1z" fill="#BBC1C6"/>
<path transform="translate(1717,885)" d="m0 0h2l1 96 1 2h-2v21l12 3 3 2-10-1-4-1-2 35-2 8-4 4-36 10-7 2-7 1-6-2 2-10 10-26 3-14-7-1-1-1-1-18v-38l1-27 5-5 7-3 2-10 2-2 13-3 5 1 2 6 6 1h6l1-16 2-5 3-4z" fill="#BAC0C5"/>
<path transform="translate(1871,855)" d="m0 0h2l1 44v106l1 4 2 2-5 2-10 2-40 11-11 3v-9l7-21 4-13 2-10-6-2-2-13 1-14 2-59 4-5 7-3 2-9 5-3 7-2h7l1 8 13-1 3-12z" fill="#BBC1C6"/>
<path transform="translate(1670,401)" d="m0 0 3 1 1 58v40l-1 15-1 2 2 1-20 7-24 5-23 3-3-1v-90l1-26 9-3 40-8z" fill="#BAC1C6"/>
<path transform="translate(1656,834)" d="m0 0h1v30l17 4 4 1 1-28 8 1 41 11 1 1v130l-8-1-2-2-1-96-9 1-40 11-12 3-14-1-3 6-18 5-19 5-16 4h-8l-21-5-33-9-2-2v-6l1-1h6v-2l16-4 21-6h2l2-5 11 1 9-1 4-3 34-9 17-4h10z" fill="#7A7E8F"/>
<path transform="translate(1310,863)" d="m0 0 11 1 38 10 1 1v131l-10-2-39-10-1-1z" fill="#63738A"/>
<path transform="translate(1453,900)" d="m0 0 10 2 40 11v131l-7-1-40-10-2-1-1-8z" fill="#566283"/>
<path transform="translate(1382,881)" d="m0 0 15 3 32 9 3 2v31l-1 99-11-2-37-10-1-6z" fill="#65758B"/>
<path transform="translate(1751,860)" d="m0 0 7 1 35 9 7 2v131l-9-1-35-9-5-2z" fill="#445277"/>
<path transform="translate(1525,919)" d="m0 0 27 7 22 6 1 2-1 130-47-12-2-6z" fill="#414F74"/>
<path transform="translate(1829,678)" d="m0 0 8 1 1 4h2l4 11 2 2 1 8 4 1v9l2 4 5 2 1 4-5 3 1 5 5 8v5l-4 3 1 3 3 2v2l5 2 5 5v2l-5 2 3 5 6 4-2 5-5 5-11 10-8-1-22-5-13-3-13-1-5-2-8-5-6-2 3-2 5-1 4-5h2l-1-5-5 3h-3l2-4 2-2v-2l6-1v-6l17-2h-12l-1-2 5-9 4-6-7 6-1 3-4 1 1-4 5-6 4-1-2-8 1-6 6-4-1-8 5-7 5-2 1-9 6-7z" fill="#026B66"/>
<path transform="translate(1579,555)" d="m0 0h2l-1 13-4 37-3 17 31-1 2 3-8 11-10 14-11 16-13 18-9 13-6 8-2-3 2-12 3-36 2-17-5 1h-26v-5l3-1 2-5 8-11 12-17 13-18 16-23z" fill="#DEE3E3"/>
<path transform="translate(1439,509)" d="m0 0 5 2 7 6 4 4v242h-2v2l-11 4-2-1 3-1 1-5 6-5-1-5-8-11-6-7 2-4 4-2-1-4v-4l-6-7-3-5v-4l4-1-1-5h4v-183z" fill="#02A084"/>
<path transform="translate(1608,821)" d="m0 0 20 5 26 7 2 1v29l-15 2-28 7-18 5-4 3-11 1-11-2-4-3-21-6-9-3-11-3-1-4-2-1 7-3 25-7 16-4 15-1 1-4v5l19 4 4 1z" fill="#797D8F"/>
<path transform="translate(1368,729)" d="m0 0 4 1-2 4-9 12-6 10 2 9-4 3-1 4-5 5 3-2h4l-1 3-16 10h-2v5l3 3 6 2v1l-17-1-27 7-17 6-3 4v3l-8 1-11-2 4-2 6-9 9-7 12-5-6-14v-13l4-10 9-10 8-5 8-2h10l11 4 9 7 3 1v3h3l2-4 6-8 4-6h2l1-4h2z" fill="#01C28D"/>
<path transform="translate(1794,819)" d="m0 0h1l1 5 6-1 5-3h6l-1 3 9 2v-4h6l8 3 30 8 9 3 10-1 26-7 5-2 8-3h5l5-3 5 1 2 3-5 3-23 7-31 8-13-3-1 7-41 11-14 4-10-1-46-12-7-3v-5h-8l-2-1v-2l5-2h4v-2l30-9 10-1z" fill="#7A7E8F"/>
<path transform="translate(1712,762)" d="m0 0 11 1-1 5-22 5-21 6-9 4 4 3h2l2-2v2l7 1 30 8 10 4 1 2h-2v5l-10 2-20 6-23 6-1 1h-8l-36-9-19-5-1-1v-6l-4 1h-10l3-1v-2l10-4 21-6 9-1v-2l12-4 5-1-15-5-25-7-5-2v-3l16 4 19 5 17 4 6 1 16-3 29-8 2-2z" fill="#797E8F"/>
<path transform="translate(1987,916)" d="m0 0h6l5 5h2l1-3 5 1-2 4-12 7v2l8-1 9-5 9 1 9 9 6 3h6l1-5 3-3v-4l5 1v13l-8 7-3 1v2l-8 2v10l-8 6h-9l-4-3v-2h-2l-3-3-13 2-6 1-1-3-10-2-3 8 1 2-5 2-10-2-9-1-1-1v-38l13-3 4-2h6l16 6-3-9z" fill="#039F84"/>
<path transform="translate(1536,802)" d="m0 0 18 4 18 5v1l-7 1-2-2-10-1-9-2v25h7l13 4 12 2 1 3-13 2-33 9-15 4h-4v2l6 1-2 2-8 1v-2l-8-1-4-2-38-12-7-2-1-2h-11l-3-2 18-6 21-6 19-5 6-1-2 4 16-1 22 6z" fill="#797E8F"/>
<path transform="translate(1320,881)" d="m0 0 9 1 24 6 6 1v116l-4-1-1-5-4 1-1-2-5-1-16-4-10-4v-8l4-13 5-11 3-8 10-20h2l-1-4-8-2v-1h11v-4l-3-2 5-1 3-12h2v-3l-3-1 1-1-7 1-1-4-20-4-1-2 11 1 17 4 7 1v-4h-4v-2l-7-1-23-5z" fill="#1D2A56"/>
<path transform="translate(1392,900)" d="m0 0 12 2 21 6 6 1v109l-1 4h-2v-4l-5 1v-2l-5 1-6-1-1-2-11-2-5-1-1-2-4-1v-11l2-7 3-8 4-8 3-7 4-9h2l2-10h2l1-7 3-5 4-9 2-7h2v-4l-7-2v-1h9l1-3-25-7-11-2z" fill="#1E2B57"/>
<path transform="translate(1462,919)" d="m0 0 9 1 25 7 6 1v7l-2 3 1 6-1 5 2 1v3h-2l2 4-1 7 1 1v76l-2-4-2 3-2-2-10-2v-2l-7-1-9-1-5-3-5-2v-3l11-1h-10v-6l7-17 2-5 7-14 5-13 2-2 1-5 8-19 3-4h-6l-3-3v-2l-8-1-16-3-1-2 9 1 21 5 3-4-5 2-2-2 1-1-16-5-11-2z" fill="#27345E"/>
<path transform="translate(1726,800)" d="m0 0h23v5l16 3 23 7 11 3 1 1 7 1-3 3-5 2-4-1-1-4-6 3-14 2-23 7h-3v2l-9 2v2l4 2-7 1-44-11-15-5v-6l-3-1 27-7 16-5h7v-5z" fill="#7A7E8F"/>
<path transform="translate(1686,843)" d="m0 0 9 1 33 9 1 1v130l-8-1-2-2-1-96-9 1-40 11-12 3-11-1-12-5-18-5-2-2 10 1 16 5 12 2 11-2h5v-2l10-2 8-2h4v-2l25-5-7-3v-2l-13-2-9-2 1-10z" fill="#445277"/>
<path transform="translate(1829,678)" d="m0 0 1 3-4 7 3-1 4 6 2 6-3 4-5 3-1 1 7 6-1 3-5 2v5l3 4v2l4 2 1 4 4 1 1 3-7 2-3 4h-3l2 3v4l2 2v13l-2 11-3 3-6 1v4l-3 1-4-1-13-1-5-2-8-5-6-2 3-2 5-1 4-5h2l-1-5-5 3h-3l2-4 2-2v-2l6-1v-6l17-2h-12l-1-2 5-9 4-6-7 6-1 3-4 1 1-4 5-6 4-1-2-8 1-6 6-4-1-8 5-7 5-2 1-9 6-7z" fill="#04877A"/>
<path transform="translate(1656,834)" d="m0 0h1v30l17 4 4 1 1-28 8 1v19l2 1h-2l-1 9 9 1 13 3v2l10 2-3 2-20 4h-5v2l-15 4h-7v2l-16 3-12-2-16-5-17-3-11-2-2-3-3-2 4-3 34-9 17-4h10z" fill="#787D8F"/>
<path transform="translate(1545,949)" d="m0 0 9 1 14 3 5-1v111h-3v-4l-1-3-5 1-7-2v-2l-3 1-18-6-3-2v-9l2-8 4-1-2-4 1-2h2v-7l3-1 2-7 2-6h5l1-2-3 1 1-6 4-8 2-6 6-13 3-8v-4l-21-5z" fill="#1D2955"/>
<path transform="translate(1428,841)" d="m0 0h22l2 3 8 2 31 9 10 3 4 2 3 1v2l-4 2h-5l-2-3-44 12-9 2h-12l-15-3-2-2-13-2v-2l-15-2v-2l-5-1-2 1v-3l-3-1 12-4 22-6 10-3h5l1-4z" fill="#797E8F"/>
<path transform="translate(1792,899)" d="m0 0 5 1 1 2h1v14h-1v21l1 5v60l-6-1v-1h5l-2-4h-6l-5-1-9-2-12-4-5-3v-3l6-1-6-2 2-11 5-11 4-9 4-8h2v-6l4-6 8-1v-1h-7l1-5 4-1-2-1 1-5 4-2-1-4 2-3z" fill="#1E2B57"/>
<path transform="translate(1723,765)" d="m0 0 1 2 3-1h13l36 8 13 4 7 5v1l-24 5-23 6-10 1h-12l-21-6-22-5-1-1h-5l-2 3-6-2v-3l9-4 24-7 19-4z" fill="#797E8F"/>
<path transform="translate(1602,533)" d="m0 0h5l-4 2-14 1h-43l1 65-11 15-10 15-3 3-1 2h-3l-1-6 3-7 1-78v-11h62z" fill="#39C6A5"/>
<path transform="translate(1875,803)" d="m0 0 9 1 33 9 16 5v2l-5 3h-5l-9 3-8 3-22 6-10 1-9-3-30-8-8-3-6-1v4l-7-1-2-1 1-3 21-7 30-8h7z" fill="#7A7E8F"/>
<path transform="translate(1688,509)" d="m0 0h2l1 139 4 2 12 2 12 6 7 7-1 2-8-7-5-2h-9l-12 3-12 4-7 6-3 6-1 5v14l3 7 6 7 10 5 10 4-1 4-9 2h-25l-8 1v2l-5 1-1 3-3 1-9 14h-3l1-10 6-12 7-8 14-7h3l-6-16v-14l5-12 9-10 9-6 7-2z" fill="#39C6A5"/>
<path transform="translate(1525,919)" d="m0 0 27 7 22 6 1 2-1 12-10-1-29-6-1 1 10 1 4 1v2h-6l-3 2h-6v2h6l2 1-1 3-6 1 1 2 9 2v1l-6 1-1 2-3 2 14 3-4 2-1 1h-9v2l10 1-4 1-1 3-5 1v2l11 1-4 2-2 2-5 1-1 2h10l2 2-1 2-10 1-3 7-3 25-2 18 2 1-1 8h-1l-1-5z" fill="#65728A"/>
<path transform="translate(1751,860)" d="m0 0 7 1 35 9 7 2v15l-1-2-11-1-21-4-2-1v-9l1-3h-5l-1 96v15h-2v5l-6 8h-1z" fill="#637089"/>
<path transform="translate(1318,865)" d="m0 0h7l34 9 1 1v131l-3-1h2v-116l-9-1-26-6 3 1 24 6v2h4v4h-7l-23-5h-4l20 4 4 3h1 6l-3 2 2 1-2 9-3 7-2 1 1 2-1 3-5-2-8-1v-3l-10-2-1-2h12l8 1-8-2 1-3-13-1h-2z" fill="#5F6A87"/>
<path transform="translate(1390,908)" d="m0 0h7l20 5v2l7 1 1 2-1 3h-2v6l-3 5-4 9-3 8h-2l-2 10h-2l-1 6-4 6-4 10-3 7-2 4h-1l-1-7v-15h-2v-2l-2-1 1-5 1-6v-3l1-2z" fill="#445176"/>
<path transform="translate(1779,713)" d="m0 0 4 1 1 8 4 2 7 9 3 3 3-5 6-1-5 4-4 5-1 3 4-3 6-7h2l-2 5-3 4-3 7h18v1l-22 3-1 5-6 1 1 3-4 3 1 2 3-3h3l1 5-5 5-4 2h-10l-27-6v-1h5v-2h3v-2l9-6 3-3 2-6v-13l-4-10 1-7 6-3z" fill="#04A085"/>
<path transform="translate(1608,821)" d="m0 0 20 5 26 7 2 1v29l-15 2-28 7-18 5-4 3h-8v-2l-2-2 52-13 7-2 9-1-16-4-6-2-15-3-4-2z" fill="#596585"/>
<path transform="translate(1670,374)" d="m0 0h3v23l-9 3-41 8-13 2h-5l-1-1 1-19 12-3 20-4 24-6z" fill="#BBC1C6"/>
<path transform="translate(1829,678)" d="m0 0 1 3-4 7 3-1 4 6 2 6-3 4-5 3-1 1 7 6-1 3-5 2v5l3 4v2l4 2 1 4 4 1 1 3-7 2-3 4h-6l1 3-6 1h-18l-1-2 5-9 4-6-7 6-1 3-4 1 1-4 5-6 4-1-2-8 1-6 6-4-1-8 5-7 5-2 1-9 6-7z" fill="#07897C"/>
<path transform="translate(1544,808)" d="m0 0 9 1 10 1 4 2h8l10 3v25l-1 4-19 3-30 8-11 3-3 2h-11l2-1v-2l26-7 29-8h10l-1-2-12-2-13-4-7-1z" fill="#586585"/>
<path transform="translate(1453,900)" d="m0 0 10 2-2 1v38l-1 4h12v2l-2 2v1l-6 1 13 2v2l-6 1-1 1h-9v4l2-1 10 1-4 3-5 1-3-1v5l2-1h12v1l-6 1-1 2h-6l-1 5 3-1v2l3 1h-5v38h-2v5l-3 7v2l-3 1-1-8z" fill="#617A8C"/>
<path transform="translate(1462,919)" d="m0 0 9 1 25 7 6 1v7l-2 3 1 6-1 5 2 1v3h-2l2 4-1 7 1 1v30l-21-3-7-2v-3l7-16 1-3 2-2 1-5 8-19 3-4h-6l-3-3v-2l-8-1-16-3-1-2 9 1 21 5 3-4-5 2-2-2 1-1-16-5-11-2z" fill="#1D2A56"/>
<path transform="translate(1462,935)" d="m0 0 10 1 9 2 12 1 1 3-9 21-1 5h-2l-1 6-8 16-2 5-5 12-3 8-2-2v-34l3-1-3-1v-6h7v-2h-7v-5h7l-1-2 2-1h-8v-4l9-1 4-2 3 1v-2h-10l-4-2 6-2 1-2h2v-2h-11v-3h9 2l4-3-12-2z" fill="#414F75"/>
<path transform="translate(1392,900)" d="m0 0 12 2 21 6 6 1v106h-1l-1-46-7-2-17-2 1-6h2l2-10h2l1-7 3-5 4-9 2-7h2v-4l-7-2v-1h9l1-3-25-7-11-2z" fill="#1D2A56"/>
<path transform="translate(1727,874)" d="m0 0h1v109h-7l-2-2-1-96-7-1 1-2 11-2 2 1-1-5h2z" fill="#495678"/>
<path transform="translate(1351,902)" d="m0 0 6 1v6h-3l3 2v5l-6 1 7 2v4l-7 1 7 2v13l-2 1 2 1v14l-2 1 1 2h-7l-19-4-1-5 10-20h2l-1-4-8-2v-1h11v-4l-3-2 5-1 3-12z" fill="#1D2A56"/>
<path transform="translate(1545,949)" d="m0 0 9 1 14 3 5-1v62h-5v-3-3h2v-2l-13-2-6-1 2-4-3 1 1-6 4-8 2-6 6-13 3-8v-4l-21-5z" fill="#1B2854"/>
<path transform="translate(1933,819)" d="m0 0 5 1 2 3-5 3-23 7-31 8-13-3-1 7-41 11-14 4h-6v-2l12-5 9-2 8-2 8-3h2l6-2h4v-2l2-2 4-2h6v-2l-8-1-24-7-12-3-2-4h6l8 3 30 8 9 3 10-1 26-7 5-2 8-3h5z" fill="#606C88"/>
<path transform="translate(1390,908)" d="m0 0h7l20 5v2l7 1 1 2-1 3h-2l-2 4-4 2h-7l-6-1 5 2v1h-5v2l10 1v2l-17-2 11 2v2h-6v2h-9v3h7l1 2h-3v2h-6v4h12v1h-5v3h-7l1 4 3-1-1 4h-2l-1 17h-1v-7h-2v-2l-2-1 1-5 1-6v-3l1-2z" fill="#586485"/>
<path transform="translate(1712,762)" d="m0 0 11 1-1 5-22 5-21 6-8 3h-17l-2 4-21 6-19 6-9 2-1 1h-10l3-1v-2l10-4 21-6 9-1v-2l12-4 5-1-15-5-25-7-5-2v-3l16 4 19 5 17 4 6 1 16-3 29-8 2-2z" fill="#5D6987"/>
<path transform="translate(1623,828)" d="m0 0h2l-2 6-4 4 8 4 14 4 12 1h3v16l-15 2-28 7-18 5-4 3h-8v-2l-2-2 52-13 7-2 9-1-16-4-6-2-11-2 1-9 3 1v2h2v2h7l4-1v-2l-7-1-10-2-1-12h8z" fill="#404D73"/>
<path transform="translate(1689,843)" d="m0 0 17 4 22 6 1 1v130l-4-1h3l-1-115-18-4-17-4-4-2 1-3h2v-2h2l1-6h-4l-1 2-1-4z" fill="#5F6B88"/>
<path transform="translate(1533,922)" d="m0 0 8 1 33 9 1 2-1 12-10-1-29-6-1 1 10 1 4 1v2h-6l-3 2h-6z" fill="#586585"/>
<path transform="translate(1368,729)" d="m0 0 4 1-2 4-9 12-6 10 2 9-4 3-1 4-3 2-2-6v-3h-3l-4-4v-2l-5-2-12-6-12-3-6-1-6 3-7 6 2-4 8-7 5-3 8-2h10l11 4 9 7 3 1v3h3l2-4 6-8 4-6h2l1-4h2z" fill="#38C5A4"/>
<path transform="translate(1390,886)" d="m0 0 8 1 5 1v-1l8 1 18 5 3 2v31h-1v-17l-9-1-22-6-8-1 4 2-5 2-1-1z" fill="#586886"/>
<path transform="translate(1433,772)" d="m0 0 6 2v2l7-1 7 2 9 2 21 5 13 4 22 5 7-2 2-4 2 1-1 11-6 2-9-1-30-8-46-12-9-3z" fill="#64738A"/>
<path transform="translate(1208,832)" d="m0 0 7 1 6 2 4 2 13 2 16 4 9 3 28 6 6-1 3-1 1-2v12l-7 1-25-6-48-13-12-4-2-2z" fill="#64738A"/>
<path transform="translate(1404,995)" d="m0 0h12l12 1v3l2 1 1 18-1 4h-2v-4l-5 1v-2l-5 1-6-1-1-2-11-2-5-1-4-5 1-1h14v-3l17-1-1-1h-8l-18 2h-5v-3l10-2 4-1z" fill="#111D48"/>
<path transform="translate(1319,919)" d="m0 0h11l12 3-4 1 4 2v4l-2 2-3 6-7 13-2 7-5 11-3 8-2-1v-33l1-1h10v-2l-9-1-1-4 8-1 1-2-9-1v-4l11-1 1-1-12-2z" fill="#425075"/>
<path transform="translate(1688,362)" d="m0 0h1l1 17 1 45v74l-2 7-2-3-2-11 1-40-1-56v-16l-1-8 3-7z" fill="#CFE7DC"/>
<path transform="translate(1532,993)" d="m0 0 3 2h10l-3 2v2l-8 1 1 13-1 6 1 15-1 3v9l10 4 11 3h2v2h6l4 1h2l3 5-6 1-39-10v-9l-1-1 1-20 3-23z" fill="#596586"/>
<path transform="translate(1545,824)" d="m0 0 2 4 12 2 10 3 5-1-7-3v-2l-8-1v-1h8l9 3 6 1v-2l3 1v12l-1 4-19 3-30 8-11 3-3 2h-11l2-1v-2l26-7 29-8h10l-1-2-12-2-13-4-7-1v-7z" fill="#404E73"/>
<path transform="translate(1601,339)" d="m0 0h6l-2 11-1 8-6 5-11 3h-7l-1-21 9-3z" fill="#BBC1C6"/>
<path transform="translate(1712,1053)" d="m0 0h2l-2 4-11 3-8 3-33 8-26 7-8 3-24 6-13 3h-14l-50-14-3-3 7 1 44 12 5 1h8l24-6 28-8 23-6 14-3 8-3z" fill="#39496A"/>
<path transform="translate(1462,919)" d="m0 0 9 1 25 7 6 1v7l-2 3 1 6-1 5 2 1v3h-2l2 4-1 10-2 2-9-2-6-1 1-5 8-19 3-4h-6l-3-3v-2l-8-1-16-3-1-2 9 1 21 5 3-4-5 2-2-2 1-1-16-5-11-2z" fill="#111C47"/>
<path transform="translate(1967,840)" d="m0 0 9 1 10 4 5 5-5-2-10-3v2l-11 4-1 4-1 3h-11l-5 3-1 106h-1l-1-28 1-90 9-6 6-2z" fill="#39C6A5"/>
<path transform="translate(1249,879)" d="m0 0h2v20l11 5-7 12-9 14h-1l-1-21-9-2-1-4 4-5 10-18z" fill="#65738A"/>
<path transform="translate(1704,918)" d="m0 0 2 1-1 4-17 5-16 4-1 75 4-1-1 5-5 1-2-1v-82l10-4 22-5z" fill="#E2E4E5"/>
<path transform="translate(1292,791)" d="m0 0 4 3 9 3 3 2 7 1-3 2-12 3-17 6-3 4v3l-8 1-11-2 4-2 6-9 9-7 12-5z" fill="#0BC191"/>
<path transform="translate(1568,880)" d="m0 0h2l-1 4-26 8-7 2h-6v2l-10 2-4 2h-7l-25-6-32-9v-4l7 1 5 2 9 1 3 2 12 3 6 2 10 2 2 1 11-1 25-7 5 1 3-3z" fill="#5F6E89"/>
<path transform="translate(1761,865)" d="m0 0h6v2h10v2l12 1 8 1 3 1v15l-1-2-11-1-21-4-2-1v-9l1-3h-5z" fill="#596586"/>
<path transform="translate(1634,937)" d="m0 0 1 3-4 3-25 6-5 2-1 14-1 61h6l-1 3-2 1h-6v-82l6-4 17-3z" fill="#E2E4E5"/>
<path transform="translate(1319,896)" d="m0 0h9l4 1v2l9 1 7 2v2l2 1-2 7-2 4-2 1 1 2-1 3-5-2-8-1v-3l-10-2-1-2h12l8 1-8-2 1-3-13-1h-2v-8z" fill="#485579"/>
<path transform="translate(1381,861)" d="m0 0 6 2v2l12 1 9 3 7 1 2 2 16 3h11l54-14v4l-26 7-21 6-9 4-25-6-35-9-1-1z" fill="#5E6E88"/>
<path transform="translate(1935,994)" d="m0 0h4l-1 3-13 5-21 5-11 3-17 4-9 2-13 5-12 3-18 5-10 2h-4v-2l7-3 38-10 9-3 10-2 18-5 40-11z" fill="#3C4B6B"/>
<path transform="translate(1678,783)" d="m0 0h5l5 2 29 7 10 3h12l14-2 27-7 11-2h5l-2 2-13 4-31 8-6 3h-10l-9-1-10-4-37-10z" fill="#5E6A87"/>
<path transform="translate(1545,949)" d="m0 0 9 1 14 3 5-1v36l-10-1-4-1v-2l-3 1 1-5 6-13 3-8v-4l-21-5z" fill="#1D2A56"/>
<path transform="translate(1319,880)" d="m0 0h5l-3 2 23 5 7 2v2h4v4h-7l-23-5h-4l20 4 4 3h1 6l-3 2 2 1v3l-3 1v-2l-12-2-4-1v-2l-13-1-1 3v-16z" fill="#535F81"/>
<path transform="translate(1207,889)" d="m0 0 6 1 1 2v54l-5 1-2-1z" fill="#797E8F"/>
<path transform="translate(1534,938)" d="m0 0 40 8v118h-1v-75h-7v-1h7v-36l-6 2-17-4-17-2v-2l7-2 4-1 4 1v-2l-9-1-5-1z" fill="#3D4B71"/>
<path transform="translate(1708,876)" d="m0 0 12 2v3l-8 2 1 2-44 12-12 3-11-1-12-5-18-5-2-2 10 1 16 5 12 2 11-2h5v-2l10-2 8-2h4v-2l25-5-7-3z" fill="#4B597B"/>
<path transform="translate(1439,509)" d="m0 0 3 1-2 1v188l-1 2h-2l-1-3h2v-183z" fill="#39C6A5"/>
<path transform="translate(1281,812)" d="m0 0 2 3h7l7 1 8 3 21 5 16 4 1 3-7 2-22-4-20-6-14-4-1-4z" fill="#65738A"/>
<path transform="translate(1417,914)" d="m0 0h12l1 4-1 4v8l1 4-6 2 6 2v4l-2 2 2 5h-10l-2-2-4 2 1 1 7 1v1l-12 1v-4h2l1-7 3-5 4-9 2-7h2v-4l-7-2z" fill="#131E49"/>
<path transform="translate(1857,878)" d="m0 0 4 1-2 4-21 4-10 3-1 1-2 48v30h-3v-81l2-2 16-4z" fill="#E2E4E5"/>
<path transform="translate(1443,907)" d="m0 0h1l1 146-12-1-39-11-17-5v-1l9 1 50 13 6 1v-64z" fill="#BBC1C6"/>
<path transform="translate(1508,753)" d="m0 0 6 1 5 1v2l8 1 25 6 18 5v2l-3 1h-10l-16-4-27-7-8-1-1-1v-5z" fill="#64728A"/>
<path transform="translate(2e3 877)" d="m0 0 3 3 3 10v3l4 2 10 10 5 4 5 3-1 5-8 1-6-10-5-5-9-5-8-2 1-5z" fill="#CBE5DA"/>
<path transform="translate(1320,881)" d="m0 0 9 1 24 6 6 1v76h-1v-9h-5v-1h5v-14l-7-1v-1h7l-1-8 1-5-10-2v-1h10l-1-4-7-2 4-2h2v-4l-3-2 2-2 1 1 1-5-6-1v-2l-3-1 1-1-7 1-1-4-20-4-1-2 11 1 17 4 7 1v-4h-4v-2l-7-1-23-5z" fill="#313F66"/>
<path transform="translate(1311,864)" d="m0 0 2 3v111l-1 16-2-1v-114z" fill="#6F8B93"/>
<path transform="translate(1320,906)" d="m0 0 13 1 1 2h-2v2h6l4 3-17-1h-4l14 3-4 1v2h8l4 2-3 1-10-2-11-1v3l13 1-2 3h-11v4h14v1h-5l-1 3h-8l1 3 12 1-3 1v2l-11 1v-35z" fill="#596586"/>
<path transform="translate(1404,965)" d="m0 0h11l13 2 2 2v7l-2 2h-4l3 2-7-1 1-3h-7l-5-1-4 2 3 2h-8l-1 3-1-6 5-10z" fill="#1E2B57"/>
<path transform="translate(1608,821)" d="m0 0 17 4-2 1v4h-8l2 8-1 4 13 2 4 1v2l-5 2-6-1v-2h-2v-2h-2l-2 7-7-1-1-1z" fill="#65728A"/>
<path transform="translate(1474,989)" d="m0 0 14 3 12 2 2 1v5l-1 2v3l-5-1v2l-3-1-2-1-14-2v-2l-5 1-3-2 1-4 2-5z" fill="#1E2B57"/>
<path transform="translate(1476,1022)" d="m0 0h11l11 1 3 2-1 4h-4l-4-1v-1h-12l15 4 6 2v4l-2 1-1 2-2-2-10-2v-2l-7-1-9-1-5-3-4-1v-3h16z" fill="#131F4A"/>
<path transform="translate(1206,987)" d="m0 0 11 3 36 10 15 4 24 6 6 1v-15h1l3 19-9-1-48-12-26-7-9-3-4-3z" fill="#465D77"/>
<path transform="translate(1390,993)" d="m0 0h1l-1 16 5 1v2h8l9 3v2h11l5 1v4h2l1-4v7l-11-2-37-10v-15h1l1 9 2-9 2-1z" fill="#445377"/>
<path transform="translate(1732,680)" d="m0 0 2 4v2l13-2 16 4 3 3-5-1h-9l-1 1-19 2-10 4-4 1-1 4h-6l2-5 7-7 8-4h4z" fill="#39C6A5"/>
<path transform="translate(1390,908)" d="m0 0h7l20 5v2l7 1 1 2-1 3h-2v2l-8-1-14-3-10-1z" fill="#414E73"/>
<path transform="translate(1471,1010)" d="m0 0 9 2 7 1 5 2 8 2 1 4-4 1-8-2-9 1h-17v2h-2v-6l2-6z" fill="#111C47"/>
<path transform="translate(1758,978)" d="m0 0 1 2 7 1-1 2h-6v3l5 2 15 5 10 1 7 2h2v4l-2 1 1 2-17-4-24-6-4-2 2-4 3-4z" fill="#49587A"/>
<path transform="translate(1933,819)" d="m0 0 5 1 2 3-5 3-23 7-24 6h-6l1-2 13-5h3v-2l13-4 6-2 5-2h5z" fill="#4A597B"/>
<path transform="translate(1460,1017)" d="m0 0h1v6l2-1h10l2 2h-15l1 3 7 3 7 1 11 3v2l11 1h1 2l2 4v3l-11-2-35-9-1-2h2l-1-3 2-6h2z" fill="#445376"/>
<path transform="translate(1640,899)" d="m0 0h2l-2 6-18 5-19 5-12 3h-7l1-3 11-4 8-2 11-4 19-5z" fill="#4A587A"/>
<path transform="translate(1533,1032)" d="m0 0 2 2-1 3v9l10 4 11 3h2v2h6l4 1h2l3 5-6 1-39-10 2-9z" fill="#475779"/>
<path transform="translate(1453,900)" d="m0 0 10 2-2 1-1 11h-2l-1 8v17l-1 38-2 1-1-36z" fill="#7A7F90"/>
<path transform="translate(1794,819)" d="m0 0h1v6l-12 3-27 8-12 3-5-1v-2l5-2h4v-2l30-9 10-1z" fill="#49567A"/>
<path transform="translate(1392,900)" d="m0 0 12 2 21 6 6 1v106h-1l-1-55-3-3h4l-2-7 1-3-1-2-4-2 6-1-1-4-8-1 3-2 6-1-1-4-3-1h3l-1-10 1-5-7 1 4-1 1-3-25-7-11-2z" fill="#26325C"/>
<path transform="translate(1535,1030)" d="m0 0h10l12 2 8 3 6 1v2h-10l-6-1v2l-15 2h-6v-9z" fill="#111C47"/>
<path transform="translate(1547 1e3)" d="m0 0 20 4 3 1v2h-2l1 4-1 1 5 1v4l-16-4-12-2-1-4z" fill="#1D2A56"/>
<path transform="translate(1650,782)" d="m0 0h2v4l-21 6-19 6-9 2-1 1h-10l3-1v-2l10-4 21-6 18-4z" fill="#445377"/>
<path transform="translate(1317,982)" d="m0 0h1v7l10 3 9 2 9 3 9 1v6l2 1-11-2-32-8v-7l2-2z" fill="#485779"/>
<path transform="translate(1342,984)" d="m0 0h10v3l-3 1h-14v2h15l5-1 1 2h-4v4h3l1-2-1 5-5 2-1-2-5-1-16-4-9-4v-1z" fill="#111C47"/>
<path transform="translate(1757,734)" d="m0 0 4 1-2 6 6 7-1 7-7 3h-7l-2-3 1-8 3-5 2-1z" fill="#019E83"/>
<path transform="translate(1678,821)" d="m0 0 1 2 12 1 1 3 14 1 3 3 10 1 1 3h16l7-2h5l-4 2-5 1v2l4 2-7 1-44-11-15-5z" fill="#63798C"/>
<path transform="translate(1497,822)" d="m0 0 3 1-2 4-46 12h-2v2l-3 1h-8l-3-2 18-6 21-6 19-5z" fill="#445277"/>
<path transform="translate(1863,802)" d="m0 0h4v3l-28 8-18 5-4 2h-17l1-3h8l20-6 13-4h5v-2l13-2z" fill="#465478"/>
<path transform="translate(1298,883)" d="m0 0h1l1 118-3-3v-105z" fill="#BBC1C6"/>
<path transform="translate(1712,762)" d="m0 0 11 1-1 5-22 5-21 6-8 3-7-1v-2l20-6 26-7 2-2z" fill="#404E74"/>
<path transform="translate(1864,842)" d="m0 0 3 1v2l-41 11-14 4h-6v-2l12-5 9-2 8-2 8-3h2l10-3z" fill="#4B5B7C"/>
<path transform="translate(1463,960)" d="m0 0 10 1-4 3-5 1-3-1v5l2-1h12v1l-6 1-1 2h-6l-1 5 3-1v2l3 1h-5v38h-2v5l-3 7v2l-3 1v-6h2v-7h2l-1-6 2-10v-7l-1-5 1-13 1-17z" fill="#596585"/>
<path transform="translate(2e3 960)" d="m0 0 5 1 1 3h2l5 5 2 3-3 3-9-2-3-2-12-3v-3l2-3z" fill="#CBE6DA"/>
<path transform="translate(1722,801)" d="m0 0 1 4-9 3-20 6-23 6-5-1v-2l13-4 26-7z" fill="#445277"/>
<path transform="translate(1640,861)" d="m0 0h6v3l-33 8-18 5-4 3h-8v-2l-2-2 52-13z" fill="#445277"/>
<path transform="translate(1424,842)" d="m0 0 3 1-1 3-15 4-29 8-5 2h-7l-2-2 3-2 12-3 26-7z" fill="#435176"/>
<path transform="translate(1497,861)" d="m0 0 1 4-26 7-21 6-9 4-6-2 2-3 9-3 21-5z" fill="#435176"/>
<path transform="translate(1523,899)" d="m0 0 4 1v2h2v2l14-1v2l2 1 1 1 5 1 7 1v2l11 1 3 3v-2l2 1-1 2 6-1h6l-1 3 3 1h-8l-21-5-33-9-2-2z" fill="#66748B"/>
<path transform="translate(1567,842)" d="m0 0h8l4 3-14 2-30 8-11 3-3 2h-11l2-1v-2l26-7z" fill="#435176"/>
<path transform="translate(1533,785)" d="m0 0h8l7 1 2 2 12 2 4 2 11 2 4 2 11 1 10-3 3 1-10 3v2l2 2h-7l-53-14-4-2z" fill="#5D6D87"/>
<path transform="translate(1785,712)" d="m0 0 3 1 3 5v2l5 2 4 3 4 1 3-1v5l-6 1-2 5h-3l-8-11-4-3v-9z" fill="#CCE5DA"/>
<path transform="translate(1392,924)" d="m0 0 13 1 4 1h7l5-2 1 3-3 5-4 9-6-2-8-1v-2h6v-2l-14-1 1-2 14 1 5 2v-2l-10-1v-2l4-1-15-3z" fill="#37456C"/>
<path transform="translate(1304,844)" d="m0 0 8 1 13 2 3 2 13 2 6 3 12 1 5 2 7-1-1 3 5 1-4 2-10-1-56-15z" fill="#5D7188"/>
<path transform="translate(1750,802)" d="m0 0 19 4 29 8 9 1 12-2 7-1-3 2-14 4h-8l-2 1-24-7-25-7z" fill="#5E6B87"/>
<path transform="translate(1791,784)" d="m0 0h5l-2 2-13 4-31 8-6 3h-6l-4-3 19-5 27-7z" fill="#445277"/>
<path transform="translate(1751,860)" d="m0 0 7 1-4 2v13l-1 16v22l-1 77h-1z" fill="#7A7F90"/>
<path transform="translate(1534,1044)" d="m0 0 12 1 7 2 10 2 8 3v6h-2v-2l-5 1-7-2v-2l-3 1-18-6-3-3z" fill="#141F4A"/>
<path transform="translate(1382,824)" d="m0 0h7l27 8 15 4h16l-3 2-6 2 1 2-8-1-9-2-4-3-26-7-8-3z" fill="#5B6786"/>
<path transform="translate(1533,1037)" d="m0 0 1 4 6-1h9v2l2 1 1 1h9l4 3h7l1 2v14h-3v-4-6l-9-4-12-2-3-1-13-1z" fill="#222F5A"/>
<path transform="translate(1340,968)" d="m0 0 17 1-4 2-2 2 1 4 4 1h-6l-1 2-8 1-9 2h-12l3-2 12-2 5-3 8-1-1-3-7 2-19 1v-2l4-1h10l2-3z" fill="#111C47"/>
<path transform="translate(1431,672)" d="m0 0 1 3h2l3 7 1 16h-4l-7-8-3-3v-4l6-2v-8z" fill="#CCE6DA"/>
<path transform="translate(1416,993)" d="m0 0m-7 0h6l1 2-11 1 2 2-16 2v3l23-3h11l-2 3h-17v3l-14 1v2h-2v-11l1-3 6-1z" fill="#1E2B57"/>
<path transform="translate(1607,802)" d="m0 0 1 2 11 1v3h14l1 4 13 1 3 1v2h15l6-1-2 2h-3v2l4 2h-8l-36-9-19-5z" fill="#61748B"/>
<path transform="translate(2e3 891)" d="m0 0 1 2-1 3 8 1 9 5-2 1-8-3-21 3-12 1 2-4 8-3 11-3h4z" fill="#39C6A5"/>
<path transform="translate(1482,968)" d="m0 0 16 3 3 1v7l-3 1h-19v-5z" fill="#1D2A56"/>
<path transform="translate(1973,958)" d="m0 0 5 1 5 2 2 4-7 8-4 2-6-1-3-3 4-3 3-9z" fill="#5B828E"/>
<path transform="translate(1550,637)" d="m0 0h3v16l-2 21-1 1-1 9h-1l-1-8v-23l1-15z" fill="#09A488"/>
<path transform="translate(1525,921)" d="m0 0 3 1-1 6 1 7-1 21-1 86 2 1-1 8h-1l-1-5z" fill="#787F8F"/>
<path transform="translate(1522,1073)" d="m0 0 7 1 44 12 5 1h8l9-2 7 1v1l-13 3h-14l-50-14z" fill="#49617C"/>
<path transform="translate(1502,913)" d="m0 0h1v131h-1l-1-79-1-4 1-4-11-1v-1h10v-2h2v-3l-3-1 1-8-1-4h2z" fill="#6A7389"/>
<path transform="translate(1662,726)" d="m0 0 9 1 2 3v6l-3 3-6 2-6-3-1-1v-6l4-2z" fill="#3CC6A6"/>
<path transform="translate(2046,941)" d="m0 0h2v9l-5 2-6 7-5 5-4 3h-2l1-4h2v-10l8-2v-2l6-4z" fill="#C4E5D7"/>
<path transform="translate(1568,880)" d="m0 0h2l-1 4-26 8-7 2h-6v2l-15 2 3-3 5-2 8-3 11-3 5 1 3-3z" fill="#414F74"/>
<path transform="translate(1398,903)" d="m0 0 8 1 21 6v3l-1 1h-9l-20-5-6-1v-1l5-1z" fill="#525F80"/>
<path transform="translate(1759,984)" d="m0 0h7v2l16 1 14 4v4l-6 1-5-1-9-2-12-4-5-3z" fill="#131E49"/>
<path transform="translate(1462,919)" d="m0 0 9 1 25 7 6 1v6l-4-1-2 4v1h-6l-3-3v-2l-8-1-16-3-1-2 9 1 21 5 3-4-5 2-2-2 1-1-16-5-11-2z" fill="#2C3961"/>
<path transform="translate(1318,891)" d="m0 0h9l14 3 4 3h1 6l-3 2 2 1v3l-3 1v-2l-12-2-4-1v-2l-13-1-1 3z" fill="#546183"/>
<path transform="translate(1545,819)" d="m0 0 11 3v2h3v2l8 1v2l5 1 3 2-2 2-7-1-19-5-2-2h-1v-6z" fill="#566284"/>
<path transform="translate(1383,958)" d="m0 0h1l1 26 4-6h1l1 7v8l-4 10-1 7-2-3-1-9z" fill="#596586"/>
<path transform="translate(1303,1015)" d="m0 0 12 2 47 12 8 1 2-2 4 7-11-2-25-6-35-10z" fill="#52647F"/>
<path transform="translate(1417,914)" d="m0 0h12l1 4-1 4v8l1 4-9 3h-4l3-9 2-7h2v-4l-7-2z" fill="#131E49"/>
<path transform="translate(1409,987)" d="m0 0 19 1-1 4-2-1h-1v2h5l-3 2-14-1-21 1 1-4h15z" fill="#111C47"/>
<path transform="translate(1377,1035)" d="m0 0 9 1 50 13h6l1-11h1l1 15-12-1-39-11-17-5z" fill="#4B637C"/>
<path transform="translate(1569,946)" d="m0 0h5v118h-1v-75h-7v-1h7v-36l-6 2-2-5z" fill="#445277"/>
<path transform="translate(1295,820)" d="m0 0 8 1 7 2 13 3 6 1 13 1 1 3-7 2-22-4-10-3v-2l-9-2z" fill="#5E6A87"/>
<path transform="translate(1439,365)" d="m0 0h1l1 37v106h-2l-1-7z" fill="#CFE7DC"/>
<path transform="translate(1351,902)" d="m0 0 6 1v6h-3l3 2v5l-6 1 6 1v4l-12-1-1-3-3-2 5-1 3-12z" fill="#131E49"/>
<path transform="translate(1467 1e3)" d="m0 0 14 2 3 1 13 3 1-2 1 4h2v3l-7 1-5-1 2-2-14-1-6-2-4-2z" fill="#111C47"/>
<path transform="translate(1208,832)" d="m0 0 7 1 6 2 8 4 1 2 9 1 4 4h-8l-26-8-2-2z" fill="#5E6C88"/>
<path transform="translate(0)" d="m0 0h81v1l-54 2h-27z" fill="#CFE6DC"/>
<path transform="translate(1850,843)" d="m0 0h5l-4 2-8 3h-4l-6 3-12 2-11 4-4 2-8-1-19-5v-2h9v2l5 1h9l7 1 10-4 13-4z" fill="#5F6E89"/>
<path transform="translate(1450,1054)" d="m0 0 11 2 42 11 11 2 1-3 2 6-11-1-35-9-20-6z" fill="#4A5A79"/>
<path transform="translate(1935,994)" d="m0 0h4l-1 3-13 5-21 5-2 1h-9l3-1v-2l36-10z" fill="#2A385C"/>
<path transform="translate(1206,987)" d="m0 0 11 3 36 10 7 2v1h-11l-30-8-9-3-4-3z" fill="#445A76"/>
<path transform="translate(1392,941)" d="m0 0h7l1 2h-3v2h-6v4h12v1h-5v3h-7l1 4 3-1-1 4h-2l-1 17h-1v-7h-2v-2l-2-1 1-5 1-6v-3l1-2 1-9z" fill="#596586"/>
<path transform="translate(1544,1011)" d="m0 0 23 4 5 1 1 6-20-4-9-3z" fill="#1D2A56"/>
<path transform="translate(1406,959)" d="m0 0h13l4 2-1 3h5l-4-2 1-2h6v9l-8-2-17-2z" fill="#1E2B57"/>
<path transform="translate(1401,970)" d="m0 0 8 1 20 4-1 3h-4l3 2-7-1 1-3h-7l-5-1-4 2 3 2h-8l-1 3-1-6z" fill="#111C47"/>
<path transform="translate(1292,791)" d="m0 0 4 3 9 3 3 2 7 1-3 2-12 2-3-3-5-2h-7l-5 1 4-3 8-3z" fill="#39C6A5"/>
<path transform="translate(1551,406)" d="m0 0h38l12 1v2l-24 1-30-1 1-2z" fill="#BBC1C6"/>
<path transform="translate(1543,868)" d="m0 0 10 1 18 5 15 1-4 6-13-2-4-3-21-6z" fill="#5C6986"/>
<path transform="translate(1550,996)" d="m0 0 1 2 13 2 2 2 7-1v13h-5v-3-3h2v-2l-13-2-6-1 2-4-3 1z" fill="#1E2B57"/>
<path transform="translate(1501,957)" d="m0 0 1 3-1 4v4l-5 1-12-3 1-5 1-2h6l5 1 1 1z" fill="#1D2A56"/>
<path transform="translate(1541,1014)" d="m0 0 9 2 21 5 2 1-1 3v-2h-3v2l2 1-7-1-5-3h-9l-1-2h-6l-3-5z" fill="#111C47"/>
<path transform="translate(1614,887)" d="m0 0 10 1 16 5 12 2h5l-1 3h5l-4 2-11-1-12-5-18-5z" fill="#5C6987"/>
<path transform="translate(1572,1037)" d="m0 0h1v12l-2-1h-6l-5-3h-8l-3-3v-1l11-1 6 1 1 1 5-2z" fill="#111C47"/>
<path transform="translate(1469,999)" d="m0 0 8 1v2h10l7 1v2l2 1v-2l5 1-1-6 2 1v12l-1-2h-2l-1-3-5 1-11-2-13-3z" fill="#202D58"/>
<path transform="translate(1752,1014)" d="m0 0 9 2 33 9 9 2 4 3-4 1-42-12-9-3z" fill="#597489"/>
<path transform="translate(1538,1026)" d="m0 0h10l3 2 3 1h10l-1 2h3v2l4 2-5 1-8-3-22-3 4-2z" fill="#1E2B57"/>
<path transform="translate(1300,851)" d="m0 0h1v9l-7 1-17-4-3-3 16 1 10-2z" fill="#5C6987"/>
<path transform="translate(1535,763)" d="m0 0 7 1 2 1 3 1 16 1 7 2v2l-3 1h-10l-16-4-6-2-2-2z" fill="#5D6A87"/>
<path transform="translate(1635,1075)" d="m0 0 3 1-5 3-27 7h-7v-2l28-8z" fill="#324164"/>
<path transform="translate(1471,994)" d="m0 0h4v3l10 2 14 3 2 1v2l-5-1v2l-3-1-2-1-14-2v-2l-5 1-3-2 1-4z" fill="#111C47"/>
<path transform="translate(1335,938)" d="m0 0 1 3 3-1 13 2 4 1-1 2-1 1 2 2-13-1-10-2z" fill="#1F2C57"/>
<path transform="translate(1538,1022)" d="m0 0 9 1 10 2 14 3-1 2-5 2-3-1 1-1h-11l-4-3-11-1z" fill="#111C47"/>
<path transform="translate(1475,984)" d="m0 0 1 3 3-1 19 3-3 2 5 2 1-2 1 4-21-3-7-2v-3z" fill="#222F5A"/>
<path transform="translate(1461,945)" d="m0 0h11v2l-2 2v1l-6 1 13 2v2l-6 1-1 1h-9l-1-7z" fill="#556183"/>
<path transform="translate(1541,949)" d="m0 0 8 1 12 3 3 3h-2v2h-3v-4l-3 1 1 2-18-2-5-1 4-2z" fill="#455377"/>
<path transform="translate(1344,919)" d="m0 0 10 2 3 1 1-3v4l-7 1 6 2v3l-6 1-4-2h-5l-1-3-8-2v-1h11z" fill="#1D2A56"/>
<path transform="translate(1859,746)" d="m0 0h5l4 5 3 8 1 2-5-1-5-4-6-5 2-4z" fill="#CBE4D9"/>
<path transform="translate(1466 1e3)" d="m0 0 1 2h5l4 2 1 1 15 1 3 6-7-1-1-1-14-2-2-1h-7z" fill="#1D2A56"/>
<path transform="translate(1394,984)" d="m0 0h16l3 2h-4l-2 5h-14z" fill="#1D2A56"/>
<path transform="translate(1320,906)" d="m0 0 13 1 1 2h-2v2h6l4 3-17-1-7 1v-7z" fill="#536082"/>
<path transform="translate(1951,936)" d="m0 0 7 2 1 1v5l-5 3-8-2v-7z" fill="#00C28D"/>
<path transform="translate(1452,881)" d="m0 0 7 1 5 2 9 1 5 4v2l-9-1-17-5z" fill="#5E6C88"/>
<path transform="translate(1458,845)" d="m0 0 9 1 30 8 6 3v1h-7l-38-12z" fill="#596685"/>
<path transform="translate(1543,805)" d="m0 0h7l22 6v1l-7 1-2-2-10-1-9-2v24l-1-2h-2v-6l1-4v-3z" fill="#636F89"/>
<path transform="translate(1807,732)" d="m0 0h2l-2 5-3 4-3 7h18v1l-12 2h-11l1-8 4-4z" fill="#39C6A5"/>
<path transform="translate(1463,960)" d="m0 0 10 1-4 3-5 1-3-1v5l2-1h12v1l-6 1-1 2h-6l-1 5 3-1v2l3 1h-5l-1 6-2-2 1-22z" fill="#586485"/>
<path transform="translate(1311,864)" d="m0 0 2 3v41l-2 1-1-3v-27z" fill="#7B7F90"/>
<path transform="translate(1406,920)" d="m0 0 12 2 3 2-5 3h-7l-12-2v1h-6l1-4 11 1z" fill="#4B597C"/>
<path transform="translate(1397,978)" d="m0 0 3 1h6l1 3 9 1h5v2l4 2v1h-9l-7-1 1-2-15-1z" fill="#1E2B57"/>
<path transform="translate(1313,755)" d="m0 0 7 1 2 5-3 4-5 1-5-4 1-5z" fill="#47C6A9"/>
<path transform="translate(1430,939)" d="m0 0h1v76h-1l-1-55-3-3h4l-2-7 1-3-1-2-4-2 6-1z" fill="#445277"/>
<path transform="translate(1381,861)" d="m0 0 6 2v2l12 1 9 3-3 1v2l-11-2-12-3-1-1z" fill="#616E89"/>
<path transform="translate(1489,1019)" d="m0 0 10 3-1 2-19-1h-2v2h-16l-1 2v-3l11-1-8-1v-1z" fill="#1F2C58"/>
<path transform="translate(1911,863)" d="m0 0h9l-1 3-19 5h-5l2-4z" fill="#E2E4E5"/>
<path transform="translate(1971,854)" d="m0 0 4 1 3 2v6l-2 2h-7l-2-2v-5z" fill="#48C9AA"/>
<path transform="translate(1721,940)" d="m0 0 1 2 3 1-2 5 1 6-1 3 2 6-1 1 2 3-2 1v3l2 2h-2v4h-3z" fill="#1E2B57"/>
<path transform="translate(1320,912)" d="m0 0h12l12 3 1 4-1 3-5-2-8-1v-3l-10-2z" fill="#445277"/>
<path transform="translate(1758,959)" d="m0 0 2 4v15h-2v5l-5 5v-6l1-2 2-12z" fill="#576385"/>
<path transform="translate(1304,844)" d="m0 0 8 1 13 2 3 2 13 2 2 2h-2v2l-17-4-19-5z" fill="#61758B"/>
<path transform="translate(1689,843)" d="m0 0 17 4 19 5v1h-10l-4-2-11-1-6-2-4-1-1 2-1-4z" fill="#65748B"/>
<path transform="translate(1277,818)" d="m0 0 11 2 26 8 14 4-4 1-17-4-30-9z" fill="#BBC1C6"/>
<path transform="translate(1420,834)" d="m0 0 8 1 3 1h16l-3 2-6 2 1 2-8-1-9-2-4-4z" fill="#637089"/>
<path transform="translate(1428,841)" d="m0 0h22l3 5h-8l-8-2-4 2h-6z" fill="#D4D8DA"/>
<path transform="translate(1474,989)" d="m0 0 14 3 12 2 2 1-1 3h-2v2l-6-1 2-2-21-4z" fill="#111C47"/>
<path transform="translate(1287,785)" d="m0 0h2l4 10-2 1h-9v-2l-2-1 3-5 4-1z" fill="#C9E5DA"/>
<path transform="translate(1461,937)" d="m0 0h9l7 2-3 2 8 2v1l-12-1-9-1-1 3v-7z" fill="#576384"/>
<path transform="translate(1391,930)" d="m0 0 10 1v1h-7l13 2v2h-6v2h-9l-2 4v-8z" fill="#535F81"/>
<path transform="translate(1892,1006)" d="m0 0 4 1 1 2-21 5-10 2-4-2 12-3z" fill="#50667E"/>
<path transform="translate(1416,660)" d="m0 0 7 1 2 4v6l-6-1-5-6v-3z" fill="#C8E4D8"/>
<path transform="translate(1523,899)" d="m0 0 4 1v2h2v2l14-1v2l2 1-1 3-8-1-11-3-2-2z" fill="#647089"/>
<path transform="translate(1623,828)" d="m0 0h2l-2 6-4 4 6 3-2 2-7-1-1-12h8z" fill="#414F75"/>
<path transform="translate(1502,751)" d="m0 0h1v7l10 3 24 7v1l-9-1-23-7-9-2v-2h4z" fill="#BBC1C6"/>
<path transform="translate(1409,979)" d="m0 0 7 1 12 2 1 4-5 1-4-2 1-2-10 1-5-2 1-2z" fill="#111C47"/>
<path transform="translate(1743,833)" d="m0 0h5l-4 2-5 1v2l4 2-7 1-9-2-3-3 1-1h11z" fill="#63728A"/>
<path transform="translate(1375,761)" d="m0 0 3 1-9 6-8 1-3-1v-2l-2-1 2-2 6 1z" fill="#63798C"/>
<path transform="translate(1973,958)" d="m0 0 5 1 5 2-1 4-8 4-2-1v-9z" fill="#D7DDDD"/>
<path transform="translate(1463,1013)" d="m0 0 18 1-3 1 1 3-17 1-1 2 1-6z" fill="#1E2B57"/>
<path transform="translate(1358,922)" d="m0 0h1v43h-1v-9h-5v-1h5v-14l-7-1v-1h7l-1-8 1-5-10-2v-1z" fill="#445277"/>
<path transform="translate(1476,984)" d="m0 0 14 1 9 1 2 1v3h-2v2l-6-1 1-2-18-2z" fill="#111C47"/>
<path transform="translate(1317,962)" d="m0 0h1l1 19-3 8-1 4-3 1-1-5h2l2-12z" fill="#586485"/>
<path transform="translate(1568,880)" d="m0 0h2l-1 4-20 6-3-1 4-4z" fill="#445176"/>
<path transform="translate(1340,929)" d="m0 0h4v3l11 1 2 1-1 4-7-1v-2l-10-1z" fill="#111C47"/>
<path transform="translate(1390,918)" d="m0 0h10l6 1v2l-2 2-4 1-8-1-2 3z" fill="#576384"/>
<path transform="translate(1498,855)" d="m0 0 18 1-4 1v2l6 1-2 2-8 1v-2l-8-1v-3z" fill="#5A7F8E"/>
<path transform="translate(1719,795)" d="m0 0h25l-8 4 2 2-13-1-6-4z" fill="#5C6886"/>
<path transform="translate(1544,1009)" d="m0 0 10 1 19 4v4l-16-4-12-2z" fill="#111C47"/>
<path transform="translate(1914 1e3)" d="m0 0 4 1-2 1 3 1-17 5h-9l3-1v-2z" fill="#475F78"/>
<path transform="translate(1758,862)" d="m0 0 9 1 22 6v2l-10-1-2-1v-2l-5 1-5-1v-2h-6l-4-1z" fill="#69798D"/>
<path transform="translate(1547 1e3)" d="m0 0 20 4 3 1v2h-2l1 4-3-1v-2l-12-3-7-1z" fill="#111D48"/>
<path transform="translate(1443,1038)" d="m0 0h1l1 15-12-1-9-3-1-2 9 1 10 1z" fill="#485977"/>
<path transform="translate(1829,1023)" d="m0 0 3 1 3 2-21 5h-4v-2l7-3z" fill="#4A5A77"/>
<path transform="translate(1390,790)" d="m0 0h2l1 5 4 1v3l-5-1-1-3-3 3 2 1h-13v-2l9-2z" fill="#016B65"/>
<path transform="translate(1533,948)" d="m0 0h6l2 1-1 3-6 1 1 2 9 2v1l-6 1-1 2-4 1z" fill="#566284"/>
<path transform="translate(1533,922)" d="m0 0 5 1-3 1 1 5 1-1 3-1 1 4 11 3v1l-13-1-6-1z" fill="#3E4C71"/>
<path transform="translate(1678,821)" d="m0 0 1 2 12 1 1 3 4 1 4 2h-8l-15-5z" fill="#60778C"/>
<path transform="translate(1373,803)" d="m0 0h17v2h-7v3h-8l-6-3z" fill="#01726B"/>
<path transform="translate(1536,1032)" d="m0 0 11 1 5 4-7 1h-10l-1-4z" fill="#1E2B57"/>
<path transform="translate(1439,717)" d="m0 0 9 5 2 4-5 3-4-1-1-4v-4z" fill="#018679"/>
<path transform="translate(1501,965)" d="m0 0h1v13l-3-1h2l-1-3 1-2-12-2-5-1 1-3 14 2z" fill="#25335D"/>
<path transform="translate(1498,932)" d="m0 0 4 2-2 4 1 6-2 5-6-1 1-3h5v-5h-3l-1-5z" fill="#1A2752"/>
<path transform="translate(1461,909)" d="m0 0 8 1 2 3 12 2 7 3-2 1-14-3-13-2z" fill="#445277"/>
<path transform="translate(1712,1053)" d="m0 0h2l-2 4-11 3-7 2v-2l-3-1z" fill="#3E5571"/>
<path transform="translate(1482,968)" d="m0 0 16 3 3 1v4h-8v-2l-5-2h-6z" fill="#111C47"/>
<path transform="translate(1526,793)" d="m0 0h1v7l-9 1-5-1v-2l8-3v-1z" fill="#4B5B7A"/>
<path transform="translate(1435,703)" d="m0 0 3 1 1 2v7l-4 1-4-6v-4z" fill="#D4DFDE"/>
<path transform="translate(1770,950)" d="m0 0 14 1 11 2-1 4h-6l-2-2v-1l-16-2z" fill="#111C47"/>
<path transform="translate(1354,1028)" d="m0 0 16 2 2-2 4 7-11-2-14-3z" fill="#546E83"/>
<path transform="translate(1333,945)" d="m0 0 16 2 7 1 1 3h-3v2l-5-2-16-4z" fill="#111C47"/>
<path transform="translate(1787,812)" d="m0 0 7 1 13 2 12-2 7-1-3 2-14 4-10-1-12-4z" fill="#606D88"/>
<path transform="translate(1572,875)" d="m0 0h14l-4 6-13-2 3-1z" fill="#5F6F89"/>
<path transform="translate(1375,800)" d="m0 0h15v2l-21 2-13-1v-1l16-1z" fill="#39C6A5"/>
<path transform="translate(1349,757)" d="m0 0h5l3 5-1 4-4 1-2-1z" fill="#D5DCDC"/>
<path transform="translate(1552,995)" d="m0 0 16 3 4 2v2l-6 1-5-3-10-2z" fill="#111C47"/>
<path transform="translate(1951,969)" d="m0 0 12 1 3 2v2h-2v2h-5l-4-3-4-1z" fill="#CDE5DA"/>
<path transform="translate(1533,938)" d="m0 0 1 2 10 1 4 1v2h-6l-3 2h-6z" fill="#535F82"/>
<path transform="translate(1643,858)" d="m0 0 7 1-1 2-13 2-7 2-5-1 4-3 15-2z" fill="#626F89"/>
<path transform="translate(1850,843)" d="m0 0h5l-4 2-8 3h-4l-6 3-8 1-3-1 10-4z" fill="#5C6987"/>
<path transform="translate(1419 1e3)" d="m0 0 2 1 1 5-16-2-2-2z" fill="#1D2A56"/>
<path transform="translate(1330,959)" d="m0 0 9 1 18 3-1 2-15-1-12-3z" fill="#111C47"/>
<path transform="translate(1720,880)" d="m0 0 4 1 1 10-4 1-1-9-9 1 1-2z" fill="#1D2A56"/>
<path transform="translate(1855,727)" d="m0 0 6 2v6h-2l2 5-4-2-3-6v-4z" fill="#CCE6DA"/>
<path transform="translate(1494,1066)" d="m0 0 9 1 11 2 1-3 2 6-11-1-11-3z" fill="#516580"/>
<path transform="translate(1429 1e3)" d="m0 0h1v10l-1 3-6-1 1-3 4-1-5-1 1-4z" fill="#1D2A56"/>
<path transform="translate(1414 1e3)" d="m0 0h11l-2 3h-17v3l-4-1 1-1-6-1v-1z" fill="#1E2B57"/>
<path transform="translate(1404,965)" d="m0 0h11l13 2 2 3h-7l-9-2-10-1z" fill="#111C47"/>
<path transform="translate(1423,874)" d="m0 0 12 1 6 1-2 3-7 1-7-2z" fill="#607089"/>
<path transform="translate(1784,1023)" d="m0 0 19 4 4 3-4 1-7-2-15-4z" fill="#5A7689"/>
<path transform="translate(1235,997)" d="m0 0h7l18 5v1h-11l-11-3v-2z" fill="#354567"/>
<path transform="translate(1556,981)" d="m0 0 12 2 4 2v2h-9l-4-1v-2l-3 1z" fill="#111C47"/>
<path transform="translate(1485,962)" d="m0 0 4 1v2l4-1h8v4l-5 1-12-3z" fill="#111C47"/>
<path transform="translate(1321,904)" d="m0 0 18 2 3 1v2l-8 3-2-1 1-3-12-2z" fill="#2E3C64"/>
<path transform="translate(1777,937)" d="m0 0h10l7 1 2 3h-14l-5-3z" fill="#111C47"/>
<path transform="translate(1208,832)" d="m0 0 7 1 5 8-11-3-2-2z" fill="#5E6B87"/>
<path transform="translate(1533,785)" d="m0 0h8l7 1 2 2 6 1-3 2-8-1-11-3z" fill="#62758B"/>
<path transform="translate(1571,1047)" d="m0 0 2 2v14h-3v-4-6l-5-2 1-3z" fill="#1F2C57"/>
<path transform="translate(1463,952)" d="m0 0 14 1v2l-6 1-1 1h-9l-1-3z" fill="#586485"/>
<path transform="translate(1417,914)" d="m0 0h12l1 4h-4l-1 4 3 1v2l-7 1 1-5h2v-4l-7-2z" fill="#141F4B"/>
<path transform="translate(1348,906)" d="m0 0 1 3-3 7-4-1v-2l-4-1 1-3 9-1z" fill="#465478"/>
<path transform="translate(1319,868)" d="m0 0 1 3 6 1 8 3 4 2-17-1-2-1z" fill="#435176"/>
<path transform="translate(1533,963)" d="m0 0 15 3-4 2-1 1h-10z" fill="#596586"/>
<path transform="translate(1390,886)" d="m0 0 3 3 5 2v3l4-1 1 2-4 1h-8l-1-2z" fill="#445277"/>
<path transform="translate(1607,763)" d="m0 0 16 4 2 3h-7l-11-4z" fill="#5B6785"/>
<path transform="translate(1408,957)" d="m0 0 21 2-1 2-4-1v2l5 1-2 2-8-1 3-1v-2l-3-1h-12z" fill="#111C47"/>
<path transform="translate(1331,952)" d="m0 0 9 1 16 3 1 2h-7l-19-4z" fill="#111C47"/>
<path transform="translate(1351,902)" d="m0 0 6 1v6h-3l-1 1h-5l1-7z" fill="#17234F"/>
<path transform="translate(1617,842)" d="m0 0 12 2 4 1v2l-5 2-6-1v-2h-2v-2l-3-1z" fill="#556283"/>
<path transform="translate(1461,903)" d="m0 0 10 1 1 2-5-1 1 6-7-2z" fill="#4F5C7E"/>
<path transform="translate(1447,874)" d="m0 0 3 1h-2l1 4-7 3-6-2 2-3z" fill="#4D5E7C"/>
<path transform="translate(1467 1e3)" d="m0 0 14 2-1 3-9 1-4-2z" fill="#121E49"/>
<path transform="translate(1322,990)" d="m0 0h10v2l15 3 2 2-3 1-5-2-9-2-10-3z" fill="#1E2B57"/>
<path transform="translate(1418,946)" d="m0 0 2 1v2l7-1 2 2v3l-14-2-2-2z" fill="#1E2B57"/>
<path transform="translate(1550,806)" d="m0 0 7 1 15 4v1l-7 1-2-2-10-1-4-2z" fill="#66798C"/>
<path transform="translate(1681,673)" d="m0 0 4 2 1 5-7 1-1-1v-5z" fill="#63CEB3"/>
<path transform="translate(1298,996)" d="m0 0h1l3 19-9-1v-2h5z" fill="#56627B"/>
<path transform="translate(1569,946)" d="m0 0h5v7l-7 1-2-5z" fill="#48567A"/>
<path transform="translate(1564,838)" d="m0 0h8l5 2v2l-17 2-1-2 9-2z" fill="#606C88"/>
<path transform="translate(1281,812)" d="m0 0 2 3 6 1 2 4h-7l-4-1-1-4z" fill="#5D6B87"/>
<path transform="translate(1791,763)" d="m0 0h3l1 5-6 4-4-1 4-6z" fill="#CFDBDA"/>
<path transform="translate(1968,961)" d="m0 0h1v5l-3 3v2l-10-2-9-1v-1l17-1 4-1z" fill="#199C8A"/>
<path transform="translate(1416,937)" d="m0 0h13v4h-10l-3-1z" fill="#111C48"/>
<path transform="translate(1686,844)" d="m0 0h1v17l2 1h-2l-1 8-4-2 3-8z" fill="#5F6C88"/>
<path transform="translate(1861,838)" d="m0 0h7l-1 5h-12l2-4z" fill="#617089"/>
<path transform="translate(1295,748)" d="m0 0h2l-2 4-6 9-4 4 1-5 4-8h2v-2z" fill="#C7E5D8"/>
<path transform="translate(1522,1073)" d="m0 0 7 1 15 4-2 2-10-2-9-3z" fill="#516980"/>
<path transform="translate(1404,1042)" d="m0 0 8 1 12 3v3l-20-5z" fill="#4D677F"/>
<path transform="translate(1277,1008)" d="m0 0h7l14 3v1l-10 1-9-3z" fill="#3D5070"/>
<path transform="translate(1492,956)" d="m0 0h9l-2 6h-2v-2l-3 1-7-2v-2z" fill="#111C47"/>
<path transform="translate(1426,918)" d="m0 0 3 1v10l-5 1-4-2 2-3h6l-3-3z" fill="#202D59"/>
<path transform="translate(1779,851)" d="m0 0h9v2l13 3v2l-10-2-12-3z" fill="#637C8D"/>
<path transform="translate(1350,775)" d="m0 0h4l-1 3-16 10v-3l8-6h3z" fill="#4DAA9C"/>
<path transform="translate(1357,725)" d="m0 0h5l2 4-5 5-2-1z" fill="#CDE4DA"/>
<path transform="translate(1552,952)" d="m0 0 9 1 3 3h-2v2h-3v-4l-3 1 1 2-12-2 4-2z" fill="#566284"/>
<path transform="translate(1344,925)" d="m0 0h12l1 4-6 1-7-3z" fill="#111C47"/>
<path transform="translate(1277,818)" d="m0 0 11 2 12 4 1 2-10-2-14-4z" fill="#B6C2C5"/>
<path transform="translate(1607,802)" d="m0 0 1 2 11 1v3h3v2l-15-3z" fill="#627089"/>
<path transform="translate(1851,708)" d="m0 0 1 2 3 1 4 9-6-2-3-4v-5z" fill="#C2E4D7"/>
<path transform="translate(1635,1075)" d="m0 0 3 1-5 3-10 2-2-3 6-2z" fill="#323D61"/>
<path transform="translate(1396 1e3)" d="m0 0 8 1-2 3-10 1v2h-2v-6z" fill="#26335E"/>
<path transform="translate(1533,987)" d="m0 0h10l2 2-1 2-12 1z" fill="#596586"/>
<path transform="translate(1500,950)" d="m0 0h2v3h-2v2l-8 1v1h-5l1-3h2v-2l5-1 5 1z" fill="#1E2B57"/>
<path transform="translate(1336,937)" d="m0 0 20 4 1 4-1-2-20-2z" fill="#111C47"/>
<path transform="translate(1796,819)" d="m0 0 11 1-3 3-5 2-4-1z" fill="#D4D8DA"/>
<path transform="translate(1712,762)" d="m0 0 11 1-1 5-10 1 6-3h-6z" fill="#546181"/>
<path transform="translate(1648,1070)" d="m0 0 4 1v2l-14 3h-7l3-2 12-3z" fill="#5F7288"/>
<path transform="translate(1572,913)" d="m0 0 2 1-1 2 6-1h6l-1 3 3 1h-8l-7-2-1-2z" fill="#5D6F88"/>
<path transform="translate(1485,852)" d="m0 0 8 1 10 4v1h-7l-11-4z" fill="#5B6786"/>
<path transform="translate(1484,790)" d="m0 0h10v2l4 1 4 2h-8l-9-3z" fill="#556985"/>
<path transform="translate(1410,636)" d="m0 0h3l4 6v5l-4-1-3-6z" fill="#C9E5D9"/>
<path transform="translate(1450,1054)" d="m0 0 11 2 12 3-3 2-16-4-4-2z" fill="#576882"/>
<path transform="translate(1520,893)" d="m0 0 3 1-6 3 3 1-4 2h-7l-1-2h3v-2z" fill="#4C6881"/>
<path transform="translate(1614,887)" d="m0 0 10 1 11 3v2l-9-1-12-4z" fill="#596685"/>
<path transform="translate(1571,879)" d="m0 0 9 1 1 2-7 3h-4v-5z" fill="#D5D9DB"/>
<path transform="translate(1649,778)" d="m0 0h5v2l3 1-5 2-12 3h-5l3-2 9-3 5-1z" fill="#636E89"/>
<path transform="translate(1865,1014)" d="m0 0 1 2-7 3-9 1 2-1v-2l6-2z" fill="#2F3A5F"/>
<path transform="translate(1767,989)" d="m0 0 16 2 5 3-3 1-9-2-9-3z" fill="#1E2B57"/>
<path transform="translate(1781,930)" d="m0 0h14v3h-13l-2-2z" fill="#111C47"/>
<path transform="translate(1595,1085)" d="m0 0 7 1v1l-13 3h-6l3-3z" fill="#495576"/>
<path transform="translate(1567,1085)" d="m0 0 17 3-1 2h-8l-11-3z" fill="#556D85"/>
<path transform="translate(1661,1067)" d="m0 0 8 1-4 2-10 2h-5l3-3z" fill="#4B5978"/>
<path transform="translate(1501,1012)" d="m0 0h1v12l-3 1 1-7-6-3 2-2z" fill="#24315C"/>
<path transform="translate(1395,984)" d="m0 0h15l3 2-18 2z" fill="#111C47"/>
<path transform="translate(1721,964)" d="m0 0 4 1 1 2-2 1v3l2 2h-2v4h-3z" fill="#1D2A56"/>
<path transform="translate(1895,831)" d="m0 0 4 1-16 6 1 2-5 1 2-5 3-2z" fill="#5A6685"/>
<path transform="translate(1303,1015)" d="m0 0 12 2 11 3-1 2-10-2-12-4z" fill="#5B7589"/>
<path transform="translate(1480,976)" d="m0 0 21 2-1 2h-21z" fill="#111C47"/>
<path transform="translate(1545,949)" d="m0 0 9 1 14 3h3v3l-3 1v-2l-16-3-7-2z" fill="#182550"/>
<path transform="translate(1817,819)" d="m0 0 4 1v5l-7-1-2-1 1-3z" fill="#D0D5D7"/>
<path transform="translate(1935,994)" d="m0 0h4l-1 3-8 3h-2v-2l-3-1z" fill="#43516F"/>
<path transform="translate(1787,984)" d="m0 0h9l1 4-12-1v-2z" fill="#111C47"/>
<path transform="translate(1422,952)" d="m0 0 8 1v4h-7l-2-1z" fill="#121D49"/>
<path transform="translate(1538,923)" d="m0 0 10 2-4 2-3-1-3 2 1 2-4-1v-5z" fill="#5C6B87"/>
<path transform="translate(1393,866)" d="m0 0 9 1 6 2-3 1v2l-11-2 4-1v-2h-5z" fill="#62788C"/>
<path transform="translate(1447,841)" d="m0 0 4 1 2 4h-8l-4-2 2-2z" fill="#DADCDE"/>
<path transform="translate(1654,781)" d="m0 0 8 1-1 3-2 1h-6v-4z" fill="#D5DADB"/>
<path transform="translate(1429,938)" d="m0 0 1 4-6 2h-6l-2-1 1-3 12 1z" fill="#1E2B57"/>
<path transform="translate(1782,922)" d="m0 0h8l4 3-13 2z" fill="#131E49"/>
<path transform="translate(1346,917)" d="m0 0 11 1v4l-12-1z" fill="#111C47"/>
<path transform="translate(1559,825)" d="m0 0h8l9 3-1 3-5-1-3-1v-2l-8-1z" fill="#334068"/>
<path transform="translate(1726,800)" d="m0 0 7 1-1 3-7 2-1-5z" fill="#D4D9DA"/>
<path transform="translate(1343,746)" d="m0 0h6l1 4-4 3-4-4z" fill="#C5E5D8"/>
<path transform="translate(1807,730)" d="m0 0m-2 1h2l-2 4-3 4-3 3h-2l1-4 5-6z" fill="#04867A"/>
<path transform="translate(1395,638)" d="m0 0 1 3-6 13-4 4 3-9z" fill="#39C6A5"/>
<path transform="translate(1439,489)" d="m0 0h2v19h-2l-1-7z" fill="#CEE6DB"/>
<path transform="translate(1769,965)" d="m0 0h10l7 1v2l-19-1z" fill="#111C47"/>
<path transform="translate(1412,914)" d="m0 0 8 1 5 2-2 4v-2l-9-1 1-2z" fill="#465479"/>
<path transform="translate(1523,899)" d="m0 0 4 1v2h2v2h5v2l-9-1-2-2z" fill="#5C6885"/>
<path transform="translate(1652,895)" d="m0 0h5l-1 3h5l-4 2-11-1 4-1v-2z" fill="#597A8C"/>
<path transform="translate(1588,880)" d="m0 0h6l2 4-3 1-10-3v-1z" fill="#D5DADB"/>
<path transform="translate(1518,860)" d="m0 0h5v5h-6l-5-2 4-2z" fill="#D7DCDD"/>
<path transform="translate(1500,860)" d="m0 0 8 1v2l-4 2h-5v-4z" fill="#D3D7D9"/>
<path transform="translate(1784,812)" d="m0 0 9 2 8 3-2 2-14-4z" fill="#5A6786"/>
<path transform="translate(1645,773)" d="m0 0 11 2 5 2-3 1-8-2-3-1-1 3-5-2z" fill="#65728A"/>
<path transform="translate(1533,979)" d="m0 0 12 1-4 2-2 2-6 1z" fill="#596586"/>
<path transform="translate(1944,968)" d="m0 0h12l5 1v1h-14l-2 5h-1z" fill="#C1E4D6"/>
<path transform="translate(1482,934)" d="m0 0 7 1 2 2 5 1-1 3-11-2-1-2 3-1z" fill="#576385"/>
<path transform="translate(1392,883)" d="m0 0 12 3 2 3-8-1-7-3z" fill="#6C758B"/>
<path transform="translate(1843,827)" d="m0 0 10 2 3 3h-7l-8-2z" fill="#5E6A87"/>
<path transform="translate(1545,809)" d="m0 0 5 3v2l6 1-4 1-8-1v-5z" fill="#445277"/>
<path transform="translate(1733,677)" d="m0 0 4 1 2 5-5 2-1-1z" fill="#CBE6DA"/>
<path transform="translate(1461,942)" d="m0 0h9l6 1-4 2h-11z" fill="#3B496F"/>
<path transform="translate(1356,911)" d="m0 0h1v5l-6 1-4 1-6-1v-1l10-2h5z" fill="#1E2B57"/>
<path transform="translate(1300,851)" d="m0 0h1v9l-7 1-2-2 5-1v-3h2z" fill="#4B5F7D"/>
<path transform="translate(1545,819)" d="m0 0 11 3v2l3 1-10-1-5-2z" fill="#39466D"/>
<path transform="translate(1744,800)" d="m0 0h5v5l-3 1-5-3z" fill="#D0D9D8"/>
<path transform="translate(1807,732)" d="m0 0h2l-2 5-3 4-2 3v-2l-3-1 2-2z" fill="#37C4A3"/>
<path transform="translate(1452,881)" d="m0 0 7 1 3 3-7 1-3-1z" fill="#626E88"/>
<path transform="translate(1231,842)" d="m0 0h8l4 4h-8l-4-2z" fill="#5C6B88"/>
<path transform="translate(1714,832)" d="m0 0h5l1 3 4 1 2 2-10-2-4-2h2z" fill="#637E8E"/>
<path transform="translate(1557,789)" d="m0 0 9 3-3 2-10-2v-2z" fill="#5B6E87"/>
<path transform="translate(1671,781)" d="m0 0h5l1 5-3 1-5-3z" fill="#D7DADC"/>
<path transform="translate(1533,971)" d="m0 0 11 1-4 1-1 3-6 1z" fill="#596586"/>
<path transform="translate(1501,965)" d="m0 0h1v13l-3-1h2l-1-3 1-2-6-1 1-2 4-2z" fill="#2A3861"/>
<path transform="translate(1788,967)" d="m0 0 7 1 1 4h-7l-2-1z" fill="#111C47"/>
<path transform="translate(1533,955)" d="m0 0 11 2v1l-6 1-1 2-4 1z" fill="#586485"/>
<path transform="translate(1391,937)" d="m0 0 13 2v1l-13 2z" fill="#3D4A71"/>
<path transform="translate(1865,800)" d="m0 0h3v6l-1-4-11 3-3-1 3-3z" fill="#5F768B"/>
<path transform="translate(1869,767)" d="m0 0 3 1 3 5v2l-5-2-3-2v-3z" fill="#BFE3D5"/>
<path transform="translate(1899 1e3)" d="m0 0h6l-1 3-2 1h-9l3-1v-2z" fill="#364968"/>
<path transform="translate(1561,975)" d="m0 0 10 1 1 2-7 1-6-1z" fill="#111C47"/>
<path transform="translate(1980,967)" d="m0 0 1 3-3 3-6 1-2-1v-2l6-2z" fill="#23335A"/>
<path transform="translate(1721,919)" d="m0 0 3 2h-2l1 5h1v5h-2v4l2 1h-2l-1 3z" fill="#1F2C58"/>
<path transform="translate(1320,912)" d="m0 0h12l4 1v2h-11l-5-2z" fill="#2C3963"/>
<path transform="translate(1461,909)" d="m0 0 8 1v4h-8z" fill="#39476E"/>
<path transform="translate(1413,872)" d="m0 0 9 1 5 4-10-1-4-2z" fill="#576784"/>
<path transform="translate(1758,862)" d="m0 0 9 1 7 2v1l-13-1-4-1z" fill="#748591"/>
<path transform="translate(1737,836)" d="m0 0h2v2l4 2-7 1-5-1v-2z" fill="#5D748B"/>
<path transform="translate(1923,822)" d="m0 0 5 1-4 2-5 2-9 1 4-3z" fill="#5F6C88"/>
<path transform="translate(1933,819)" d="m0 0 5 1 2 3-2 2-3-1h2v-2l-9 1 2-3z" fill="#5A6E87"/>
<path transform="translate(1394,1009)" d="m0 0 10 1v2l3 1h-9l-3-1z" fill="#1E2B57"/>
<path transform="translate(1463,968)" d="m0 0h12v1l-6 1-1 2h-6z" fill="#566284"/>
<path transform="translate(1786,914)" d="m0 0h6l3 3-5 2-5-1z" fill="#111C48"/>
<path transform="translate(1707,848)" d="m0 0 11 2 7 2v1h-10l-8-4z" fill="#6A7C8E"/>
<path transform="translate(1764,847)" d="m0 0 11 1 2 3-2 1-11-3z" fill="#677A8D"/>
<path transform="translate(1521,794)" d="m0 0 3 1v2h-3l-1 3h-7v-2l8-3z" fill="#556583"/>
<path transform="translate(1675,1064)" d="m0 0h2v3l-4 1h-8v-2z" fill="#324264"/>
<path transform="translate(1371,1028)" d="m0 0 4 5 1 2-11-2v-2l5-1z" fill="#405B73"/>
<path transform="translate(1341,1025)" d="m0 0 9 1 4 1v2h-7l-6-3z" fill="#3C506F"/>
<path transform="translate(1752,1014)" d="m0 0 9 2 7 2-1 2-12-3-3-1z" fill="#61778B"/>
<path transform="translate(1740 1e3)" d="m0 0h1l3 12-6-2z" fill="#B0B6BD"/>
<path transform="translate(1461,971)" d="m0 0 4 1 2 3 5 1v1h-11z" fill="#48567A"/>
<path transform="translate(1325,961)" d="m0 0 4 2-1 2 5 1v1l-9 1z" fill="#121E49"/>
<path transform="translate(1408,928)" d="m0 0 6 1 1 2-6 1-6-1v-2z" fill="#48567A"/>
<path transform="translate(1820,697)" d="m0 0h2v2h-2l-2 7-5 1 2-1 1-5z" fill="#016A65"/>
<path transform="translate(1562,968)" d="m0 0h8l2 3-7 1-3-1z" fill="#111D48"/>
<path transform="translate(1429,909)" d="m0 0h2v9l-2-1v-3l-7 1 4-1 1-2z" fill="#445277"/>
<path transform="translate(1572,875)" d="m0 0h14v1l-6 1v1l-11 1 3-1z" fill="#607A8C"/>
<path transform="translate(1927,860)" d="m0 0h5v3l-2 1h-8l3-3z" fill="#E2E4E5"/>
<path transform="translate(1215,834)" d="m0 0h5l5 4-1 1h-6z" fill="#65728A"/>
<path transform="translate(1854,830)" d="m0 0 11 2 1 2-7 1-6-2z" fill="#65728A"/>
<path transform="translate(1284,768)" d="m0 0h1l1 15-3-4v-10z" fill="#CDE6DB"/>
<path transform="translate(1741,755)" d="m0 0 4 1 1 4-6 1-1-3z" fill="#018878"/>
<path transform="translate(1502,751)" d="m0 0h1v7l2 1-5 1-4-1v-2h4z" fill="#8ED7C4"/>
<path transform="translate(1534,999)" d="m0 0h7l-1 4-6 2-1-5z" fill="#48567A"/>
<path transform="translate(1791,975)" d="m0 0 4 1 1 4-9-1v-2z" fill="#111C47"/>
<path transform="translate(1206,946)" d="m0 0 5 1-3 13h-1z" fill="#CDE4DA"/>
<path transform="translate(1477,888)" d="m0 0 8 1v2h-2v2l-7-1 2-1z" fill="#5D728A"/>
<path transform="translate(1296,866)" d="m0 0h4l-1 12-2-4z" fill="#BBC1C6"/>
<path transform="translate(1469,786)" d="m0 0h10l2 4-9-1v-2z" fill="#5D6C88"/>
<path transform="translate(1607,1082)" d="m0 0 3 1 1 2-5 1h-7v-2z" fill="#3B476A"/>
<path transform="translate(1443,1038)" d="m0 0h1l1 15h-6v-2h4z" fill="#464F6F"/>
<path transform="translate(1427,970)" d="m0 0h3v6l-9-4v-1z" fill="#182450"/>
<path transform="translate(1501,935)" d="m0 0h1v15l-3-1 1-8-1-4h2z" fill="#425075"/>
<path transform="translate(1419,931)" d="m0 0h2v2l5 1-2 2-7 1z" fill="#1F2C58"/>
<path transform="translate(1341,853)" d="m0 0 9 2 4 2-4 1-9-3z" fill="#516783"/>
<path transform="translate(1821,821)" d="m0 0h6l4 3-8 1z" fill="#65728A"/>
<path transform="translate(1789,819)" d="m0 0h5l-3 3-7 2-4-1z" fill="#5F6C88"/>
<path transform="translate(1535,763)" d="m0 0 7 1 2 4-8-1-3-3z" fill="#5C6887"/>
<path transform="translate(1798,742)" d="m0 0h4l-1 5-1 2-3-1v-5z" fill="#CDD5D6"/>
<path transform="translate(1758,978)" d="m0 0 1 2 7 1-1 2h-7z" fill="#445277"/>
<path transform="translate(1477,939)" d="m0 0 8 1-3 3-10-1 2-2z" fill="#445277"/>
<path transform="translate(1208,933)" d="m0 0h1l2 9v5l-3-1z" fill="#61788C"/>
<path transform="translate(1430,933)" d="m0 0h1v6l-10-2 3-2z" fill="#425075"/>
<path transform="translate(1565,912)" d="m0 0 6 1 1 4-10-2z" fill="#667B8D"/>
<path transform="translate(1791,780)" d="m0 0 5 3v1l-10 1z" fill="#616E88"/>
</svg>