<svg xmlns="http://www.w3.org/2000/svg" version="1.1" viewBox="0 0 1600 897">
<path transform="translate(0)" d="m0 0h1600v897h-1600z" fill="#E9C1B8"/>
<path transform="translate(1463,326)" d="m0 0h14l32 5 2 2 1 66 1 26 8 2 5 5 1 3 1 12 7 16 2 6 2 14 5 27 2 18 1 29v13l-2 33-2 15-5 23-7 19-8 14-9 11h-2v-11l6-5 8-16 6-18 4-21 2-15 1-13v-49l-3-28-4-24-4-12-3-6-6-2v8l-3 2h-4v42l-1 7 1 9v47h-1l-1-9-5-1-4 1v-6l-5 2-4 1-3 5-5 4-5 3-4 7h-1v61l2 17v54l-4-2v-2h-2v-2l-4 1-1 14-3 2-28 4-17 3h-7l-9-10-8-1-9 1-5-3v-14l1-9-12-12-5-10v-2l-22 3-44 4-33 4-5 2-16 2-56 5-33 4-5 8-12 21-2 5-9 4-21 3h-20l-15-3-9-5-7-8-7-13-1-4h-2l-2 7-1 2h-15l-7-1-3-3-3-6-21-5-18-1-14-1-7 8-10 7-6 2h-27l-16-3-9-6-7-7-5-9-12-3-7-6-3-7v-43-2-20l5-9 3-4h3l2 4 4 1 1-5 2-4h2l-1-12-2-4 6-7 22-12 14-8 17-5 31-7 8-4 5-5 10-8h3v-2h3v-2l9-6h3v-2l7-2v-2l16-8 19-9 25-9 18-5 40-6 42-4 23-1h43l23 1 19 2v-2l10-5h4l1 9 14 1 25 4 28 7 18 6h3l4-12 11-17 4-8 10-9 1-8 1-98 3-2 34-6z" fill="#B44C49"/>
<path transform="translate(1463,326)" d="m0 0h14l32 5 2 2 1 66 1 26 8 2 5 5 1 3 1 12 7 16 2 6 2 14 5 27 2 18 1 29v13l-2 33-2 15-5 23-7 19-8 14-9 11h-2v-11l6-5 8-16 6-18 4-21 2-15 1-13v-49l-3-28-4-24-4-12-3-6-6-2v8l-3 2h-4v42l-1 7 1 9v47h-1l-1-9-5-1-4 1v-6l-5 2-4 1-3 5-5 4-5 3-4 7h-1v61l2 17v54l-4-2v-2h-2v-2l-4 1-1 14-3 2-28 4-17 3h-7l-9-10-8-1-9 1-5-3v-14l1-9-12-12-5-10v-2l-22 3-44 4-33 4-5 2-16 2-56 5-33 4-5 8-12 21-2 5-9 4-21 3h-20l-15-3-9-5-7-8-7-13-1-4h-2l-2 7-1 2h-15l-7-1-3-3-3-6-21-5-18-1-14-1-7 8-10 7-6 2h-27l-16-3-9-6-7-7-5-9-12-3-7-6 1-2 21 3 30 3 25 3 24 2 15 1 3 1h17l12-1 23 1 7 3 9 7h12l7-38 5-19 4-9 8-14 10-11 11-8 6-3 10-2h10l10 2 13 8 6 7 9 17 4 14 1 5v21l-4 16 23-7 25-11 13-3 4-2 20-2 46-7 43-7 12 1 14 5 9 6 4 1 4-28 4-14 6-14 2-4 2-47 1-49-7 3-10 7-10 4-15 4-15 3-16 3-33 6-30 5-20 2-3-6-4-4-13-3h-17l-7 6-3 9h48l-1 4-6 2-13 1h-27l-13-1v-1l10-2-14 1-10 2h-11l2-4 7-7 7-8 9-9 8-7 13-11 15-10 16-8 14-5 16-3 10-1h26l33 4 23 5 17 6 10 4 14 6-1-3 1-13v-14l-1-5-4 4-4 9-2 7h-4v-7l4-10 10-15 4-8 10-9 1-8 1-98 3-2 34-6z" fill="#1F293C"/>
<path transform="translate(1463,326)" d="m0 0h14l32 5 2 2 1 66 1 26 8 2 5 5 1 3 1 12 7 16 2 6 2 14 5 27 2 18 1 29v13l-2 33-2 15-5 23-7 19-8 14-9 11h-2v-11l6-5 8-16 6-18 4-21 2-15 1-13v-49l-3-28-4-24-4-12-3-6-6-2v8l-3 2h-4v42l-1 7 1 9v47h-1l-1-9-5-1-4 1v-6l-5 2-4 1-3 5-5 4-5 3-4 7h-1v61l2 17v54l-4-2v-2h-2v-2l-4 1-1 14-3 2-28 4-17 3h-7l-9-10-8-1-3-1 4-1 2-4 5-8 4-8 8-8 8-13 4-8 6-23 2-12 1-85 2-32 2-2 6-2 2-11 1-12 10-3 3-1 1-4v-101l-1-4-5-2h-19l-7 1-6 3-3 4-1 93 2 11 2 1v2l6-1 1 1v11l-1 13h2v37l-1 82-3 18-5 17-7 14-8 11-5 7-5 3-2 6-4 5h-2v2l-4-1v-2h-2l1-12 3-2h13l-3-8-1-2-4 1v-2l-2-1 1-9-3-19v-22l2-10 2-1 1 3v27l1 11 3 6 3-3 2-17 1-1v-13l-3-2-3 21h-1v-20l2-11 2-1 3 5v-10l-2-10v-8l3-1 2-3 1-17h-2l-2 5-2 4h-2v-55l1-25 3-38 5-1v-33l-2-1 2-2 1-8 1-98 3-2 34-6z" fill="#449A9D"/>
<path transform="translate(873,594)" d="m0 0 28 2h6l2-2h9l4 3 33 2 18 1 3 1-1 3 3 1-3 1-1 2 5 2 4 4v3l7 2 4 2h22l22-1-3 14v2l3-1v5l13 2 6 4 2-6 6-10 2 1-2 9-2 2 2 4-2 12-5 25-4 22-1 1h-12l-12-9-4-1-24-1-11 1h-17l-12-2h-10l-40-4-18-2-32-4-7-1-3-6v-43-2-20l5-9 3-4h3l2 4 4 1 1-5 2-4z" fill="#B24C49"/>
<path transform="translate(1519,465)" d="m0 0 6 1 5 9 4 15 5 35 1 12v49l-2 21-4 24-6 20-8 16-6 7h-2l1 12 51-6 27-2h9v5l-60 6-25 3-3 2v11l17 1 35 4 4 1 15 1 1 1v9l-3 2-83 16-50 8-40 7h-8l1-9 4-4 20-4 76-13 19-3 5-1h-10l-49 8-2-1 2-14 4-1v2h2l4 4-1-54-2-17v-62l2-2 6-7 6-3 3-3 2-4 9-2v6l5-2 2-2 2 3h1v-37l-1-13 1-3v-24l1-18 6-2z" fill="#66C9B7"/>
<path transform="translate(1191,465)" d="m0 0h43l23 1 18 2v1l-20 4-17 3-17 5-15 8h-3v2l-5 1v2l-13 9-4 3h-3l-1 3-7 5h-2l-2 4-6 5h-2v2l-10 8h-2l-2 4-5 4h-3v2l-7 2h-34l-118-2-8-3 1-3 17-13 11-8 15-9 12-7 12-6h2v-2l20-8 20-6 13-3 34-5 42-4z" fill="#387583"/>
<path transform="translate(1286,461)" d="m0 0h4l1 9 14 1 25 4 28 7 18 6h4v3h4l2-10 6-10h3l1 5v14l-1 16-9-3-13-5-16-6-21-5-28-4-10-1h-26l-16 2-16 4-15 6-14 8-12 9-13 11-15 14-15 16-1 2 16-2 13-2h7l-1 2-10 2-8 1 4 2 8 11 3 5v3h2l3 7v5l-11 4h-5v-12l-7 2 5 1 1 11-9 7-3-2v-2l-2-1 1-2 5-2 4-4-8 3-5-1-3-1v3l-10 2-4 1-9-4-4-1h-18l-12 5-6 3-6 4h-2v2h-2l-2 4-5 5-8 11h-5l-1-7-6-1-19 3-1-3 2-5 4-2 3-3 9-6 17-16 1-2-25 3-12 2h-6l2-2 13-5 12-6 3-1 3-5 4-2 2-6-16 4-19 7-15 6-10 5-8 2 1-3 6-3 7-2v-2l11-5 10-4 13-5 14-3 10-3 18-3 5-2h-32l-6 1-10-1-4 1-1-1-27-1-13 1v1l-9 1-3 3h-13l-6 1-4-2 1-4 11-3 3-2h148l7-1v-2l5-3 8-7 7-6h2v-2l9-7 3-3 7-5 1-2 7-4 11-8h2v-2l5-1v-2l16-8 15-5 13-3 17-3 11-2 4-4z" fill="#F18869"/>
<path transform="translate(1396,476)" d="m0 0 3 2v11l-1 3-2 19-1-2-7 3-10 7-10 4-15 4-15 3-16 3-33 6-30 5-20 2-3-6-4-4-13-3h-17l-7 6-3 9h48l-1 4-6 2-13 1h-27l-13-1v-1l10-2-14 1-10 2h-11l2-4 7-7 7-8 9-9 8-7 13-11 15-10 16-8 14-5 16-3 10-1h26l33 4 23 5 17 6 10 4 14 6-1-3z" fill="#355C6F"/>
<path transform="translate(1436,380)" d="m0 0h19l5 3 2 4v101l-2 4-8 4h-5v12l-2 11-2 2-6 2-2 32-1 85-5 25-4 12-8 15-11 12-8 15-4 5-4 1v2h-6l-5-3v-14l1-9-12-12-5-10v-3l-4-1 14-4 3-6 4-28 4-14 6-14 2-4 2-47 1-47 2-19 1-3v-11l-3-2-1-5-4 4-4 9-2 7h-4v-7l4-10 10-15 4-8 7-6h3v33l-4 1-3 38-1 25-1 55h2l2-5 2-4h2v17l-4 5-2-1 2 15 1 3v11l-5-5-2 11v15l2-16h3l2 2v13l-1 1-2 17-2 4-2 1-4-8-1-19v-19l-1-2-2 10v24l3 17-1 9 2 2 4-1 3 9v2l-13 1-2 1-2 12h2l1 2 3 1v-2l5-5 3-7 6-4 6-9 7-10 6-13 5-19 2-14 1-82 1-37h-2v-24h-6v-2l-3-1-2-12 1-92 5-6 5-2z" fill="#212B3F"/>
<path transform="translate(1460,489)" d="m0 0 2 3 3 6 1 11-1 174v45l-3 2-28 4-17 3h-7l-9-10-8-1-3-1 4-1 2-4 5-8 4-8 8-8 8-13 4-8 6-23 2-12 1-85 2-32 2-2 6-2 2-11 1-12 10-3 3-1z" fill="#377482"/>
<path transform="translate(1036,493)" d="m0 0 3 1-23 12-18 11-11 8-13 10-5 5 5 1 3 1 57 1v1l-53 1-7 3-7 1 1 4 3 1 10-1 8 1 1-3 9-2v-1l23-1 19 1 3 1 4-1 12 1 5-1h32l-3 2-10 3-13 2-17 5-9 2-16 6-12 5-4 1v2l-7 3-6 3-1 2 17-7 11-5 24-9 10-3h6l-1 6-5 4-2 1-1 3-14 6-11 5-3 1 2 2-24 3-5 1h-8v2l-13 3-9 4-18-1-33-2-4-3h-9l-2 2-22-1-12-2-1-11-2-4 6-7 22-12 14-8 17-5 31-7 8-4 5-5 10-8h3v-2h3v-2l9-6h3v-2l7-2v-2l16-8z" fill="#E06959"/>
<path transform="translate(0)" d="m0 0h1600v2l-19 1h-1579l1 4 1 890h-4z" fill="#FAF0EA"/>
<path transform="translate(1029,620)" d="m0 0h9l-3 14v2l3-1v5l13 2 6 4 2-6 6-10 2 1-2 9-2 2 2 4-2 12-5 25-4 22-1 1h-12l-12-9-4-1-24-1-11 1h-17l-12-2h-10l-40-4-18-2-32-4-7-1-3-6 1-4 3 6h8l-1-3h-3l-1-6 3-9 2-2 12 1 44 4 18 1h31l7-2 34-2v-2l-7-1v-2l-12-2-17-3-13-1v-1h25l9 1 1-3h36l-2-7 4-7h-5l-4-5v-6h-8v-1z" fill="#A64647"/>
<path transform="translate(1412,378)" d="m0 0 4 2 3 11v91l2 11 2 1v2l6-1 1 1v11l-1 13h2v37l-1 82-3 18-5 17-7 14-8 11-5 7-5 3-2 6-4 5h-2v2l-4-1v-2h-2l1-12 3-2h13l-3-8-1-2-4 1v-2l-2-1 1-9-3-19v-22l2-10 2-1 1 3v27l1 11 3 6 3-3 2-17 1-1v-13l-3-2-3 21h-1v-20l2-11 2-1 3 5v-10l-2-10v-8l3-1 2-3 1-17h-2l-2 5-2 4h-2v-55l1-25 3-38 6-2 1-4 1-40 2-4v-5l-1-1-1-42z" fill="#3A888F"/>
<path transform="translate(1472,327)" d="m0 0h1l1 55 1 95v9l5 1v-17l1-7 3-1v-17l1-18 4-4h9l1 2v46l19 1-2-10-1-2v-19l7 1 6 5 7 16 2 6 2 14 5 27 2 18 1 29v13l-2 33-2 15-5 23-7 19-8 14-9 11h-2v-11l6-5 8-16 6-18 4-21 2-15 1-13v-49l-3-28-4-24-4-12-3-6-6-2v8l-3 2h-4v42l-1 7 1 9v47h-1l-1-9-5-1-4 1v-6l-5 2-4 1-3 5-5 4-5 3-4 7-2-1-1-75 1-12-2-1 1-2h-2l1-17 1-16v-40l-2-5-1-12v-17l2-5v-8l-2 1-1-10v-27l2-5 1-1z" fill="#66C9B7"/>
<path transform="translate(1311,586)" d="m0 0h26l7 2 3 3 1 7 6 8 5 8-2 5h-3v2l-6 1-10-1-30 5-16 2-12 3-9 2-21 4-13 3-28 7-13 6-10 5-4-1-1-3v-11l2-6 2-7 3-3h3v-2l13-4 13-3 13-2 7-1v-3l-9 2-17 3-15 4-10 3-7 5-3-1v-7l3-7 3-6 8-4 16-3 8-1 39-6 15-3 13-1 1-1z" fill="#A74647"/>
<path transform="translate(1391,509)" d="m0 0h4v27l-1 16-3-3v-3l-4 1-3-2h-4l-1-2-8 4-3 6h8v3l-13 3-19 3-28 5-16 3-2 1h-7l7-7-9 4h-3l1-3 2-1h-9l-3 1-1 2h6v2l-9 1v2l4 2-36 6-22 4-14 2-1-16-5-9-5-4v-2l26-1 13-1 6-1 1-4-8 1h-40l-1-3 4-8 7-6h17l13 3 5 5 3 5 25-3 57-10 16-3 28-6 8-4 7-3z" fill="#F18868"/>
<path transform="translate(1109,629)" d="m0 0h15l10 5 7 8 7 17 3 8v11l-2 14-4 12-4 6-8 10-10 6-8 2h-12l-11-6-8-9-2-9h-2l-3-14v-12l3-16 1-2h2l1-5 4-8 8-10 3-3h3v-2z" fill="#4A8D98"/>
<path transform="translate(1062,582)" d="m0 0h9l-2 4-8 8-8 7-9 6h-2l-1 3-4 2-1 5 1 1 20-3 4 2 2 6h4l9-13 5-4 1-2h2v-2l8-5 10-5 8-3h18l11 4 5 1 1-1 10-1v-3l8 1 9-3-2 4-7 4 2 5 10-6 1 10-5 13v10l1 3-1 2h2l1 5v13l-1 6v12l-3 3h-2l-1-15-6-21-9-17v-2l-4-2-1-3-5-2-11-6-7-1h-10l-10 2-12 7-10 9-6 8-6 11-5 12-2 1 1-8-2-2 2-2 2-9-4 5-5 10-4-2-15-4-1-4h-2l-1-4 4-12-22 2h-22l-11-5-2-6-5-2-2-1 1-3h2l-2-1 1-5 6-3 7-2h6v-2l28-4 9-1 9-2z" fill="#C95950"/>
<path transform="translate(1473,326)" d="m0 0 18 2 18 3 2 2 1 66 1 26 8 2 5 5 1 3v12l-5-4-7-2 1 19 2 4v8h-11l-8-1-1-48-9 1-3 3-2 35-2 1-1 13v12h-4v-2h-2l-1-14-1-96z" fill="#73D5C0"/>
<path transform="translate(1519,465)" d="m0 0 6 1 5 9 4 15 5 35 1 12v49l-2 21-4 24-6 20-8 16-6 7h-2l-1-9v-132l-1-13 1-3v-24l1-18 6-2z" fill="#E9C1B8"/>
<path transform="translate(1337,652)" d="m0 0 12 1 14 5 9 6 4 2-2 5-8 3-5 1 2 2-22 3-44 4-33 4-5 2-16 2-56 5-10 1h-9l-5-2-1-4 11-4 18-6 17-8 16-4 4-2 20-2 46-7z" fill="#29374C"/>
<path transform="translate(1286,461)" d="m0 0h4l1 9 14 1 25 4 28 7 18 6h4v3h4l2-10 6-10h3l1 5v14l-1 16-9-3-13-5-16-6-21-5-28-4-10-1h-26l-16 2-16 4-15 6-14 8-12 9-13 11-15 14-15 16-1 2 16-2 13-2h7l-1 2-10 2-16 3-32 3h-8l2-4 4-9-4 3v3l-5 6-7 3-20 2 1-3 5-2 3-1 1-2 7-1 5-2h2l-5-3-1-4 24-3v-2l5-3 8-7 7-6h2v-2l9-7 3-3 7-5 1-2 7-4 11-8h2v-2l5-1v-2l16-8 15-5 13-3 17-3 11-2 4-4z" fill="#F08768"/>
<path transform="translate(1161,491)" d="m0 0h16l9 1 9-1 1 4-15 11h-3l-1 3-7 5h-2l-2 4-6 5h-2v2l-10 8h-2l-2 4-5 4h-3v2l-7 2h-34l-109-2 1-4 3-2 1-3h2v-4l5-3 3-3 9-2 7-2 7 1-1 4-6 9-2 4 52-1 28-6 9-1 4-8 9-17 5-5-3 10-2 4h-2l-1 6v2l10-18h2v-2l8-1 6 1 2-1-1 5-6 18-1 5 13-2 1-1h5v-21l4-10z" fill="#2B5369"/>
<path transform="translate(1436,380)" d="m0 0h19l5 3 2 4v101h-1l-1-11-2 13-2 2-1-1-1-49-2 5-6 2-9 2h-8l-7-2-1-2-1 10h-1v-68l5-6 5-2z" fill="#28394E"/>
<path transform="translate(1429,565)" d="m0 0h1v74l-3 18-5 17-7 14-8 11-5 7-5 3-2 6-4 5h-2v2l-4-1v-2h-2l1-12 3-2h13l-3-8-1-2-4 1v-2l-2-1 1-9-3-19v-22l2-10 2-1 1 3v27l1 11 3 6 3-3 2-17 1-1v-13l-3-2-3 21h-1v-20l2-11 2-1 3 5v-10l-2-10v-8l3-1 2-3v-20l2 1 1 14 14-7 4-15z" fill="#377381"/>
<path transform="translate(1105,489)" d="m0 0h4l-2 5v4l12 2-1 5-10 19-4 7-12 2-25 5h-52l2-5 5-8 8-7 15-9 20-9 20-7z" fill="#488C97"/>
<path transform="translate(855,682)" d="m0 0 21 3 30 3 25 3 24 2 15 1 3 1h17l12-1 23 1 7 3-2 1-2-1v4l5 3v2l3 1v7l-2 1 7 1v1h-15l-7-1-3-3-3-6-21-5-18-1-14-1-7 8-10 7-6 2h-27l-16-3-9-6-7-7-5-9-12-3-7-6z" fill="#20293D"/>
<path transform="translate(1454,437)" d="m0 0h1l1 54 2-5 2-16h1v19l-1 3-8 4h-5v12l-2 11-2 2-6 2-2 32-1 85-5 25-4 12-8 15-11 12-2 1 1-5 7-9 8-14 5-16 3-15 1-7 1-82 1-37h-2v-24h-6v-2l-3-1-2-12 2-36 3 4 6 1h8l9-2 6-2z" fill="#1F2A3E"/>
<path transform="translate(1467,327)" d="m0 0h5v7l-2 2-1 4v27l1 9 2-2v10l-2 5v21l1 8 2 5v40l-1 20-1 11-1 2h2l1 3 1 149 2 17v54l-4-2v-2h-2v-2l-4 1v7h-1l-1-38 1-178-2-9-2-4 1-5 1-15 1-6 1-13v-54l1-4z" fill="#4CB1A8"/>
<path transform="translate(1298,602)" d="m0 0h21l12 2 9 6-1 4-13 2v2l-7 1-8 3-9 1-13 2-9 2-5 1-12 4-15 3-18 4-18 2h-13l-3-3v-6l4-5 6-4 16-5 32-8 14-4 18-3z" fill="#8D4448"/>
<path transform="translate(853,628)" d="m0 0 1 2h2v6h3v2l13 2 5 2 21 3 40 2 16 1 26 3 22 5v2l7 1v2l-5 1-29 2-7 2h-31l-43-3-26-3h-5l-3 6-1 10h3l2 4h-9l-3-5-1-3v-38h2z" fill="#B24C49"/>
<path transform="translate(1107,616)" d="m0 0h12l10 3 8 6 7 8 7 14 4 14v22l-2 14-1 2h2l-2 4-9 17-5 7-6 2-6 4-5 1h-19l-12-5-9-8-6-11-5-14v-16l1-3 1-17 2-4 1-7 2-4v-6l4-5 3-4h2l2-4 10-7zm2 13-7 3v2h-3l-5 5-8 11-3 7v3h-2l-3 10-1 8v12l3 14h2l2 9 9 10 10 5h12l10-3 10-7 7-9 4-7 4-14 1-10v-11l-4-11-6-14-7-8-10-5z" fill="#2B546A"/>
<path transform="translate(906,607)" d="m0 0h1v9h3v6l5 1 7-3 6-3 19 1 17 4 15 4 2 3-1 4-8 5-3 1v3l-10 5h-15l-22-1-16-2-18-2-4-4-2-5-4-6 1-4 5-7 4-1h15l3 1z" fill="#78383E"/>
<path transform="translate(863,659)" d="m0 0 12 1 44 4 37 2 10 2 10 6 12 10v5h-20l-37-3-46-5-23-4-3-1-1-6 3-9z" fill="#1E283C"/>
<path transform="translate(1582,712)" d="m0 0 2 1v9l-3 2-83 16-50 8-40 7h-8l1-9 4-4 20-4 76-13 22-2 36-6z" fill="#4EB1A9"/>
<path transform="translate(1191,465)" d="m0 0h43l23 1 18 2v1l-20 4-17 3-17 5-3 2-22-2-18-1-1-1h-33l-41 3-19 3-6 2-12 2-1 1-9 1-3 2-9 1v-2l13-6h2v-2l20-6 13-3 34-5 42-4z" fill="#3A7784"/>
<path transform="translate(1460,489)" d="m0 0 2 3 3 6 1 11-1 154h-1l-1-78-1-5h-2v-2l-5-1-6-9-7 1-4-5-2-4v-15l1-21 7-5 2-11 1-12 10-3 3-1z" fill="#3B8A90"/>
<path transform="translate(1029,620)" d="m0 0h9l-3 14v2l3-1v5l13 2 6 4 2-6 6-10 2 1-2 9-2 2 2 4-2 12-7 35-2 1-7-2-16-1-1 1-10 1h-54l-28-2-5-2v-1l74 2v1h12l9-1 2-2-1-3h-2l2-5 2-12v-23l-2-5 4-7h-5l-4-5v-6h-8v-1z" fill="#A64547"/>
<path transform="translate(1515,441)" d="m0 0 7 1 6 5 7 16 2 6 2 14 5 27 2 18 1 29v13l-2 33-2 15-5 23-7 19-8 14-9 11h-2v-11l6-5 8-16 6-18 4-21 2-15 1-13v-49l-3-28-4-24-4-12-3-6-8-3-2-4z" fill="#394D5E"/>
<path transform="translate(1104,635)" d="m0 0h6l2 13 1 9v11l4-4 3-7 6-15 2-6 4 1 4 4-1 5-8 16-7 8-5 2h3l15-4h3v-2h12l1 13-6 2-22 1 10 11 8 11-1 5-6 5-3-5-5-10-6-8-2-10v-4l-2-1 1 4-3-2v-6h-4l1 10-4 1v2l2 1-3 5-13 11-5 4h-3v-5l12-13 3-4-18-1v-12l1-4h7l13 5 6 2-2-18-2-6v-13z" fill="#2A3D51"/>
<path transform="translate(1489,423)" d="m0 0h9l1 2v46l19 1v-8l2 1-1 8-3 2h-4v18l-10 8-11 18h-3l-6-30-2-13 1-13 3-1v-17l1-18z" fill="#3B8C92"/>
<path transform="translate(981,544)" d="m0 0h114l23 1v1h-6l1 4 5 2 1 2-7 1-5 1h-3l-1 3-8 4 19-2 7-3 4-5 1-2-2-1 3-1 2-3 2 1-5 10-2 3 20-2v2l-18 2-13 2-18 2-34 7h-2l2-5 4-2 2-6-16 4-19 7-15 6-10 5-8 2 1-3 6-3 7-2v-2l11-5 10-4 13-5 14-3 10-3 18-3 5-2h-32l-6 1-10-1-4 1-1-1-27-1-13 1v1l-9 1-3 3h-13l-6 1-4-2 1-4 11-3z" fill="#E6755F"/>
<path transform="translate(1165,479)" d="m0 0h13l33 2 5 2-4 3-6 3h-3v2l-5 1v2h-2l-2-2-14 1-3-1h-16l-4 5-3 8v19l-1 2-6 2-13 1 1-9 6-16-1-1-9-1h-5v2h-2l-2 5-8 15-2 1 3-11h2l3-9v-3l-1-2-12-1-1-5 1-2h3l1-2 2 5 8-1 5-3 5-2v-2l5-1h5l2 1 7-1 6-4 5-1h4z" fill="#365B6E"/>
<path transform="translate(1332,624)" d="m0 0h8l10 2 7 3v3l-13 4-27 5-3 1-11 1-7 2-47 8-2 1-19 3-15 2v-3l4-1v-2l9-4h3l1-3 22-7 21-4 6-2 11-2 2-1 12-2 3-1 18-2z" fill="#E77660"/>
<path transform="translate(1332,637)" d="m0 0h10l13 4 4 3-1 1-17 2-1 1-23 3-18 3h-7v2l-19 3-26 3-15 3-10 1-2 1-15 2-17 3-8 1h-9v-2l6-3 7-3 1-1 23-4 25-5 14-2 8-2 47-8 1-1 11-1z" fill="#79393F"/>
<path transform="translate(1205,505)" d="m0 0h4l2 6v4l5 2 4 5 3 9-2 1-19 1-7 6-3 9h48l-1 4-6 2-13 1h-27l-13-1v-1l10-2-14 1-10 2h-11l2-4 7-7 7-8 9-9 8-7 13-11z" fill="#355C6F"/>
<path transform="translate(947,618)" d="m0 0h9l16 5h19l14-1h19l2 7 2 4h5l-1 4-2 5 2 5-1 1h-36l-3 3-8-1-30-1-31-2v-1h36l8-4h2v-2l-2-1 5-2 8-5-1-5-19-5-13-3z" fill="#8D4447"/>
<path transform="translate(1436,380)" d="m0 0h19l5 3 1 2v37l-1-4h-5v3h-2v-8l-2 1h-13l-11 2-2 5-2 2-2 4h-2v-38l5-6 5-2z" fill="#27374C"/>
<path transform="translate(1106,630)" d="m0 0h17l7 3v2h-2l-2 10-6 14-4 8-3 1-3-33h-6v15l3 12v12h-5l-12-5-9-2-1 16h19l-6 8-9 10-1 5-1-2h-2l-3-14v-12l3-16 1-2h2l1-5 4-8 8-10 3-3h3v-2z" fill="#498D97"/>
<path transform="translate(1405,624)" d="m0 0h3l1 3v10l2 16 2 8 2 9v15l-3 8-7 9-5 5-3 2-2 6-4 5h-2v2l-4-1v-2h-2l1-12 3-2h13l-3-8-1-2-4 1v-2l-2-1 1-9-3-19v-22l2-10 2-1 1 3v27l1 11 3 6 3-3 2-17 1-1v-13l-3-2-3 21h-1v-20l2-11 2-1 3 5 2 1z" fill="#3B8A90"/>
<path transform="translate(1396,476)" d="m0 0 3 2v11l-1 3-2 19-1-2-7 3-10 7-10 4-15 4-15 3-16 3-28 5h-10l1-4 10-3 5 1 3-1 4 1v-9l5-5h7l11 4h13l11-2v-17l2 3 1 7 6-1v-4h3l-1-7 1-3-3-3h6l8 4 11 4 7 3-1-3z" fill="#2D596E"/>
<path transform="translate(1168,555)" d="m0 0 7 1 8 10 4 7v3h2l3 7v5l-11 4h-5v-12l-7 2 5 1 1 11-9 7-3-2v-2l-2-1 1-2 5-2 4-4-8 3-5-1-3-1v3l-10 2-4 1-6-3 3-2h2l3-9 5-4h6l2-3h3l1-13-5-1-11-1v-1l20-2z" fill="#E47660"/>
<path transform="translate(955,600)" d="m0 0h21l-1 4 3 1-3 1-1 2 5 2 4 4v3l7 2 4 2 11 1v1l-14 1h-19l-16-5-42-4-1-1v-6l4-5 1-2 36 1 9 1v-2h-8z" fill="#CB5A50"/>
<path transform="translate(851,673)" d="m0 0 2 2 2 4h8l-1-2 10 1 22 3 58 6 36 2v-2h16v-2h18l-2 2-13 2-17 1h-23l-30-1 1 1 28 2h54l10-1 1-1 16 1 9 2-2 12-1 1h-12l-12-9-4-1-24-1-11 1h-17l-12-2h-10l-40-4-18-2-32-4-7-1-3-6z" fill="#9C4446"/>
<path transform="translate(1394,536)" d="m0 0h1v22l-1 3-1 20-1 8h-3l-1-7 1-4-8 1-1-2-4-2v-2h-3v-2l-5-1-6-1h-33l-13 1-6 1v-1l-6-1v-1l19-3 26-5 27-4v-3h-8l1-5 3-3h3l1-2 4-1 1 2 5 1 2 1 4-1v5l1 1z" fill="#C95A50"/>
<path transform="translate(1050,585)" d="m0 0h11l-2 4-11 12-6 4-16 3-15 2h-17l-11-4-4-2v-4l7 1 9 3-5-3 1-2 5 1v-5l8-3 22-2z" fill="#3C5F71"/>
<path transform="translate(1320,674)" d="m0 0h16l3 3v2l-10 2-40 4-25 3-5 2-16 2-36 3-29 1v-1l19-2 1-3 14-3 13-2 11-2 17-1 8-1 8-2 1-2 6-1 4 1 12-1 7-1h19z" fill="#262D40"/>
<path transform="translate(1036,493)" d="m0 0 3 1-23 12-18 11-11 8-13 10-5 5 5 1 3 1 57 1v1l-53 1-7 3-35 11-21 10-9 6h-3v2l-6 3-9 2-4-1 14-11 15-9 16-8 13-6v-2l6-1v-2l11-3 6-3 5-5 10-8h3v-2h3v-2l9-6h3v-2l7-2v-2l16-8z" fill="#CB5B51"/>
<path transform="translate(1302,485)" d="m0 0 21 2v2h11l10 1 6 3 3 8 1 9h-16l-26-3-7-1-2-2-4-15v-3z" fill="#478C97"/>
<path transform="translate(1387,595)" d="m0 0h2l-1 6-3 4-3 11h-2l2 4-1 4-3 3-4 10-2 8 5 2 2-3-1 13-1 8-4 1-5-4-10-5-9-3-12-1-56 9-40 6h-6v-1l75-12 35-6 15-2 3-2v-4l5-1 1-4-1-4 2-5-3-9v-3l6-5h2v-2l4-3h3l1-5z" fill="#A14446"/>
<path transform="translate(1029,620)" d="m0 0h9l-3 14v2l3-1v5l13 2 6 4 2-6 6-10 2 1-2 9-2 2 2 4-2 12-5 22-1 2h-2l1-6-2-1 1-6v-7h-2l-1 3-3 1-3-4v-2l-7-1-1-3h-3l-1-2-2 1-1-10-2-5 4-7h-5l-4-5v-6h-8v-1z" fill="#B34C49"/>
<path transform="translate(1046,708)" d="m0 0 5 1 3 3 6 9 2 1v2h2v2l4 2 8 3 1-5 1-7h3l6 7 12 6 3 1h19l6-2 10-5-1 8-4 3-10 3-17 2h-20l-15-3-9-5-7-8-7-13z" fill="#2C3A4E"/>
<path transform="translate(1499,427)" d="m0 0 5 2 3 1 6-3h8l5 5 1 3v12l-5-4-7-2 1 19 2 4v8h-11l-8-1z" fill="#66C9B7"/>
<path transform="translate(1408,477)" d="m0 0 2 3v27l-1 5v10l-2 24v39l-6 12h-2v-55l1-25 3-38z" fill="#DF6858"/>
<path transform="translate(863,611)" d="m0 0 25 3v2h-4l-2 4-3 4 1 5 4 5 2 7 23 2 13 2v1h-26l-23-4-6-2-8-2v-2h-3v-6h-2l-2 3-1-1v-17l2-1 1 2h5z" fill="#8D4448"/>
<path transform="translate(1541,546)" d="m0 0h2l2 7 1 39-2 21-5 24-6 18-8 16-10 13-3 1v-11l6-5 8-16 6-18 4-21 2-15 2-30z" fill="#2F3547"/>
<path transform="translate(1278,478)" d="m0 0h16l30 3 24 5 16 5 25 10 6 3v2l-9-3-13-5-16-6-21-5-28-4-10-1h-26l-16 2-16 4-15 6-14 8-12 9-13 11-15 14-15 16-1-2 10-13 12-13 12-11 17-13 17-10 15-6 17-4z" fill="#F5E7E0"/>
<path transform="translate(1431,460)" d="m0 0h2v10l11 2 2 1v22h6v1h-5v12l-2 11-2 2-7 2-1-5-1-6v-18l-4-9-5-2-2-2 1-13 6-3h2z" fill="#28384D"/>
<path transform="translate(1161,491)" d="m0 0h16l9 1 9-1 1 4-15 11h-3l-1 3-7 5h-2l-2 4-6 5h-2v2l-7 5v-4h2v-21l4-10z" fill="#2E5268"/>
<path transform="translate(968,694)" d="m0 0 5 1h17l12-1 23 1 7 3-2 1-2-1v4l5 3v2l3 1v7l-2 1 7 1v1h-15l-7-1-3-3-3-6-21-5-18-1-14-2 4-3 4-2z" fill="#2C394D"/>
<path transform="translate(1511,697)" d="m0 0h1v8l17 1 35 4 4 1 14 1-4 2-26 5-29 5h-7l4-2 5-1h-15l2-1-1-4z" fill="#73D5C0"/>
<path transform="translate(1489,423)" d="m0 0h9l1 2v46h8v1h-8v2l-9-1-4-2-2-7-2-2h2v-17l1-18z" fill="#488F98"/>
<path transform="translate(1202,532)" d="m0 0h17l13 3 5 5 2 3v5l-7 1h-40l-1-3 4-8z" fill="#D66456"/>
<path transform="translate(1179,529)" d="m0 0 2 1-2 6-1 4 1 3 6-1 6 3 1 3h48l-1 4-6 2-13 1h-27l-13-1v-1l10-2-14 1-10 2h-11l2-4 8-8 8-7z" fill="#2B556C"/>
<path transform="translate(1154,487)" d="m0 0 23 1 7 2v3l-7-1h-16l-4 5-3 8v19l-1 2-6 2-13 1 1-9 6-16 7-13 3-1v-2z" fill="#3B868E"/>
<path transform="translate(1391,632)" d="m0 0 2 3v27l1 11 3 6 2-1 5 11 2 5v3l2 1-6 8-5 3-2 6-4 5h-2v2l-4-1v-2h-2l1-12 3-2h13l-3-8-1-2-4 1v-2l-2-1 1-9-3-19v-22l2-10z" fill="#28394E"/>
<path transform="translate(1290,481)" d="m0 0 18 1 28 4 21 5 9 3v3l1 4-1 5v2h-3v4l-6 1-2-7-2 1-2-9-1-5-5-1-1-1-18-1-3-1v-2l-24-1 5 18v3 6h-2v-2l-3-1-7-20-1-7z" fill="#346778"/>
<path transform="translate(1112,625)" d="m0 0h10l5 1v2l5 1 6 4 7 9 5 11 3 15-1 19h2l-1 10-1 2h2l-2 4-9 17-5 7-6 2-6 4-5 1h-9v-1l10-2 3-2 1-4h4l1-5 5-5 7-9 4-10 2-8 1-10v-11l-4-11-6-14-6-7-10-5h-15l-6 1v-2z" fill="#2D566C"/>
<path transform="translate(1062,582)" d="m0 0h9l-2 4-8 8-8 7-9 6-4 2-37 4h-13l-9-4-6-5 1-5 6-3 7-2h6v-2l28-4 9-1 9-2zm-12 3-31 6-15 1-8 3v5l-5-1v3l3 2-10-4h-5v4l11 5 4 1h17l28-4 6-3 8-7 7-8 1-3z" fill="#376374"/>
<path transform="translate(1396,476)" d="m0 0 3 2v11l-1 3-2 19-1-2-7 3-10 7-7 2-4-1-7 1-3-3-1-9 1 4 6-1v-4h3l-1-7 1-3-3-3h6l8 4 11 4 7 3-1-3z" fill="#355D71"/>
<path transform="translate(1329,623)" d="m0 0h17l11 3 4 3v2l-4 1-1-3-9-3-7-1h-8l-14 2-11 1-6 2-9 1-6 2-10 2-17 4-9 2-20 6-1 2-10 4h-2v2l-4 2 1 3-12 2h-11l2-1v-2l16-8 16-7 12-2 1-3 27-6 13-3 12-2 10-2 7-1h10z" fill="#CA5A50"/>
<path transform="translate(1448,380)" d="m0 0h7l5 3 1 2v37l-1-4h-5v3h-2v-8l-2 1h-13l-11 2-2 5-2 2-3 4v-24l3-1 5 2 9-2 5-1h7l2 1v2h2l3 7 2-3v-19l-4-5-4-1v-2z" fill="#1E283C"/>
<path transform="translate(1340,660)" d="m0 0 5 1-2 2-27 4-90 11-27 5-11 1 3-2 10-5 13-3h9v-2h15l9-2 25-2 6-1z" fill="#2A5269"/>
<path transform="translate(1105,489)" d="m0 0h4l-2 5v4l12 2-1 5-4 2-7-6-16 1-15 4-18 5-10 2-3-2v-2l20-9 20-7z" fill="#43999D"/>
<path transform="translate(975,605)" d="m0 0 6 3 9 4h13l39-4-1 2-4 2-1 5 1 1 11-1-5 4-2 2h-3v-3l-22 2h-22l-11-5-2-6-5-2-2-1z" fill="#D96557"/>
<path transform="translate(906,688)" d="m0 0h10l34 3 16 1h54l10-1 1-1 16 1 9 2-2 12-1 1h-12l-12-9-4-1-24-1-11 1h-17l-12-2h-10l-40-4-5-1z" fill="#8B4247"/>
<path transform="translate(1332,624)" d="m0 0h8l10 2 7 3v3l-13 4-27 5-7 1 4-3-1-2 1-1-1-2h-6l-5-1-2 1-3-4 10-3 18-2z" fill="#E7755F"/>
<path transform="translate(1107,616)" d="m0 0h12l10 3 8 6 7 8 7 14 4 14v22l-1 4h-2v-19l-4-18-6-11-6-7-9-4v-2h-15l-9 3v2l2 1h-3v2l-2-1 1-2h-4l1-5h2v-3h2l-1-3z" fill="#335B6F"/>
<path transform="translate(947,543)" d="m0 0 4 1-4 2-4 3-16 7-20 11-14 10-10 8-4 2 2-5 5-7 7-6 2-5-1-2 18-10 17-5z" fill="#E87760"/>
<path transform="translate(1225,493)" d="m0 0 4 2v3l1 10v22l-4 2-1 2-6-1 3-3-4-10-3-3-5-2v-5l-1-5-2-1 16-10z" fill="#387583"/>
<path transform="translate(1167,656)" d="m0 0h1v15l5-1-2 1v2l19-2 1 1 18-1 9-2h7l-1 2-16 4-22 10-20 6h-3l1-7 2-9z" fill="#8B4246"/>
<path transform="translate(1349,646)" d="m0 0h6l-1 2-26 5-74 12-26 4-10 1-9 2-20 1 1-2 20-4 10-1 2-1 14-2 26-4 17-2 5-1h8v-2l30-5z" fill="#D76355"/>
<path transform="translate(1379,542)" d="m0 0 2 2 5 1 2 1 4-1v5l2 2v5l-6 1-1 4h-2l-1 3-3 2h-8l-1 2-8-3-8-1-1-4h-6v-1l27-4v-3h-8l1-5 3-3h3l1-2z" fill="#E06959"/>
<path transform="translate(1172,554)" d="m0 0h21l5 5 4 5 2 4v17l-4 1-4-3v-2h-5l-2-5h-2l-6-11-6-8-4-2z" fill="#7A393E"/>
<path transform="translate(1465,643)" d="m0 0h1l1 45 4-11v-13l-3-10 5 2 3 9v54l-4-2v-2h-2v-2l-4 1v7h-1l-1-38v-16z" fill="#43969A"/>
<path transform="translate(1015,520)" d="m0 0 9 1-1 4-6 9-2 4h30v1l-32 1-4 1-3 2h-20l1-4 3-2 1-3h2v-4l5-3 3-3 9-2z" fill="#345A6E"/>
<path transform="translate(955,600)" d="m0 0h21l-1 3-10 2-18 1-2 2-2 1v8h9v1h-11l-27-3-1-1v-6l4-5 1-2 36 1 9 1v-2h-8z" fill="#B44C49"/>
<path transform="translate(1460,492)" d="m0 0h2l3 6 1 11v20l-1 40-2-3-2-13-3-11-3-45z" fill="#449B9E"/>
<path transform="translate(1153,472)" d="m0 0h11l19 1 8 1-1 4 2 1h-48l-41 3-12 1 3-1-1-4 1-1 22-1 8-1 16-1z" fill="#3B8B91"/>
<path transform="translate(1272,481)" d="m0 0h17l3 12v9l-2 3-4-1-6-7-18-7-8-3v-2l-2-1 10-2z" fill="#397784"/>
<path transform="translate(979,653)" d="m0 0 18 3 12 3v2l-5 1-41 3-30-1-1-2 6-2 22-3h5l7-2z" fill="#CC5B51"/>
<path transform="translate(1591,678)" d="m0 0h9v5l-60 6-16 2h-12v-4l11-2 41-5z" fill="#3F5868"/>
<path transform="translate(1510,543)" d="m0 0 2 3v34h-1l-1-9-5-1-4 1v-6l-5 2-4 1-3 5-5 4-5 3-4 7h-1v-5l7-8 5-6 7-3-1-2 4-7 9-10z" fill="#74D6C1"/>
<path transform="translate(1055,585)" d="m0 0h6l-2 4-11 12-6 4-16 3-15 2h-17l-11-4-4-2v-4l7 1 8 3h20l19-2 7-3 8-8z" fill="#F7EFE8"/>
<path transform="translate(1481,463)" d="m0 0 4 1 2 7 8 2h13l3 1v15l-2 3-3-7-2-1v-2l-4 1-3 5-3 1-10-4-2-1-1-10z" fill="#387583"/>
<path transform="translate(1472,327)" d="m0 0h1l1 55v81h-1l-1-40-2-5-1-12v-17l2-5v-8l-2 1-1-10v-27l2-5 1-1z" fill="#67CAB8"/>
<path transform="translate(1394,510)" d="m0 0h1v26l-1 16-3-3v-3l-4 1-3-2h-4l-1-2-3 1-1-2 3-2 10-3-1-3-5-3-3-5v-2l-2-1 1-3 9-5z" fill="#E87760"/>
<path transform="translate(1012,636)" d="m0 0h20l-2 6 2 5-1 1h-30l-6-2-1-1v-5l2-2z" fill="#478B96"/>
<path transform="translate(1195,513)" d="m0 0 2 1-1 1v23l-4 8-8-3h-5l-2-5 3-6-1-2-12 12-2-1 15-15 8-7z" fill="#345A6E"/>
<path transform="translate(1391,509)" d="m0 0 4 1-11 8-14 7-16 4-45 9-67 11-3-1 1-3 25-3 57-10 16-3 28-6 8-4 7-3z" fill="#F6E5DF"/>
<path transform="translate(1094,620)" d="m0 0 2 1-9 7-7 9-2 4-1 6-2 5-1 7-1 1-1 17v3h-2v13l-2-3-1-8-2-1v-6l-1-4 3-17 4-10 4-8 6-7z" fill="#28374C"/>
<path transform="translate(1114,632)" d="m0 0 5 1v2l5 1 3 2-1 7-6 14-4 8-3 1-3-33-4-1z" fill="#478B96"/>
<path transform="translate(998,664)" d="m0 0h7l10 3 4 6-3 3-13 2-8-1-11-6-2-4 1-2z" fill="#8D4448"/>
<path transform="translate(923,591)" d="m0 0 33 1 10 2 3 2h10l-1 3-5 2-18-1-33-2-4-3v-2z" fill="#E6755F"/>
<path transform="translate(1136,666)" d="m0 0h12l1 13-3 1-28 1v-6l3-4 12-3h3z" fill="#27374C"/>
<path transform="translate(1515,720)" d="m0 0h12l-2 2-16 3-50 8-46 8-4-1 1-2 13-3 23-4 27-4z" fill="#FAF0EA"/>
<path transform="translate(1401,724)" d="m0 0 12 1 29 4h20v1l-28 4-17 3h-7l-9-10-3-2z" fill="#458E93"/>
<path transform="translate(1145,502)" d="m0 0 4 1-1 4v7l1 2 3 1v-11h1l1 18-1 2-6 2-13 1 1-9 5-14 2 1z" fill="#387583"/>
<path transform="translate(1089,551)" d="m0 0h5l-3 2-26 7-23 7-25 10-10 5-8 2 1-3 6-3 7-2v-2l11-5 10-4 13-5 14-3 10-3z" fill="#F08567"/>
<path transform="translate(1307,491)" d="m0 0 10 1 2 7 4 2 8 1 1 4 3 1-1 1h-15l-14-2-2-2-1-4v-7z" fill="#449A9D"/>
<path transform="translate(1012,539)" d="m0 0h49l4 1 7 1 30 2v1h-68l-28-1 3-3z" fill="#263549"/>
<path transform="translate(1109,629)" d="m0 0h15l10 5 7 8 1 7v8l-1-4-4 2-2 4-1 7 2 2-18 5-3 1v-2l8-6 8-13 4-8-1-5-3-3-3-2h2v-2l-7-2-14-1z" fill="#4F9B9F"/>
<path transform="translate(909,594)" d="m0 0h9l4 3 33 2v2h8v2l-34-1-11-1-1 2h-7v3h-3l-1-4h-3l-18-3v-1h22z" fill="#2B2C3F"/>
<path transform="translate(1081,660)" d="m0 0 1 3-1 3 4 1h-4l-1 16h19l-6 8-9 10-1 5-1-2h-2l-3-14v-12l3-16z" fill="#4A8E98"/>
<path transform="translate(1036,493)" d="m0 0 3 1-23 12-18 11-11 8-13 10-5 5 5 1 3 1 57 1v1h-67l-6-2 1-3 6-3 5-5 10-8h3v-2h3v-2l9-6h3v-2l7-2v-2l16-8z" fill="#A04D4B"/>
<path transform="translate(1079,715)" d="m0 0h4l3 1 2 5 4 2 7 2 4 2h12l10-3 5-2v3l-4 2-2 4-5 2-7 1h-10l-12-5-9-8-2-3z" fill="#335A6F"/>
<path transform="translate(1235,532)" d="m0 0 4 2 2 3 10 1 1-1 10-1h11l3-1 4 1v3h-4v2l-17 3-20 2-3-6-4-4v-3z" fill="#2F596E"/>
<path transform="translate(1431,430)" d="m0 0h16l1 1-1 15-2 1h-12l-4-5v-10z" fill="#2A536A"/>
<path transform="translate(1112,625)" d="m0 0h10l5 1v2l5 1 6 4 7 9 5 11 3 15-1 18-2 9h-1l1-17v-11l-4-11-6-14-6-7-10-5h-15l-6 1v-2z" fill="#2B4257"/>
<path transform="translate(1408,477)" d="m0 0 2 3v27l-1 10-8-3 1-26 1-9z" fill="#EBC4BB"/>
<path transform="translate(1232,548)" d="m0 0h8l-1 4-6 2-13 1h-27l-13-1v-1l10-2 1-2z" fill="#336275"/>
<path transform="translate(1515,441)" d="m0 0 4 2 3 7 6 10h3l1 4-1 3 4 10v6l-3 1-5-13-2-4-8-3-2-4z" fill="#272F42"/>
<path transform="translate(1410,336)" d="m0 0h1l2 87 1 1-1 7-1 2-1 40-1 5-2-1v-32l-2-1 2-2 1-8z" fill="#498D98"/>
<path transform="translate(1340,660)" d="m0 0 5 1-2 2-27 4-49 6-17 1 1-2 19-3 6-2 39-4z" fill="#345F72"/>
<path transform="translate(1266,636)" d="m0 0h7l-3 2-7 3-12 3-3 2-9 3-4 1v2l-3 2 1 2-17 3-4-1 2-3h3v-2l9-4h3l1-3 22-7z" fill="#E06858"/>
<path transform="translate(906,688)" d="m0 0h10l34 3 16 1h67l3 2-1 5 1 2-4-2-7-3-24-1-11 1h-17l-12-2h-10l-40-4-5-1z" fill="#78383E"/>
<path transform="translate(1116,682)" d="m0 0h5l10 11 8 11-1 5-6 5-3-5-5-10-6-8z" fill="#233246"/>
<path transform="translate(1170,587)" d="m0 0 2 1-5 5-4 3 2 4h2l-1 4-2 4-5 1-5-5-11-8 2-3 10-1v-3l8 1z" fill="#D7685A"/>
<path transform="translate(1517,441)" d="m0 0 6 2 5 4 7 16 2 6 2 14 5 27 1 12h-2l-1-15h-2l-1-11-2-7-1-8-5-12-1-4 1-2-2-3-1 2-9-15z" fill="#32566A"/>
<path transform="translate(1367,498)" d="m0 0 4 2 6 13 1 6-7 2-4-1-7 1-3-3-1-9 1 4 6-1v-4h3l-1-7z" fill="#355B6F"/>
<path transform="translate(1128,636)" d="m0 0 4 1 4 4-1 5-8 16-6 7-3-1-1-4 3-7 6-15z" fill="#1F2B3F"/>
<path transform="translate(1118,545)" d="m0 0h13l-5 5v3l-5 6-7 3-20 2 1-3 5-2 3-1 1-2 7-1 5-2h2l-5-3-1-4z" fill="#F18868"/>
<path transform="translate(1349,646)" d="m0 0h6l-1 2-26 5-42 7h-10v-2l8-2h8v-2l30-5z" fill="#D05E53"/>
<path transform="translate(851,673)" d="m0 0 2 2 2 4h8l-1-2 10 1 22 3 18 2v1h-26l7 2v1h-10l-22-3-7-1-3-6z" fill="#914044"/>
<path transform="translate(1104,635)" d="m0 0h6l2 13v23h-4l-2-9-3-12v-13z" fill="#1F2A3E"/>
<path transform="translate(1290,481)" d="m0 0 18 1-1 2 7 1v1h-15l5 18v3 6h-2v-2l-3-1-7-20-1-7z" fill="#397684"/>
<path transform="translate(906,601)" d="m0 0h1v5h3v-3l7-1-1 4-2 2v6l27 3v1h-13l-9 5-6 1-4-2 1-6h-3v-9h-2l-1-4z" fill="#914447"/>
<path transform="translate(1295,635)" d="m0 0h4v3h2l-2 5-3 2-35 6h-9l1-2 10-2h3v-2h12l5-5 11-4z" fill="#F18768"/>
<path transform="translate(1110,682)" d="m0 0 3 4h2l1 3v13l-2 9-5 4-4 8h-2v-5l3-8 3-16z" fill="#202D41"/>
<path transform="translate(1379,542)" d="m0 0 2 2 5 1 2 1 4-1v8l-11 3-5-1v-2h-8l1-5 3-3h3l1-2z" fill="#E06858"/>
<path transform="translate(1223,503)" d="m0 0 5 1 1 5v12l-7 2-5-6-4-2 1-5 7-6z" fill="#3B8B91"/>
<path transform="translate(1410,480)" d="m0 0h1l1 21 3 6 1 1v6l-1 2h-2l-1 5-2 4-2 22v12l1 11-1 14h-1l-1-8v-30l2-24v-11l1-4z" fill="#469C9E"/>
<path transform="translate(1329,623)" d="m0 0h17l11 3 4 3v2l-4 1-1-3-9-3-7-1h-8l-14 2-16 1-25 5-36 8-4-1 6-2 35-8 12-2 10-2 7-1h10z" fill="#B54D4A"/>
<path transform="translate(1473,683)" d="m0 0h1l1 31h1v5l-4-2v-2h-2v-2l-4 1v-12l2-9 4-9z" fill="#4CB2A9"/>
<path transform="translate(1402,523)" d="m0 0h6l-1 23-1 30h-1l-2-26h-2v-26z" fill="#E97861"/>
<path transform="translate(1393,470)" d="m0 0 2 1 1 5v14l-1 6-11-4 1-8 6-12z" fill="#E9BFB5"/>
<path transform="translate(1394,510)" d="m0 0h1v26l-2-1v-12l-6 1-1 4 5 7h-3l-6-4-3-5v-2l-2-1 1-3 9-5z" fill="#E97861"/>
<path transform="translate(1056,584)" d="m0 0h10v2l2 1-7 7-8 7-9 6-4 2-14 1h-15v-1l28-4 6-3 7-6 7-8 2-3h-5z" fill="#42878F"/>
<path transform="translate(859,599)" d="m0 0h3l2 4h5l2 5-1 3-7 1-4 5h-5l-3-2 1-5 6-10z" fill="#DA6657"/>
<path transform="translate(1399,721)" d="m0 0 18 1 30 4 15 1-1 2-9 1h-10l-36-5-7-2z" fill="#283D52"/>
<path transform="translate(1551,683)" d="m0 0h15l-4 2-15 2-14 3-9 1h-12v-4l11-2 14-1z" fill="#3A5061"/>
<path transform="translate(1081,604)" d="m0 0v3l-5 4-9 13h-5l-1-7-6-1-7 1 2-2 13-4 11-4z" fill="#E16A59"/>
<path transform="translate(1040,608)" d="m0 0 2 1-5 3-1 5 1 1 11-1-5 4-2 2h-3v-3h-17l-2-4-1-3 8-2 4-2z" fill="#E4755F"/>
<path transform="translate(1463,326)" d="m0 0h10v1h-7v2l-10 1-3 1-17 3-3 1-2-1-1 2-2-1-7 1-5 2-1 2-4 3v-8l12-3 30-5z" fill="#3D8B92"/>
<path transform="translate(1353,493)" d="m0 0 7 1 6 3 1 4-1 5v2h-3v4l-6 1-4-16z" fill="#387583"/>
<path transform="translate(1395,456)" d="m0 0 3 2-1 7-1 11h-1l-1-5-4 4-4 9-2 7h-4v-7l4-10 10-15z" fill="#314052"/>
<path transform="translate(1141,646)" d="m0 0 3 3 5 11v7h-16l1-8 4-6h3z" fill="#60B4AE"/>
<path transform="translate(1053,556)" d="m0 0h3v2h-2v2l-9 2-16 6-12 5-9 4-3-1 6-5 11-6 11-4 17-4z" fill="#CC5B51"/>
<path transform="translate(1400,642)" d="m0 0 4 3v13l-1 1-2 17-2 4-3-10 1-11 2-16z" fill="#8C4347"/>
<path transform="translate(1034,496)" d="m0 0 1 2 2 1-27 13-21 14-11 8-4 4-3-1 9-8 15-11 18-11 12-7z" fill="#488D97"/>
<path transform="translate(1582,712)" d="m0 0 2 1v9l-3 2-15 3-7-1v-2l7-2h4l1-6 7-3z" fill="#459B9E"/>
<path transform="translate(1105,685)" d="m0 0 2 1-3 5-13 11-5 4h-3v-5l12-13 3-2z" fill="#223145"/>
<path transform="translate(1391,509)" d="m0 0 4 1-11 8-14 7-16 4-25 5-3-1 4-3 18-3 18-4 8-4 7-3z" fill="#F0E3DC"/>
<path transform="translate(1387,705)" d="m0 0 11 1-3 9-4 5h-2v2l-4-1v-2h-2l1-12z" fill="#387885"/>
<path transform="translate(855,682)" d="m0 0 21 3v2h5l2 3-4 5-5-2-13-3-7-6z" fill="#2C384D"/>
<path transform="translate(1168,583)" d="m0 0h6l1 11-9 7-3-2v-2l-2-1 1-2 5-2 4-4-8 3-5-1-2-4z" fill="#ED8065"/>
<path transform="translate(1269,663)" d="m0 0h5v2l-15 2-13 2-1 2-10 2-12-1v2l-13 2-6 1 4-3 16-4 4-2 20-2z" fill="#283043"/>
<path transform="translate(933,688)" d="m0 0 74 2-2 2h-55l-12-1-5-2z" fill="#BE534D"/>
<path transform="translate(1329,630)" d="m0 0h9l5 1 4 1v2l-3 2-16 3h-8l-3-4 5-2v-2z" fill="#F08667"/>
<path transform="translate(1218,669)" d="m0 0h7l-1 2-16 4-4 2h-10v-2l-18 1-8 1v-3l12-2 10-1 1 1 18-1z" fill="#A84748"/>
<path transform="translate(1031,647)" d="m0 0 1 3-1 10v5h-2v14l-2 2-2-7v-22l1-2-9-1v-1z" fill="#74383E"/>
<path transform="translate(1106,630)" d="m0 0h17l7 3v2h-2v3l-4-1-5-2v-2l-7 1-8 1v2h-2v6h-2l-1-2-4 1-5 4 2-4 4-5 3-3h3v-2z" fill="#65C5B5"/>
<path transform="translate(1167,656)" d="m0 0h1v15l5-1-2 1v2h6v1l-7 1-2-1v3l2-1h6v1h-5l3 5 2 4-3 3-10 2 1-7 2-9z" fill="#9C4345"/>
<path transform="translate(1078,480)" d="m0 0h6l2 3-11 3h-6v2l-4 2-9 1-3 2-9 1v-2l15-7z" fill="#49AAA4"/>
<path transform="translate(1202,532)" d="m0 0h17l13 3 5 5 2 3-1 3-7-3-4-1v-2h-2l-1-3-12-2h-7l-7 1z" fill="#EC876F"/>
<path transform="translate(1456,510)" d="m0 0 2 3 2 10 3 13 1 11v19h-1l-2-13-3-11-2-26z" fill="#498D98"/>
<path transform="translate(1171,544)" d="m0 0h13l4 2v3l-4 2-18 3h-11v-2l6-3v2l7-1z" fill="#2D4759"/>
<path transform="translate(1280,563)" d="m0 0h10l-4 5 9-4h3l-1 3-9 6-3 1h-8l-5-2 1-3h9v-2h-6l1-3z" fill="#954345"/>
<path transform="translate(1397,719)" d="m0 0 46 4 20 2 1 4-3-1-21-2-23-3-18-2v2l4 1-10 2-3-1 4-1 2-4z" fill="#2C546B"/>
<path transform="translate(1062,582)" d="m0 0h9l-2 4h-3v-2l-21 3-26 5-15 1-2 1h-7v-2l28-4 9-1 9-2z" fill="#57404B"/>
<path transform="translate(1028,698)" d="m0 0 6 2 7 5 5 2-2 2-2 7-1 1h-11l4-2 1-5v-2l-5-4-3-2z" fill="#232A3D"/>
<path transform="translate(885,567)" d="m0 0h3l-1 4-5 4-3 4 2 2-3 5h-2v3h-2l-1 3-1-9-2-4 6-7z" fill="#C85A51"/>
<path transform="translate(1029,620)" d="m0 0h9l-3 12-2 3v-2h-5l-4-5v-6h-8v-1z" fill="#A84647"/>
<path transform="translate(869,581)" d="m0 0 4 2v12h-2l-3 9-5-1-1-4-2-1h3l1-5z" fill="#72CFBD"/>
<path transform="translate(1036,588)" d="m0 0h7l-2 3-5 2-24 3h-16l2-2 6-2 22-2z" fill="#63BFB3"/>
<path transform="translate(1026,529)" d="m0 0h7v2l3 1-3 3h-3v2h37v1h-52l2-4 1 2 1-2h2l2-4z" fill="#3A898F"/>
<path transform="translate(1535,480)" d="m0 0 2 1 2 12 1 3v11h2l1 9-2 1-1-7-1-1v10l-2-3-5-32 2-1z" fill="#35485B"/>
<path transform="translate(1334,484)" d="m0 0 10 1 17 5 21 8 13 6v2l-9-3-13-5-16-6-21-5v-2z" fill="#F3DED7"/>
<path transform="translate(1172,580)" d="m0 0h4v12l11-3 4 1-5 6-1 2h-2l-2 5-1 2-3-1v-11h-2l-1-10h-6l1-2z" fill="#C45951"/>
<path transform="translate(1401,724)" d="m0 0 12 1 9 1-3 2-4 1 1 3 4 2-4 2h-7l-8-9-3-2z" fill="#397785"/>
<path transform="translate(1399,542)" d="m0 0h1l1 41 5-7h1v9l-6 12h-2z" fill="#954245"/>
<path transform="translate(909,594)" d="m0 0 5 1 4 6-1 2h-7v3h-3l-1-4h-3l-18-3v-1h22z" fill="#2F4457"/>
<path transform="translate(1431,430)" d="m0 0h16v6l-5 2h-13v-6z" fill="#2F576C"/>
<path transform="translate(1029,684)" d="m0 0 2 1-1 4-2 2-9 1h-14v-1l-15-1v-1l17-1 17-2z" fill="#B44D4A"/>
<path transform="translate(996,638)" d="m0 0h10v2h-6v2l-2 1 1 1 21 1v-6l4-1-1 6 7 2v1h-34l-2-2v-5z" fill="#489B9E"/>
<path transform="translate(1484,494)" d="m0 0 5 2 2 4 2 6 1 4-4 6h2l-1 3h-3l-4-21z" fill="#48959B"/>
<path transform="translate(1410,431)" d="m0 0h1v42l-1 5-2-1v-32l-2-1 2-2z" fill="#50A9A4"/>
<path transform="translate(1112,657)" d="m0 0h1v11l4-3 3 5-5 2h3l2 1-1 7h24v1l-27 1v-5l-2-1 1 4-3-2v-6h-4l-1 4-3-2h3v-5l1 2h4z" fill="#2C475B"/>
<path transform="translate(1176,474)" d="m0 0 6 2v2l2 1h-51v-2l16-1 9-1z" fill="#488C97"/>
<path transform="translate(1591,678)" d="m0 0h9v5l-21 2h-6l3-2h2v-2l-3-1 2-1z" fill="#3A6B7C"/>
<path transform="translate(876,681)" d="m0 0h18l18 2v1h-26l7 2v1h-10l-7-1-3-2-5-1v-1z" fill="#954144"/>
<path transform="translate(1273,474)" d="m0 0h5 4l1 2 13 1v1l-34 2-17 3-7 1 2-2 10-4 20-1-1-2z" fill="#EB7D63"/>
<path transform="translate(1507,718)" d="m0 0h5v2l-3 2-30 5h-11l2-2 17-3 1-1 16-2z" fill="#50B0A9"/>
<path transform="translate(1108,672)" d="m0 0h4l2 7v-3l3 1v7l1 4-3 1v-3l-3 1-1-2-2 17-2-4-2-3h3l1-11-4 1v-2l3-1z" fill="#3A6F7F"/>
<path transform="translate(1088,654)" d="m0 0 3 1 9 15 3 3-11-3-7-3 3-1-1-6z" fill="#FAF0EA"/>
<path transform="translate(1050,585)" d="m0 0h5l-1 2h-2l-2 4-8 7-3 2-2-1 1-4 2-2-7 2-7-1v-1l10-1 6-3-1-2z" fill="#478C97"/>
<path transform="translate(1465,643)" d="m0 0h1l1 45 2 3-2 11-1 19h-1l-1-38v-16z" fill="#41969A"/>
<path transform="translate(1399,632)" d="m0 0 4 5 3 1-1 13h-1l-2-7-2-1-3 21h-1v-20l2-11z" fill="#42808D"/>
<path transform="translate(1129,546)" d="m0 0 2 1-5 10-2 3 20-2v2l-18 2-13 2h-11v-1l16-3 6-5 2-4-2-1 3-1z" fill="#DD6758"/>
<path transform="translate(1273,658)" d="m0 0h3v2l3 1-27 4v-2l-6 1h-10v-1l26-4z" fill="#CB5C52"/>
<path transform="translate(1e3 685)" d="m0 0h18l-2 2-13 2-17 1h-23l-8-1v-1l29 1v-2h16z" fill="#813C41"/>
<path transform="translate(1288,666)" d="m0 0h7l-1 2h-10l-1 3-26 3h-7l1-2 19-3 6-2z" fill="#32596E"/>
<path transform="translate(1079,478)" d="m0 0h14l1 4-4 2-12 3h-9v-1l13-3 1-2-9 1-11 3-4-1z" fill="#487D86"/>
<path transform="translate(873,594)" d="m0 0 28 2 6 1v1l-16 1 4 2-11-1-14-1 1-4z" fill="#643A44"/>
<path transform="translate(1018,681)" d="m0 0h7l-1 3-20 2h-15v-3z" fill="#E26E5B"/>
<path transform="translate(1130,658)" d="m0 0 3 2v7l3 1-18 5-3 1v-2l8-6 4-6 1 2z" fill="#4C929A"/>
<path transform="translate(980,607)" d="m0 0 6 1 8 1h32l-2 2-21 2h-13l-9-4z" fill="#293F53"/>
<path transform="translate(871,598)" d="m0 0 13 1 16 3 2 2-5 1-12-1-9-1-6-2z" fill="#CC5B51"/>
<path transform="translate(1184,550)" d="m0 0h7l-1 2-10 2-16 3h-12l1-4 2-1v2l16-2z" fill="#F8EEE8"/>
<path transform="translate(968,538)" d="m0 0 1 2 5 1 3 1 57 1v1h-67l-3-1v-3z" fill="#823E43"/>
<path transform="translate(1409,516)" d="m0 0 3 3-2 6-2 22v12l1 11-1 14h-1l-1-8v-30l2-24z" fill="#488F99"/>
<path transform="translate(1031,650)" d="m0 0h1v18l-2 12-3 5-3 2-4-1-3-2 7-1-1-5-1-4h2l1-3 2 8h1l1-14h2l-1-11z" fill="#914447"/>
<path transform="translate(1020,594)" d="m0 0h13l2 2-13 2h-12l-6 2h-8v-3z" fill="#253549"/>
<path transform="translate(1190,580)" d="m0 0 6 1 4 4h4l-1 6-2 3-5-1-3-4z" fill="#8E4448"/>
<path transform="translate(1536,469)" d="m0 0h1l2 14 5 27 1 12h-2l-1-15h-2l-1-11-2-7-1-8-2-4v-6h2z" fill="#407E8C"/>
<path transform="translate(1195,513)" d="m0 0 2 1-1 1-2 21-2 3-2-7 1-7-1-5-4 4-2-1z" fill="#377281"/>
<path transform="translate(996,647)" d="m0 0 21 1 9 2-1 11-3-4v-4l-7-1-14-1z" fill="#8D4448"/>
<path transform="translate(873,641)" d="m0 0 22 1 20 2 7 1v1h-26l-23-4z" fill="#9C4547"/>
<path transform="translate(1519,429)" d="m0 0 5 2 2 1 1 3v12l-5-4-3-2 1-1z" fill="#4FB2A9"/>
<path transform="translate(955,600)" d="m0 0h21l-1 3-6 1h-19l-22-1-10-1v-1l36 1 9 1v-2h-8z" fill="#904245"/>
<path transform="translate(1302,627)" d="m0 0h5l-3 2-12 2-6 2-10 2-17 4-9 1 1-2 36-8z" fill="#CC5B51"/>
<path transform="translate(1329,623)" d="m0 0h17l11 3 4 3v2l-4 1-1-3-9-3-7-1h-8l-14 2h-10v-1z" fill="#CC5B51"/>
<path transform="translate(1302,632)" d="m0 0 5 1 8 2v3 2l-5 2h-5l-3-6z" fill="#F18868"/>
<path transform="translate(1309,653)" d="m0 0m-7 1h7v2l-23 4h-10v-2l16-3z" fill="#DD6757"/>
<path transform="translate(1112,625)" d="m0 0h10l5 1v2h2l1 3-6-1h-15l-6 1v-2z" fill="#263449"/>
<path transform="translate(1481,446)" d="m0 0 3 1v15l-4 1-2-3v-12z" fill="#67CAB8"/>
<path transform="translate(1551,683)" d="m0 0h15l-4 2-15 2-8 1h-11l-2-2 8-1 3-1z" fill="#232A3D"/>
<path transform="translate(1121,500)" d="m0 0 1 2-5 12h-2l-1 6h-2l-2 7-4 3 2-8 9-17z" fill="#2A4156"/>
<path transform="translate(1110,682)" d="m0 0 3 4h2l1 3v13l-1 5h-1v-10l-3 1-2-1z" fill="#293E53"/>
<path transform="translate(906,601)" d="m0 0h1v5h3v-3l7-1-1 4-7 10h-2v-9h-2l-1-4z" fill="#87D0C1"/>
<path transform="translate(1218,524)" d="m0 0h3l2 7-2 1h-17l3-3h3l1-2 7-1z" fill="#395366"/>
<path transform="translate(1178,562)" d="m0 0 3 1 6 10v3h2l3 7v5h-2l-7-14-2-3v-3h-2z" fill="#ED8265"/>
<path transform="translate(1387,523)" d="m0 0h6l1 3v9l-2 2-2-2-5-7z" fill="#F28969"/>
<path transform="translate(1400,642)" d="m0 0 4 3v13h-6v-9z" fill="#223044"/>
<path transform="translate(1047,602)" d="m0 0h2l-1 3-8 4-14 1h-15v-1l28-4z" fill="#458C90"/>
<path transform="translate(1265,542)" d="m0 0 7 1v1l-30 5-3-1 1-3z" fill="#F4E5DE"/>
<path transform="translate(1018,640)" d="m0 0h1v5h-20l-2-2 3-2h16z" fill="#387583"/>
<path transform="translate(1168,583)" d="m0 0h6l-1 4-10 4-5-1-2-4z" fill="#F8EBE5"/>
<path transform="translate(1135,469)" d="m0 0h15v1l-38 5h-6l1-2 19-3z" fill="#455D6D"/>
<path transform="translate(1340,660)" d="m0 0 5 1-2 2-18 3h-7v-2l-3-1z" fill="#32596D"/>
<path transform="translate(1391,509)" d="m0 0 4 1-11 8-14 7h-2v-3l11-5z" fill="#F1E4DD"/>
<path transform="translate(1107,684)" d="m0 0h2v9l-1 2-9 4-4 1 2-4 8-7z" fill="#84CFC1"/>
<path transform="translate(1401,514)" d="m0 0 8 3v5l-7 2-1 10h-1v-17z" fill="#CD6054"/>
<path transform="translate(1210,667)" d="m0 0h7l-1 4-7 1-20 1 1-2z" fill="#C95950"/>
<path transform="translate(1109,629)" d="m0 0h15l10 5 7 8-1 2-4 1-2-5-3-3-3-2h2v-2l-7-2-14-1z" fill="#458993"/>
<path transform="translate(1107,631)" d="m0 0h3l-1 3-5 1v2h-2v6h-2l-1-2-4 1-5 4 2-4 4-5 3-3h3v-2z" fill="#78D3C0"/>
<path transform="translate(1515,441)" d="m0 0 4 2 3 7 1 4h-2l2 7-4-4-2-4-1 7h-1z" fill="#2A3F54"/>
<path transform="translate(1e3 637)" d="m0 0h21l-1 8-2-4-4 1-14-1v-1h6v-2h-6z" fill="#3E8B92"/>
<path transform="translate(1332,624)" d="m0 0h8l10 2 7 3v3l-4 1-4-4-9-2-5-1-15 1v-1z" fill="#E16959"/>
<path transform="translate(1299,483)" d="m0 0h18l14 2 3 3-19-1-1-1-15-2z" fill="#336578"/>
<path transform="translate(1489,566)" d="m0 0h2v5l-7 6-5 3-4 7h-1v-5l7-8 5-6z" fill="#73D5C0"/>
<path transform="translate(1087,649)" d="m0 0 2 4-1 11v2h-7l2-9z" fill="#77D6C2"/>
<path transform="translate(880,683)" d="m0 0h14l18 2 2 2h-21l-7-2-6-1z" fill="#B24C49"/>
<path transform="translate(1062,582)" d="m0 0h9l-2 4h-3v-2l-21 3-4 1h-7v-2l18-3z" fill="#513B48"/>
<path transform="translate(1224,535)" d="m0 0 9 2 5 4 1 5-12-4v-2h-2z" fill="#EA7C63"/>
<path transform="translate(983,525)" d="m0 0 3 1-12 9-8 5h-2v2h-3l1-3 6-3 5-5 6-5z" fill="#AF534E"/>
<path transform="translate(1266,645)" d="m0 0h10l2 3-17 3h-9l1-2 10-2h3z" fill="#F08567"/>
<path transform="translate(1396,476)" d="m0 0 3 2v11l-1 3-1 13-3-1z" fill="#414959"/>
<path transform="translate(855,682)" d="m0 0 12 2 7 1v1l-9 1 3 3-5 1-6-4-3-4z" fill="#293346"/>
<path transform="translate(1100,521)" d="m0 0 4 1 1 3-3 1v3l2 2-10-1-2-1v-2l5-3z" fill="#3A8A90"/>
<path transform="translate(1124,499)" d="m0 0h2l-2 7-10 18-2 1 3-11h2l4-12z" fill="#377280"/>
<path transform="translate(1406,537)" d="m0 0h1l-1 39h-1l-1-13v-22z" fill="#EF977C"/>
<path transform="translate(1029,654)" d="m0 0h1l1 11h-2v14l-2 2-1-22z" fill="#2E495C"/>
<path transform="translate(1056,485)" d="m0 0 3 1-13 6h-2l1 3-5 3h-5l2-4h2v-2z" fill="#5A7D80"/>
<path transform="translate(1518,464)" d="m0 0 2 1-1 8-3 2h-4v18h-2l1-19-12-1v-1h19z" fill="#438B94"/>
<path transform="translate(1286,461)" d="m0 0h4v7l-3-1-12 2 1-3z" fill="#DC6959"/>
<path transform="translate(1463,326)" d="m0 0h10v1h-7v2l-10 1-3 1h-7l-5-1v-1z" fill="#428C94"/>
<path transform="translate(1363,495)" d="m0 0h6l8 4 9 3-2 2h-5l-6-3-7-3z" fill="#326375"/>
<path transform="translate(1512,440)" d="m0 0h3v22l-3-4-1-16z" fill="#72D5C0"/>
<path transform="translate(1411,382)" d="m0 0h1l1 41 1 1-1 7-2 2z" fill="#449B9E"/>
<path transform="translate(1116,687)" d="m0 0 2 1 4 7 5 7 2 7-4-2-7-12z" fill="#FAF0EA"/>
<path transform="translate(859,658)" d="m0 0h8l-4 2-3 6-2 8h-3l-1-5 2-5h2v-5z" fill="#954245"/>
<path transform="translate(1172,554)" d="m0 0h21l-1 2-14 3-7-3z" fill="#223145"/>
<path transform="translate(1118,672)" d="m0 0 2 1-1 7h24v1l-27 1v-5l-2-1 1 4-3-2v-4z" fill="#326073"/>
<path transform="translate(1369,500)" d="m0 0h2l6 13 1 6h-5l-1-8-3-8z" fill="#2C576C"/>
<path transform="translate(1104,635)" d="m0 0 3 1-1 2 2 1v7l-2 3-1 6h-1l-1-5v-13z" fill="#293C51"/>
<path transform="translate(1e3 700)" d="m0 0 2 1v2h3v2l7 1 1 7v3l-3-5-2-3-8-3-2-1z" fill="#3B3343"/>
<path transform="translate(1083,674)" d="m0 0 5 1 2 7-10 1 2-5z" fill="#1E293D"/>
<path transform="translate(1021,638)" d="m0 0h3l-1 6 7 2v1h-31v-1l20-1z" fill="#9FCDBD"/>
<path transform="translate(1081,604)" d="m0 0v3l-5 4-2 3-6-1-1-3 8-4z" fill="#E87660"/>
<path transform="translate(1394,510)" d="m0 0h1v13l-6-2v-7z" fill="#E26D5B"/>
<path transform="translate(946,599)" d="m0 0h9v2h8v2l-34-1v-1l17-1z" fill="#393E50"/>
<path transform="translate(1108,499)" d="m0 0h7l4 1-1 5-4 2-5-5z" fill="#44969B"/>
<path transform="translate(1434,723)" d="m0 0h9l20 2 1 4-3-1-14-1v-2l-13-1z" fill="#315A6E"/>
<path transform="translate(1138,655)" d="m0 0 2 1v7l-1-2-1 3h3v2l-8 1 1-8z" fill="#FAF0EA"/>
<path transform="translate(1196,517)" d="m0 0 2 1 1 17-4 2v-17z" fill="#273145"/>
<path transform="translate(1441,460)" d="m0 0h6v7l-1 2-5-1-1-7z" fill="#409296"/>
<path transform="translate(1438,432)" d="m0 0h8l-1 4-2 1h-12v-3h5z" fill="#387583"/>
<path transform="translate(1416,727)" d="m0 0 10 1v3h-3v2l-4 1-5-3z" fill="#3B8B91"/>
<path transform="translate(1081,660)" d="m0 0 1 3-1 3 4 1h-4l-1 15h-2v8h-1v-12l3-16z" fill="#40818E"/>
<path transform="translate(1273,474)" d="m0 0h5 4l1 2 13 1v1h-26l-1-3z" fill="#E97861"/>
<path transform="translate(1467,688)" d="m0 0 2 3-2 11-1 19h-1v-32z" fill="#44979B"/>
<path transform="translate(1389,550)" d="m0 0h3v3l-11 3-5-1v-3z" fill="#823E43"/>
<path transform="translate(1057,486)" d="m0 0 4 1-2 3-6 3-9 1v-2z" fill="#56B9AD"/>
<path transform="translate(1387,705)" d="m0 0 11 1v2l-8 3h-5l1-5z" fill="#F7EFE9"/>
<path transform="translate(1154,665)" d="m0 0h1v18l-1 4h-2v-13l1-8z" fill="#345C6F"/>
<path transform="translate(1305,652)" d="m0 0h14l2 2-12 2v-2l-7 1h-10v-1z" fill="#C95A51"/>
<path transform="translate(1050,585)" d="m0 0h5l-1 2h-2l-2 4-5 2v-2l-3-2-1-2z" fill="#46999C"/>
<path transform="translate(1280,563)" d="m0 0h10l-3 3-1 3h-4v-2h-6l1-3z" fill="#BD564F"/>
<path transform="translate(1401,507)" d="m0 0 5 2 3 3v5l-8-3z" fill="#F8EAE4"/>
<path transform="translate(1104,696)" d="m0 0 4 2v4l-5 1-4-2h-5l4-2 2-2z" fill="#54B6AC"/>
<path transform="translate(1403,658)" d="m0 0h1v11l-2 14h-2l1-13 1-11z" fill="#488B96"/>
<path transform="translate(1141,646)" d="m0 0 3 3 4 10v6l-3-1-4-15z" fill="#FAF0EA"/>
<path transform="translate(852,614)" d="m0 0 2 2 4 2h-2l-1 7-1 2h-2l-1-2v-10z" fill="#A84647"/>
<path transform="translate(976,599)" d="m0 0h9l1 2-7-1v4l4 1 7 3-4 1-8-2-3-3z" fill="#497E82"/>
<path transform="translate(1177,582)" d="m0 0 5 3 3 4-1 2-7 1z" fill="#F08768"/>
<path transform="translate(989,662)" d="m0 0h11l-2 3h-14l-9-1v-1z" fill="#AC4848"/>
<path transform="translate(1397,638)" d="m0 0 1 4 2 1-3 21h-1v-20z" fill="#345B6F"/>
<path transform="translate(1012,595)" d="m0 0 4 1-8 3-4 1h-8v-3z" fill="#283B50"/>
<path transform="translate(1031,650)" d="m0 0h1v18l-2 12-2-1 1-14h2l-1-11z" fill="#8D4448"/>
<path transform="translate(1273,658)" d="m0 0h3v2l3 1-14 2v-2h-9v-1z" fill="#D25F54"/>
<path transform="translate(906,607)" d="m0 0h1v10l-2 3h-5v-2l-10-2v-1h13l3 1z" fill="#8D4448"/>
<path transform="translate(912,598)" d="m0 0 4 1 2 4h-8v3h-3l-1-6z" fill="#3D818A"/>
<path transform="translate(1039,592)" d="m0 0 2 2-3 2-1 3h2v2l-7-1-5-3v-1h8v-2z" fill="#2C556A"/>
<path transform="translate(1056,591)" d="m0 0 1 2-1 5-5 5-7 1 5-5z" fill="#4A979A"/>
<path transform="translate(1236,550)" d="m0 0h3v2l-6 2-21-1v-1z" fill="#403647"/>
<path transform="translate(1440,344)" d="m0 0h2l-1 4-9 2-1 1h-6l5-4 5-2z" fill="#6EC3B7"/>
<path transform="translate(957,552)" d="m0 0 7 1 1 4-1 1h-7l-2-1v-2h2z" fill="#E87660"/>
<path transform="translate(1397,719)" d="m0 0 14 1v1h-12v2l4 1-10 2-3-1 4-1 2-4z" fill="#315D71"/>
<path transform="translate(855,674)" d="m0 0h4v2h3l2 4h-9l-2-2v-3z" fill="#AD4A48"/>
<path transform="translate(1114,632)" d="m0 0 5 1v4h-3v2l-4-1-2-2-4-2z" fill="#4BACA6"/>
<path transform="translate(1129,546)" d="m0 0 2 1-5 10-4 4-4-1 6-5 2-4-2-1 3-1z" fill="#E6735E"/>
<path transform="translate(1416,486)" d="m0 0h2l2 4v5l2 1-6 1-2-6z" fill="#42979B"/>
<path transform="translate(1218,669)" d="m0 0h7l-1 2-16 4-4 2-3-1 6-3h2v-2z" fill="#8C3F42"/>
<path transform="translate(1406,559)" d="m0 0h2l1 11-1 14h-1l-1-8z" fill="#498D98"/>
<path transform="translate(947,543)" d="m0 0 4 1-4 2-4 3-5 1v-2l-2-1 1-2z" fill="#E3715D"/>
<path transform="translate(980,607)" d="m0 0 6 1 15 2v1h-9v2l-10-3z" fill="#435460"/>
<path transform="translate(1402,501)" d="m0 0 7 4v6l-5-2-2-2z" fill="#CF6657"/>
<path transform="translate(1497,449)" d="m0 0h1v22l-4-1 2-12z" fill="#3B8B91"/>
<path transform="translate(1439,414)" d="m0 0h8v2l-3 1-16 1v-2z" fill="#2D556B"/>
<path transform="translate(1517,441)" d="m0 0 6 2 2 7v3l-3-1-3-5z" fill="#335B6F"/>
<path transform="translate(901,714)" d="m0 0h4v2l25 1v1h-20l-12-2z" fill="#485060"/>
<path transform="translate(1135,520)" d="m0 0 4 2 1 5v2h-6z" fill="#3A858D"/>
<path transform="translate(1413,334)" d="m0 0h7v2l-4 2-1 2-4 3v-8z" fill="#3C8B91"/>
<path transform="translate(1167,656)" d="m0 0h1v15l5-1-2 1v2h6v1l-7 1-2-1-1 3z" fill="#914144"/>
<path transform="translate(1185,664)" d="m0 0 3 1v1h5l1 2-3 1h-14l4-2z" fill="#8E4447"/>
<path transform="translate(1028,633)" d="m0 0h5v3h-21v-1z" fill="#683841"/>
<path transform="translate(868,603)" d="m0 0 3 3-1 5h-7l1-5h2z" fill="#CC5B51"/>
<path transform="translate(1191,550)" d="m0 0h16v1l-8 2h-12z" fill="#468F96"/>
<path transform="translate(1025,522)" d="m0 0 2 1-4 5-1 4-2 4-3 1 1-6 4-6z" fill="#44989C"/>
<path transform="translate(1386,503)" d="m0 0 10 2v6l-1-2-6 2z" fill="#38707E"/>
<path transform="translate(1332,486)" d="m0 0 9 1-2 1v2h-13l-3-1v-2h9z" fill="#397885"/>
<path transform="translate(1258,468)" d="m0 0h7l3 2-13 3-4-1 2-2v-1z" fill="#3E818C"/>
<path transform="translate(917,698)" d="m0 0 10 1 2 3-1 1h-6z" fill="#28374C"/>
<path transform="translate(1076,675)" d="m0 0h1v16l-2 1-1-9 1-5z" fill="#28374C"/>
<path transform="translate(1109,626)" d="m0 0h8l4 2-18 3v-2z" fill="#1F2A3E"/>
<path transform="translate(1405,624)" d="m0 0h3l1 3-1 8-3 3z" fill="#408B93"/>
<path transform="translate(1369,548)" d="m0 0h5v2l10 1v1l-16 1z" fill="#C7584F"/>
<path transform="translate(1198,511)" d="m0 0 2 1v22h-2l-1-16-2 2v-5z" fill="#2D5369"/>
<path transform="translate(1433,440)" d="m0 0h9l1 3-5 2-5-1z" fill="#355B6F"/>
<path transform="translate(1366,523)" d="m0 0h2v2l-8 3-9 1v-2z" fill="#F5E4DE"/>
<path transform="translate(1540,500)" d="m0 0h2l3 18v4h-2l-1-15h-2z" fill="#3C7584"/>
<path transform="translate(918,602)" d="m0 0h10l4 2-1 1h-14z" fill="#CB5B51"/>
<path transform="translate(974,597)" d="m0 0 4 2-5 2-18-1v-1l16-1z" fill="#D56154"/>
<path transform="translate(1034,496)" d="m0 0 1 2 2 1-9 4h-4l1-3z" fill="#499E9F"/>
<path transform="translate(1e3 538)" d="m0 0 8 1 1 2-5 1-2 1h-6v-3z" fill="#2A536A"/>
<path transform="translate(1334,484)" d="m0 0 10 1 4 1v2l2 1-9-1-5-1v-2z" fill="#F3DFD7"/>
<path transform="translate(1142,476)" d="m0 0h12l-2 2-8 1h-11v-2z" fill="#498D98"/>
<path transform="translate(1007,688)" d="m0 0h5l-2 1v2l2 1h-7v-1l-15-1v-1z" fill="#AF4A48"/>
<path transform="translate(991,599)" d="m0 0 10 2 2 1v2l-9-1-4-2z" fill="#5D98A1"/>
<path transform="translate(1036,588)" d="m0 0h7l-2 3-5 2h-4l1-4z" fill="#A5DFCF"/>
<path transform="translate(968,538)" d="m0 0 1 2 5 1 3 2h-13v-3z" fill="#2E4155"/>
<path transform="translate(1180,526)" d="m0 0h2l-1 3-8 7-6 6-2-1z" fill="#386E7F"/>
<path transform="translate(1018,681)" d="m0 0h7l-1 3-19-1v-1z" fill="#D15E53"/>
<path transform="translate(1194,555)" d="m0 0h18v1l-17 2z" fill="#EBC5BB"/>
<path transform="translate(1184,542)" d="m0 0 7 3 1 4-1 1h-6l3-1v-3l-5-2z" fill="#2C546B"/>
<path transform="translate(1410,480)" d="m0 0h1l1 21v4l-2 2z" fill="#49919A"/>
<path transform="translate(1103,691)" d="m0 0 1 3-5 5-4 1 2-4z" fill="#F5EFE8"/>
<path transform="translate(1177,673)" d="m0 0h8l-2 2-15 2v-3z" fill="#CB5A50"/>
<path transform="translate(1010,597)" d="m0 0 12 1-2 3-2-1h-7l-6 1-1-2z" fill="#2A536A"/>
<path transform="translate(1395,708)" d="m0 0 2 1-2 6-4 1 1-5-2-1z" fill="#489298"/>
<path transform="translate(1130,700)" d="m0 0 5 2 4 6h-3l-4-2z" fill="#28374C"/>
<path transform="translate(1148,656)" d="m0 0 3 1 1 5v9l-2-4-2-7z" fill="#26364B"/>
<path transform="translate(1474,724)" d="m0 0 11 1v1l-6 1h-11l2-2z" fill="#54B2AB"/>
<path transform="translate(1412,688)" d="m0 0 1 3-5 6h-2l-2-6 4 1 4-2z" fill="#407D8A"/>
<path transform="translate(1468,654)" d="m0 0 5 2 1 5h-2l-1 3z" fill="#449B9E"/>
<path transform="translate(1047,602)" d="m0 0h2l-1 3-8 4h-5v-2l6-1 1-2z" fill="#515865"/>
<path transform="translate(872,583)" d="m0 0h1v12h-2l-2 5-2-1v-4l5-1z" fill="#48989C"/>
<path transform="translate(1275,570)" d="m0 0h12l-2 3-11-1z" fill="#67363F"/>
<path transform="translate(1112,518)" d="m0 0 1 2-4 8-3 2 2-8z" fill="#283A4F"/>
<path transform="translate(1381,499)" d="m0 0 6 1 8 4v2l-9-3-5-2z" fill="#F4E1DB"/>
<path transform="translate(1370,494)" d="m0 0 10 3 2 2-5 1-6-3z" fill="#E0D8CF"/>
<path transform="translate(1318,485)" d="m0 0h13l3 3-13-1z" fill="#30586A"/>
<path transform="translate(1149,665)" d="m0 0 2 2v11h-2l-1-11z" fill="#366D7D"/>
<path transform="translate(1041,590)" d="m0 0h3l-1 3-10 2-7-1v-1l10-1z" fill="#3F7986"/>
<path transform="translate(1062,582)" d="m0 0h9l-2 4h-3v-2h-8z" fill="#3E4556"/>
<path transform="translate(1273,569)" d="m0 0h10v1l-8 1 10 2v1h-8l-5-2z" fill="#994648"/>
<path transform="translate(1288,562)" d="m0 0 7 1-1 3-5 2h-3l1-3 2-1z" fill="#E5735E"/>
<path transform="translate(1446,496)" d="m0 0h1v12l-1 7-2-2 1-13z" fill="#2E566C"/>
<path transform="translate(1423,332)" d="m0 0h6l-1 3-7 1-3-3z" fill="#3F8B93"/>
<path transform="translate(970,534)" d="m0 0h3l-1 3-6 3h-2v2h-3l1-3 6-3z" fill="#853D41"/>
<path transform="translate(1487,722)" d="m0 0h6l-3 3h-12l4-2z" fill="#449497"/>
<path transform="translate(1385,706)" d="m0 0 1 2-1 3h7v2l-7 1h-1v-7z" fill="#2F5A6E"/>
<path transform="translate(1122,625)" d="m0 0h9l1 2 3 1 1 3-9-3v-2h-5z" fill="#2A536A"/>
<path transform="translate(854,606)" d="m0 0 4 2-3 3-1 5-3-1 1-5z" fill="#CE5E53"/>
<path transform="translate(1032,587)" d="m0 0 4 2-10 2h-4l1-3z" fill="#4B4D5A"/>
<path transform="translate(1006,578)" d="m0 0 2 1 1 2-10 3 1-3z" fill="#E97861"/>
<path transform="translate(1202,532)" d="m0 0h15v1l-13 1-2 2-4-1z" fill="#F08567"/>
<path transform="translate(1374,519)" d="m0 0h3v3l-9 3v-3z" fill="#E6E0D8"/>
<path transform="translate(1387,499)" d="m0 0h7l1 4h-4l-4-2z" fill="#E87861"/>
<path transform="translate(1e3 700)" d="m0 0 2 1v2h3v2l2 1h-6l-3-2z" fill="#253043"/>
<path transform="translate(1108,672)" d="m0 0h4v6h-4z" fill="#8BB0B5"/>
<path transform="translate(982,596)" d="m0 0h6v5l-10-2z" fill="#3D3A4B"/>
<path transform="translate(1302,497)" d="m0 0 2 4 3 1v2l3 1v1h-5l-2-2z" fill="#498D98"/>
</svg>