<svg xmlns="http://www.w3.org/2000/svg" version="1.1" viewBox="0 0 2053 1268">
<path transform="translate(0)" d="m0 0h2048v1268h-2048z" fill="#D6D6D6"/>
<path transform="translate(1851,550)" d="m0 0h3l2 48v33h2l3 6 2 12 1 1v34l8 5 4 5 1 17-1 6h-2v3h2l7 64 6 58 6 57 4 37 2 30 1 93 2 14 6 12 7 7 5 4-2 1 8 7 10 7 3 1v2l5 1 23 7 26 4 13 1h40v15l-9 1h-40l-19-3-26-8-16-7-16-10-7-4-16-4-8-5-10-9-6-8-3-6 1-3 8 11 9 8 14 7-1-4-4-1-5-5-8-6v-3l4 4 4 1-8-16-4 1-1 5h-2v-2l-4-2-3-3-6-30-2-12-2-4-4-2 1 6v75l9 2v2l7 1 7 4 1 2v7l-3 4-10 2-31 2-90 3-36 1h-94l-14-3-15-6-6-4v-8l6 1 4 2 5 1 7 3-3-5-1-6 4 2 1 4 12 3 8 1h75l85-3 2-1 45-2 9-1-3-1-1-11 3-56 1-20v-197l1-17v-16l1-19v-82l-1-4 1-9 1-23v-29l1-8 1-28 1-21 1-14z" fill="#A1AAAB"/>
<path transform="translate(1686,492)" d="m0 0 33 1 73 3 5 2 5 6 2 6v125l-1 9-5 8-4 2h-89l-17-1-8-4-5-6-1-2v-138l6-8z" fill="#0B0B0C"/>
<path transform="translate(1855,681)" d="m0 0 9 3 8 5 4 5 1 17-1 6h-2v3h2l7 64 6 58 6 57 4 37 2 30 1 93 2 14 6 12 7 7 5 4-2 1 8 7 10 7 3 1v2l5 1 23 7 26 4 13 1h40v15l-9 1h-40l-19-3-26-8-16-7-16-10-7-4-16-4-8-5-10-9-6-8-3-6 1-3 8 11 9 8 14 7-1-4-4-1-5-5-8-6v-3l4 4 4 1-8-16-4 1-1 5h-2v-2l-4-2-3-3-6-30-2-12-2-4-4-3-1-3v-11l2 2 7 14 10 11 8 19 1 3h2l-1-75-3-46-5-64-6-62-5-43-5-29v-3l-6-2-1-3z" fill="#30373B"/>
<path transform="translate(1834,341)" d="m0 0 5 1 10 6 4 4 1 3 1 76v145h-1l-1-21 1-5h-3l-1 21-1 24-1 28-1 11v27l-1 19-1 10 1 8v79l-1 24v16l-1 18v197l-1 13-3 59v7h5l-2 2-6-1-3-6v-20l2-21 1-34v-92l1-30v-92l1-56v-73l-1-3 1-6v-52l-1-11v-58l1-33v-72l-1-10v-43l-1-19-1-9v-13z" fill="#ADBCBA"/>
<path transform="translate(1855,734)" d="m0 0 7 1 4 20 5 36 6 60 5 58 4 55 1 18v75h-2l-6-12-3-7-2-6-2-11-5-23-4-29-4-53-1-29-2-112z" fill="#D5D5D5"/>
<path transform="translate(1794,507)" d="m0 0 6 1 4 2v125l-1 9-5 8-4 2h-89v-1l53-1 3-2 1-7 1-15-1-7 3-16 2-3h2l2-6v-72l-2-13h4v13l6-1 8-6 6-8z" fill="#232629"/>
<path transform="translate(1859,1106)" d="m0 0 9 1 11 4 4 4v7l-3 4-10 2-31 2-90 3-36 1h-94l-14-3-15-6-6-4v-8l6 1 4 2 5 1 7 3-3-5-1-6 4 2 1 4 12 3 8 1h75l117-4 25-2 15-3z" fill="#0E0F10"/>
<path transform="translate(1593,678)" d="m0 0h11v6h-2l1 6h2l1 2h1v35l-1 4-8-1-6 55-5 67-5 57-5 38-6 36-5 19-11 32-8 16-9 14-9 10-12 12-13 9-21 10-9 1-2-2-15-4-10-5-5-4-5-7-1-6v-12l4 4 9 11 9 8 12 7 4 1h8l10-3 14-8 9-7 12-12 7-8 8-13 8-16 8-22 6-24 6-33 5-40 4-44 6-75 4-37 4-25v-11l-4-3-2-5 1-4 4 1 4-10v-9l4-4-2-1v-2h-3z" fill="#25292C"/>
<path transform="translate(1855,681)" d="m0 0 9 3 8 5 4 5 1 17-1 6h-2v3h2l7 64 6 58 3 30v13h-2l-3 7-1 8v20l2 12h-2v10l-2-3-1-3-5-64-6-62-5-43-5-29v-3l-6-2-1-3z" fill="#23272A"/>
<path transform="translate(1919,1096)" d="m0 0 26 1 29 2 2 1 39 3 16 2 16 3 1 1v18l-23 1h-17l-21-2-18-3-23-7-5-2v-2l-5-1-13-10z" fill="#D2D3D3"/>
<path transform="translate(1602,1109)" d="m0 0 4 2 1 4 12 3 8 1h75l30-1h26v1l9 1 1 4-5 1-3-2-1 2h-10l-19 2-22 1-50 1-12 1-1 4h-26l-14-3-15-6-6-4v-8l6 1 4 2 5 1 7 3-3-5z" fill="#232629"/>
<path transform="translate(1775,529)" d="m0 0h5l4 3h8l3 12v20l-1 11v21l-3 17-2 6-2-2v-2l-9-4-5-2-1-3-2-1 2-11 1-62z" fill="#31383C"/>
<path transform="translate(1441,752)" d="m0 0h36l-2 1-1 4-2-3-1 1v41h2l-1 3-25-1-5-2-1-2-1-11v-24z" fill="#0D0D0F"/>
<path transform="translate(1855,681)" d="m0 0 9 3 8 5 4 5 1 17-2 5h-3l1 6-2-3v-2h-2l2 20v12l1 9 1 37 3 28v10l-2-4-6-54-6-37v-3l-6-2-1-3z" fill="#0E0E0F"/>
<path transform="translate(1922,1096)" d="m0 0 38 2 14 1 2 1 39 3 16 2 16 3 1 1v6l-19-1-20-2-55-2h-15l-5-3-5-5-7-5z" fill="#30373B"/>
<path transform="translate(1559,1015)" d="m0 0h1l-1 8-6 15-8 16-10 14-18 18-13 9-21 10-9 1-2-2-15-4-10-5-5-4-5-7-1-6v-12l4 4 9 11 9 8 12 7 4 1h8l10-3 14-8 9-7 12-12 7-8 8-13 9-18h3l3-9z" fill="#131416"/>
<path transform="translate(1726,434)" d="m0 0h32l11 1 1 1-1 8-8 15-4 5-4 2h-14l-4-1-1-4 1-2 20-1-1-4h-26l-7 14h-9l-1-5 8-13 4-7 39 3v-4l-35-2-1 2z" fill="#A2ABAC"/>
<path transform="translate(1872,1076)" d="m0 0 4 4 6 8 8 7 14 7-1-4-4-1-5-5-8-6v-3l4 4 4 1-4-8 1-4 2 5h3v2h2l1 3 5 5 3 2v2l4 1 4 2v2l5 2 5 4 1 3 7 5 4 2 7 5 6 3v2l5 1 8 4 15 5h5l1 1 7 1 1 1 18 1h34l-3 2-2 1h-40l-19-3-26-8-16-7-16-10-7-4-16-4-8-5-10-9-6-8-3-6z" fill="#24282B"/>
<path transform="translate(1598,622)" d="m0 0 1 3-4 11-3 10v7h9v5l-5 1-1 2-1 16h14l1 69-1 8h-2l-1-7v-15l-2-1h3v-38l-2-1 1-2h-2l-1-6h2v-6l-8 1-1 1v2h3v2l3 1-4 4v9l-4 10h-4l-3 3-3-7v-27l3-25 4-13 5-12z" fill="#A1AAAB"/>
<path transform="translate(1859,1106)" d="m0 0 9 1 11 4 4 4v7l-3 4-10 2-31 2h-21v-2h12l4-3-43-1 1-3 7 1 6-2 28-2 19-3 8-3-3-2h2z" fill="#232629"/>
<path transform="translate(1720,699)" d="m0 0h41l1 2v11l-1 7-2 1h-33l-6-1z" fill="#0D0E0F"/>
<path transform="translate(1584,1113)" d="m0 0 6 1 4 2 5 1 7 3-1-4 3 2 21 4 26 1v2h-2l1 3h-9v6h-26l-14-3-15-6-6-4z" fill="#30373B"/>
<path transform="translate(1587,711)" d="m0 0 2 2 2 4 3 3v10l-4 25-5 49-7 86-4 39-6 40-6 28-7 23-4 10-1-3 7-21 6-25 5-27 5-38 4-43 3-40 1-29 3-32 3-43z" fill="#A2ACAD"/>
<path transform="translate(1593,678)" d="m0 0h11v6h-2l1 6h2l1 2h1v35l-1 4-8-1-4 36-2 2v-14l1-18v-17l-4-3-2-5 1-4 4 1 4-10v-9l4-4-2-1v-2h-3z" fill="#2F363A"/>
<path transform="translate(1672,405)" d="m0 0h19l86 6 25 2 9 2v1h-14l-60-2-45-3h-22l-6 4-6 11h-1l1-8 5-8 5-4z" fill="#A3ADAD"/>
<path transform="translate(1736,508)" d="m0 0h1l1 11 8 1-1 13h-15l-46-3-1-2h2l2-4 7-2 14-1h15l11-1-2-5z" fill="#232629"/>
<path transform="translate(1587,1093)" d="m0 0v3l-12 12-10 4-11 2h-39l-19-2h-12l-9 3h-4v2l-26 3h-17l-52-4-5-2 2-2 33 3 19 1h17l30-3 12-3v-2l8-1 11 2 12 1h39l12-2 11-6z" fill="#8E9798"/>
<path transform="translate(1579,907)" d="m0 0h1v19l-7 46-5 23-7 22h-2l-5 11h-2l1-6 6-18 6-25 6-35h3v-6l1-2 1-17v-7z" fill="#24272A"/>
<path transform="translate(1919,1093)" d="m0 0 6 1 77 3 40 3 6 1v8l-13-2-19-3-31-2-9-1-2-1-47-3-7-2z" fill="#A2ABAC"/>
<path transform="translate(1942,1104)" d="m0 0h19l31 1 14 1 14 2 24 2 4 1v4l-19-1-20-2-55-2-15-2-4-3z" fill="#212427"/>
<path transform="translate(1436,1066)" d="m0 0 4 4 9 11 9 8 12 7 4 1h13v2l-4 1v3l-4 2v1h-5l-2-2-15-4-10-5-5-4-5-7-1-6z" fill="#30363A"/>
<path transform="translate(1701,630)" d="m0 0h33l1 1v13h-30l-4-3z" fill="#A2ACAC"/>
<path transform="translate(1582,828)" d="m0 0 2 3 1 24 1 1v9l-5 52h-1l-1-8-2 3v15l-1 9-2 8h-2v-8l4-35 4-48z" fill="#30373B"/>
<path transform="translate(1460,697)" d="m0 0h14l4 1-1 6h-2l-1 6-4 2v2l-4 1h-16l-1-4 3-8 5-5z" fill="#A1ABAC"/>
<path transform="translate(1912,1108)" d="m0 0 6 1 9 4v2h2v2l4 1 24 10 6 3 15 5h5l1 1 7 1 1 1 18 1h34l-3 2-2 1h-40l-19-3-26-8-16-7-16-10-7-4-3-1z" fill="#101112"/>
<path transform="translate(1684,541)" d="m0 0 4 1v52l65 2-2 2h-35l-28-1-3-3-1-15z" fill="#2B3034"/>
<path transform="translate(1441,751)" d="m0 0h42l1 4-2 2v-3l-5 2-1 32-1 11-1 1-26-1v-1h24l1-2h-2l-1-4v-37l2-2 2 2 1-2-34-1z" fill="#A2ABAC"/>
<path transform="translate(1587,711)" d="m0 0 2 2 2 4 3 3v10l-4 25-2 17-2 1-4 52h-1v-21l3-32 3-43z" fill="#A4AFAF"/>
<path transform="translate(1469,755)" d="m0 0h1l1 41h2l-1 2-18-2-6-4-2-6v-6l5 4 13 1-2-2-1-5-2-4 4 2 3 3 1 6h2z" fill="#26292C"/>
<path transform="translate(1919,1096)" d="m0 0 4 1 11 8v2l6 2h14v1l-10 1 14 6 22 5 22 2 46 1v2l-23 1h-17l-21-2-18-3-23-7-5-2v-2l-5-1-13-10z" fill="#A3ADAD"/>
<path transform="translate(1872,1071)" d="m0 0 1 2 6 3v2h2v-5l2-2 4 1 7 14v2l-5-1-3-2 5 4 8 6v2l4 1 4 5-5-1-12-6-12-11-5-7-1 4-1-2v-7z" fill="#9EA7A8"/>
<path transform="translate(1683,699)" d="m0 0h18v13l-1 5h-17z" fill="#0E0E0F"/>
<path transform="translate(1476,821)" d="m0 0h11v3l-3 1-48 2-1 9-2 1-1-10h-30l-5-2v-1z" fill="#A4AEAE"/>
<path transform="translate(1372,1112)" d="m0 0 34 3 19 1h17l18-2h8v1l-5 1h8v1l-26 3h-17l-52-4-5-2z" fill="#9EA9A9"/>
<path transform="translate(1593,678)" d="m0 0h11v6h-2l1 6h2l1 2h1v35l-1 4-4-1h2v-34l-7 1-1-1v-7l4-4-2-1v-2h-3z" fill="#2E3539"/>
<path transform="translate(1571,967)" d="m0 0h1v10l-5 22-6 18h-2l-5 11h-2l1-6 6-18 3-4 7-30z" fill="#222528"/>
<path transform="translate(1593,736)" d="m0 0h1l-1 18v21l-1-3h-2v9l-2 23-3 9h-1l1-21 4-37 2-15z" fill="#31383C"/>
<path transform="translate(1973,1108)" d="m0 0 61 1 14 2v4l-19-1-20-2-24-1-10-1z" fill="#141517"/>
<path transform="translate(1601,696)" d="m0 0h3l1 12-1 22-5-1-2-2v-15l1-15z" fill="#0B0B0C"/>
<path transform="translate(1761,537)" d="m0 0h4l1 5 1 31v24l-4 1-9-1v-1l9-1-1-47z" fill="#4D5457"/>
<path transform="translate(2044,1135)" d="m0 0 4 1v6h-7l-3-1h-32l-14-1-1-1-7-1-1-2 23 1 15 1 12-2z" fill="#222528"/>
<path transform="translate(1785,631)" d="m0 0 4 3 1 5v8h-2l-1 3h-17l-1-4 5-3 5-2z" fill="#31383C"/>
<path transform="translate(1859,1106)" d="m0 0 9 1 11 4 3 3-1 1h-18l1 2-2 2-7 1h-8v-2l5-1v-2l8-3-3-2h2z" fill="#2E3438"/>
<path transform="translate(1881,909)" d="m0 0h1l4 55 1 18v75h-2l-4-7 1-3 2 4 1-23v-41l-2-36-2-28z" fill="#A3ADAE"/>
<path transform="translate(1602,677)" d="m0 0h6l1 69-1 8h-2l-1-7v-15l-2-1h3v-38l-2-1 1-2h-2l-1-6h2v-6z" fill="#A1AAAB"/>
<path transform="translate(1584,1108)" d="m0 0h22l-1 3-2-1 2 6 1 4-5-1-4-2-5-1h-3l-1-3h-2l-1 4-2 3v-11z" fill="#A1AAAB"/>
<path transform="translate(1857,1008)" d="m0 0 2 2 7 14 9 10v4l-5 2-1 3h-2l-2-9-3-9-4-3-1-3z" fill="#25282C"/>
<path transform="translate(1872,1076)" d="m0 0 4 4 6 8 8 7 8 4 4 5 5 1v2l2 1h-7l-10-5-12-11-7-10z" fill="#131416"/>
<path transform="translate(1857,640)" d="m0 0h2l1 3 1 13v17l-4 2-1 2v-36z" fill="#CDCECF"/>
<path transform="translate(1582,828)" d="m0 0 2 3 1 24 1 1v9l-1 11h-1l-1-7-3-3v-13z" fill="#31383C"/>
<path transform="translate(1571,944)" d="m0 0 2 1v9l-1 9h2l-1 9-2-4-5 18-3 14-3 3 2-10 7-36z" fill="#30373B"/>
<path transform="translate(1690,595)" d="m0 0h37l26 1-2 2h-35l-25-1z" fill="#32383C"/>
<path transform="translate(1711,544)" d="m0 0h5v26h-5l-1-3z" fill="#495053"/>
<path transform="translate(1472,1104)" d="m0 0 7 2v1l-29 2-12 1-3-1v-4h35z" fill="#9BA5A5"/>
<path transform="translate(1856,632)" d="m0 0 4 2 2 7 1 8v30l-5 1v-2h2v-22l-1-13-3-8z" fill="#292E32"/>
<path transform="translate(2e3 1125)" d="m0 0h53v2l-23 1h-17l-13-1z" fill="#A3ADAD"/>
<path transform="translate(1437,1079)" d="m0 0 4 2 12 12 7 5v1l-8-1-6-4-5-5-4-5z" fill="#0D0E0F"/>
<path transform="translate(1604,1054)" d="m0 0h1v16l-4 2-2 5-4 7-3 7-4 2 2-4 2-5 9-20z" fill="#778082"/>
<path transform="translate(1994,1140)" d="m0 0h50l-3 2-2 1h-40l-5-1z" fill="#151719"/>
<path transform="translate(1596,716)" d="m0 0h1l1 11v3l-4 36-2 2v-14l3-25z" fill="#232629"/>
<path transform="translate(1701,630)" d="m0 0h33v13h-2v-10l-14-1 1 4-2-1v-3h-14v8l-2-2z" fill="#B3BEBD"/>
<path transform="translate(1642,1123)" d="m0 0h13v2h-2l1 3h-9v3h-2l-1 2-3-4v-4z" fill="#31383C"/>
<path transform="translate(1602,1109)" d="m0 0 4 2 1 4 12 3 12 2 15 1v1h-20l-18-3-5-4z" fill="#17191B"/>
<path transform="translate(1966,1132)" d="m0 0 12 4h5l1 1 7 1 3 2v2l-10-1-18-5z" fill="#111214"/>
<path transform="translate(1580,866)" d="m0 0 3 1 1 2v19l-1 6-2-4-1-4z" fill="#24272A"/>
<path transform="translate(1559,1015)" d="m0 0h1l-1 8-6 15-3 7-2-2 1-5 3-9 2-1 3-9z" fill="#121415"/>
<path transform="translate(1590,772)" d="m0 0h2v13l-2 26h-1l-1-7v-12z" fill="#262A2D"/>
<path transform="translate(1883,1071)" d="m0 0 4 1 6 12v3l-4-2-7-8v-5z" fill="#CBCDCD"/>
<path transform="translate(1919,1096)" d="m0 0 4 1 11 8v2l6 2h14v1l-12 1-4 1-15-11z" fill="#9FA8A9"/>
<path transform="translate(1701,558)" d="m0 0 7 1v10h-7l-1-4z" fill="#2B3034"/>
<path transform="translate(2020,1109)" d="m0 0h14l14 2v4l-19-1v-1l8-1-13-1z" fill="#212427"/>
<path transform="translate(1577,937)" d="m0 0 1 4-3 19-1 3h-2l-1-4 1-5v-10h2l1-4h2z" fill="#262A2E"/>
<path transform="translate(1766,573)" d="m0 0h1v24l-4 1-9-1v-1l9-1 1-13 1-1z" fill="#2C3135"/>
<path transform="translate(1857,1008)" d="m0 0 2 2 6 12v5h-2l-5-5-1-3z" fill="#1B1E20"/>
<path transform="translate(1559 1e3)" d="m0 0h1l2 10-2 3-3 4-3 7h-2l1-6z" fill="#272B2E"/>
<path transform="translate(1441,751)" d="m0 0h42l1 4-2 2v-3l-7 2v-3l-34-1z" fill="#A8B4B3"/>
<path transform="translate(1876,1110)" d="m0 0 6 3-1 2h-16l-2-4z" fill="#596164"/>
<path transform="translate(1880,1118)" d="m0 0h2v6l-5 3h-14v-1l6-1 3-2 8-2z" fill="#0E0E0F"/>
<path transform="translate(1872,1076)" d="m0 0 4 4 6 8 6 5-4 2-5-4-6-9z" fill="#282D30"/>
<path transform="translate(1575,920)" d="m0 0h2l-1 16-2 8h-2v-8l2-15z" fill="#31383C"/>
<path transform="translate(1436,1066)" d="m0 0 4 4 2 5 3 5v3l-4-4-5-1z" fill="#262A2D"/>
<path transform="translate(1585,1120)" d="m0 0 5 2 14 6 11 3v1h-7l-16-6-7-4z" fill="#25282B"/>
<path transform="translate(1955,1127)" d="m0 0 6 1 8 3 14 4v1l-7 1-2-2-8-2-4-2-7-3z" fill="#232629"/>
<path transform="translate(1463,700)" d="m0 0h10l1 2-1 2h-13l-1-3z" fill="#D7D7D7"/>
<path transform="translate(1942,1110)" d="m0 0 16 7 4 2-4 1-12-4-5-2z" fill="#A1ABAB"/>
<path transform="translate(1859,1106)" d="m0 0 9 1 8 3v1h-13l-4-1z" fill="#30363A"/>
<path transform="translate(1608,732)" d="m0 0h1v14l-1 8h-2l-1-7v-14h1l1 10z" fill="#ADBCBA"/>
<path transform="translate(1596,716)" d="m0 0h1l1 11v3l-2 17h-1l-1-11z" fill="#26292D"/>
<path transform="translate(1872,1071)" d="m0 0 1 2 6 3 1 5-6-2h-1l-1 3-1-2v-7z" fill="#A8B3B2"/>
<path transform="translate(1441,752)" d="m0 0h36l-2 1-1 4-2-3-2 1v-2h-29z" fill="#2F3639"/>
<path transform="translate(1476,1099)" d="m0 0h6l1 4-4 2v1h-5l-4-4h7l2 1z" fill="#24272A"/>
<path transform="translate(1862,663)" d="m0 0h1v16l-5 1v-2h2l1-13z" fill="#222528"/>
<path transform="translate(1721,630)" d="m0 0h13v13h-2v-10l-12-1z" fill="#C0C6C5"/>
<path transform="translate(1587,1093)" d="m0 0v3l-12 12-4-1 4-2 6-7z" fill="#5C6366"/>
<path transform="translate(1597,654)" d="m0 0h3l-1 3-4 4-2 8h-1v-10l2-4z" fill="#2C3135"/>
<path transform="translate(1551,1028)" d="m0 0 2 1-3 9-3 7-3-2z" fill="#23272A"/>
<path transform="translate(1876,711)" d="m0 0h1l1 13v13h-1l-1-17h-2v-3h2z" fill="#A2ABAC"/>
<path transform="translate(1898,1100)" d="m0 0 9 2 5 5h-5v-2h-5l-1-3-3-1z" fill="#2A3033"/>
<path transform="translate(1757,552)" d="m0 0h4l-1 10-1-2-3-1z" fill="#232629"/>
<path transform="translate(1889,853)" d="m0 0h1l1 16-2 3-1-13z" fill="#31383C"/>
<path transform="translate(1462,790)" d="m0 0 5 2-2 4-9-3 1-2z" fill="#31383C"/>
<path transform="translate(1475,699)" d="m0 0 2 1-3 10-4 3-4-1 5-2 2-6z" fill="#31383C"/>
<path transform="translate(1736,508)" d="m0 0h1v9l-3 2-2-4z" fill="#31373A"/>
<path transform="translate(2026,1110)" d="m0 0 11 1 2 2h-13z" fill="#0B0B0C"/>
<path transform="translate(1590,647)" d="m0 0h1l1 6h9v5l-2-2 1-2-9 2-2-1z" fill="#A8B5B4"/>
<path transform="translate(1641,1124)" d="m0 0 3 3-1 6-4-4v-4z" fill="#A1AAAB"/>
<path transform="translate(1752,585)" d="m0 0 2 1 2 8-4-1-1-7z" fill="#303639"/>
<path transform="translate(1759,566)" d="m0 0 2 1-1 3-2 1-1 3-3 1 1-6z" fill="#24272A"/>
<path transform="translate(1636,1131)" d="m0 0 3 1v2h-15l4-2z" fill="#232629"/>
<path transform="translate(1472,1104)" d="m0 0 7 2v1l-17 1 1-3h7z" fill="#A4AEAF"/>
<path transform="translate(1459,774)" d="m0 0 4 2 3 3-1 4h-3l-1-5z" fill="#2D3236"/>
</svg>