<svg width="59" height="71" viewBox="0 0 59 71" fill="none" xmlns="http://www.w3.org/2000/svg">
<path d="M39.51 43.15C37.62 43.24 30.18 43.58 23.03 47.66C17.83 50.63 16.56 53.01 12.21 53.68C9.6 54.08 6.03999 53.35 3.76999 51.14C3.60999 50.99 3.50999 50.87 3.36999 50.72C2.26999 49.52 -0.190006 46.43 0.119994 42.5C0.159994 42.05 0.349991 39.55 1.99999 37.5C3.94999 35.07 6.40999 35.16 9.11999 31.46C9.33999 31.15 9.45999 31 9.57999 30.8C12.12 26.53 7.35999 22.36 8.61999 17.53C9.61999 13.67 13.85 11.85 14.5 11.56C17.46 10.25 20.19 10.65 21.52 10.86C25.19 11.45 26.92 13.16 32.7 16.9C34.37 17.98 37.33 19.9 40.46 21.58C48.93 26.14 54.96 27.04 57.6 31.22C57.95 31.77 58.85 33.2 58.83 35.13C58.81 37 57.94 38.39 57.61 38.9C57.45 39.16 56.56 40.49 54.87 41.51C51.21 43.71 44.6 42.92 39.53 43.15H39.51Z" fill="url(#paint0_linear_21_1197)"/>
<path d="M40.6101 29.07C40.6101 29.94 40.5801 30.78 40.5401 31.59C40.2501 37 38.9901 41.14 37.1101 43.97C35.1201 47 32.4201 48.53 29.4601 48.53C26.5001 48.53 23.8001 46.99 21.8101 43.97C19.9401 41.14 18.6701 37 18.3801 31.59C18.3401 30.78 18.3101 29.94 18.3101 29.07C18.3101 28.2 18.3501 27.39 18.4501 26.54C18.7701 23.5 19.6301 20.44 20.7301 17.56C24.0101 8.99 29.4701 2.05 29.4701 2.05C29.4701 2.05 34.9301 8.99 38.2101 17.56C39.3101 20.44 40.1701 23.49 40.4901 26.54C40.5801 27.39 40.6301 28.23 40.6301 29.07H40.6101Z" fill="white"/>
<path d="M29.46 49.81C26.02 49.81 22.93 47.99 20.74 44.67C18.65 41.51 17.39 37.01 17.1 31.66C17.05 30.79 17.03 29.92 17.03 29.07C17.03 28.17 17.08 27.27 17.18 26.4C17.48 23.55 18.27 20.42 19.53 17.11C22.84 8.46 28.23 1.56 28.46 1.27C28.94 0.66 29.98 0.66 30.46 1.27C30.69 1.56 36.08 8.46 39.39 17.11C40.65 20.39 41.44 23.52 41.74 26.41C41.84 27.35 41.89 28.22 41.89 29.07C41.89 29.92 41.87 30.79 41.82 31.66C41.53 37.03 40.27 41.53 38.18 44.68C36 47.99 32.9 49.81 29.46 49.81ZM29.46 4.21C27.75 6.61 24.25 11.93 21.91 18.02C20.73 21.12 19.99 24.03 19.71 26.67C19.62 27.46 19.58 28.26 19.58 29.07C19.58 29.88 19.6 30.7 19.65 31.52C19.92 36.42 21.03 40.48 22.87 43.27C24.59 45.88 26.87 47.26 29.46 47.26C32.05 47.26 34.33 45.88 36.05 43.27C37.89 40.5 39 36.44 39.27 31.52C39.31 30.7 39.34 29.87 39.34 29.07C39.34 28.27 39.3 27.53 39.21 26.67C38.93 24 38.19 21.09 37.01 18.02C34.68 11.92 31.17 6.61 29.46 4.2V4.21Z" fill="#192232"/>
<path d="M25.37 59.12C25.37 58.8 25.37 58.49 25.4 58.2C25.51 56.22 25.97 54.71 26.65 53.67C27.38 52.56 28.37 52 29.45 52C30.53 52 31.52 52.56 32.25 53.67C32.94 54.71 33.4 56.22 33.5 58.2C33.52 58.5 33.53 58.8 33.53 59.12C33.53 59.44 33.51 59.74 33.48 60.05C33.36 61.16 33.05 62.28 32.65 63.33C31.45 66.46 29.45 69.01 29.45 69.01C29.45 69.01 27.45 66.47 26.25 63.33C25.85 62.28 25.53 61.16 25.42 60.05C25.39 59.74 25.37 59.43 25.37 59.12Z" fill="white"/>
<path d="M29.46 70.28C29.07 70.28 28.7 70.1 28.46 69.79C28.37 69.68 26.33 67.06 25.07 63.78C24.58 62.52 24.28 61.3 24.16 60.17C24.12 59.8 24.1 59.45 24.1 59.11C24.1 58.77 24.1 58.44 24.13 58.12C24.25 55.98 24.74 54.25 25.6 52.96C26.55 51.52 27.92 50.72 29.46 50.72C31 50.72 32.37 51.52 33.32 52.96C34.18 54.25 34.67 55.99 34.78 58.12C34.8 58.44 34.81 58.77 34.81 59.11C34.81 59.47 34.79 59.83 34.75 60.18C34.63 61.28 34.33 62.5 33.84 63.77C32.59 67.05 30.54 69.67 30.45 69.78C30.21 70.09 29.84 70.27 29.45 70.27L29.46 70.28ZM29.46 53.27C28.79 53.27 28.2 53.64 27.72 54.37C27.12 55.27 26.76 56.61 26.67 58.27C26.65 58.55 26.65 58.83 26.65 59.12C26.65 59.37 26.66 59.63 26.69 59.91C26.79 60.82 27.04 61.81 27.45 62.87C28.03 64.4 28.83 65.79 29.46 66.77C30.09 65.79 30.88 64.4 31.47 62.87C31.88 61.8 32.13 60.81 32.22 59.91C32.25 59.65 32.26 59.38 32.26 59.12C32.26 58.83 32.26 58.54 32.24 58.27C32.15 56.62 31.79 55.27 31.19 54.37C30.71 53.64 30.13 53.27 29.45 53.27H29.46Z" fill="#192232"/>
<path d="M36.78 15.51H22.12C21.42 15.51 20.85 14.94 20.85 14.24C20.85 13.54 21.42 12.97 22.12 12.97H36.78C37.48 12.97 38.05 13.54 38.05 14.24C38.05 14.94 37.48 15.51 36.78 15.51Z" fill="#192232"/>
<path d="M29.4601 30.77C32.4534 30.77 34.8801 28.3434 34.8801 25.35C34.8801 22.3566 32.4534 19.93 29.4601 19.93C26.4667 19.93 24.04 22.3566 24.04 25.35C24.04 28.3434 26.4667 30.77 29.4601 30.77Z" fill="white"/>
<path d="M29.46 32.04C25.77 32.04 22.77 29.04 22.77 25.35C22.77 21.66 25.77 18.66 29.46 18.66C33.15 18.66 36.15 21.66 36.15 25.35C36.15 29.04 33.15 32.04 29.46 32.04ZM29.46 21.21C27.18 21.21 25.32 23.07 25.32 25.35C25.32 27.63 27.18 29.49 29.46 29.49C31.74 29.49 33.6 27.63 33.6 25.35C33.6 23.07 31.74 21.21 29.46 21.21Z" fill="#192232"/>
<path d="M18.66 54.96C18.66 55.55 18.6901 56.14 18.7401 56.72C14.7101 52.58 12.29 47.26 12.29 41.48C12.29 35.7 14.59 30.64 18.45 26.54C18.35 27.39 18.31 28.23 18.31 29.07C18.31 35.73 19.65 40.71 21.81 43.97C19.8 47.26 18.67 51 18.67 54.96H18.66Z" fill="white"/>
<path d="M18.74 58C18.4 58 18.07 57.87 17.83 57.61C13.44 53.09 11.02 47.36 11.02 41.48C11.02 35.6 13.33 30.13 17.52 25.67C17.9 25.27 18.49 25.16 18.98 25.39C19.48 25.62 19.77 26.14 19.71 26.69C19.62 27.47 19.58 28.27 19.58 29.08C19.58 35.11 20.72 40.02 22.87 43.28C23.14 43.69 23.15 44.22 22.89 44.65C20.93 47.86 19.93 51.34 19.93 54.98C19.93 55.54 19.95 56.09 20 56.63C20.05 57.17 19.75 57.68 19.26 57.9C19.09 57.98 18.91 58.02 18.73 58.02L18.74 58ZM17.05 30.32C14.76 33.7 13.57 37.51 13.57 41.48C13.57 45.45 14.93 49.7 17.46 53.22C17.72 50.02 18.69 46.87 20.32 43.99C18.32 40.6 17.2 35.91 17.05 30.31V30.32Z" fill="#192232"/>
<path d="M40.17 56.72C40.22 56.14 40.25 55.55 40.25 54.96C40.25 51 39.12 47.26 37.11 43.97C38.99 41.14 40.25 37 40.54 31.59C40.58 30.78 40.61 29.94 40.61 29.07C40.61 28.2 40.56 27.39 40.47 26.54C44.33 30.64 46.6301 35.83 46.6301 41.48C46.6301 47.13 44.21 52.58 40.18 56.72H40.17Z" fill="white"/>
<path d="M40.17 58C39.99 58 39.81 57.96 39.64 57.88C39.15 57.66 38.85 57.15 38.9 56.61C38.95 56.08 38.9701 55.52 38.9701 54.96C38.9701 51.32 37.9801 47.84 36.0201 44.63C35.7601 44.21 35.7701 43.67 36.0501 43.26C37.8901 40.49 39.0001 36.43 39.2701 31.52C39.3101 30.7 39.34 29.87 39.34 29.07C39.34 28.27 39.3001 27.53 39.2101 26.67C39.1501 26.13 39.45 25.61 39.95 25.38C40.45 25.15 41.0301 25.27 41.4101 25.67C45.6001 30.13 47.9101 35.74 47.9101 41.48C47.9101 47.22 45.4901 53.1 41.1001 57.61C40.8501 57.86 40.5201 58 40.1901 58H40.17ZM38.6001 44C40.2201 46.87 41.19 50.02 41.45 53.23C43.98 49.71 45.34 45.64 45.34 41.49C45.34 37.34 44.1501 33.71 41.8601 30.33C41.8501 30.78 41.83 31.23 41.81 31.68C41.54 36.67 40.4301 40.91 38.6001 44.01V44Z" fill="#192232"/>
<defs>
<linearGradient id="paint0_linear_21_1197" x1="0.0999936" y1="32.19" x2="58.81" y2="32.19" gradientUnits="userSpaceOnUse">
<stop stop-color="#00BDB1"/>
<stop offset="0.36" stop-color="#00BAAF"/>
<stop offset="0.53" stop-color="#00B3AC"/>
<stop offset="0.67" stop-color="#00A5A5"/>
<stop offset="0.79" stop-color="#00939C"/>
<stop offset="0.89" stop-color="#007A8F"/>
<stop offset="0.98" stop-color="#005D81"/>
<stop offset="1" stop-color="#00577E"/>
</linearGradient>
</defs>
</svg>
