<svg width="27" height="36" viewBox="0 0 27 36" fill="none" xmlns="http://www.w3.org/2000/svg">
<path d="M14.4 15.3C14.4 15.7959 13.9968 16.2 13.5 16.2C13.0032 16.2 12.6 15.7959 12.6 15.3C12.6 14.8041 13.0032 14.4 13.5 14.4C13.9968 14.4 14.4 14.8041 14.4 15.3ZM13.5 21.6C13.0032 21.6 12.6 22.0041 12.6 22.5C12.6 22.9959 13.0032 23.4 13.5 23.4C13.9968 23.4 14.4 22.9959 14.4 22.5C14.4 22.0041 13.9968 21.6 13.5 21.6ZM9 9H18V3.6H9V9ZM26.1 0H23.4V27.9C23.4 28.3968 22.9977 28.8 22.5 28.8H4.5C4.0023 28.8 3.6 28.3968 3.6 27.9V0H0.9C0.4023 0 0 0.4032 0 0.9V35.1C0 35.5968 0.4023 36 0.9 36H26.1C26.5977 36 27 35.5968 27 35.1V0.9C27 0.4032 26.5977 0 26.1 0ZM21.6 27H5.4V0H21.6V27ZM16.2 22.5C16.2 21.0114 14.9886 19.8 13.5 19.8C12.0114 19.8 10.8 21.0114 10.8 22.5C10.8 23.9886 12.0114 25.2 13.5 25.2C14.9886 25.2 16.2 23.9886 16.2 22.5ZM16.2 15.3C16.2 13.8114 14.9886 12.6 13.5 12.6C12.0114 12.6 10.8 13.8114 10.8 15.3C10.8 16.7886 12.0114 18 13.5 18C14.9886 18 16.2 16.7886 16.2 15.3ZM19.8 2.7C19.8 2.2032 19.3977 1.8 18.9 1.8H8.1C7.6023 1.8 7.2 2.2032 7.2 2.7V9.9C7.2 10.3968 7.6023 10.8 8.1 10.8H18.9C19.3977 10.8 19.8 10.3968 19.8 9.9V2.7Z" fill="#6182FE" fill-opacity="0.3"/>
<path d="M0.900391 0.150391H3.4502V27.9004C3.45041 28.4798 3.91949 28.9502 4.5 28.9502H22.5C23.0805 28.9502 23.5496 28.4798 23.5498 27.9004V0.150391H26.0996C26.5144 0.150391 26.8496 0.486336 26.8496 0.900391V35.0996C26.8496 35.5137 26.5144 35.8496 26.0996 35.8496H0.900391C0.485631 35.8496 0.150391 35.5137 0.150391 35.0996V0.900391C0.150391 0.486336 0.485631 0.150391 0.900391 0.150391ZM21.4502 0.150391V26.8496H5.5498V0.150391H21.4502ZM13.5 19.6504C11.9286 19.6504 10.6504 20.9286 10.6504 22.5C10.6504 24.0714 11.9286 25.3496 13.5 25.3496C15.0714 25.3496 16.3496 24.0714 16.3496 22.5C16.3496 20.9286 15.0714 19.6504 13.5 19.6504ZM13.5 21.75C13.9139 21.75 14.25 22.0868 14.25 22.5C14.25 22.9132 13.9139 23.25 13.5 23.25C13.0861 23.25 12.75 22.9132 12.75 22.5C12.75 22.0868 13.0861 21.75 13.5 21.75ZM13.5 12.4502C11.9286 12.4502 10.6505 13.7285 10.6504 15.2998C10.6504 16.8712 11.9286 18.1504 13.5 18.1504C15.0714 18.1504 16.3496 16.8712 16.3496 15.2998C16.3495 13.7285 15.0714 12.4502 13.5 12.4502ZM13.5 14.5498C13.9138 14.5498 14.2499 14.8867 14.25 15.2998C14.25 15.713 13.9139 16.0498 13.5 16.0498C13.0861 16.0498 12.75 15.713 12.75 15.2998C12.7501 14.8867 13.0862 14.5498 13.5 14.5498ZM8.09961 1.65039C7.51915 1.6506 7.0498 2.12078 7.0498 2.7002V9.90039C7.05002 10.4796 7.51928 10.95 8.09961 10.9502H18.9004C19.4807 10.95 19.95 10.4796 19.9502 9.90039V2.7002C19.9502 2.12078 19.4809 1.6506 18.9004 1.65039H8.09961ZM17.8496 3.75V8.84961H9.15039V3.75H17.8496Z" stroke="white" stroke-opacity="0.6" stroke-width="0.3"/>
</svg>
