<svg width="18" height="34" viewBox="0 0 18 34" fill="none" xmlns="http://www.w3.org/2000/svg">
<path d="M3.99373 0.332809V2.71579H0.332811C0.148855 2.71579 0 2.86464 0 3.0486V33.6672C-3.77778e-08 33.8511 0.148855 34 0.332811 34H17.1931C17.377 34 17.5259 33.8511 17.5259 33.6672V3.0486C17.5259 2.86464 17.377 2.71579 17.1931 2.71579H13.5321V0.332809C13.5321 0.148853 13.3833 0 13.1993 0H4.32654C4.14258 0 3.99373 0.148853 3.99373 0.332809ZM12.8665 0.665623V3.0486C12.8665 3.23255 13.0154 3.38141 13.1993 3.38141H16.8602V33.3344H0.665622V3.38141H4.32654C4.5105 3.38141 4.65935 3.23255 4.65935 3.0486V0.665623H12.8665Z" fill="#6182FE" fill-opacity="0.3"/>
<path d="M0.150391 33.667V3.04883C0.150391 2.94772 0.231894 2.86621 0.333008 2.86621H4.14355V0.333008C4.14355 0.232019 4.22523 0.15059 4.32617 0.150391H13.1992C13.3003 0.150391 13.3818 0.231896 13.3818 0.333008V2.86621H17.1934C17.2943 2.86637 17.376 2.94782 17.376 3.04883V33.667C17.376 33.768 17.2943 33.8494 17.1934 33.8496H0.333008C0.231894 33.8496 0.150391 33.7681 0.150391 33.667ZM17.0098 33.4844V3.23145H13.1992C13.0982 3.23139 13.0167 3.1498 13.0166 3.04883V0.515625H4.50977V3.04883C4.50964 3.14984 4.42721 3.23145 4.32617 3.23145H0.515625V33.4844H17.0098Z" stroke="white" stroke-opacity="0.6" stroke-width="0.3"/>
<path d="M1.66455 25.7069V32.3354H15.8623V25.7069H1.66455Z" fill="#6182FE" fill-opacity="0.3"/>
<path d="M1.81494 25.8569H15.7124V32.1851H1.81494V25.8569Z" stroke="white" stroke-opacity="0.6" stroke-width="0.3"/>
<path d="M1.66455 18.5941V25.2227H15.8623V18.5941H1.66455Z" fill="#6182FE" fill-opacity="0.3"/>
<path d="M1.81494 18.7441H15.7124V25.0723H1.81494V18.7441Z" stroke="white" stroke-opacity="0.6" stroke-width="0.3"/>
<path d="M1.66455 11.4789V18.1074H15.8623V11.4789H1.66455Z" fill="#6182FE" fill-opacity="0.3"/>
<path d="M1.81494 11.6289H15.7124V17.957H1.81494V11.6289Z" stroke="white" stroke-opacity="0.6" stroke-width="0.3"/>
<path d="M1.66455 4.36612V10.9946H15.8623V4.36612H1.66455Z" fill="#6182FE" fill-opacity="0.3"/>
<path d="M1.81494 4.51611H15.7124V10.8442H1.81494V4.51611Z" stroke="white" stroke-opacity="0.6" stroke-width="0.3"/>
</svg>
