<svg width="50" height="50" viewBox="0 0 50 50" fill="none" xmlns="http://www.w3.org/2000/svg">
<path d="M48.626 12.7174L45.7795 12.0721C45.5566 11.361 45.2702 10.6704 44.9249 10.0099L46.4807 7.54126C46.8177 7.00778 46.7762 6.40403 46.3757 6.00429L43.6335 3.26209C43.2481 2.87293 42.624 2.82533 42.095 3.15554L39.6256 4.71291C38.9652 4.36758 38.2753 4.0812 37.5634 3.85828L36.9189 1.00802C36.7783 0.395198 36.3227 0 35.7582 0H31.8765C31.3121 0 30.8572 0.395198 30.7159 1.01029L30.0713 3.85904C29.3618 4.08195 28.6719 4.36834 28.0122 4.71367L25.542 3.1563C25.0221 2.82684 24.3897 2.87293 24.0035 3.26057L21.2613 6.00278C20.8593 6.40251 20.8185 7.00702 21.1548 7.5405L22.7122 10.0122C22.3646 10.6734 22.0782 11.3633 21.8575 12.0728L19.0156 12.7181C18.3982 12.8541 18 13.309 18 13.878V17.759C18 18.3234 18.396 18.7791 19.011 18.9204L21.8568 19.565C22.0797 20.2768 22.3661 20.9674 22.7129 21.6271L21.154 24.0988C20.8208 24.6323 20.8624 25.2345 21.2606 25.6327L24.0043 28.3764C24.3912 28.7641 25.0199 28.8094 25.5413 28.4815L28.0122 26.9241C28.6711 27.2702 29.361 27.5566 30.0721 27.7802L30.7166 30.6267C30.8564 31.2411 31.3121 31.6393 31.8773 31.6393H35.759C36.325 31.6393 36.7806 31.2418 36.9204 30.626L37.5642 27.7802C38.2768 27.5566 38.9674 27.2702 39.6263 26.9241L42.0988 28.4815C42.6224 28.8079 43.2466 28.7603 43.632 28.3742L46.3764 25.6289C46.7732 25.2307 46.8147 24.6292 46.48 24.0935L44.9226 21.6248C45.2679 20.9667 45.5543 20.2753 45.7787 19.5627L48.6252 18.9181C49.2403 18.7776 49.6378 18.3219 49.6378 17.7567V13.8758C49.6378 13.306 49.238 12.8504 48.626 12.7174ZM33.82 23.594C29.531 23.594 26.0415 20.106 26.0415 15.8178C26.0415 11.5288 29.531 8.03922 33.82 8.03922C38.1075 8.03922 41.5963 11.5288 41.5963 15.8178C41.5963 20.106 38.1075 23.594 33.82 23.594Z" fill="#6182FE" fill-opacity="0.3"/>
<path d="M31.877 0.150391H35.7578C36.1813 0.150391 36.5428 0.407394 36.7119 0.84375L36.7725 1.04199L37.417 3.8916L37.4365 3.97559L37.5186 4.00098C38.2216 4.22116 38.9032 4.50456 39.5557 4.8457L39.6328 4.88574L39.7061 4.83984L42.1738 3.28223L42.1748 3.2832C42.6543 2.9839 43.1992 3.0358 43.5273 3.36719V3.36816L46.2695 6.11035C46.6128 6.45293 46.6591 6.9772 46.3535 7.46094L44.7979 9.92969L44.752 10.0029L44.792 10.0791C45.1332 10.7317 45.4165 11.4147 45.6367 12.1172L45.6621 12.1992L45.7461 12.2188L48.5928 12.8633L48.5938 12.8643C49.1472 12.9845 49.4873 13.3868 49.4873 13.876V17.7568C49.4872 18.2411 49.1499 18.6439 48.5918 18.7715L45.7461 19.416L45.6611 19.4355L45.6357 19.5176C45.414 20.2216 45.131 20.9047 44.79 21.5547L44.75 21.6318L44.7959 21.7051L46.3525 24.1729C46.6564 24.6592 46.6097 25.1815 46.2705 25.5225L43.5264 28.2686H43.5254C43.1968 28.5974 42.6515 28.6498 42.1777 28.3545H42.1787L39.7061 26.7969L39.6328 26.751L39.5566 26.791C38.9059 27.1328 38.2235 27.4157 37.5195 27.6367L37.4365 27.6631L37.418 27.7471L36.7744 30.5928C36.6476 31.1515 36.2439 31.4893 35.7588 31.4893H31.877C31.393 31.4891 30.9902 31.1508 30.8633 30.5938L30.2188 27.7471L30.1992 27.6631L30.1172 27.6367L29.5938 27.46C29.0753 27.2711 28.5701 27.0474 28.082 26.791L28.0059 26.751L27.9326 26.7969L25.4609 28.3545C24.9893 28.6509 24.4401 28.6009 24.1104 28.2705L21.3662 25.5264C21.0681 25.2279 20.9956 24.7903 21.1846 24.3613L21.2812 24.1787L22.8398 21.707L22.8857 21.6338L22.8457 21.5576C22.5032 20.9061 22.2202 20.2236 22 19.5205L21.9736 19.4375L21.8896 19.4189L19.0439 18.7744H19.0449C18.4868 18.6462 18.1504 18.2425 18.1504 17.7588V13.8779C18.1504 13.3899 18.4885 12.9875 19.0479 12.8643H19.0488L21.8906 12.2188L21.9746 12.2002L22.001 12.1172C22.2189 11.4166 22.5014 10.7351 22.8447 10.082L22.8848 10.0059L22.8389 9.93262L21.2812 7.46094C20.9762 6.97704 21.0229 6.45183 21.3672 6.10938V6.1084L24.1094 3.36621C24.418 3.0564 24.9239 2.99269 25.373 3.23145L25.4619 3.2832L27.9326 4.84082L28.0049 4.88672L28.082 4.84668C28.7338 4.50551 29.4152 4.22217 30.1162 4.00195L30.1982 3.97656L30.2178 3.89258L30.8623 1.04395C30.9905 0.485858 31.3932 0.150391 31.877 0.150391ZM33.8203 7.88965C29.4486 7.88965 25.8918 11.4457 25.8916 15.8174C25.8916 20.1885 29.4485 23.7441 33.8203 23.7441C38.1905 23.744 41.7461 20.1884 41.7461 15.8174C41.7459 11.4458 38.1904 7.88981 33.8203 7.88965Z" stroke="white" stroke-opacity="0.6" stroke-width="0.3"/>
<path d="M19.9402 39.2557C19.9855 38.8129 19.9984 38.3693 19.9772 37.9295L21.5519 36.8792C22.0076 36.5807 22.1935 36.0669 22.0151 35.5999L21.0494 33.0655C20.8681 32.6091 20.3852 32.3522 19.8616 32.4285L17.9823 32.696C17.702 32.3529 17.3967 32.0295 17.0695 31.731L17.4443 29.8669C17.5478 29.3311 17.3204 28.852 16.8609 28.6427L14.4021 27.544C13.9525 27.3385 13.4069 27.4995 13.0956 27.9256L11.9553 29.446C11.5118 29.4006 11.0697 29.3878 10.6284 29.4067L9.57887 27.8319C9.28417 27.3831 8.77109 27.1912 8.29806 27.3702L5.7833 28.3299C5.31405 28.5045 5.05034 28.985 5.12741 29.5253L5.39566 31.4053C5.05336 31.6834 4.7307 31.9887 4.43147 32.3174L2.56656 31.9426C2.0429 31.8391 1.53965 32.0816 1.34318 32.5252L0.234661 34.9954C0.038195 35.451 0.188567 35.9565 0.624569 36.2905L2.14264 37.43C2.09731 37.8698 2.08522 38.3134 2.10562 38.7554L0.520292 39.8126C0.0691761 40.1171 -0.109154 40.6158 0.0669093 41.0881L1.02884 43.6028C1.20263 44.0713 1.7142 44.332 2.22425 44.258L4.10201 43.9897C4.3816 44.3328 4.68612 44.6562 5.01558 44.9547L4.64305 46.809C4.53046 47.3455 4.76471 47.8412 5.22111 48.043L7.68902 49.1485C8.13636 49.3464 8.67513 49.1832 8.98645 48.7601L10.1267 47.2405C10.5657 47.2866 11.0085 47.2972 11.4544 47.279L12.5092 48.8643C12.7321 49.1946 13.0646 49.3842 13.4228 49.3842C13.549 49.3842 13.6737 49.36 13.7847 49.3162L16.3018 48.3558C16.7703 48.1813 17.0325 47.7007 16.9554 47.1611L16.6864 45.2826C17.0302 45.0023 17.3521 44.6978 17.6513 44.3691L19.5193 44.7446C20.0497 44.8466 20.5364 44.6154 20.7427 44.1628L21.8421 41.7032C22.0484 41.249 21.8958 40.7246 21.4605 40.3959L19.9402 39.2557ZM12.7253 42.7505C12.1836 42.9568 11.6168 43.0618 11.0418 43.0618C9.09753 43.0618 7.32631 41.8415 6.63491 40.0241C6.1853 38.8484 6.22157 37.5668 6.73616 36.4167C7.25075 35.2667 8.18245 34.3856 9.35973 33.9352C9.90001 33.7297 10.4652 33.6247 11.0403 33.6247C12.9838 33.6247 14.7557 34.8443 15.4494 36.66C16.3751 39.0909 15.1525 41.8233 12.7253 42.7505Z" fill="#6182FE" fill-opacity="0.3"/>
<path d="M8.35156 27.5107C8.75038 27.3599 9.19193 27.5165 9.45312 27.9141L9.4541 27.915L10.5039 29.4902L10.5508 29.5605L10.6348 29.5566C11.0688 29.5381 11.5041 29.5501 11.9404 29.5947L12.0244 29.6035L12.0752 29.5361L13.2158 28.0156L13.2168 28.0137C13.4907 27.639 13.9619 27.5079 14.3398 27.6807H14.3408L16.7988 28.7783V28.7793C17.1875 28.9564 17.3881 29.3617 17.2969 29.8369L16.9229 31.7012L16.9053 31.7842L16.9688 31.8418C17.2904 32.1352 17.5904 32.4535 17.8662 32.791L17.9199 32.8564L18.0039 32.8447L19.8828 32.5771C20.2881 32.5181 20.6535 32.6845 20.8408 32.9844L20.9102 33.1211L21.875 35.6533C22.0251 36.0464 21.8739 36.4891 21.4697 36.7539L21.4688 36.7549L19.8936 37.8047L19.8232 37.8516L19.8271 37.9365C19.8479 38.3685 19.8356 38.8047 19.791 39.2402L19.7822 39.3252L19.8506 39.376L21.3701 40.5156C21.7084 40.7711 21.8445 41.1486 21.7568 41.4951L21.7051 41.6416L20.6055 44.1016C20.431 44.483 20.0181 44.688 19.5479 44.5977H19.5488L17.6807 44.2217L17.5977 44.2051L17.54 44.2686C17.246 44.5915 16.9296 44.8905 16.5918 45.166L16.5264 45.2197L16.5381 45.3037L16.8066 47.1826C16.875 47.6615 16.6429 48.0681 16.249 48.2148L16.248 48.2158L13.7314 49.1758L13.7295 49.1768C13.6361 49.2136 13.5302 49.2344 13.4229 49.2344C13.1209 49.2344 12.8316 49.0748 12.6328 48.7803L11.5791 47.1963L11.5322 47.126L11.4482 47.1289C11.0089 47.1468 10.5735 47.1361 10.1426 47.0908L10.0576 47.082L10.0068 47.1504L8.86621 48.6699L8.86523 48.6709C8.62503 48.9974 8.23902 49.1402 7.89453 49.0596L7.75 49.0117L5.28223 47.9062C4.89861 47.7367 4.69012 47.316 4.79004 46.8398V46.8389L5.16309 44.9844L5.17969 44.9004L5.11621 44.8438C4.79262 44.5506 4.49381 44.232 4.21875 43.8945L4.16504 43.8291L4.08105 43.8408L2.20312 44.1094C1.75186 44.1749 1.31544 43.9427 1.16992 43.5508L1.16895 43.5488L0.207031 41.0342H0.206055C0.0581644 40.6351 0.204115 40.2075 0.603516 39.9375L2.18848 38.8799L2.25977 38.833L2.25586 38.748C2.23582 38.3135 2.24744 37.8774 2.29199 37.4453L2.30078 37.3613L2.23242 37.3105L0.714844 36.1709C0.3266 35.873 0.206553 35.4386 0.37207 35.0547L0.371094 35.0537L1.48047 32.5869V32.5859C1.62462 32.2606 1.97119 32.0542 2.36621 32.0693L2.53711 32.0898L4.40234 32.4648L4.48535 32.4814L4.54199 32.418C4.83622 32.0948 5.15383 31.7948 5.49023 31.5215L5.55664 31.4678L5.54395 31.3838L5.27637 29.5039C5.20805 29.0245 5.44101 28.6176 5.83594 28.4707L5.83691 28.4697L8.35156 27.5107ZM11.04 33.4746C10.4467 33.4746 9.86357 33.5831 9.30664 33.7949H9.30566C8.0915 34.2595 7.13041 35.1693 6.59961 36.3555C6.10201 37.4676 6.03802 38.6995 6.41406 39.8486L6.49512 40.0781C7.20887 41.9533 9.03576 43.2119 11.042 43.2119C11.6353 43.2119 12.2198 43.1032 12.7783 42.8906H12.7793C15.2836 41.9337 16.5449 39.1145 15.5898 36.6064C14.874 34.7325 13.0457 33.4746 11.04 33.4746Z" stroke="white" stroke-opacity="0.6" stroke-width="0.3"/>
</svg>
