<svg width="377" height="285" viewBox="0 0 377 285" fill="none" xmlns="http://www.w3.org/2000/svg">
<g clip-path="url(#clip0_139_1310)">
<path d="M318 -50H341V-26.8333M318 -50V-26.8333M318 -50H295M318 -26.8333H341M318 -26.8333H295M318 -26.8333V-3.66667M341 -26.8333V-3.66667M295 -50V-26.8333M295 -50H272M295 -26.8333H272M295 -26.8333V-3.66667M272 -50V-26.8333M272 -50H249M272 -26.8333H249M272 -26.8333V-3.66667M249 -50V-26.8333M249 -50H226M249 -26.8333H226M249 -26.8333V-3.66667M226 -50V-26.8333M226 -50H203M226 -26.8333H203M226 -26.8333V-3.66667M203 -50V-26.8333M203 -50H180M203 -26.8333H180M203 -26.8333V-3.66667M180 -50V-26.8333M180 -50H157M180 -26.8333H157M180 -26.8333V-3.66667M157 -50V-26.8333M157 -50H134M157 -26.8333H134M157 -26.8333V-3.66667M134 -50V-26.8333M134 -50H111M134 -26.8333H111M134 -26.8333V-3.66667M111 -50V-26.8333M111 -50H88M111 -26.8333H88M111 -26.8333V-3.66667M88 -50V-26.8333M88 -50H65M88 -26.8333H65M88 -26.8333V-3.66667M65 -50V-26.8333M65 -50H42M65 -26.8333H42M65 -26.8333V-3.66667M42 -50V-26.8333M42 -50H19M42 -26.8333H19M42 -26.8333V-3.66667M19 -50V-26.8333M19 -50H-4.00001M19 -26.8333H-4.00001M19 -26.8333V-3.66667M-4.00001 -50V-26.8333M-4.00001 -50H-27M-4.00001 -26.8333H-27M-4.00001 -26.8333V-3.66667M-27 -50V-26.8333M-27 -50H-50V-26.8333M-27 -26.8333H-50M-27 -26.8333V-3.66667M-50 -26.8333V-3.66667M318 -3.66667H341M318 -3.66667H295M318 -3.66667V19.5M341 -3.66667V19.5M295 -3.66667H272M295 -3.66667V19.5M272 -3.66667H249M272 -3.66667V19.5M249 -3.66667H226M249 -3.66667V19.5M226 -3.66667H203M226 -3.66667V19.5M203 -3.66667H180M203 -3.66667V19.5M180 -3.66667H157M180 -3.66667V19.5M157 -3.66667H134M157 -3.66667V19.5M134 -3.66667H111M134 -3.66667V19.5M111 -3.66667H88M111 -3.66667V19.5M88 -3.66667H65M88 -3.66667V19.5M65 -3.66667H42M65 -3.66667V19.5M42 -3.66667H19M42 -3.66667V19.5M19 -3.66667H-4.00001M19 -3.66667V19.5M-4.00001 -3.66667H-27M-4.00001 -3.66667V19.5M-27 -3.66667H-50M-27 -3.66667V19.5M-50 -3.66667V19.5M318 19.5H341M318 19.5H295M318 19.5V42.6667M341 19.5V42.6667M295 19.5H272M295 19.5V42.6667M272 19.5H249M272 19.5V42.6667M249 19.5H226M249 19.5V42.6667M226 19.5H203M226 19.5V42.6667M203 19.5H180M203 19.5V42.6667M180 19.5H157M180 19.5V42.6667M157 19.5H134M157 19.5V42.6667M134 19.5H111M134 19.5V42.6667M111 19.5H88M111 19.5V42.6667M88 19.5H65M88 19.5V42.6667M65 19.5H42M65 19.5V42.6667M42 19.5H19M42 19.5V42.6667M19 19.5H-4.00001M19 19.5V42.6667M-4.00001 19.5H-27M-4.00001 19.5V42.6667M-27 19.5H-50M-27 19.5V42.6667M-50 19.5V42.6667M318 42.6667H341M318 42.6667H295M318 42.6667V65.8333M341 42.6667V65.8333M295 42.6667H272M295 42.6667V65.8333M272 42.6667H249M272 42.6667V65.8333M249 42.6667H226M249 42.6667V65.8333M226 42.6667H203M226 42.6667V65.8333M203 42.6667H180M203 42.6667V65.8333M180 42.6667H157M180 42.6667V65.8333M157 42.6667H134M157 42.6667V65.8333M134 42.6667H111M134 42.6667V65.8333M111 42.6667H88M111 42.6667V65.8333M88 42.6667H65M88 42.6667V65.8333M65 42.6667H42M65 42.6667V65.8333M42 42.6667H19M42 42.6667V65.8333M19 42.6667H-4.00001M19 42.6667V65.8333M-4.00001 42.6667H-27M-4.00001 42.6667V65.8333M-27 42.6667H-50M-27 42.6667V65.8333M-50 42.6667V65.8333M318 65.8333H341M318 65.8333H295M318 65.8333V89M341 65.8333V89M295 65.8333H272M295 65.8333V89M272 65.8333H249M272 65.8333V89M249 65.8333H226M249 65.8333V89M226 65.8333H203M226 65.8333V89M203 65.8333H180M203 65.8333V89M180 65.8333H157M180 65.8333V89M157 65.8333H134M157 65.8333V89M134 65.8333H111M134 65.8333V89M111 65.8333H88M111 65.8333V89M88 65.8333H65M88 65.8333V89M65 65.8333H42M65 65.8333V89M42 65.8333H19M42 65.8333V89M19 65.8333H-4.00001M19 65.8333V89M-4.00001 65.8333H-27M-4.00001 65.8333V89M-27 65.8333H-50M-27 65.8333V89M-50 65.8333V89M318 89H341M318 89H295M318 89V112.167M341 89V112.167M295 89H272M295 89V112.167M272 89H249M272 89V112.167M249 89H226M249 89V112.167M226 89H203M226 89V112.167M203 89H180M203 89V112.167M180 89H157M180 89V112.167M157 89H134M157 89V112.167M134 89H111M134 89V112.167M111 89H88M111 89V112.167M88 89H65M88 89V112.167M65 89H42M65 89V112.167M42 89H19M42 89V112.167M19 89H-4.00001M19 89V112.167M-4.00001 89H-27M-4.00001 89V112.167M-27 89H-50M-27 89V112.167M-50 89V112.167M318 112.167H341M318 112.167H295M318 112.167V135.333M341 112.167V135.333M295 112.167H272M295 112.167V135.333M272 112.167H249M272 112.167V135.333M249 112.167H226M249 112.167V135.333M226 112.167H203M226 112.167V135.333M203 112.167H180M203 112.167V135.333M180 112.167H157M180 112.167V135.333M157 112.167H134M157 112.167V135.333M134 112.167H111M134 112.167V135.333M111 112.167H88M111 112.167V135.333M88 112.167H65M88 112.167V135.333M65 112.167H42M65 112.167V135.333M42 112.167H19M42 112.167V135.333M19 112.167H-4.00001M19 112.167V135.333M-4.00001 112.167H-27M-4.00001 112.167V135.333M-27 112.167H-50M-27 112.167V135.333M-50 112.167V135.333M318 135.333H341M318 135.333H295M318 135.333V158.5M341 135.333V158.5M295 135.333H272M295 135.333V158.5M272 135.333H249M272 135.333V158.5M249 135.333H226M249 135.333V158.5M226 135.333H203M226 135.333V158.5M203 135.333H180M203 135.333V158.5M180 135.333H157M180 135.333V158.5M157 135.333H134M157 135.333V158.5M134 135.333H111M134 135.333V158.5M111 135.333H88M111 135.333V158.5M88 135.333H65M88 135.333V158.5M65 135.333H42M65 135.333V158.5M42 135.333H19M42 135.333V158.5M19 135.333H-4.00001M19 135.333V158.5M-4.00001 135.333H-27M-4.00001 135.333V158.5M-27 135.333H-50M-27 135.333V158.5M-50 135.333V158.5M318 158.5H341M318 158.5H295M318 158.5V181.667M341 158.5V181.667M295 158.5H272M295 158.5V181.667M272 158.5H249M272 158.5V181.667M249 158.5H226M249 158.5V181.667M226 158.5H203M226 158.5V181.667M203 158.5H180M203 158.5V181.667M180 158.5H157M180 158.5V181.667M157 158.5H134M157 158.5V181.667M134 158.5H111M134 158.5V181.667M111 158.5H88M111 158.5V181.667M88 158.5H65M88 158.5V181.667M65 158.5H42M65 158.5V181.667M42 158.5H19M42 158.5V181.667M19 158.5H-4.00001M19 158.5V181.667M-4.00001 158.5H-27M-4.00001 158.5V181.667M-27 158.5H-50M-27 158.5V181.667M-50 158.5V181.667M318 181.667H341M318 181.667H295M318 181.667V204.833M341 181.667V204.833M295 181.667H272M295 181.667V204.833M272 181.667H249M272 181.667V204.833M249 181.667H226M249 181.667V204.833M226 181.667H203M226 181.667V204.833M203 181.667H180M203 181.667V204.833M180 181.667H157M180 181.667V204.833M157 181.667H134M157 181.667V204.833M134 181.667H111M134 181.667V204.833M111 181.667H88M111 181.667V204.833M88 181.667H65M88 181.667V204.833M65 181.667H42M65 181.667V204.833M42 181.667H19M42 181.667V204.833M19 181.667H-4.00001M19 181.667V204.833M-4.00001 181.667H-27M-4.00001 181.667V204.833M-27 181.667H-50M-27 181.667V204.833M-50 181.667V204.833M318 204.833H341M318 204.833H295M318 204.833V228M341 204.833V228H318M295 204.833H272M295 204.833V228M272 204.833H249M272 204.833V228M249 204.833H226M249 204.833V228M226 204.833H203M226 204.833V228M203 204.833H180M203 204.833V228M180 204.833H157M180 204.833V228M157 204.833H134M157 204.833V228M134 204.833H111M134 204.833V228M111 204.833H88M111 204.833V228M88 204.833H65M88 204.833V228M65 204.833H42M65 204.833V228M42 204.833H19M42 204.833V228M19 204.833H-4.00001M19 204.833V228M-4.00001 204.833H-27M-4.00001 204.833V228M-27 204.833H-50M-27 204.833V228M-50 204.833V228H-27M318 228H295M295 228H272M272 228H249M249 228H226M226 228H203M203 228H180M180 228H157M157 228H134M134 228H111M111 228H88M88 228H65M65 228H42M42 228H19M19 228H-4.00001M-4.00001 228H-27" stroke="url(#paint0_radial_139_1310)" stroke-opacity="0.2"/>
<rect width="477" height="158" transform="matrix(-1 0 0 1 427 79)" fill="url(#paint1_linear_139_1310)"/>
<rect width="477" height="255" transform="matrix(-1 0 0 1 427 0)" fill="url(#paint2_linear_139_1310)"/>
<g filter="url(#filter0_f_139_1310)">
<ellipse cx="189" cy="126.5" rx="35" ry="34.5" fill="#3032D7"/>
</g>
<g style="mix-blend-mode:plus-lighter" opacity="0.4">
<g opacity="0.5" filter="url(#filter1_f_139_1310)">
<g opacity="0.8" filter="url(#filter2_f_139_1310)">
<path d="M-216.395 -151.918L-219.401 -144.59L-57.1519 -5.9453L54.2028 86.2978L-54.1459 -13.2729L-216.395 -151.918Z" fill="url(#paint3_linear_139_1310)"/>
</g>
<g opacity="0.8" filter="url(#filter3_f_139_1310)">
<path d="M-210.183 -183.681L-213.189 -176.354L-50.9395 -37.7085L60.4152 54.5346L-47.9335 -45.0361L-210.183 -183.681Z" fill="url(#paint4_linear_139_1310)"/>
</g>
<g style="mix-blend-mode:soft-light" opacity="0.8" filter="url(#filter4_f_139_1310)">
<path d="M-252.052 -159.79L-255.058 -152.462L-92.8091 -13.8169L18.5456 78.4262L-89.8032 -21.1445L-252.052 -159.79Z" fill="url(#paint5_linear_139_1310)"/>
</g>
<g style="mix-blend-mode:plus-lighter" opacity="0.2" filter="url(#filter5_f_139_1310)">
<path d="M-199.66 -154.179L-202.666 -146.852L-40.417 -8.20677L70.9376 84.0363L-37.4111 -15.5344L-199.66 -154.179Z" fill="url(#paint6_linear_139_1310)"/>
</g>
<g opacity="0.8" filter="url(#filter6_f_139_1310)">
<path d="M-209.787 -147.701L-212.24 -139.805L-14.0981 35.0115L121.532 151.715L-11.6447 27.115L-209.787 -147.701Z" fill="url(#paint7_linear_139_1310)"/>
</g>
<g opacity="0.8" filter="url(#filter7_f_139_1310)">
<path d="M-206.761 -182.722L-209.215 -174.826L-11.0727 -0.00922486L124.558 116.694L-8.61935 -7.90577L-206.761 -182.722Z" fill="url(#paint8_linear_139_1310)"/>
</g>
<g style="mix-blend-mode:soft-light" opacity="0.8" filter="url(#filter8_f_139_1310)">
<path d="M-250.552 -160.693L-253.005 -152.797L-54.8632 22.0196L80.7672 138.723L-52.4099 14.123L-250.552 -160.693Z" fill="url(#paint9_linear_139_1310)"/>
</g>
<g style="mix-blend-mode:plus-lighter" opacity="0.2" filter="url(#filter9_f_139_1310)">
<path d="M-191.387 -148.307L-193.841 -140.41L4.30134 34.4063L139.932 151.11L6.75465 26.5097L-191.387 -148.307Z" fill="url(#paint10_linear_139_1310)"/>
</g>
<g opacity="0.8" filter="url(#filter10_f_139_1310)">
<path d="M-218.055 -142.703L-220.517 -134.854L-25.7666 33.2888L107.557 145.463L-23.3043 25.4399L-218.055 -142.703Z" fill="url(#paint11_linear_139_1310)"/>
</g>
<g opacity="0.8" filter="url(#filter11_f_139_1310)">
<path d="M-214.89 -177.337L-217.352 -169.488L-22.602 -1.3445L110.722 110.83L-20.1397 -9.19344L-214.89 -177.337Z" fill="url(#paint12_linear_139_1310)"/>
</g>
<g style="mix-blend-mode:soft-light" opacity="0.8" filter="url(#filter12_f_139_1310)">
<path d="M-258.239 -154.618L-260.702 -146.769L-65.9512 21.3738L67.3727 133.548L-63.4888 13.5248L-258.239 -154.618Z" fill="url(#paint13_linear_139_1310)"/>
</g>
<g style="mix-blend-mode:plus-lighter" opacity="0.2" filter="url(#filter13_f_139_1310)">
<path d="M-199.885 -143.71L-202.347 -135.861L-7.59669 32.2825L125.727 144.457L-5.13436 24.4335L-199.885 -143.71Z" fill="url(#paint14_linear_139_1310)"/>
</g>
<g opacity="0.8" filter="url(#filter14_f_139_1310)">
<path d="M-183.948 -178.688L-191.584 -168.942L-11.8578 39.6063L112.758 178.733L-4.22194 29.8607L-183.948 -178.688Z" fill="url(#paint15_linear_139_1310)"/>
</g>
<g opacity="0.8" filter="url(#filter15_f_139_1310)">
<path d="M-154.154 -216.27L-161.79 -206.525L17.9357 2.02378L142.552 141.151L25.5715 -7.72177L-154.154 -216.27Z" fill="url(#paint16_linear_139_1310)"/>
</g>
<g style="mix-blend-mode:soft-light" opacity="0.8" filter="url(#filter16_f_139_1310)">
<path d="M-233.277 -193.449L-240.913 -183.703L-61.1869 24.8453L63.4294 163.972L-53.551 15.0998L-233.277 -193.449Z" fill="url(#paint17_linear_139_1310)"/>
</g>
<g style="mix-blend-mode:plus-lighter" opacity="0.2" filter="url(#filter17_f_139_1310)">
<path d="M-194.798 -182.272L-202.434 -172.527L-22.708 36.0218L101.908 175.149L-15.0721 26.2763L-194.798 -182.272Z" fill="url(#paint18_linear_139_1310)"/>
</g>
<g style="mix-blend-mode:plus-lighter" opacity="0.2" filter="url(#filter18_f_139_1310)">
<path d="M-110.393 -115.662L-118.028 -105.917L61.6974 102.632L186.314 241.758L69.3332 92.8861L-110.393 -115.662Z" fill="url(#paint19_linear_139_1310)"/>
</g>
</g>
<g opacity="0.5">
<g opacity="0.8" filter="url(#filter19_f_139_1310)">
<path d="M-199.279 -183.593L-205.563 -176.29L-87.1472 -50.1657L-4.67252 33.5592L-80.8632 -57.4694L-199.279 -183.593Z" fill="url(#paint20_linear_139_1310)"/>
</g>
<g opacity="0.8" filter="url(#filter20_f_139_1310)">
<path d="M-179.423 -214.878L-185.707 -207.574L-67.2908 -81.4506L15.1839 2.27432L-61.0067 -88.7543L-179.423 -214.878Z" fill="url(#paint21_linear_139_1310)"/>
</g>
<g style="mix-blend-mode:soft-light" opacity="0.8">
<path d="M-234.645 -189.297L-240.929 -181.994L-122.513 -55.8698L-40.0382 27.8551L-116.229 -63.1735L-234.645 -189.297Z" fill="url(#paint22_linear_139_1310)"/>
</g>
<g style="mix-blend-mode:plus-lighter" opacity="0.2" filter="url(#filter22_f_139_1310)">
<path d="M-180.22 -186.718L-186.504 -179.415L-68.0881 -53.2906L14.3866 30.4342L-61.8041 -60.5944L-180.22 -186.718Z" fill="url(#paint23_linear_139_1310)"/>
</g>
</g>
<g opacity="0.5">
<g opacity="0.8" filter="url(#filter23_f_139_1310)">
<path d="M-203.438 -183.797L-209.059 -177.015L-100.613 -57.4533L-25.1226 21.9571L-94.9922 -64.235L-203.438 -183.797Z" fill="url(#paint24_linear_139_1310)"/>
</g>
<g opacity="0.8" filter="url(#filter24_f_139_1310)">
<path d="M-185.758 -212.918L-191.379 -206.137L-82.9342 -86.5749L-7.44341 -7.16444L-77.313 -93.3566L-185.758 -212.918Z" fill="url(#paint25_linear_139_1310)"/>
</g>
<g style="mix-blend-mode:plus-lighter" opacity="0.2" filter="url(#filter25_f_139_1310)">
<path d="M-186.209 -186.521L-191.83 -179.739L-83.3849 -60.1772L-7.89409 19.2333L-77.7637 -66.9589L-186.209 -186.521Z" fill="url(#paint26_linear_139_1310)"/>
</g>
</g>
<g opacity="0.8" filter="url(#filter26_f_139_1310)">
<path d="M-194.094 -210.334L-198.809 -204.125L-102.528 -89.6896L-35.5865 -13.6005L-97.813 -95.8979L-194.094 -210.334Z" fill="url(#paint27_linear_139_1310)"/>
</g>
<g opacity="0.5">
<g opacity="0.8" filter="url(#filter27_f_139_1310)">
<path d="M-191.817 -185.024L-199.389 -176.776L-62.3567 -39.8672L33.1725 50.9231L-54.7843 -48.1148L-191.817 -185.024Z" fill="url(#paint28_linear_139_1310)"/>
</g>
<g opacity="0.8" filter="url(#filter28_f_139_1310)">
<path d="M-179.857 -197.624L-187.43 -189.376L-50.3972 -52.4673L45.132 38.323L-42.8248 -60.7149L-179.857 -197.624Z" fill="url(#paint29_linear_139_1310)"/>
</g>
<g opacity="0.8" filter="url(#filter29_f_139_1310)">
<path d="M-162.308 -216.873L-169.881 -208.626L-32.8479 -71.7168L62.6813 19.0735L-25.2755 -79.9644L-162.308 -216.873Z" fill="url(#paint30_linear_139_1310)"/>
</g>
<g style="mix-blend-mode:soft-light" opacity="0.8" filter="url(#filter30_f_139_1310)">
<path d="M-233.424 -190.489L-240.997 -182.241L-103.964 -45.3321L-8.43492 45.4583L-96.3917 -53.5796L-233.424 -190.489Z" fill="url(#paint31_linear_139_1310)"/>
</g>
<g style="mix-blend-mode:plus-lighter" opacity="0.2" filter="url(#filter31_f_139_1310)">
<path d="M-200.938 -186.481L-208.51 -178.233L-71.4773 -41.3243L24.0519 49.4661L-63.9049 -49.5718L-200.938 -186.481Z" fill="url(#paint32_linear_139_1310)"/>
</g>
<g style="mix-blend-mode:plus-lighter" opacity="0.2" filter="url(#filter32_f_139_1310)">
<path d="M-133.632 -145.868L-141.205 -137.621L-4.17208 -0.711955L91.3571 90.0784L3.40033 -8.95948L-133.632 -145.868Z" fill="url(#paint33_linear_139_1310)"/>
</g>
</g>
</g>
<path fill-rule="evenodd" clip-rule="evenodd" d="M123.943 63.316L182.564 45.6225L182.571 45.6288C185.348 44.7904 184.667 44.7904 187.444 45.6288L187.451 45.6163L246.065 63.3033C247.107 63.6161 247.806 64.4795 247.906 65.5682L251.7 107.575C253.691 129.647 245.697 147.128 229.79 161.932C218.664 172.286 205.385 179.901 192.236 187.326C183.562 192.225 186.445 192.225 177.771 187.326C146.338 169.583 114.531 149.424 118.306 107.588L122.1 65.581L122.799 64.0107C123.117 63.6791 123.504 63.4476 123.941 63.3162L123.943 63.316Z" fill="white" fill-opacity="0.06"/>
<path d="M185.008 45.2002C185.242 45.2002 185.483 45.2464 185.848 45.3496C186.217 45.4541 186.685 45.6085 187.387 45.8203L187.548 45.8691L187.554 45.8555L246.008 63.4951C246.911 63.7662 247.533 64.4809 247.684 65.4004L247.707 65.5869L251.501 107.593C253.485 129.595 245.522 147.017 229.654 161.785C218.548 172.121 205.289 179.725 192.138 187.151C191.051 187.765 190.146 188.302 189.377 188.762C188.607 189.222 187.977 189.603 187.438 189.907C186.353 190.519 185.67 190.8 185.003 190.8C184.336 190.8 183.653 190.519 182.568 189.907C182.029 189.603 181.399 189.222 180.629 188.762C179.86 188.302 178.955 187.765 177.869 187.151C162.151 178.279 146.368 168.818 134.983 156.357C123.607 143.906 116.623 128.461 118.505 107.605L122.295 65.6338L122.965 64.1279C123.25 63.8384 123.592 63.6335 123.979 63.5137L124.001 63.5078L182.508 45.8486L182.514 45.8545L182.629 45.8203C183.331 45.6085 183.799 45.4541 184.168 45.3496C184.533 45.2464 184.774 45.2002 185.008 45.2002Z" stroke="#DEDEDE" stroke-opacity="0.2" stroke-width="0.4"/>
<path fill-rule="evenodd" clip-rule="evenodd" d="M132.056 68.8069L181.928 53.5372L181.933 53.5426C184.296 52.8191 183.717 52.8191 186.08 53.5426L186.085 53.5318L235.951 68.796C236.838 69.066 237.432 69.8111 237.517 70.7507L240.745 107.003C242.439 126.052 235.638 141.138 222.105 153.914C212.639 162.85 201.342 169.421 190.156 175.829C182.776 180.057 185.229 180.057 177.85 175.829C151.108 160.517 124.049 143.12 127.26 107.014L130.488 70.7617L131.083 69.4065C131.353 69.1203 131.683 68.9205 132.054 68.8071L132.056 68.8069Z" fill="white" fill-opacity="0.05"/>
<path d="M184.007 53.2002C184.201 53.2003 184.403 53.2393 184.712 53.3281C185.026 53.4182 185.423 53.5503 186.021 53.7334L186.184 53.7842L186.188 53.7725L235.893 68.9873C236.648 69.2175 237.171 69.825 237.298 70.6094L237.318 70.7686L240.546 107.021C242.233 126.001 235.462 141.029 221.968 153.769C212.522 162.686 201.245 169.246 190.057 175.655C189.132 176.185 188.361 176.648 187.707 177.045C187.052 177.442 186.516 177.772 186.058 178.034C185.135 178.562 184.561 178.8 184.003 178.8C183.445 178.8 182.87 178.562 181.947 178.034C181.489 177.772 180.953 177.442 180.298 177.045C179.644 176.648 178.874 176.185 177.949 175.655C164.577 167.998 151.154 159.835 141.472 149.085C131.798 138.345 125.86 125.022 127.46 107.031L130.685 70.8096L131.249 69.5215C131.487 69.2768 131.774 69.1042 132.098 69.0029L132.115 68.998L181.87 53.7637L181.876 53.7695L181.992 53.7334C182.59 53.5503 182.987 53.4182 183.301 53.3281C183.61 53.2393 183.812 53.2002 184.007 53.2002Z" stroke="url(#paint34_linear_139_1310)" stroke-opacity="0.6" stroke-width="0.4"/>
<path fill-rule="evenodd" clip-rule="evenodd" d="M141.169 78.7961L182.291 66.4349L182.296 66.4393C184.244 65.8536 183.767 65.8536 185.715 66.4393L185.719 66.4305L226.837 78.7872C227.568 79.0058 228.058 79.609 228.128 80.3696L230.79 109.717C232.186 125.137 226.579 137.349 215.42 147.692C207.615 154.926 198.3 160.246 189.076 165.433C182.991 168.856 185.013 168.856 178.929 165.433C156.879 153.037 134.567 138.954 137.215 109.726L139.876 80.3785L140.366 79.2814C140.59 79.0498 140.861 78.888 141.168 78.7962L141.169 78.7961Z" fill="url(#paint35_radial_139_1310)" fill-opacity="0.25"/>
<path d="M184.005 66.1504C184.168 66.1504 184.336 66.1819 184.592 66.2539C184.851 66.3269 185.179 66.4349 185.672 66.583L185.792 66.6191L185.796 66.6104L226.794 78.9307C227.424 79.119 227.857 79.6157 227.962 80.2539L227.979 80.3838L230.641 109.73C232.032 125.098 226.448 137.267 215.318 147.582C207.528 154.802 198.228 160.114 189.002 165.303C188.24 165.731 187.605 166.107 187.065 166.428C186.525 166.749 186.083 167.015 185.705 167.228C184.945 167.655 184.467 167.85 184.002 167.85C183.537 167.85 183.059 167.655 182.299 167.228C181.92 167.015 181.479 166.749 180.938 166.428C180.399 166.107 179.764 165.731 179.002 165.303C167.976 159.104 156.905 152.494 148.92 143.79C140.941 135.093 136.045 124.306 137.364 109.739L140.022 80.415L140.489 79.3711C140.688 79.1699 140.927 79.0276 141.197 78.9443H141.198L141.212 78.9395L182.248 66.6035L182.253 66.6084L182.339 66.583C182.832 66.4349 183.16 66.3269 183.419 66.2539C183.674 66.182 183.842 66.1504 184.005 66.1504Z" stroke="white" stroke-opacity="0.3" stroke-width="0.3"/>
<g filter="url(#filter33_f_139_1310)">
<ellipse cx="182.5" cy="114" rx="32.5" ry="30" fill="#4244BE"/>
</g>
</g>
<rect x="-55" y="146" width="483" height="139" fill="url(#paint36_linear_139_1310)"/>
<rect x="-55" y="211" width="483" height="45" fill="url(#paint37_linear_139_1310)"/>
<defs>
<filter id="filter0_f_139_1310" x="4" y="-58" width="370" height="369" filterUnits="userSpaceOnUse" color-interpolation-filters="sRGB">
<feFlood flood-opacity="0" result="BackgroundImageFix"/>
<feBlend mode="normal" in="SourceGraphic" in2="BackgroundImageFix" result="shape"/>
<feGaussianBlur stdDeviation="75" result="effect1_foregroundBlur_139_1310"/>
</filter>
<filter id="filter1_f_139_1310" x="-304.939" y="-260.507" width="535.489" height="546.503" filterUnits="userSpaceOnUse" color-interpolation-filters="sRGB">
<feFlood flood-opacity="0" result="BackgroundImageFix"/>
<feBlend mode="normal" in="SourceGraphic" in2="BackgroundImageFix" result="shape"/>
<feGaussianBlur stdDeviation="22.1185" result="effect1_foregroundBlur_139_1310"/>
</filter>
<filter id="filter2_f_139_1310" x="-257.494" y="-190.011" width="349.79" height="314.402" filterUnits="userSpaceOnUse" color-interpolation-filters="sRGB">
<feFlood flood-opacity="0" result="BackgroundImageFix"/>
<feBlend mode="normal" in="SourceGraphic" in2="BackgroundImageFix" result="shape"/>
<feGaussianBlur stdDeviation="19.0465" result="effect1_foregroundBlur_139_1310"/>
</filter>
<filter id="filter3_f_139_1310" x="-251.282" y="-221.774" width="349.79" height="314.402" filterUnits="userSpaceOnUse" color-interpolation-filters="sRGB">
<feFlood flood-opacity="0" result="BackgroundImageFix"/>
<feBlend mode="normal" in="SourceGraphic" in2="BackgroundImageFix" result="shape"/>
<feGaussianBlur stdDeviation="19.0465" result="effect1_foregroundBlur_139_1310"/>
</filter>
<filter id="filter4_f_139_1310" x="-293.151" y="-197.883" width="349.79" height="314.402" filterUnits="userSpaceOnUse" color-interpolation-filters="sRGB">
<feFlood flood-opacity="0" result="BackgroundImageFix"/>
<feBlend mode="normal" in="SourceGraphic" in2="BackgroundImageFix" result="shape"/>
<feGaussianBlur stdDeviation="19.0465" result="effect1_foregroundBlur_139_1310"/>
</filter>
<filter id="filter5_f_139_1310" x="-224.337" y="-175.851" width="316.946" height="281.558" filterUnits="userSpaceOnUse" color-interpolation-filters="sRGB">
<feFlood flood-opacity="0" result="BackgroundImageFix"/>
<feBlend mode="normal" in="SourceGraphic" in2="BackgroundImageFix" result="shape"/>
<feGaussianBlur stdDeviation="10.8356" result="effect1_foregroundBlur_139_1310"/>
</filter>
<filter id="filter6_f_139_1310" x="-250.333" y="-185.794" width="409.958" height="375.603" filterUnits="userSpaceOnUse" color-interpolation-filters="sRGB">
<feFlood flood-opacity="0" result="BackgroundImageFix"/>
<feBlend mode="normal" in="SourceGraphic" in2="BackgroundImageFix" result="shape"/>
<feGaussianBlur stdDeviation="19.0465" result="effect1_foregroundBlur_139_1310"/>
</filter>
<filter id="filter7_f_139_1310" x="-247.307" y="-220.815" width="409.958" height="375.603" filterUnits="userSpaceOnUse" color-interpolation-filters="sRGB">
<feFlood flood-opacity="0" result="BackgroundImageFix"/>
<feBlend mode="normal" in="SourceGraphic" in2="BackgroundImageFix" result="shape"/>
<feGaussianBlur stdDeviation="19.0465" result="effect1_foregroundBlur_139_1310"/>
</filter>
<filter id="filter8_f_139_1310" x="-291.098" y="-198.786" width="409.958" height="375.603" filterUnits="userSpaceOnUse" color-interpolation-filters="sRGB">
<feFlood flood-opacity="0" result="BackgroundImageFix"/>
<feBlend mode="normal" in="SourceGraphic" in2="BackgroundImageFix" result="shape"/>
<feGaussianBlur stdDeviation="19.0465" result="effect1_foregroundBlur_139_1310"/>
</filter>
<filter id="filter9_f_139_1310" x="-215.512" y="-169.978" width="377.114" height="342.759" filterUnits="userSpaceOnUse" color-interpolation-filters="sRGB">
<feFlood flood-opacity="0" result="BackgroundImageFix"/>
<feBlend mode="normal" in="SourceGraphic" in2="BackgroundImageFix" result="shape"/>
<feGaussianBlur stdDeviation="10.8356" result="effect1_foregroundBlur_139_1310"/>
</filter>
<filter id="filter10_f_139_1310" x="-258.61" y="-180.796" width="404.26" height="364.352" filterUnits="userSpaceOnUse" color-interpolation-filters="sRGB">
<feFlood flood-opacity="0" result="BackgroundImageFix"/>
<feBlend mode="normal" in="SourceGraphic" in2="BackgroundImageFix" result="shape"/>
<feGaussianBlur stdDeviation="19.0465" result="effect1_foregroundBlur_139_1310"/>
</filter>
<filter id="filter11_f_139_1310" x="-255.446" y="-215.43" width="404.26" height="364.352" filterUnits="userSpaceOnUse" color-interpolation-filters="sRGB">
<feFlood flood-opacity="0" result="BackgroundImageFix"/>
<feBlend mode="normal" in="SourceGraphic" in2="BackgroundImageFix" result="shape"/>
<feGaussianBlur stdDeviation="19.0465" result="effect1_foregroundBlur_139_1310"/>
</filter>
<filter id="filter12_f_139_1310" x="-298.795" y="-192.711" width="404.26" height="364.352" filterUnits="userSpaceOnUse" color-interpolation-filters="sRGB">
<feFlood flood-opacity="0" result="BackgroundImageFix"/>
<feBlend mode="normal" in="SourceGraphic" in2="BackgroundImageFix" result="shape"/>
<feGaussianBlur stdDeviation="19.0465" result="effect1_foregroundBlur_139_1310"/>
</filter>
<filter id="filter13_f_139_1310" x="-224.018" y="-165.381" width="371.417" height="331.509" filterUnits="userSpaceOnUse" color-interpolation-filters="sRGB">
<feFlood flood-opacity="0" result="BackgroundImageFix"/>
<feBlend mode="normal" in="SourceGraphic" in2="BackgroundImageFix" result="shape"/>
<feGaussianBlur stdDeviation="10.8356" result="effect1_foregroundBlur_139_1310"/>
</filter>
<filter id="filter14_f_139_1310" x="-229.677" y="-216.781" width="380.528" height="433.607" filterUnits="userSpaceOnUse" color-interpolation-filters="sRGB">
<feFlood flood-opacity="0" result="BackgroundImageFix"/>
<feBlend mode="normal" in="SourceGraphic" in2="BackgroundImageFix" result="shape"/>
<feGaussianBlur stdDeviation="19.0465" result="effect1_foregroundBlur_139_1310"/>
</filter>
<filter id="filter15_f_139_1310" x="-199.883" y="-254.363" width="380.528" height="433.607" filterUnits="userSpaceOnUse" color-interpolation-filters="sRGB">
<feFlood flood-opacity="0" result="BackgroundImageFix"/>
<feBlend mode="normal" in="SourceGraphic" in2="BackgroundImageFix" result="shape"/>
<feGaussianBlur stdDeviation="19.0465" result="effect1_foregroundBlur_139_1310"/>
</filter>
<filter id="filter16_f_139_1310" x="-279.006" y="-231.542" width="380.528" height="433.607" filterUnits="userSpaceOnUse" color-interpolation-filters="sRGB">
<feFlood flood-opacity="0" result="BackgroundImageFix"/>
<feBlend mode="normal" in="SourceGraphic" in2="BackgroundImageFix" result="shape"/>
<feGaussianBlur stdDeviation="19.0465" result="effect1_foregroundBlur_139_1310"/>
</filter>
<filter id="filter17_f_139_1310" x="-224.105" y="-203.943" width="347.684" height="400.763" filterUnits="userSpaceOnUse" color-interpolation-filters="sRGB">
<feFlood flood-opacity="0" result="BackgroundImageFix"/>
<feBlend mode="normal" in="SourceGraphic" in2="BackgroundImageFix" result="shape"/>
<feGaussianBlur stdDeviation="10.8356" result="effect1_foregroundBlur_139_1310"/>
</filter>
<filter id="filter18_f_139_1310" x="-139.7" y="-137.334" width="347.684" height="400.763" filterUnits="userSpaceOnUse" color-interpolation-filters="sRGB">
<feFlood flood-opacity="0" result="BackgroundImageFix"/>
<feBlend mode="normal" in="SourceGraphic" in2="BackgroundImageFix" result="shape"/>
<feGaussianBlur stdDeviation="10.8356" result="effect1_foregroundBlur_139_1310"/>
</filter>
<filter id="filter19_f_139_1310" x="-243.657" y="-221.686" width="277.077" height="293.339" filterUnits="userSpaceOnUse" color-interpolation-filters="sRGB">
<feFlood flood-opacity="0" result="BackgroundImageFix"/>
<feBlend mode="normal" in="SourceGraphic" in2="BackgroundImageFix" result="shape"/>
<feGaussianBlur stdDeviation="19.0465" result="effect1_foregroundBlur_139_1310"/>
</filter>
<filter id="filter20_f_139_1310" x="-223.8" y="-252.971" width="277.077" height="293.339" filterUnits="userSpaceOnUse" color-interpolation-filters="sRGB">
<feFlood flood-opacity="0" result="BackgroundImageFix"/>
<feBlend mode="normal" in="SourceGraphic" in2="BackgroundImageFix" result="shape"/>
<feGaussianBlur stdDeviation="19.0465" result="effect1_foregroundBlur_139_1310"/>
</filter>
<filter id="filter22_f_139_1310" x="-208.176" y="-208.389" width="244.233" height="260.495" filterUnits="userSpaceOnUse" color-interpolation-filters="sRGB">
<feFlood flood-opacity="0" result="BackgroundImageFix"/>
<feBlend mode="normal" in="SourceGraphic" in2="BackgroundImageFix" result="shape"/>
<feGaussianBlur stdDeviation="10.8356" result="effect1_foregroundBlur_139_1310"/>
</filter>
<filter id="filter23_f_139_1310" x="-247.152" y="-221.89" width="260.122" height="281.94" filterUnits="userSpaceOnUse" color-interpolation-filters="sRGB">
<feFlood flood-opacity="0" result="BackgroundImageFix"/>
<feBlend mode="normal" in="SourceGraphic" in2="BackgroundImageFix" result="shape"/>
<feGaussianBlur stdDeviation="19.0465" result="effect1_foregroundBlur_139_1310"/>
</filter>
<filter id="filter24_f_139_1310" x="-229.472" y="-251.011" width="260.122" height="281.94" filterUnits="userSpaceOnUse" color-interpolation-filters="sRGB">
<feFlood flood-opacity="0" result="BackgroundImageFix"/>
<feBlend mode="normal" in="SourceGraphic" in2="BackgroundImageFix" result="shape"/>
<feGaussianBlur stdDeviation="19.0465" result="effect1_foregroundBlur_139_1310"/>
</filter>
<filter id="filter25_f_139_1310" x="-213.501" y="-208.192" width="227.278" height="249.096" filterUnits="userSpaceOnUse" color-interpolation-filters="sRGB">
<feFlood flood-opacity="0" result="BackgroundImageFix"/>
<feBlend mode="normal" in="SourceGraphic" in2="BackgroundImageFix" result="shape"/>
<feGaussianBlur stdDeviation="10.8356" result="effect1_foregroundBlur_139_1310"/>
</filter>
<filter id="filter26_f_139_1310" x="-236.902" y="-248.427" width="239.409" height="272.919" filterUnits="userSpaceOnUse" color-interpolation-filters="sRGB">
<feFlood flood-opacity="0" result="BackgroundImageFix"/>
<feBlend mode="normal" in="SourceGraphic" in2="BackgroundImageFix" result="shape"/>
<feGaussianBlur stdDeviation="19.0465" result="effect1_foregroundBlur_139_1310"/>
</filter>
<filter id="filter27_f_139_1310" x="-237.482" y="-223.117" width="308.748" height="312.133" filterUnits="userSpaceOnUse" color-interpolation-filters="sRGB">
<feFlood flood-opacity="0" result="BackgroundImageFix"/>
<feBlend mode="normal" in="SourceGraphic" in2="BackgroundImageFix" result="shape"/>
<feGaussianBlur stdDeviation="19.0465" result="effect1_foregroundBlur_139_1310"/>
</filter>
<filter id="filter28_f_139_1310" x="-225.523" y="-235.717" width="308.748" height="312.133" filterUnits="userSpaceOnUse" color-interpolation-filters="sRGB">
<feFlood flood-opacity="0" result="BackgroundImageFix"/>
<feBlend mode="normal" in="SourceGraphic" in2="BackgroundImageFix" result="shape"/>
<feGaussianBlur stdDeviation="19.0465" result="effect1_foregroundBlur_139_1310"/>
</filter>
<filter id="filter29_f_139_1310" x="-207.973" y="-254.966" width="308.748" height="312.133" filterUnits="userSpaceOnUse" color-interpolation-filters="sRGB">
<feFlood flood-opacity="0" result="BackgroundImageFix"/>
<feBlend mode="normal" in="SourceGraphic" in2="BackgroundImageFix" result="shape"/>
<feGaussianBlur stdDeviation="19.0465" result="effect1_foregroundBlur_139_1310"/>
</filter>
<filter id="filter30_f_139_1310" x="-279.09" y="-228.582" width="308.748" height="312.133" filterUnits="userSpaceOnUse" color-interpolation-filters="sRGB">
<feFlood flood-opacity="0" result="BackgroundImageFix"/>
<feBlend mode="normal" in="SourceGraphic" in2="BackgroundImageFix" result="shape"/>
<feGaussianBlur stdDeviation="19.0465" result="effect1_foregroundBlur_139_1310"/>
</filter>
<filter id="filter31_f_139_1310" x="-230.181" y="-208.152" width="275.904" height="279.289" filterUnits="userSpaceOnUse" color-interpolation-filters="sRGB">
<feFlood flood-opacity="0" result="BackgroundImageFix"/>
<feBlend mode="normal" in="SourceGraphic" in2="BackgroundImageFix" result="shape"/>
<feGaussianBlur stdDeviation="10.8356" result="effect1_foregroundBlur_139_1310"/>
</filter>
<filter id="filter32_f_139_1310" x="-162.876" y="-167.54" width="275.904" height="279.289" filterUnits="userSpaceOnUse" color-interpolation-filters="sRGB">
<feFlood flood-opacity="0" result="BackgroundImageFix"/>
<feBlend mode="normal" in="SourceGraphic" in2="BackgroundImageFix" result="shape"/>
<feGaussianBlur stdDeviation="10.8356" result="effect1_foregroundBlur_139_1310"/>
</filter>
<filter id="filter33_f_139_1310" x="110" y="44" width="145" height="140" filterUnits="userSpaceOnUse" color-interpolation-filters="sRGB">
<feFlood flood-opacity="0" result="BackgroundImageFix"/>
<feBlend mode="normal" in="SourceGraphic" in2="BackgroundImageFix" result="shape"/>
<feGaussianBlur stdDeviation="20" result="effect1_foregroundBlur_139_1310"/>
</filter>
<radialGradient id="paint0_radial_139_1310" cx="0" cy="0" r="1" gradientTransform="matrix(715.156 818.797 568.413 -503.687 -374.156 -599.484)" gradientUnits="userSpaceOnUse">
<stop stop-color="white"/>
<stop offset="0.870824" stop-color="white" stop-opacity="0"/>
</radialGradient>
<linearGradient id="paint1_linear_139_1310" x1="237.626" y1="-2.44428e-08" x2="237.512" y2="161.275" gradientUnits="userSpaceOnUse">
<stop stop-color="#0E0E10" stop-opacity="0"/>
<stop offset="1" stop-color="#0E0E10"/>
</linearGradient>
<linearGradient id="paint2_linear_139_1310" x1="603.676" y1="-84.336" x2="126.088" y2="383.67" gradientUnits="userSpaceOnUse">
<stop offset="0.299657" stop-color="#0E0E10" stop-opacity="0"/>
<stop offset="0.856986" stop-color="#0E0E10"/>
</linearGradient>
<linearGradient id="paint3_linear_139_1310" x1="-217.898" y1="-148.254" x2="-30.3369" y2="-71.312" gradientUnits="userSpaceOnUse">
<stop stop-color="white"/>
<stop offset="1" stop-color="#2E31F8"/>
</linearGradient>
<linearGradient id="paint4_linear_139_1310" x1="-211.686" y1="-180.017" x2="-24.1245" y2="-103.075" gradientUnits="userSpaceOnUse">
<stop stop-color="white"/>
<stop offset="1" stop-color="#2E31F8"/>
</linearGradient>
<linearGradient id="paint5_linear_139_1310" x1="-253.555" y1="-156.126" x2="-65.9941" y2="-79.1836" gradientUnits="userSpaceOnUse">
<stop stop-color="white"/>
<stop offset="1" stop-color="#2E31F8"/>
</linearGradient>
<linearGradient id="paint6_linear_139_1310" x1="-201.163" y1="-150.516" x2="-13.602" y2="-73.5735" gradientUnits="userSpaceOnUse">
<stop stop-color="white"/>
<stop offset="1" stop-color="white"/>
</linearGradient>
<linearGradient id="paint7_linear_139_1310" x1="-211.013" y1="-143.753" x2="19.2182" y2="-72.2244" gradientUnits="userSpaceOnUse">
<stop stop-color="white"/>
<stop offset="1" stop-color="#2E31F8"/>
</linearGradient>
<linearGradient id="paint8_linear_139_1310" x1="-207.988" y1="-178.774" x2="22.2436" y2="-107.245" gradientUnits="userSpaceOnUse">
<stop stop-color="white"/>
<stop offset="1" stop-color="#2E31F8"/>
</linearGradient>
<linearGradient id="paint9_linear_139_1310" x1="-251.778" y1="-156.745" x2="-21.5469" y2="-85.2163" gradientUnits="userSpaceOnUse">
<stop stop-color="white"/>
<stop offset="1" stop-color="#2E31F8"/>
</linearGradient>
<linearGradient id="paint10_linear_139_1310" x1="-192.614" y1="-144.358" x2="37.6176" y2="-72.8296" gradientUnits="userSpaceOnUse">
<stop stop-color="white"/>
<stop offset="1" stop-color="white"/>
</linearGradient>
<linearGradient id="paint11_linear_139_1310" x1="-219.286" y1="-138.779" x2="6.0379" y2="-68.0914" gradientUnits="userSpaceOnUse">
<stop stop-color="white"/>
<stop offset="1" stop-color="#2E31F8"/>
</linearGradient>
<linearGradient id="paint12_linear_139_1310" x1="-216.121" y1="-173.412" x2="9.20246" y2="-102.725" gradientUnits="userSpaceOnUse">
<stop stop-color="white"/>
<stop offset="1" stop-color="#2E31F8"/>
</linearGradient>
<linearGradient id="paint13_linear_139_1310" x1="-259.47" y1="-150.694" x2="-34.1467" y2="-80.0065" gradientUnits="userSpaceOnUse">
<stop stop-color="white"/>
<stop offset="1" stop-color="#2E31F8"/>
</linearGradient>
<linearGradient id="paint14_linear_139_1310" x1="-201.116" y1="-139.785" x2="24.2078" y2="-69.0978" gradientUnits="userSpaceOnUse">
<stop stop-color="white"/>
<stop offset="1" stop-color="white"/>
</linearGradient>
<linearGradient id="paint15_linear_139_1310" x1="-187.766" y1="-173.815" x2="24.8414" y2="-7.2324" gradientUnits="userSpaceOnUse">
<stop stop-color="white"/>
<stop offset="0.557292" stop-color="#2E31F8"/>
<stop offset="1" stop-color="#2E31F8" stop-opacity="0.3"/>
</linearGradient>
<linearGradient id="paint16_linear_139_1310" x1="-157.972" y1="-211.397" x2="54.6348" y2="-44.8149" gradientUnits="userSpaceOnUse">
<stop stop-color="white"/>
<stop offset="1" stop-color="#2E31F8"/>
</linearGradient>
<linearGradient id="paint17_linear_139_1310" x1="-237.095" y1="-188.576" x2="-24.4877" y2="-21.9934" gradientUnits="userSpaceOnUse">
<stop stop-color="white"/>
<stop offset="0.557292" stop-color="#2E31F8"/>
<stop offset="1" stop-color="#2E31F8" stop-opacity="0.3"/>
</linearGradient>
<linearGradient id="paint18_linear_139_1310" x1="-198.616" y1="-177.399" x2="13.9912" y2="-10.8168" gradientUnits="userSpaceOnUse">
<stop stop-color="white"/>
<stop offset="1" stop-color="white"/>
</linearGradient>
<linearGradient id="paint19_linear_139_1310" x1="-114.211" y1="-110.79" x2="98.3965" y2="55.793" gradientUnits="userSpaceOnUse">
<stop stop-color="white"/>
<stop offset="1" stop-color="white"/>
</linearGradient>
<linearGradient id="paint20_linear_139_1310" x1="-202.421" y1="-179.941" x2="-72.0207" y2="-67.7467" gradientUnits="userSpaceOnUse">
<stop stop-color="white"/>
<stop offset="1" stop-color="#F89B2E"/>
</linearGradient>
<linearGradient id="paint21_linear_139_1310" x1="-182.565" y1="-211.226" x2="-52.1643" y2="-99.0316" gradientUnits="userSpaceOnUse">
<stop stop-color="white"/>
<stop offset="1" stop-color="#F89B2E"/>
</linearGradient>
<linearGradient id="paint22_linear_139_1310" x1="-237.787" y1="-185.646" x2="-107.386" y2="-73.4508" gradientUnits="userSpaceOnUse">
<stop stop-color="white"/>
<stop offset="1" stop-color="#F89B2E"/>
</linearGradient>
<linearGradient id="paint23_linear_139_1310" x1="-183.362" y1="-183.066" x2="-52.9616" y2="-70.8717" gradientUnits="userSpaceOnUse">
<stop stop-color="white"/>
<stop offset="1" stop-color="white"/>
</linearGradient>
<linearGradient id="paint24_linear_139_1310" x1="-206.248" y1="-180.406" x2="-83.2231" y2="-78.4341" gradientUnits="userSpaceOnUse">
<stop stop-color="white"/>
<stop offset="1" stop-color="#F89B2E"/>
</linearGradient>
<linearGradient id="paint25_linear_139_1310" x1="-188.569" y1="-209.527" x2="-65.5439" y2="-107.556" gradientUnits="userSpaceOnUse">
<stop stop-color="white"/>
<stop offset="1" stop-color="#F89B2E"/>
</linearGradient>
<linearGradient id="paint26_linear_139_1310" x1="-189.02" y1="-183.13" x2="-65.9946" y2="-81.1579" gradientUnits="userSpaceOnUse">
<stop stop-color="white"/>
<stop offset="1" stop-color="white"/>
</linearGradient>
<linearGradient id="paint27_linear_139_1310" x1="-196.451" y1="-207.23" x2="-80.2741" y2="-118.99" gradientUnits="userSpaceOnUse">
<stop stop-color="white"/>
<stop offset="1" stop-color="#F89B2E"/>
</linearGradient>
<linearGradient id="paint28_linear_139_1310" x1="-195.603" y1="-180.9" x2="-53.0439" y2="-50.0103" gradientUnits="userSpaceOnUse">
<stop stop-color="white"/>
<stop offset="0.557292" stop-color="#F89B2E"/>
<stop offset="1" stop-color="#F89B2E" stop-opacity="0.3"/>
</linearGradient>
<linearGradient id="paint29_linear_139_1310" x1="-183.644" y1="-193.5" x2="-41.0845" y2="-62.6104" gradientUnits="userSpaceOnUse">
<stop stop-color="white"/>
<stop offset="0.557292" stop-color="#F89B2E"/>
<stop offset="1" stop-color="#F89B2E" stop-opacity="0.3"/>
</linearGradient>
<linearGradient id="paint30_linear_139_1310" x1="-166.094" y1="-212.75" x2="-23.5351" y2="-81.8599" gradientUnits="userSpaceOnUse">
<stop stop-color="white"/>
<stop offset="1" stop-color="#F89B2E"/>
</linearGradient>
<linearGradient id="paint31_linear_139_1310" x1="-237.211" y1="-186.365" x2="-94.6513" y2="-55.4751" gradientUnits="userSpaceOnUse">
<stop stop-color="white"/>
<stop offset="0.557292" stop-color="#F89B2E"/>
<stop offset="1" stop-color="#F89B2E" stop-opacity="0.3"/>
</linearGradient>
<linearGradient id="paint32_linear_139_1310" x1="-204.724" y1="-182.357" x2="-62.1646" y2="-51.4673" gradientUnits="userSpaceOnUse">
<stop stop-color="white"/>
<stop offset="1" stop-color="white"/>
</linearGradient>
<linearGradient id="paint33_linear_139_1310" x1="-137.419" y1="-141.745" x2="5.14063" y2="-10.855" gradientUnits="userSpaceOnUse">
<stop stop-color="white"/>
<stop offset="1" stop-color="white"/>
</linearGradient>
<linearGradient id="paint34_linear_139_1310" x1="153.563" y1="56.9375" x2="196.293" y2="178.57" gradientUnits="userSpaceOnUse">
<stop stop-color="#2E31F8" stop-opacity="0.5"/>
<stop offset="1" stop-color="#DEDEDE"/>
</linearGradient>
<radialGradient id="paint35_radial_139_1310" cx="0" cy="0" r="1" gradientUnits="userSpaceOnUse" gradientTransform="translate(184 117) rotate(90) scale(94 86.6275)">
<stop stop-color="#2F31F3" stop-opacity="0.8"/>
<stop offset="1" stop-color="white" stop-opacity="0.5"/>
</radialGradient>
<linearGradient id="paint36_linear_139_1310" x1="186.5" y1="146" x2="186.5" y2="285" gradientUnits="userSpaceOnUse">
<stop stop-color="#0E0E10" stop-opacity="0"/>
<stop offset="1" stop-color="#0E0E10"/>
</linearGradient>
<linearGradient id="paint37_linear_139_1310" x1="186.5" y1="211" x2="186.5" y2="256" gradientUnits="userSpaceOnUse">
<stop stop-color="#0E0E10" stop-opacity="0"/>
<stop offset="1" stop-color="#0E0E10"/>
</linearGradient>
<clipPath id="clip0_139_1310">
<rect width="477" height="237" fill="white" transform="translate(-50)"/>
</clipPath>
</defs>
</svg>
