<svg width="377" height="285" viewBox="0 0 377 285" fill="none" xmlns="http://www.w3.org/2000/svg">
<g clip-path="url(#clip0_191_745)">
<path d="M318 -50H341V-26.8333M318 -50V-26.8333M318 -50H295M318 -26.8333H341M318 -26.8333H295M318 -26.8333V-3.66667M341 -26.8333V-3.66667M295 -50V-26.8333M295 -50H272M295 -26.8333H272M295 -26.8333V-3.66667M272 -50V-26.8333M272 -50H249M272 -26.8333H249M272 -26.8333V-3.66667M249 -50V-26.8333M249 -50H226M249 -26.8333H226M249 -26.8333V-3.66667M226 -50V-26.8333M226 -50H203M226 -26.8333H203M226 -26.8333V-3.66667M203 -50V-26.8333M203 -50H180M203 -26.8333H180M203 -26.8333V-3.66667M180 -50V-26.8333M180 -50H157M180 -26.8333H157M180 -26.8333V-3.66667M157 -50V-26.8333M157 -50H134M157 -26.8333H134M157 -26.8333V-3.66667M134 -50V-26.8333M134 -50H111M134 -26.8333H111M134 -26.8333V-3.66667M111 -50V-26.8333M111 -50H88M111 -26.8333H88M111 -26.8333V-3.66667M88 -50V-26.8333M88 -50H65M88 -26.8333H65M88 -26.8333V-3.66667M65 -50V-26.8333M65 -50H42M65 -26.8333H42M65 -26.8333V-3.66667M42 -50V-26.8333M42 -50H19M42 -26.8333H19M42 -26.8333V-3.66667M19 -50V-26.8333M19 -50H-4.00001M19 -26.8333H-4.00001M19 -26.8333V-3.66667M-4.00001 -50V-26.8333M-4.00001 -50H-27M-4.00001 -26.8333H-27M-4.00001 -26.8333V-3.66667M-27 -50V-26.8333M-27 -50H-50V-26.8333M-27 -26.8333H-50M-27 -26.8333V-3.66667M-50 -26.8333V-3.66667M318 -3.66667H341M318 -3.66667H295M318 -3.66667V19.5M341 -3.66667V19.5M295 -3.66667H272M295 -3.66667V19.5M272 -3.66667H249M272 -3.66667V19.5M249 -3.66667H226M249 -3.66667V19.5M226 -3.66667H203M226 -3.66667V19.5M203 -3.66667H180M203 -3.66667V19.5M180 -3.66667H157M180 -3.66667V19.5M157 -3.66667H134M157 -3.66667V19.5M134 -3.66667H111M134 -3.66667V19.5M111 -3.66667H88M111 -3.66667V19.5M88 -3.66667H65M88 -3.66667V19.5M65 -3.66667H42M65 -3.66667V19.5M42 -3.66667H19M42 -3.66667V19.5M19 -3.66667H-4.00001M19 -3.66667V19.5M-4.00001 -3.66667H-27M-4.00001 -3.66667V19.5M-27 -3.66667H-50M-27 -3.66667V19.5M-50 -3.66667V19.5M318 19.5H341M318 19.5H295M318 19.5V42.6667M341 19.5V42.6667M295 19.5H272M295 19.5V42.6667M272 19.5H249M272 19.5V42.6667M249 19.5H226M249 19.5V42.6667M226 19.5H203M226 19.5V42.6667M203 19.5H180M203 19.5V42.6667M180 19.5H157M180 19.5V42.6667M157 19.5H134M157 19.5V42.6667M134 19.5H111M134 19.5V42.6667M111 19.5H88M111 19.5V42.6667M88 19.5H65M88 19.5V42.6667M65 19.5H42M65 19.5V42.6667M42 19.5H19M42 19.5V42.6667M19 19.5H-4.00001M19 19.5V42.6667M-4.00001 19.5H-27M-4.00001 19.5V42.6667M-27 19.5H-50M-27 19.5V42.6667M-50 19.5V42.6667M318 42.6667H341M318 42.6667H295M318 42.6667V65.8333M341 42.6667V65.8333M295 42.6667H272M295 42.6667V65.8333M272 42.6667H249M272 42.6667V65.8333M249 42.6667H226M249 42.6667V65.8333M226 42.6667H203M226 42.6667V65.8333M203 42.6667H180M203 42.6667V65.8333M180 42.6667H157M180 42.6667V65.8333M157 42.6667H134M157 42.6667V65.8333M134 42.6667H111M134 42.6667V65.8333M111 42.6667H88M111 42.6667V65.8333M88 42.6667H65M88 42.6667V65.8333M65 42.6667H42M65 42.6667V65.8333M42 42.6667H19M42 42.6667V65.8333M19 42.6667H-4.00001M19 42.6667V65.8333M-4.00001 42.6667H-27M-4.00001 42.6667V65.8333M-27 42.6667H-50M-27 42.6667V65.8333M-50 42.6667V65.8333M318 65.8333H341M318 65.8333H295M318 65.8333V89M341 65.8333V89M295 65.8333H272M295 65.8333V89M272 65.8333H249M272 65.8333V89M249 65.8333H226M249 65.8333V89M226 65.8333H203M226 65.8333V89M203 65.8333H180M203 65.8333V89M180 65.8333H157M180 65.8333V89M157 65.8333H134M157 65.8333V89M134 65.8333H111M134 65.8333V89M111 65.8333H88M111 65.8333V89M88 65.8333H65M88 65.8333V89M65 65.8333H42M65 65.8333V89M42 65.8333H19M42 65.8333V89M19 65.8333H-4.00001M19 65.8333V89M-4.00001 65.8333H-27M-4.00001 65.8333V89M-27 65.8333H-50M-27 65.8333V89M-50 65.8333V89M318 89H341M318 89H295M318 89V112.167M341 89V112.167M295 89H272M295 89V112.167M272 89H249M272 89V112.167M249 89H226M249 89V112.167M226 89H203M226 89V112.167M203 89H180M203 89V112.167M180 89H157M180 89V112.167M157 89H134M157 89V112.167M134 89H111M134 89V112.167M111 89H88M111 89V112.167M88 89H65M88 89V112.167M65 89H42M65 89V112.167M42 89H19M42 89V112.167M19 89H-4.00001M19 89V112.167M-4.00001 89H-27M-4.00001 89V112.167M-27 89H-50M-27 89V112.167M-50 89V112.167M318 112.167H341M318 112.167H295M318 112.167V135.333M341 112.167V135.333M295 112.167H272M295 112.167V135.333M272 112.167H249M272 112.167V135.333M249 112.167H226M249 112.167V135.333M226 112.167H203M226 112.167V135.333M203 112.167H180M203 112.167V135.333M180 112.167H157M180 112.167V135.333M157 112.167H134M157 112.167V135.333M134 112.167H111M134 112.167V135.333M111 112.167H88M111 112.167V135.333M88 112.167H65M88 112.167V135.333M65 112.167H42M65 112.167V135.333M42 112.167H19M42 112.167V135.333M19 112.167H-4.00001M19 112.167V135.333M-4.00001 112.167H-27M-4.00001 112.167V135.333M-27 112.167H-50M-27 112.167V135.333M-50 112.167V135.333M318 135.333H341M318 135.333H295M318 135.333V158.5M341 135.333V158.5M295 135.333H272M295 135.333V158.5M272 135.333H249M272 135.333V158.5M249 135.333H226M249 135.333V158.5M226 135.333H203M226 135.333V158.5M203 135.333H180M203 135.333V158.5M180 135.333H157M180 135.333V158.5M157 135.333H134M157 135.333V158.5M134 135.333H111M134 135.333V158.5M111 135.333H88M111 135.333V158.5M88 135.333H65M88 135.333V158.5M65 135.333H42M65 135.333V158.5M42 135.333H19M42 135.333V158.5M19 135.333H-4.00001M19 135.333V158.5M-4.00001 135.333H-27M-4.00001 135.333V158.5M-27 135.333H-50M-27 135.333V158.5M-50 135.333V158.5M318 158.5H341M318 158.5H295M318 158.5V181.667M341 158.5V181.667M295 158.5H272M295 158.5V181.667M272 158.5H249M272 158.5V181.667M249 158.5H226M249 158.5V181.667M226 158.5H203M226 158.5V181.667M203 158.5H180M203 158.5V181.667M180 158.5H157M180 158.5V181.667M157 158.5H134M157 158.5V181.667M134 158.5H111M134 158.5V181.667M111 158.5H88M111 158.5V181.667M88 158.5H65M88 158.5V181.667M65 158.5H42M65 158.5V181.667M42 158.5H19M42 158.5V181.667M19 158.5H-4.00001M19 158.5V181.667M-4.00001 158.5H-27M-4.00001 158.5V181.667M-27 158.5H-50M-27 158.5V181.667M-50 158.5V181.667M318 181.667H341M318 181.667H295M318 181.667V204.833M341 181.667V204.833M295 181.667H272M295 181.667V204.833M272 181.667H249M272 181.667V204.833M249 181.667H226M249 181.667V204.833M226 181.667H203M226 181.667V204.833M203 181.667H180M203 181.667V204.833M180 181.667H157M180 181.667V204.833M157 181.667H134M157 181.667V204.833M134 181.667H111M134 181.667V204.833M111 181.667H88M111 181.667V204.833M88 181.667H65M88 181.667V204.833M65 181.667H42M65 181.667V204.833M42 181.667H19M42 181.667V204.833M19 181.667H-4.00001M19 181.667V204.833M-4.00001 181.667H-27M-4.00001 181.667V204.833M-27 181.667H-50M-27 181.667V204.833M-50 181.667V204.833M318 204.833H341M318 204.833H295M318 204.833V228M341 204.833V228H318M295 204.833H272M295 204.833V228M272 204.833H249M272 204.833V228M249 204.833H226M249 204.833V228M226 204.833H203M226 204.833V228M203 204.833H180M203 204.833V228M180 204.833H157M180 204.833V228M157 204.833H134M157 204.833V228M134 204.833H111M134 204.833V228M111 204.833H88M111 204.833V228M88 204.833H65M88 204.833V228M65 204.833H42M65 204.833V228M42 204.833H19M42 204.833V228M19 204.833H-4.00001M19 204.833V228M-4.00001 204.833H-27M-4.00001 204.833V228M-27 204.833H-50M-27 204.833V228M-50 204.833V228H-27M318 228H295M295 228H272M272 228H249M249 228H226M226 228H203M203 228H180M180 228H157M157 228H134M134 228H111M111 228H88M88 228H65M65 228H42M42 228H19M19 228H-4.00001M-4.00001 228H-27" stroke="url(#paint0_radial_191_745)" stroke-opacity="0.2"/>
<rect width="477" height="158" transform="matrix(-1 0 0 1 427 79)" fill="url(#paint1_linear_191_745)"/>
<rect width="477" height="255" transform="matrix(-1 0 0 1 427 0)" fill="url(#paint2_linear_191_745)"/>
<g filter="url(#filter0_f_191_745)">
<ellipse cx="189" cy="126.5" rx="35" ry="34.5" fill="#3032D7"/>
</g>
<g style="mix-blend-mode:plus-lighter" opacity="0.4">
<g opacity="0.5" filter="url(#filter1_f_191_745)">
<g opacity="0.8" filter="url(#filter2_f_191_745)">
<path d="M-216.395 -151.918L-219.401 -144.59L-57.1514 -5.94505L54.2033 86.298L-54.1454 -13.2727L-216.395 -151.918Z" fill="url(#paint3_linear_191_745)"/>
</g>
<g opacity="0.8" filter="url(#filter3_f_191_745)">
<path d="M-210.182 -183.681L-213.188 -176.354L-50.939 -37.7085L60.4157 54.5346L-47.933 -45.0361L-210.182 -183.681Z" fill="url(#paint4_linear_191_745)"/>
</g>
<g style="mix-blend-mode:soft-light" opacity="0.8" filter="url(#filter4_f_191_745)">
<path d="M-252.052 -159.79L-255.058 -152.462L-92.8091 -13.8169L18.5456 78.4262L-89.8032 -21.1445L-252.052 -159.79Z" fill="url(#paint5_linear_191_745)"/>
</g>
<g style="mix-blend-mode:plus-lighter" opacity="0.2" filter="url(#filter5_f_191_745)">
<path d="M-199.66 -154.179L-202.666 -146.852L-40.4166 -8.20653L70.9381 84.0366L-37.4106 -15.5342L-199.66 -154.179Z" fill="url(#paint6_linear_191_745)"/>
</g>
<g opacity="0.8" filter="url(#filter6_f_191_745)">
<path d="M-209.787 -147.701L-212.24 -139.805L-14.0981 35.0115L121.532 151.715L-11.6447 27.115L-209.787 -147.701Z" fill="url(#paint7_linear_191_745)"/>
</g>
<g opacity="0.8" filter="url(#filter7_f_191_745)">
<path d="M-206.761 -182.722L-209.215 -174.826L-11.0727 -0.00922486L124.558 116.694L-8.61935 -7.90577L-206.761 -182.722Z" fill="url(#paint8_linear_191_745)"/>
</g>
<g style="mix-blend-mode:soft-light" opacity="0.8" filter="url(#filter8_f_191_745)">
<path d="M-250.552 -160.693L-253.005 -152.797L-54.8632 22.0196L80.7672 138.723L-52.4099 14.123L-250.552 -160.693Z" fill="url(#paint9_linear_191_745)"/>
</g>
<g style="mix-blend-mode:plus-lighter" opacity="0.2" filter="url(#filter9_f_191_745)">
<path d="M-191.387 -148.307L-193.841 -140.41L4.30134 34.4063L139.932 151.11L6.75465 26.5097L-191.387 -148.307Z" fill="url(#paint10_linear_191_745)"/>
</g>
<g opacity="0.8" filter="url(#filter10_f_191_745)">
<path d="M-218.055 -142.703L-220.517 -134.854L-25.7666 33.289L107.557 145.463L-23.3043 25.4401L-218.055 -142.703Z" fill="url(#paint11_linear_191_745)"/>
</g>
<g opacity="0.8" filter="url(#filter11_f_191_745)">
<path d="M-214.89 -177.336L-217.352 -169.487L-22.602 -1.34426L110.722 110.83L-20.1397 -9.1932L-214.89 -177.336Z" fill="url(#paint12_linear_191_745)"/>
</g>
<g style="mix-blend-mode:soft-light" opacity="0.8" filter="url(#filter12_f_191_745)">
<path d="M-258.239 -154.618L-260.702 -146.769L-65.9512 21.3738L67.3727 133.548L-63.4888 13.5248L-258.239 -154.618Z" fill="url(#paint13_linear_191_745)"/>
</g>
<g style="mix-blend-mode:plus-lighter" opacity="0.2" filter="url(#filter13_f_191_745)">
<path d="M-199.885 -143.709L-202.347 -135.861L-7.59669 32.2827L125.727 144.457L-5.13436 24.4338L-199.885 -143.709Z" fill="url(#paint14_linear_191_745)"/>
</g>
<g opacity="0.8" filter="url(#filter14_f_191_745)">
<path d="M-183.948 -178.688L-191.584 -168.942L-11.8578 39.6065L112.758 178.733L-4.22194 29.861L-183.948 -178.688Z" fill="url(#paint15_linear_191_745)"/>
</g>
<g opacity="0.8" filter="url(#filter15_f_191_745)">
<path d="M-154.154 -216.27L-161.79 -206.524L17.9357 2.02402L142.552 141.151L25.5715 -7.72153L-154.154 -216.27Z" fill="url(#paint16_linear_191_745)"/>
</g>
<g style="mix-blend-mode:soft-light" opacity="0.8" filter="url(#filter16_f_191_745)">
<path d="M-233.277 -193.448L-240.913 -183.703L-61.1869 24.8456L63.4294 163.972L-53.551 15.1L-233.277 -193.448Z" fill="url(#paint17_linear_191_745)"/>
</g>
<g style="mix-blend-mode:plus-lighter" opacity="0.2" filter="url(#filter17_f_191_745)">
<path d="M-194.798 -182.272L-202.434 -172.526L-22.708 36.0221L101.908 175.149L-15.0721 26.2765L-194.798 -182.272Z" fill="url(#paint18_linear_191_745)"/>
</g>
<g style="mix-blend-mode:plus-lighter" opacity="0.2" filter="url(#filter18_f_191_745)">
<path d="M-110.393 -115.662L-118.028 -105.917L61.6974 102.632L186.314 241.759L69.3332 92.8864L-110.393 -115.662Z" fill="url(#paint19_linear_191_745)"/>
</g>
</g>
<g opacity="0.5">
<g opacity="0.8" filter="url(#filter19_f_191_745)">
<path d="M-199.279 -183.593L-205.563 -176.29L-87.1472 -50.1657L-4.67252 33.5592L-80.8632 -57.4694L-199.279 -183.593Z" fill="url(#paint20_linear_191_745)"/>
</g>
<g opacity="0.8" filter="url(#filter20_f_191_745)">
<path d="M-179.423 -214.878L-185.707 -207.574L-67.2908 -81.4506L15.1839 2.27432L-61.0067 -88.7543L-179.423 -214.878Z" fill="url(#paint21_linear_191_745)"/>
</g>
<g style="mix-blend-mode:soft-light" opacity="0.8">
<path d="M-234.645 -189.297L-240.929 -181.994L-122.512 -55.8698L-40.0378 27.8551L-116.228 -63.1735L-234.645 -189.297Z" fill="url(#paint22_linear_191_745)"/>
</g>
<g style="mix-blend-mode:plus-lighter" opacity="0.2" filter="url(#filter22_f_191_745)">
<path d="M-180.22 -186.718L-186.504 -179.415L-68.0881 -53.2906L14.3866 30.4342L-61.8041 -60.5944L-180.22 -186.718Z" fill="url(#paint23_linear_191_745)"/>
</g>
</g>
<g opacity="0.5">
<g opacity="0.8" filter="url(#filter23_f_191_745)">
<path d="M-203.438 -183.797L-209.059 -177.015L-100.613 -57.4538L-25.1226 21.9566L-94.9922 -64.2355L-203.438 -183.797Z" fill="url(#paint24_linear_191_745)"/>
</g>
<g opacity="0.8" filter="url(#filter24_f_191_745)">
<path d="M-185.758 -212.918L-191.379 -206.137L-82.9342 -86.5751L-7.44341 -7.16469L-77.313 -93.3568L-185.758 -212.918Z" fill="url(#paint25_linear_191_745)"/>
</g>
<g style="mix-blend-mode:plus-lighter" opacity="0.2" filter="url(#filter25_f_191_745)">
<path d="M-186.209 -186.521L-191.83 -179.739L-83.3849 -60.1774L-7.89409 19.233L-77.7637 -66.9591L-186.209 -186.521Z" fill="url(#paint26_linear_191_745)"/>
</g>
</g>
<g opacity="0.8" filter="url(#filter26_f_191_745)">
<path d="M-194.094 -210.334L-198.809 -204.126L-102.528 -89.6899L-35.5865 -13.6007L-97.813 -95.8982L-194.094 -210.334Z" fill="url(#paint27_linear_191_745)"/>
</g>
<g opacity="0.5">
<g opacity="0.8" filter="url(#filter27_f_191_745)">
<path d="M-191.817 -185.024L-199.389 -176.776L-62.3567 -39.8675L33.1725 50.9229L-54.7843 -48.115L-191.817 -185.024Z" fill="url(#paint28_linear_191_745)"/>
</g>
<g opacity="0.8" filter="url(#filter28_f_191_745)">
<path d="M-179.857 -197.624L-187.429 -189.376L-50.3967 -52.4676L45.1325 38.3228L-42.8243 -60.7151L-179.857 -197.624Z" fill="url(#paint29_linear_191_745)"/>
</g>
<g opacity="0.8" filter="url(#filter29_f_191_745)">
<path d="M-162.308 -216.874L-169.881 -208.626L-32.8479 -71.7171L62.6813 19.0733L-25.2755 -79.9646L-162.308 -216.874Z" fill="url(#paint30_linear_191_745)"/>
</g>
<g style="mix-blend-mode:soft-light" opacity="0.8" filter="url(#filter30_f_191_745)">
<path d="M-233.424 -190.489L-240.997 -182.241L-103.964 -45.3323L-8.43492 45.4581L-96.3917 -53.5799L-233.424 -190.489Z" fill="url(#paint31_linear_191_745)"/>
</g>
<g style="mix-blend-mode:plus-lighter" opacity="0.2" filter="url(#filter31_f_191_745)">
<path d="M-200.938 -186.481L-208.51 -178.233L-71.4773 -41.3245L24.0519 49.4659L-63.9049 -49.572L-200.938 -186.481Z" fill="url(#paint32_linear_191_745)"/>
</g>
<g style="mix-blend-mode:plus-lighter" opacity="0.2" filter="url(#filter32_f_191_745)">
<path d="M-133.632 -145.869L-141.204 -137.621L-4.17159 -0.7122L91.3576 90.0782L3.40082 -8.95973L-133.632 -145.869Z" fill="url(#paint33_linear_191_745)"/>
</g>
</g>
</g>
<g clip-path="url(#clip1_191_745)">
<g filter="url(#filter33_f_191_745)">
<ellipse cx="179" cy="110" rx="26" ry="24" fill="#4244BE"/>
</g>
<path d="M180.994 125.641C158.927 125.641 140.791 141.483 138.709 161.742H160.602C161.847 161.742 162.847 162.753 162.998 163.985C164.138 172.818 171.7 179.652 180.855 179.652C190.01 179.652 197.571 172.818 198.711 163.985C198.874 162.753 199.863 161.742 201.108 161.742H223.28C221.209 141.483 203.074 125.641 180.994 125.641Z" fill="url(#paint34_linear_191_745)" fill-opacity="0.1"/>
<path d="M180.994 125.741C202.986 125.741 221.048 141.491 223.168 161.641H201.107C199.805 161.641 198.781 162.698 198.612 163.971V163.972C197.479 172.756 189.959 179.552 180.854 179.552C171.893 179.552 164.467 172.967 163.155 164.382L163.098 163.972C162.941 162.698 161.904 161.641 160.603 161.641H138.821C140.953 141.491 159.014 125.741 180.994 125.741Z" stroke="white" stroke-opacity="0.2" stroke-width="0.2"/>
<path d="M180.994 127.385C202.422 127.385 220.139 142.32 223.059 161.742H223.28C221.209 141.483 203.074 125.641 180.994 125.641C158.915 125.641 140.791 141.483 138.709 161.742H138.93C141.838 142.331 159.555 127.385 180.994 127.385Z" fill="url(#paint35_linear_191_745)" fill-opacity="0.1"/>
<path d="M274.372 157.627C271.208 135.428 260.122 115.041 243.161 100.222C226.026 85.2522 204.04 77 181.251 77C158.462 77 136.488 85.2406 119.353 100.222C102.392 115.041 91.3059 135.428 88.1417 157.627C88.0836 158.023 88.0371 158.406 88.0022 158.801C87.944 159.452 89.0724 159.975 90.48 159.975H119.353C125.018 159.975 130.474 155.431 132.696 150.224C140.769 131.406 159.463 118.226 181.24 118.226C203.016 118.226 221.722 131.406 229.784 150.224C232.017 155.419 237.473 159.975 243.127 159.975H271.999C273.419 159.975 274.535 159.452 274.477 158.801C274.442 158.406 274.396 158.023 274.338 157.627H274.372Z" fill="url(#paint36_linear_191_745)" fill-opacity="0.2"/>
<path d="M181.251 77.0996C204.016 77.0996 225.979 85.3436 243.096 100.298C260.009 115.076 271.074 135.396 274.257 157.527H274.222L274.238 157.642C274.296 158.035 274.343 158.418 274.378 158.811C274.401 159.069 274.191 159.334 273.75 159.542C273.317 159.746 272.698 159.875 271.999 159.875H243.127C237.524 159.875 232.098 155.354 229.876 150.185C221.799 131.332 203.057 118.126 181.239 118.126C159.762 118.126 141.278 130.922 132.99 149.305L132.604 150.185C130.393 155.365 124.968 159.875 119.353 159.875H90.4795C89.7869 159.875 89.1686 159.746 88.7344 159.542C88.2912 159.333 88.0787 159.068 88.1016 158.811C88.1363 158.418 88.1823 158.035 88.2402 157.642H88.2412C91.402 135.466 102.476 115.101 119.419 100.298C136.536 85.3321 158.486 77.0997 181.251 77.0996Z" stroke="white" stroke-opacity="0.3" stroke-width="0.2"/>
<path d="M252.317 140.995C252.852 142.274 253.364 143.564 253.841 144.877C253.364 143.564 252.864 142.274 252.317 140.995Z" fill="#FA7300"/>
<g opacity="0.8">
<path opacity="0.7" d="M181.25 93.8992C174.806 93.8992 168.559 94.7011 162.58 96.1889C163.964 104.22 165.278 112.263 166.465 120.329C171.153 118.97 176.12 118.226 181.25 118.226C197.315 118.226 211.694 125.397 221.384 136.718C226.177 129.976 230.993 123.258 235.855 116.552C221.896 102.57 202.597 93.8992 181.25 93.8992Z" fill="url(#paint37_linear_191_745)"/>
<path opacity="0.7" d="M108.324 145.83C106.753 150.363 105.59 155.093 104.892 159.963H119.363C123.737 159.963 127.983 157.244 130.717 153.606C123.26 150.991 115.769 148.468 108.324 145.83Z" fill="#4244BE"/>
<path opacity="0.7" d="M136.406 108.3C141.315 114.739 145.933 121.434 150.668 128C159.102 122.003 169.373 118.412 180.483 118.249V93.9224C164.045 94.0851 148.853 99.3967 136.406 108.3Z" fill="url(#paint38_linear_191_745)"/>
<path opacity="0.7" d="M254.2 145.865C249.012 130.825 239.298 117.889 226.688 108.684L212.217 128.245C219.894 133.812 226.025 141.39 229.806 150.224C230.364 151.514 231.109 152.757 232.016 153.908C233.04 153.385 252.176 146.632 254.211 145.865H254.2Z" fill="url(#paint39_linear_191_745)"/>
<path opacity="0.7" d="M254.2 145.865C252.153 146.644 233.075 153.373 232.016 153.908C234.761 157.395 238.891 159.975 243.149 159.975H257.62C256.922 155.117 255.759 150.398 254.2 145.877V145.865Z" fill="url(#paint40_linear_191_745)"/>
<path style="mix-blend-mode:multiply" d="M180.994 103.639C214.206 103.639 241.695 128.105 246.406 159.975H257.608C252.257 122.619 220.116 93.9111 181.25 93.9111C142.385 93.9111 110.243 122.619 104.892 159.975H115.583C120.294 128.105 147.783 103.639 180.994 103.639Z" fill="url(#paint41_radial_191_745)" fill-opacity="0.2"/>
<g opacity="0.7">
<path d="M132.706 150.224C140.78 131.406 159.474 118.226 181.25 118.226C203.027 118.226 221.733 131.406 229.794 150.224C232.028 155.419 237.484 159.975 243.137 159.975H257.608C252.257 122.619 220.116 93.9111 181.25 93.9111C142.385 93.9111 110.243 122.619 104.892 159.975H119.363C125.029 159.975 130.484 155.431 132.706 150.224Z" fill="url(#paint42_linear_191_745)"/>
<path d="M181.25 94.1113C219.936 94.1114 251.941 122.628 257.376 159.775H243.137C237.584 159.775 232.189 155.288 229.978 150.145C221.886 131.256 203.11 118.026 181.25 118.026C159.391 118.026 140.627 131.257 132.523 150.145L132.522 150.146C130.323 155.299 124.928 159.775 119.364 159.775H105.125C110.56 122.628 142.565 94.1113 181.25 94.1113Z" stroke="white" stroke-opacity="0.6" stroke-width="0.4"/>
</g>
</g>
<path d="M229.678 149.538C221.605 130.72 202.632 117.889 181.251 117.889C159.87 117.889 141.048 131.022 132.963 149.189C131.834 151.723 129.74 154.698 127.449 157.151C129.717 155.477 131.567 152.978 132.66 150.433C140.733 131.615 159.474 118.737 181.251 118.737C203.028 118.737 221.431 131.22 229.492 150.037C230.574 152.571 232.494 155.151 234.832 156.918C232.645 154.512 230.737 152.013 229.678 149.549V149.538Z" fill="url(#paint43_linear_191_745)" fill-opacity="0.8"/>
<path d="M177.603 157.374C181.694 155.115 226.029 138.55 226.765 139.871C227.466 141.126 189.878 169.917 185.791 172.166C181.7 174.425 176.553 172.943 174.3 168.857C172.047 164.772 173.516 159.624 177.603 157.374Z" fill="url(#paint44_linear_191_745)" fill-opacity="0.5"/>
<path d="M226.589 139.995C226.545 140.074 226.467 140.181 226.35 140.319C226.118 140.593 225.754 140.963 225.271 141.418C224.305 142.326 222.881 143.56 221.137 145.015C217.65 147.924 212.891 151.71 207.981 155.527C203.072 159.344 198.013 163.193 193.927 166.227C189.835 169.265 186.73 171.479 185.719 172.035C181.7 174.255 176.644 172.798 174.431 168.785C172.218 164.771 173.662 159.715 177.676 157.506C178.687 156.947 182.213 155.492 186.961 153.64C191.703 151.791 197.651 149.55 203.494 147.421C209.337 145.292 215.073 143.276 219.395 141.874C221.555 141.173 223.36 140.627 224.646 140.297C225.289 140.132 225.799 140.023 226.156 139.975C226.336 139.95 226.47 139.942 226.56 139.949C226.579 139.95 226.593 139.954 226.606 139.956C226.601 139.967 226.597 139.981 226.589 139.995Z" stroke="white" stroke-opacity="0.4" stroke-width="0.3"/>
<path d="M179.714 161.18C181.691 160.09 184.19 160.798 185.288 162.79C186.387 164.782 185.674 167.264 183.681 168.36C181.704 169.451 179.205 168.742 178.107 166.75C177.014 164.774 177.721 162.276 179.714 161.18Z" fill="url(#paint45_linear_191_745)" fill-opacity="0.5"/>
<path d="M180.603 162.786C181.701 162.181 183.078 162.579 183.683 163.677C184.289 164.774 183.892 166.15 182.794 166.754C181.696 167.359 180.319 166.961 179.714 165.863C179.108 164.766 179.505 163.39 180.603 162.786Z" fill="#CCD8FF"/>
<path d="M226.766 139.872C226.489 139.379 220.039 141.414 211.877 144.262L215.027 150.161C221.816 144.74 227.016 140.34 226.755 139.867L226.766 139.872Z" fill="url(#paint46_linear_191_745)"/>
</g>
</g>
<rect x="-55" y="146" width="483" height="139" fill="url(#paint47_linear_191_745)"/>
<rect x="-55" y="211" width="483" height="45" fill="url(#paint48_linear_191_745)"/>
<defs>
<filter id="filter0_f_191_745" x="4" y="-58" width="370" height="369" filterUnits="userSpaceOnUse" color-interpolation-filters="sRGB">
<feFlood flood-opacity="0" result="BackgroundImageFix"/>
<feBlend mode="normal" in="SourceGraphic" in2="BackgroundImageFix" result="shape"/>
<feGaussianBlur stdDeviation="75" result="effect1_foregroundBlur_191_745"/>
</filter>
<filter id="filter1_f_191_745" x="-304.939" y="-260.507" width="535.489" height="546.503" filterUnits="userSpaceOnUse" color-interpolation-filters="sRGB">
<feFlood flood-opacity="0" result="BackgroundImageFix"/>
<feBlend mode="normal" in="SourceGraphic" in2="BackgroundImageFix" result="shape"/>
<feGaussianBlur stdDeviation="22.1185" result="effect1_foregroundBlur_191_745"/>
</filter>
<filter id="filter2_f_191_745" x="-257.493" y="-190.011" width="349.79" height="314.402" filterUnits="userSpaceOnUse" color-interpolation-filters="sRGB">
<feFlood flood-opacity="0" result="BackgroundImageFix"/>
<feBlend mode="normal" in="SourceGraphic" in2="BackgroundImageFix" result="shape"/>
<feGaussianBlur stdDeviation="19.0465" result="effect1_foregroundBlur_191_745"/>
</filter>
<filter id="filter3_f_191_745" x="-251.281" y="-221.774" width="349.79" height="314.402" filterUnits="userSpaceOnUse" color-interpolation-filters="sRGB">
<feFlood flood-opacity="0" result="BackgroundImageFix"/>
<feBlend mode="normal" in="SourceGraphic" in2="BackgroundImageFix" result="shape"/>
<feGaussianBlur stdDeviation="19.0465" result="effect1_foregroundBlur_191_745"/>
</filter>
<filter id="filter4_f_191_745" x="-293.151" y="-197.883" width="349.79" height="314.402" filterUnits="userSpaceOnUse" color-interpolation-filters="sRGB">
<feFlood flood-opacity="0" result="BackgroundImageFix"/>
<feBlend mode="normal" in="SourceGraphic" in2="BackgroundImageFix" result="shape"/>
<feGaussianBlur stdDeviation="19.0465" result="effect1_foregroundBlur_191_745"/>
</filter>
<filter id="filter5_f_191_745" x="-224.337" y="-175.85" width="316.946" height="281.558" filterUnits="userSpaceOnUse" color-interpolation-filters="sRGB">
<feFlood flood-opacity="0" result="BackgroundImageFix"/>
<feBlend mode="normal" in="SourceGraphic" in2="BackgroundImageFix" result="shape"/>
<feGaussianBlur stdDeviation="10.8356" result="effect1_foregroundBlur_191_745"/>
</filter>
<filter id="filter6_f_191_745" x="-250.333" y="-185.794" width="409.958" height="375.603" filterUnits="userSpaceOnUse" color-interpolation-filters="sRGB">
<feFlood flood-opacity="0" result="BackgroundImageFix"/>
<feBlend mode="normal" in="SourceGraphic" in2="BackgroundImageFix" result="shape"/>
<feGaussianBlur stdDeviation="19.0465" result="effect1_foregroundBlur_191_745"/>
</filter>
<filter id="filter7_f_191_745" x="-247.307" y="-220.815" width="409.958" height="375.603" filterUnits="userSpaceOnUse" color-interpolation-filters="sRGB">
<feFlood flood-opacity="0" result="BackgroundImageFix"/>
<feBlend mode="normal" in="SourceGraphic" in2="BackgroundImageFix" result="shape"/>
<feGaussianBlur stdDeviation="19.0465" result="effect1_foregroundBlur_191_745"/>
</filter>
<filter id="filter8_f_191_745" x="-291.098" y="-198.786" width="409.958" height="375.603" filterUnits="userSpaceOnUse" color-interpolation-filters="sRGB">
<feFlood flood-opacity="0" result="BackgroundImageFix"/>
<feBlend mode="normal" in="SourceGraphic" in2="BackgroundImageFix" result="shape"/>
<feGaussianBlur stdDeviation="19.0465" result="effect1_foregroundBlur_191_745"/>
</filter>
<filter id="filter9_f_191_745" x="-215.512" y="-169.978" width="377.114" height="342.759" filterUnits="userSpaceOnUse" color-interpolation-filters="sRGB">
<feFlood flood-opacity="0" result="BackgroundImageFix"/>
<feBlend mode="normal" in="SourceGraphic" in2="BackgroundImageFix" result="shape"/>
<feGaussianBlur stdDeviation="10.8356" result="effect1_foregroundBlur_191_745"/>
</filter>
<filter id="filter10_f_191_745" x="-258.61" y="-180.796" width="404.26" height="364.352" filterUnits="userSpaceOnUse" color-interpolation-filters="sRGB">
<feFlood flood-opacity="0" result="BackgroundImageFix"/>
<feBlend mode="normal" in="SourceGraphic" in2="BackgroundImageFix" result="shape"/>
<feGaussianBlur stdDeviation="19.0465" result="effect1_foregroundBlur_191_745"/>
</filter>
<filter id="filter11_f_191_745" x="-255.446" y="-215.429" width="404.26" height="364.352" filterUnits="userSpaceOnUse" color-interpolation-filters="sRGB">
<feFlood flood-opacity="0" result="BackgroundImageFix"/>
<feBlend mode="normal" in="SourceGraphic" in2="BackgroundImageFix" result="shape"/>
<feGaussianBlur stdDeviation="19.0465" result="effect1_foregroundBlur_191_745"/>
</filter>
<filter id="filter12_f_191_745" x="-298.795" y="-192.711" width="404.26" height="364.352" filterUnits="userSpaceOnUse" color-interpolation-filters="sRGB">
<feFlood flood-opacity="0" result="BackgroundImageFix"/>
<feBlend mode="normal" in="SourceGraphic" in2="BackgroundImageFix" result="shape"/>
<feGaussianBlur stdDeviation="19.0465" result="effect1_foregroundBlur_191_745"/>
</filter>
<filter id="filter13_f_191_745" x="-224.018" y="-165.381" width="371.417" height="331.509" filterUnits="userSpaceOnUse" color-interpolation-filters="sRGB">
<feFlood flood-opacity="0" result="BackgroundImageFix"/>
<feBlend mode="normal" in="SourceGraphic" in2="BackgroundImageFix" result="shape"/>
<feGaussianBlur stdDeviation="10.8356" result="effect1_foregroundBlur_191_745"/>
</filter>
<filter id="filter14_f_191_745" x="-229.677" y="-216.781" width="380.528" height="433.607" filterUnits="userSpaceOnUse" color-interpolation-filters="sRGB">
<feFlood flood-opacity="0" result="BackgroundImageFix"/>
<feBlend mode="normal" in="SourceGraphic" in2="BackgroundImageFix" result="shape"/>
<feGaussianBlur stdDeviation="19.0465" result="effect1_foregroundBlur_191_745"/>
</filter>
<filter id="filter15_f_191_745" x="-199.883" y="-254.363" width="380.528" height="433.607" filterUnits="userSpaceOnUse" color-interpolation-filters="sRGB">
<feFlood flood-opacity="0" result="BackgroundImageFix"/>
<feBlend mode="normal" in="SourceGraphic" in2="BackgroundImageFix" result="shape"/>
<feGaussianBlur stdDeviation="19.0465" result="effect1_foregroundBlur_191_745"/>
</filter>
<filter id="filter16_f_191_745" x="-279.006" y="-231.542" width="380.528" height="433.607" filterUnits="userSpaceOnUse" color-interpolation-filters="sRGB">
<feFlood flood-opacity="0" result="BackgroundImageFix"/>
<feBlend mode="normal" in="SourceGraphic" in2="BackgroundImageFix" result="shape"/>
<feGaussianBlur stdDeviation="19.0465" result="effect1_foregroundBlur_191_745"/>
</filter>
<filter id="filter17_f_191_745" x="-224.105" y="-203.943" width="347.684" height="400.763" filterUnits="userSpaceOnUse" color-interpolation-filters="sRGB">
<feFlood flood-opacity="0" result="BackgroundImageFix"/>
<feBlend mode="normal" in="SourceGraphic" in2="BackgroundImageFix" result="shape"/>
<feGaussianBlur stdDeviation="10.8356" result="effect1_foregroundBlur_191_745"/>
</filter>
<filter id="filter18_f_191_745" x="-139.7" y="-137.333" width="347.684" height="400.763" filterUnits="userSpaceOnUse" color-interpolation-filters="sRGB">
<feFlood flood-opacity="0" result="BackgroundImageFix"/>
<feBlend mode="normal" in="SourceGraphic" in2="BackgroundImageFix" result="shape"/>
<feGaussianBlur stdDeviation="10.8356" result="effect1_foregroundBlur_191_745"/>
</filter>
<filter id="filter19_f_191_745" x="-243.657" y="-221.686" width="277.077" height="293.339" filterUnits="userSpaceOnUse" color-interpolation-filters="sRGB">
<feFlood flood-opacity="0" result="BackgroundImageFix"/>
<feBlend mode="normal" in="SourceGraphic" in2="BackgroundImageFix" result="shape"/>
<feGaussianBlur stdDeviation="19.0465" result="effect1_foregroundBlur_191_745"/>
</filter>
<filter id="filter20_f_191_745" x="-223.8" y="-252.971" width="277.077" height="293.339" filterUnits="userSpaceOnUse" color-interpolation-filters="sRGB">
<feFlood flood-opacity="0" result="BackgroundImageFix"/>
<feBlend mode="normal" in="SourceGraphic" in2="BackgroundImageFix" result="shape"/>
<feGaussianBlur stdDeviation="19.0465" result="effect1_foregroundBlur_191_745"/>
</filter>
<filter id="filter22_f_191_745" x="-208.176" y="-208.389" width="244.233" height="260.495" filterUnits="userSpaceOnUse" color-interpolation-filters="sRGB">
<feFlood flood-opacity="0" result="BackgroundImageFix"/>
<feBlend mode="normal" in="SourceGraphic" in2="BackgroundImageFix" result="shape"/>
<feGaussianBlur stdDeviation="10.8356" result="effect1_foregroundBlur_191_745"/>
</filter>
<filter id="filter23_f_191_745" x="-247.152" y="-221.89" width="260.122" height="281.94" filterUnits="userSpaceOnUse" color-interpolation-filters="sRGB">
<feFlood flood-opacity="0" result="BackgroundImageFix"/>
<feBlend mode="normal" in="SourceGraphic" in2="BackgroundImageFix" result="shape"/>
<feGaussianBlur stdDeviation="19.0465" result="effect1_foregroundBlur_191_745"/>
</filter>
<filter id="filter24_f_191_745" x="-229.472" y="-251.011" width="260.122" height="281.94" filterUnits="userSpaceOnUse" color-interpolation-filters="sRGB">
<feFlood flood-opacity="0" result="BackgroundImageFix"/>
<feBlend mode="normal" in="SourceGraphic" in2="BackgroundImageFix" result="shape"/>
<feGaussianBlur stdDeviation="19.0465" result="effect1_foregroundBlur_191_745"/>
</filter>
<filter id="filter25_f_191_745" x="-213.501" y="-208.192" width="227.278" height="249.096" filterUnits="userSpaceOnUse" color-interpolation-filters="sRGB">
<feFlood flood-opacity="0" result="BackgroundImageFix"/>
<feBlend mode="normal" in="SourceGraphic" in2="BackgroundImageFix" result="shape"/>
<feGaussianBlur stdDeviation="10.8356" result="effect1_foregroundBlur_191_745"/>
</filter>
<filter id="filter26_f_191_745" x="-236.902" y="-248.427" width="239.409" height="272.919" filterUnits="userSpaceOnUse" color-interpolation-filters="sRGB">
<feFlood flood-opacity="0" result="BackgroundImageFix"/>
<feBlend mode="normal" in="SourceGraphic" in2="BackgroundImageFix" result="shape"/>
<feGaussianBlur stdDeviation="19.0465" result="effect1_foregroundBlur_191_745"/>
</filter>
<filter id="filter27_f_191_745" x="-237.482" y="-223.117" width="308.748" height="312.133" filterUnits="userSpaceOnUse" color-interpolation-filters="sRGB">
<feFlood flood-opacity="0" result="BackgroundImageFix"/>
<feBlend mode="normal" in="SourceGraphic" in2="BackgroundImageFix" result="shape"/>
<feGaussianBlur stdDeviation="19.0465" result="effect1_foregroundBlur_191_745"/>
</filter>
<filter id="filter28_f_191_745" x="-225.522" y="-235.717" width="308.748" height="312.133" filterUnits="userSpaceOnUse" color-interpolation-filters="sRGB">
<feFlood flood-opacity="0" result="BackgroundImageFix"/>
<feBlend mode="normal" in="SourceGraphic" in2="BackgroundImageFix" result="shape"/>
<feGaussianBlur stdDeviation="19.0465" result="effect1_foregroundBlur_191_745"/>
</filter>
<filter id="filter29_f_191_745" x="-207.973" y="-254.967" width="308.748" height="312.133" filterUnits="userSpaceOnUse" color-interpolation-filters="sRGB">
<feFlood flood-opacity="0" result="BackgroundImageFix"/>
<feBlend mode="normal" in="SourceGraphic" in2="BackgroundImageFix" result="shape"/>
<feGaussianBlur stdDeviation="19.0465" result="effect1_foregroundBlur_191_745"/>
</filter>
<filter id="filter30_f_191_745" x="-279.09" y="-228.582" width="308.748" height="312.133" filterUnits="userSpaceOnUse" color-interpolation-filters="sRGB">
<feFlood flood-opacity="0" result="BackgroundImageFix"/>
<feBlend mode="normal" in="SourceGraphic" in2="BackgroundImageFix" result="shape"/>
<feGaussianBlur stdDeviation="19.0465" result="effect1_foregroundBlur_191_745"/>
</filter>
<filter id="filter31_f_191_745" x="-230.181" y="-208.152" width="275.904" height="279.289" filterUnits="userSpaceOnUse" color-interpolation-filters="sRGB">
<feFlood flood-opacity="0" result="BackgroundImageFix"/>
<feBlend mode="normal" in="SourceGraphic" in2="BackgroundImageFix" result="shape"/>
<feGaussianBlur stdDeviation="10.8356" result="effect1_foregroundBlur_191_745"/>
</filter>
<filter id="filter32_f_191_745" x="-162.875" y="-167.54" width="275.904" height="279.289" filterUnits="userSpaceOnUse" color-interpolation-filters="sRGB">
<feFlood flood-opacity="0" result="BackgroundImageFix"/>
<feBlend mode="normal" in="SourceGraphic" in2="BackgroundImageFix" result="shape"/>
<feGaussianBlur stdDeviation="10.8356" result="effect1_foregroundBlur_191_745"/>
</filter>
<filter id="filter33_f_191_745" x="113" y="46" width="132" height="128" filterUnits="userSpaceOnUse" color-interpolation-filters="sRGB">
<feFlood flood-opacity="0" result="BackgroundImageFix"/>
<feBlend mode="normal" in="SourceGraphic" in2="BackgroundImageFix" result="shape"/>
<feGaussianBlur stdDeviation="20" result="effect1_foregroundBlur_191_745"/>
</filter>
<radialGradient id="paint0_radial_191_745" cx="0" cy="0" r="1" gradientTransform="matrix(715.156 818.797 568.413 -503.687 -374.156 -599.484)" gradientUnits="userSpaceOnUse">
<stop stop-color="white"/>
<stop offset="0.870824" stop-color="white" stop-opacity="0"/>
</radialGradient>
<linearGradient id="paint1_linear_191_745" x1="237.626" y1="-2.44428e-08" x2="237.512" y2="161.275" gradientUnits="userSpaceOnUse">
<stop stop-color="#0E0E10" stop-opacity="0"/>
<stop offset="1" stop-color="#0E0E10"/>
</linearGradient>
<linearGradient id="paint2_linear_191_745" x1="603.676" y1="-84.336" x2="126.088" y2="383.67" gradientUnits="userSpaceOnUse">
<stop offset="0.299657" stop-color="#0E0E10" stop-opacity="0"/>
<stop offset="0.856986" stop-color="#0E0E10"/>
</linearGradient>
<linearGradient id="paint3_linear_191_745" x1="-217.898" y1="-148.254" x2="-30.3364" y2="-71.3118" gradientUnits="userSpaceOnUse">
<stop stop-color="white"/>
<stop offset="1" stop-color="#2E31F8"/>
</linearGradient>
<linearGradient id="paint4_linear_191_745" x1="-211.685" y1="-180.017" x2="-24.124" y2="-103.075" gradientUnits="userSpaceOnUse">
<stop stop-color="white"/>
<stop offset="1" stop-color="#2E31F8"/>
</linearGradient>
<linearGradient id="paint5_linear_191_745" x1="-253.555" y1="-156.126" x2="-65.9941" y2="-79.1836" gradientUnits="userSpaceOnUse">
<stop stop-color="white"/>
<stop offset="1" stop-color="#2E31F8"/>
</linearGradient>
<linearGradient id="paint6_linear_191_745" x1="-201.163" y1="-150.515" x2="-13.6015" y2="-73.5733" gradientUnits="userSpaceOnUse">
<stop stop-color="white"/>
<stop offset="1" stop-color="white"/>
</linearGradient>
<linearGradient id="paint7_linear_191_745" x1="-211.013" y1="-143.753" x2="19.2182" y2="-72.2244" gradientUnits="userSpaceOnUse">
<stop stop-color="white"/>
<stop offset="1" stop-color="#2E31F8"/>
</linearGradient>
<linearGradient id="paint8_linear_191_745" x1="-207.988" y1="-178.774" x2="22.2436" y2="-107.245" gradientUnits="userSpaceOnUse">
<stop stop-color="white"/>
<stop offset="1" stop-color="#2E31F8"/>
</linearGradient>
<linearGradient id="paint9_linear_191_745" x1="-251.778" y1="-156.745" x2="-21.5469" y2="-85.2163" gradientUnits="userSpaceOnUse">
<stop stop-color="white"/>
<stop offset="1" stop-color="#2E31F8"/>
</linearGradient>
<linearGradient id="paint10_linear_191_745" x1="-192.614" y1="-144.358" x2="37.6176" y2="-72.8296" gradientUnits="userSpaceOnUse">
<stop stop-color="white"/>
<stop offset="1" stop-color="white"/>
</linearGradient>
<linearGradient id="paint11_linear_191_745" x1="-219.286" y1="-138.779" x2="6.0379" y2="-68.0912" gradientUnits="userSpaceOnUse">
<stop stop-color="white"/>
<stop offset="1" stop-color="#2E31F8"/>
</linearGradient>
<linearGradient id="paint12_linear_191_745" x1="-216.121" y1="-173.412" x2="9.20246" y2="-102.724" gradientUnits="userSpaceOnUse">
<stop stop-color="white"/>
<stop offset="1" stop-color="#2E31F8"/>
</linearGradient>
<linearGradient id="paint13_linear_191_745" x1="-259.47" y1="-150.694" x2="-34.1467" y2="-80.0065" gradientUnits="userSpaceOnUse">
<stop stop-color="white"/>
<stop offset="1" stop-color="#2E31F8"/>
</linearGradient>
<linearGradient id="paint14_linear_191_745" x1="-201.116" y1="-139.785" x2="24.2078" y2="-69.0975" gradientUnits="userSpaceOnUse">
<stop stop-color="white"/>
<stop offset="1" stop-color="white"/>
</linearGradient>
<linearGradient id="paint15_linear_191_745" x1="-187.766" y1="-173.815" x2="24.8414" y2="-7.23215" gradientUnits="userSpaceOnUse">
<stop stop-color="white"/>
<stop offset="0.557292" stop-color="#2E31F8"/>
<stop offset="1" stop-color="#2E31F8" stop-opacity="0.3"/>
</linearGradient>
<linearGradient id="paint16_linear_191_745" x1="-157.972" y1="-211.397" x2="54.6348" y2="-44.8147" gradientUnits="userSpaceOnUse">
<stop stop-color="white"/>
<stop offset="1" stop-color="#2E31F8"/>
</linearGradient>
<linearGradient id="paint17_linear_191_745" x1="-237.095" y1="-188.576" x2="-24.4877" y2="-21.9931" gradientUnits="userSpaceOnUse">
<stop stop-color="white"/>
<stop offset="0.557292" stop-color="#2E31F8"/>
<stop offset="1" stop-color="#2E31F8" stop-opacity="0.3"/>
</linearGradient>
<linearGradient id="paint18_linear_191_745" x1="-198.616" y1="-177.399" x2="13.9912" y2="-10.8166" gradientUnits="userSpaceOnUse">
<stop stop-color="white"/>
<stop offset="1" stop-color="white"/>
</linearGradient>
<linearGradient id="paint19_linear_191_745" x1="-114.211" y1="-110.789" x2="98.3965" y2="55.7933" gradientUnits="userSpaceOnUse">
<stop stop-color="white"/>
<stop offset="1" stop-color="white"/>
</linearGradient>
<linearGradient id="paint20_linear_191_745" x1="-202.421" y1="-179.941" x2="-72.0207" y2="-67.7467" gradientUnits="userSpaceOnUse">
<stop stop-color="white"/>
<stop offset="1" stop-color="#F89B2E"/>
</linearGradient>
<linearGradient id="paint21_linear_191_745" x1="-182.565" y1="-211.226" x2="-52.1643" y2="-99.0316" gradientUnits="userSpaceOnUse">
<stop stop-color="white"/>
<stop offset="1" stop-color="#F89B2E"/>
</linearGradient>
<linearGradient id="paint22_linear_191_745" x1="-237.787" y1="-185.646" x2="-107.386" y2="-73.4508" gradientUnits="userSpaceOnUse">
<stop stop-color="white"/>
<stop offset="1" stop-color="#F89B2E"/>
</linearGradient>
<linearGradient id="paint23_linear_191_745" x1="-183.362" y1="-183.066" x2="-52.9616" y2="-70.8717" gradientUnits="userSpaceOnUse">
<stop stop-color="white"/>
<stop offset="1" stop-color="white"/>
</linearGradient>
<linearGradient id="paint24_linear_191_745" x1="-206.248" y1="-180.406" x2="-83.2231" y2="-78.4345" gradientUnits="userSpaceOnUse">
<stop stop-color="white"/>
<stop offset="1" stop-color="#F89B2E"/>
</linearGradient>
<linearGradient id="paint25_linear_191_745" x1="-188.569" y1="-209.528" x2="-65.5439" y2="-107.556" gradientUnits="userSpaceOnUse">
<stop stop-color="white"/>
<stop offset="1" stop-color="#F89B2E"/>
</linearGradient>
<linearGradient id="paint26_linear_191_745" x1="-189.02" y1="-183.13" x2="-65.9946" y2="-81.1582" gradientUnits="userSpaceOnUse">
<stop stop-color="white"/>
<stop offset="1" stop-color="white"/>
</linearGradient>
<linearGradient id="paint27_linear_191_745" x1="-196.451" y1="-207.23" x2="-80.2741" y2="-118.99" gradientUnits="userSpaceOnUse">
<stop stop-color="white"/>
<stop offset="1" stop-color="#F89B2E"/>
</linearGradient>
<linearGradient id="paint28_linear_191_745" x1="-195.603" y1="-180.9" x2="-53.0439" y2="-50.0105" gradientUnits="userSpaceOnUse">
<stop stop-color="white"/>
<stop offset="0.557292" stop-color="#F89B2E"/>
<stop offset="1" stop-color="#F89B2E" stop-opacity="0.3"/>
</linearGradient>
<linearGradient id="paint29_linear_191_745" x1="-183.643" y1="-193.5" x2="-41.084" y2="-62.6106" gradientUnits="userSpaceOnUse">
<stop stop-color="white"/>
<stop offset="0.557292" stop-color="#F89B2E"/>
<stop offset="1" stop-color="#F89B2E" stop-opacity="0.3"/>
</linearGradient>
<linearGradient id="paint30_linear_191_745" x1="-166.094" y1="-212.75" x2="-23.5351" y2="-81.8601" gradientUnits="userSpaceOnUse">
<stop stop-color="white"/>
<stop offset="1" stop-color="#F89B2E"/>
</linearGradient>
<linearGradient id="paint31_linear_191_745" x1="-237.211" y1="-186.365" x2="-94.6513" y2="-55.4753" gradientUnits="userSpaceOnUse">
<stop stop-color="white"/>
<stop offset="0.557292" stop-color="#F89B2E"/>
<stop offset="1" stop-color="#F89B2E" stop-opacity="0.3"/>
</linearGradient>
<linearGradient id="paint32_linear_191_745" x1="-204.724" y1="-182.357" x2="-62.1646" y2="-51.4675" gradientUnits="userSpaceOnUse">
<stop stop-color="white"/>
<stop offset="1" stop-color="white"/>
</linearGradient>
<linearGradient id="paint33_linear_191_745" x1="-137.418" y1="-141.745" x2="5.14112" y2="-10.8552" gradientUnits="userSpaceOnUse">
<stop stop-color="white"/>
<stop offset="1" stop-color="white"/>
</linearGradient>
<linearGradient id="paint34_linear_191_745" x1="180.994" y1="125.641" x2="180.994" y2="179.652" gradientUnits="userSpaceOnUse">
<stop stop-color="#6182FE"/>
<stop offset="1" stop-color="white" stop-opacity="0"/>
</linearGradient>
<linearGradient id="paint35_linear_191_745" x1="180.994" y1="125.641" x2="180.994" y2="161.742" gradientUnits="userSpaceOnUse">
<stop stop-color="#6182FE"/>
<stop offset="1" stop-color="#6182FE" stop-opacity="0"/>
</linearGradient>
<linearGradient id="paint36_linear_191_745" x1="180.7" y1="8.85272" x2="180.7" y2="159.785" gradientUnits="userSpaceOnUse">
<stop stop-color="#4244BE"/>
<stop offset="0.770605" stop-color="white" stop-opacity="0"/>
</linearGradient>
<linearGradient id="paint37_linear_191_745" x1="180.913" y1="107.521" x2="218.389" y2="118.825" gradientUnits="userSpaceOnUse">
<stop stop-color="#4244BE" stop-opacity="0.4"/>
<stop offset="0.96" stop-color="#4244BE" stop-opacity="0.5"/>
</linearGradient>
<linearGradient id="paint38_linear_191_745" x1="136.406" y1="110.961" x2="180.483" y2="110.961" gradientUnits="userSpaceOnUse">
<stop stop-color="#4244BE" stop-opacity="0.6"/>
<stop offset="1" stop-color="#4244BE" stop-opacity="0.6"/>
</linearGradient>
<linearGradient id="paint39_linear_191_745" x1="244.963" y1="146.806" x2="219.243" y2="119.715" gradientUnits="userSpaceOnUse">
<stop offset="0.09" stop-color="#5758CA"/>
<stop offset="1" stop-color="#6687FF"/>
</linearGradient>
<linearGradient id="paint40_linear_191_745" x1="244.818" y1="145.865" x2="244.818" y2="159.975" gradientUnits="userSpaceOnUse">
<stop stop-color="#99AFFF"/>
<stop offset="1" stop-color="#99AFFF"/>
</linearGradient>
<radialGradient id="paint41_radial_191_745" cx="0" cy="0" r="1" gradientUnits="userSpaceOnUse" gradientTransform="translate(181.432 171.179) scale(76.7719 76.7055)">
<stop offset="0.95" stop-color="white"/>
<stop offset="1" stop-color="#999999"/>
</radialGradient>
<linearGradient id="paint42_linear_191_745" x1="123.121" y1="160.533" x2="157.872" y2="147.426" gradientUnits="userSpaceOnUse">
<stop stop-color="#4244BE" stop-opacity="0.8"/>
<stop offset="1" stop-color="#4244BE" stop-opacity="0.8"/>
</linearGradient>
<linearGradient id="paint43_linear_191_745" x1="181.14" y1="117.889" x2="181.14" y2="157.151" gradientUnits="userSpaceOnUse">
<stop stop-color="#6182FE"/>
<stop offset="1" stop-color="#6182FE" stop-opacity="0"/>
</linearGradient>
<linearGradient id="paint44_linear_191_745" x1="208.773" y1="131.822" x2="188.569" y2="177.093" gradientUnits="userSpaceOnUse">
<stop stop-color="#6182FE"/>
<stop offset="1" stop-color="#DDDDDD" stop-opacity="0"/>
</linearGradient>
<linearGradient id="paint45_linear_191_745" x1="183.371" y1="161.026" x2="180.028" y2="168.516" gradientUnits="userSpaceOnUse">
<stop stop-color="#6182FE"/>
<stop offset="1" stop-color="#6182FE" stop-opacity="0"/>
</linearGradient>
<linearGradient id="paint46_linear_191_745" x1="221.359" y1="145.821" x2="218.755" y2="141.244" gradientUnits="userSpaceOnUse">
<stop stop-color="#03A213" stop-opacity="0.6"/>
<stop offset="1" stop-color="#0AF505" stop-opacity="0.4"/>
</linearGradient>
<linearGradient id="paint47_linear_191_745" x1="186.5" y1="146" x2="186.5" y2="285" gradientUnits="userSpaceOnUse">
<stop stop-color="#0E0E10" stop-opacity="0"/>
<stop offset="1" stop-color="#0E0E10"/>
</linearGradient>
<linearGradient id="paint48_linear_191_745" x1="186.5" y1="211" x2="186.5" y2="256" gradientUnits="userSpaceOnUse">
<stop stop-color="#0E0E10" stop-opacity="0"/>
<stop offset="1" stop-color="#0E0E10"/>
</linearGradient>
<clipPath id="clip0_191_745">
<rect width="477" height="237" fill="white" transform="translate(-50)"/>
</clipPath>
<clipPath id="clip1_191_745">
<rect width="284" height="156" fill="white" transform="translate(39 56)"/>
</clipPath>
</defs>
</svg>
