<svg width="377" height="250" viewBox="0 0 377 250" fill="none" xmlns="http://www.w3.org/2000/svg">
<g clip-path="url(#clip0_194_1115)">
<path d="M4.47059 -98H-19V-73.5833M4.47059 -98V-73.5833M4.47059 -98H27.9412M4.47059 -73.5833H-19M4.47059 -73.5833H27.9412M4.47059 -73.5833V-49.1667M-19 -73.5833V-49.1667M27.9412 -98V-73.5833M27.9412 -98H51.4118M27.9412 -73.5833H51.4118M27.9412 -73.5833V-49.1667M51.4118 -98V-73.5833M51.4118 -98H74.8824M51.4118 -73.5833H74.8824M51.4118 -73.5833V-49.1667M74.8824 -98V-73.5833M74.8824 -98H98.3529M74.8824 -73.5833H98.3529M74.8824 -73.5833V-49.1667M98.3529 -98V-73.5833M98.3529 -98H121.824M98.3529 -73.5833H121.824M98.3529 -73.5833V-49.1667M121.824 -98V-73.5833M121.824 -98H145.294M121.824 -73.5833H145.294M121.824 -73.5833V-49.1667M145.294 -98V-73.5833M145.294 -98H168.765M145.294 -73.5833H168.765M145.294 -73.5833V-49.1667M168.765 -98V-73.5833M168.765 -98H192.235M168.765 -73.5833H192.235M168.765 -73.5833V-49.1667M192.235 -98V-73.5833M192.235 -98H215.706M192.235 -73.5833H215.706M192.235 -73.5833V-49.1667M215.706 -98V-73.5833M215.706 -98H239.176M215.706 -73.5833H239.176M215.706 -73.5833V-49.1667M239.176 -98V-73.5833M239.176 -98H262.647M239.176 -73.5833H262.647M239.176 -73.5833V-49.1667M262.647 -98V-73.5833M262.647 -98H286.118M262.647 -73.5833H286.118M262.647 -73.5833V-49.1667M286.118 -98V-73.5833M286.118 -98H309.588M286.118 -73.5833H309.588M286.118 -73.5833V-49.1667M309.588 -98V-73.5833M309.588 -98H333.059M309.588 -73.5833H333.059M309.588 -73.5833V-49.1667M333.059 -98V-73.5833M333.059 -98H356.529M333.059 -73.5833H356.529M333.059 -73.5833V-49.1667M356.529 -98V-73.5833M356.529 -98H380V-73.5833M356.529 -73.5833H380M356.529 -73.5833V-49.1667M380 -73.5833V-49.1667M4.47059 -49.1667H-19M4.47059 -49.1667H27.9412M4.47059 -49.1667V-24.75M-19 -49.1667V-24.75M27.9412 -49.1667H51.4118M27.9412 -49.1667V-24.75M51.4118 -49.1667H74.8824M51.4118 -49.1667V-24.75M74.8824 -49.1667H98.3529M74.8824 -49.1667V-24.75M98.3529 -49.1667H121.824M98.3529 -49.1667V-24.75M121.824 -49.1667H145.294M121.824 -49.1667V-24.75M145.294 -49.1667H168.765M145.294 -49.1667V-24.75M168.765 -49.1667H192.235M168.765 -49.1667V-24.75M192.235 -49.1667H215.706M192.235 -49.1667V-24.75M215.706 -49.1667H239.176M215.706 -49.1667V-24.75M239.176 -49.1667H262.647M239.176 -49.1667V-24.75M262.647 -49.1667H286.118M262.647 -49.1667V-24.75M286.118 -49.1667H309.588M286.118 -49.1667V-24.75M309.588 -49.1667H333.059M309.588 -49.1667V-24.75M333.059 -49.1667H356.529M333.059 -49.1667V-24.75M356.529 -49.1667H380M356.529 -49.1667V-24.75M380 -49.1667V-24.75M4.47059 -24.75H-19M4.47059 -24.75H27.9412M4.47059 -24.75V-0.333337M-19 -24.75V-0.333337M27.9412 -24.75H51.4118M27.9412 -24.75V-0.333337M51.4118 -24.75H74.8824M51.4118 -24.75V-0.333337M74.8824 -24.75H98.3529M74.8824 -24.75V-0.333337M98.3529 -24.75H121.824M98.3529 -24.75V-0.333337M121.824 -24.75H145.294M121.824 -24.75V-0.333337M145.294 -24.75H168.765M145.294 -24.75V-0.333337M168.765 -24.75H192.235M168.765 -24.75V-0.333337M192.235 -24.75H215.706M192.235 -24.75V-0.333337M215.706 -24.75H239.176M215.706 -24.75V-0.333337M239.176 -24.75H262.647M239.176 -24.75V-0.333337M262.647 -24.75H286.118M262.647 -24.75V-0.333337M286.118 -24.75H309.588M286.118 -24.75V-0.333337M309.588 -24.75H333.059M309.588 -24.75V-0.333337M333.059 -24.75H356.529M333.059 -24.75V-0.333337M356.529 -24.75H380M356.529 -24.75V-0.333337M380 -24.75V-0.333337M4.47059 -0.333337H-19M4.47059 -0.333337H27.9412M4.47059 -0.333337V24.0833M-19 -0.333337V24.0833M27.9412 -0.333337H51.4118M27.9412 -0.333337V24.0833M51.4118 -0.333337H74.8824M51.4118 -0.333337V24.0833M74.8824 -0.333337H98.3529M74.8824 -0.333337V24.0833M98.3529 -0.333337H121.824M98.3529 -0.333337V24.0833M121.824 -0.333337H145.294M121.824 -0.333337V24.0833M145.294 -0.333337H168.765M145.294 -0.333337V24.0833M168.765 -0.333337H192.235M168.765 -0.333337V24.0833M192.235 -0.333337H215.706M192.235 -0.333337V24.0833M215.706 -0.333337H239.176M215.706 -0.333337V24.0833M239.176 -0.333337H262.647M239.176 -0.333337V24.0833M262.647 -0.333337H286.118M262.647 -0.333337V24.0833M286.118 -0.333337H309.588M286.118 -0.333337V24.0833M309.588 -0.333337H333.059M309.588 -0.333337V24.0833M333.059 -0.333337H356.529M333.059 -0.333337V24.0833M356.529 -0.333337H380M356.529 -0.333337V24.0833M380 -0.333337V24.0833M4.47059 24.0833H-19M4.47059 24.0833H27.9412M4.47059 24.0833V48.5M-19 24.0833V48.5M27.9412 24.0833H51.4118M27.9412 24.0833V48.5M51.4118 24.0833H74.8824M51.4118 24.0833V48.5M74.8824 24.0833H98.3529M74.8824 24.0833V48.5M98.3529 24.0833H121.824M98.3529 24.0833V48.5M121.824 24.0833H145.294M121.824 24.0833V48.5M145.294 24.0833H168.765M145.294 24.0833V48.5M168.765 24.0833H192.235M168.765 24.0833V48.5M192.235 24.0833H215.706M192.235 24.0833V48.5M215.706 24.0833H239.176M215.706 24.0833V48.5M239.176 24.0833H262.647M239.176 24.0833V48.5M262.647 24.0833H286.118M262.647 24.0833V48.5M286.118 24.0833H309.588M286.118 24.0833V48.5M309.588 24.0833H333.059M309.588 24.0833V48.5M333.059 24.0833H356.529M333.059 24.0833V48.5M356.529 24.0833H380M356.529 24.0833V48.5M380 24.0833V48.5M4.47059 48.5H-19M4.47059 48.5H27.9412M4.47059 48.5V72.9167M-19 48.5V72.9167M27.9412 48.5H51.4118M27.9412 48.5V72.9167M51.4118 48.5H74.8824M51.4118 48.5V72.9167M74.8824 48.5H98.3529M74.8824 48.5V72.9167M98.3529 48.5H121.824M98.3529 48.5V72.9167M121.824 48.5H145.294M121.824 48.5V72.9167M145.294 48.5H168.765M145.294 48.5V72.9167M168.765 48.5H192.235M168.765 48.5V72.9167M192.235 48.5H215.706M192.235 48.5V72.9167M215.706 48.5H239.176M215.706 48.5V72.9167M239.176 48.5H262.647M239.176 48.5V72.9167M262.647 48.5H286.118M262.647 48.5V72.9167M286.118 48.5H309.588M286.118 48.5V72.9167M309.588 48.5H333.059M309.588 48.5V72.9167M333.059 48.5H356.529M333.059 48.5V72.9167M356.529 48.5H380M356.529 48.5V72.9167M380 48.5V72.9167M4.47059 72.9167H-19M4.47059 72.9167H27.9412M4.47059 72.9167V97.3333M-19 72.9167V97.3333M27.9412 72.9167H51.4118M27.9412 72.9167V97.3333M51.4118 72.9167H74.8824M51.4118 72.9167V97.3333M74.8824 72.9167H98.3529M74.8824 72.9167V97.3333M98.3529 72.9167H121.824M98.3529 72.9167V97.3333M121.824 72.9167H145.294M121.824 72.9167V97.3333M145.294 72.9167H168.765M145.294 72.9167V97.3333M168.765 72.9167H192.235M168.765 72.9167V97.3333M192.235 72.9167H215.706M192.235 72.9167V97.3333M215.706 72.9167H239.176M215.706 72.9167V97.3333M239.176 72.9167H262.647M239.176 72.9167V97.3333M262.647 72.9167H286.118M262.647 72.9167V97.3333M286.118 72.9167H309.588M286.118 72.9167V97.3333M309.588 72.9167H333.059M309.588 72.9167V97.3333M333.059 72.9167H356.529M333.059 72.9167V97.3333M356.529 72.9167H380M356.529 72.9167V97.3333M380 72.9167V97.3333M4.47059 97.3333H-19M4.47059 97.3333H27.9412M4.47059 97.3333V121.75M-19 97.3333V121.75M27.9412 97.3333H51.4118M27.9412 97.3333V121.75M51.4118 97.3333H74.8824M51.4118 97.3333V121.75M74.8824 97.3333H98.3529M74.8824 97.3333V121.75M98.3529 97.3333H121.824M98.3529 97.3333V121.75M121.824 97.3333H145.294M121.824 97.3333V121.75M145.294 97.3333H168.765M145.294 97.3333V121.75M168.765 97.3333H192.235M168.765 97.3333V121.75M192.235 97.3333H215.706M192.235 97.3333V121.75M215.706 97.3333H239.176M215.706 97.3333V121.75M239.176 97.3333H262.647M239.176 97.3333V121.75M262.647 97.3333H286.118M262.647 97.3333V121.75M286.118 97.3333H309.588M286.118 97.3333V121.75M309.588 97.3333H333.059M309.588 97.3333V121.75M333.059 97.3333H356.529M333.059 97.3333V121.75M356.529 97.3333H380M356.529 97.3333V121.75M380 97.3333V121.75M4.47059 121.75H-19M4.47059 121.75H27.9412M4.47059 121.75V146.167M-19 121.75V146.167M27.9412 121.75H51.4118M27.9412 121.75V146.167M51.4118 121.75H74.8824M51.4118 121.75V146.167M74.8824 121.75H98.3529M74.8824 121.75V146.167M98.3529 121.75H121.824M98.3529 121.75V146.167M121.824 121.75H145.294M121.824 121.75V146.167M145.294 121.75H168.765M145.294 121.75V146.167M168.765 121.75H192.235M168.765 121.75V146.167M192.235 121.75H215.706M192.235 121.75V146.167M215.706 121.75H239.176M215.706 121.75V146.167M239.176 121.75H262.647M239.176 121.75V146.167M262.647 121.75H286.118M262.647 121.75V146.167M286.118 121.75H309.588M286.118 121.75V146.167M309.588 121.75H333.059M309.588 121.75V146.167M333.059 121.75H356.529M333.059 121.75V146.167M356.529 121.75H380M356.529 121.75V146.167M380 121.75V146.167M4.47059 146.167H-19M4.47059 146.167H27.9412M4.47059 146.167V170.583M-19 146.167V170.583M27.9412 146.167H51.4118M27.9412 146.167V170.583M51.4118 146.167H74.8824M51.4118 146.167V170.583M74.8824 146.167H98.3529M74.8824 146.167V170.583M98.3529 146.167H121.824M98.3529 146.167V170.583M121.824 146.167H145.294M121.824 146.167V170.583M145.294 146.167H168.765M145.294 146.167V170.583M168.765 146.167H192.235M168.765 146.167V170.583M192.235 146.167H215.706M192.235 146.167V170.583M215.706 146.167H239.176M215.706 146.167V170.583M239.176 146.167H262.647M239.176 146.167V170.583M262.647 146.167H286.118M262.647 146.167V170.583M286.118 146.167H309.588M286.118 146.167V170.583M309.588 146.167H333.059M309.588 146.167V170.583M333.059 146.167H356.529M333.059 146.167V170.583M356.529 146.167H380M356.529 146.167V170.583M380 146.167V170.583M4.47059 170.583H-19M4.47059 170.583H27.9412M4.47059 170.583V195M-19 170.583V195H4.47059M27.9412 170.583H51.4118M27.9412 170.583V195M51.4118 170.583H74.8824M51.4118 170.583V195M74.8824 170.583H98.3529M74.8824 170.583V195M98.3529 170.583H121.824M98.3529 170.583V195M121.824 170.583H145.294M121.824 170.583V195M145.294 170.583H168.765M145.294 170.583V195M168.765 170.583H192.235M168.765 170.583V195M192.235 170.583H215.706M192.235 170.583V195M215.706 170.583H239.176M215.706 170.583V195M239.176 170.583H262.647M239.176 170.583V195M262.647 170.583H286.118M262.647 170.583V195M286.118 170.583H309.588M286.118 170.583V195M309.588 170.583H333.059M309.588 170.583V195M333.059 170.583H356.529M333.059 170.583V195M356.529 170.583H380M356.529 170.583V195M380 170.583V195H356.529M4.47059 195H27.9412M27.9412 195H51.4118M51.4118 195H74.8824M74.8824 195H98.3529M98.3529 195H121.824M121.824 195H145.294M145.294 195H168.765M168.765 195H192.235M192.235 195H215.706M215.706 195H239.176M239.176 195H262.647M262.647 195H286.118M286.118 195H309.588M309.588 195H333.059M333.059 195H356.529" stroke="url(#paint0_radial_194_1115)" stroke-opacity="0.1"/>
<path d="M-42.5296 212.163C-54.445 220.831 -64.2642 232.062 -71.2638 245.028L-73.2709 248.746C-88.0324 276.091 -88.2939 308.971 -73.9683 336.547C-50.0861 382.518 35.3052 552.16 81.2762 528.278L443.358 340.175C477.521 322.428 462.064 128.61 444.316 94.4473L420.45 48.5074C407.671 23.9081 373.524 21.2362 357.073 43.5476C352.131 50.2509 345.097 55.1154 337.081 57.3722L315.886 63.3405C297.89 68.408 283.181 81.3931 275.922 98.6214L272.826 105.968C262.881 129.571 237.254 142.443 212.382 136.329C189.707 130.755 166.092 140.951 154.598 161.277L151.753 166.31C142.454 182.755 125.923 193.831 107.176 196.175L84.3235 199.033C74.1206 200.31 63.7852 200.087 53.6461 198.375L31.8376 194.69C5.70734 190.274 -21.0998 196.573 -42.5296 212.163Z" fill="url(#paint1_radial_194_1115)" fill-opacity="0.12"/>
<path d="M-42.235 212.567C-20.914 197.057 5.75691 190.789 31.7544 195.182L53.5625 198.868C63.7494 200.588 74.1341 200.812 84.3852 199.53L107.238 196.672C125.846 194.344 142.289 183.486 151.743 167.33L152.188 166.556L155.034 161.522C166.417 141.392 189.805 131.294 212.262 136.815C237.373 142.987 263.247 129.992 273.287 106.163L276.383 98.8159C283.583 81.7277 298.172 68.8479 316.021 63.8216L337.217 57.8537C345.34 55.5667 352.468 50.6369 357.476 43.8443C373.707 21.8307 407.398 24.4671 420.007 48.7379L443.873 94.678C446.062 98.892 448.233 105.608 450.286 114.203C452.336 122.788 454.259 133.216 455.963 144.832C459.371 168.064 461.898 196.029 462.803 223.483C463.709 250.94 462.993 277.866 459.921 299.025C458.385 309.606 456.263 318.723 453.471 325.737C450.672 332.768 447.235 337.598 443.127 339.732L81.0456 527.834C75.4524 530.74 69.2404 530.719 62.5556 528.311C55.8594 525.899 48.7146 521.098 41.3166 514.487C26.5217 501.267 10.8197 480.906 -4.21357 458.33C-34.2748 413.186 -61.5799 359.31 -73.5249 336.316C-87.7741 308.888 -87.5134 276.183 -72.8306 248.984L-70.8235 245.266C-63.8594 232.365 -54.0898 221.192 -42.235 212.567Z" stroke="url(#paint2_linear_194_1115)" stroke-opacity="0.3"/>
<g style="mix-blend-mode:plus-lighter">
<mask id="mask0_194_1115" style="mask-type:alpha" maskUnits="userSpaceOnUse" x="-85" y="28" width="549" height="503">
<path d="M-42.5296 212.163C-54.445 220.832 -64.2642 232.062 -71.2638 245.029L-73.2709 248.747C-88.0324 276.092 -88.2939 308.971 -73.9683 336.547C-50.0861 382.518 35.3052 552.16 81.2762 528.278L443.358 340.176C477.521 322.428 462.064 128.61 444.316 94.4476L420.45 48.5076C407.671 23.9084 373.524 21.2364 357.073 43.5479C352.131 50.2511 345.097 55.1156 337.081 57.3725L315.886 63.3408C297.89 68.4083 283.181 81.3933 275.922 98.6216L272.826 105.969C262.881 129.572 237.254 142.444 212.382 136.33C189.707 130.755 166.092 140.951 154.598 161.277L151.753 166.31C142.454 182.756 125.923 193.831 107.176 196.176L84.3235 199.034C74.1206 200.31 63.7852 200.087 53.6461 198.375L31.8376 194.69C5.70734 190.275 -21.0998 196.573 -42.5296 212.163Z" fill="url(#paint3_linear_194_1115)" fill-opacity="0.5"/>
</mask>
<g mask="url(#mask0_194_1115)">
<path d="M365 389L365.707 389.707L767.707 -12.293L767 -13L365 389ZM359 389L359.707 389.707L761.707 -12.293L761 -13L359 389ZM353 389L353.707 389.707L755.707 -12.293L755 -13L353 389ZM347 389L347.707 389.707L749.707 -12.293L749 -13L347 389ZM341 389L341.707 389.707L743.707 -12.293L743 -13L341 389ZM335 389L335.707 389.707L737.707 -12.293L737 -13L335 389ZM329 389L329.707 389.707L731.707 -12.293L731 -13L329 389ZM323 389L323.707 389.707L725.707 -12.293L725 -13L323 389ZM317 389L317.707 389.707L719.707 -12.293L719 -13L317 389ZM311 389L311.707 389.707L713.707 -12.293L713 -13L311 389ZM305 389L305.707 389.707L707.707 -12.293L707 -13L305 389ZM299 389L299.707 389.707L701.707 -12.293L701 -13L299 389ZM293 389L293.707 389.707L695.707 -12.293L695 -13L293 389ZM287 389L287.707 389.707L689.707 -12.293L689 -13L287 389ZM281 389L281.707 389.707L683.707 -12.293L683 -13L281 389ZM275 389L275.707 389.707L677.707 -12.293L677 -13L275 389ZM269 389L269.707 389.707L671.707 -12.293L671 -13L269 389ZM263 389L263.707 389.707L665.707 -12.293L665 -13L263 389ZM257 389L257.707 389.707L659.707 -12.293L659 -13L257 389ZM251 389L251.707 389.707L653.707 -12.293L653 -13L251 389ZM245 389L245.707 389.707L647.707 -12.293L647 -13L245 389ZM239 389L239.707 389.707L641.707 -12.293L641 -13L239 389ZM233 389L233.707 389.707L635.707 -12.293L635 -13L233 389ZM227 389L227.707 389.707L629.707 -12.293L629 -13L227 389ZM221 389L221.707 389.707L623.707 -12.293L623 -13L221 389ZM215 389L215.707 389.707L617.707 -12.293L617 -13L215 389ZM209 389L209.707 389.707L611.707 -12.293L611 -13L209 389ZM203 389L203.707 389.707L605.707 -12.293L605 -13L203 389ZM197 389L197.707 389.707L599.707 -12.293L599 -13L197 389ZM191 389L191.707 389.707L593.707 -12.293L593 -13L191 389ZM185 389L185.707 389.707L587.707 -12.293L587 -13L185 389ZM179 389L179.707 389.707L581.707 -12.293L581 -13L179 389ZM173 389L173.707 389.707L575.707 -12.293L575 -13L173 389ZM167 389L167.707 389.707L569.707 -12.293L569 -13L167 389ZM161 389L161.707 389.707L563.707 -12.293L563 -13L161 389ZM155 389L155.707 389.707L557.707 -12.293L557 -13L155 389ZM149 389L149.707 389.707L551.707 -12.293L551 -13L149 389ZM143 389L143.707 389.707L545.707 -12.293L545 -13L143 389ZM137 389L137.707 389.707L539.707 -12.293L539 -13L137 389ZM131 389L131.707 389.707L533.707 -12.293L533 -13L131 389ZM125 389L125.707 389.707L527.707 -12.293L527 -13L125 389ZM119 389L119.707 389.707L521.707 -12.293L521 -13L119 389ZM113 389L113.707 389.707L515.707 -12.293L515 -13L113 389ZM107 389L107.707 389.707L509.707 -12.293L509 -13L107 389ZM101 389L101.707 389.707L503.707 -12.293L503 -13L101 389ZM95 389L95.707 389.707L497.707 -12.293L497 -13L95 389ZM89 389L89.707 389.707L491.707 -12.293L491 -13L89 389ZM83 389L83.707 389.707L485.707 -12.293L485 -13L83 389ZM77 389L77.707 389.707L479.707 -12.293L479 -13L77 389ZM71 389L71.707 389.707L473.707 -12.293L473 -13L71 389ZM65 389L65.707 389.707L467.707 -12.293L467 -13L65 389ZM59 389L59.707 389.707L461.707 -12.293L461 -13L59 389ZM53 389L53.707 389.707L455.707 -12.293L455 -13L53 389ZM47 389L47.707 389.707L449.707 -12.293L449 -13L47 389ZM41 389L41.707 389.707L443.707 -12.293L443 -13L41 389ZM35 389L35.707 389.707L437.707 -12.293L437 -13L35 389ZM29 389L29.707 389.707L431.707 -12.293L431 -13L29 389ZM23 389L23.707 389.707L425.707 -12.293L425 -13L23 389ZM17 389L17.707 389.707L419.707 -12.293L419 -13L17 389ZM11 389L11.707 389.707L413.707 -12.293L413 -13L11 389ZM5 389L5.70703 389.707L407.707 -12.293L407 -13L5 389ZM-1 389L-0.292969 389.707L401.707 -12.293L401 -13L-1 389ZM-7 389L-6.29297 389.707L395.707 -12.293L395 -13L-7 389ZM-13 389L-12.293 389.707L389.707 -12.293L389 -13L-13 389ZM-19 389L-18.293 389.707L383.707 -12.293L383 -13L-19 389ZM-25 389L-24.293 389.707L377.707 -12.293L377 -13L-25 389ZM-31 389L-30.293 389.707L371.707 -12.293L371 -13L-31 389ZM-37 389L-36.293 389.707L365.707 -12.293L365 -13L-37 389ZM-43 389L-42.293 389.707L359.707 -12.293L359 -13L-43 389ZM-49 389L-48.293 389.707L353.707 -12.293L353 -13L-49 389ZM-55 389L-54.293 389.707L347.707 -12.293L347 -13L-55 389ZM-61 389L-60.293 389.707L341.707 -12.293L341 -13L-61 389ZM-67 389L-66.293 389.707L335.707 -12.293L335 -13L-67 389ZM-73 389L-72.293 389.707L329.707 -12.293L329 -13L-73 389ZM-79 389L-78.293 389.707L323.707 -12.293L323 -13L-79 389ZM-85 389L-84.293 389.707L317.707 -12.293L317 -13L-85 389ZM-91 389L-90.293 389.707L311.707 -12.293L311 -13L-91 389ZM-97 389L-96.293 389.707L305.707 -12.293L305 -13L-97 389ZM-103 389L-102.293 389.707L299.707 -12.293L299 -13L-103 389ZM-109 389L-108.293 389.707L293.707 -12.293L293 -13L-109 389ZM-115 389L-114.293 389.707L287.707 -12.293L287 -13L-115 389ZM-121 389L-120.293 389.707L281.707 -12.293L281 -13L-121 389ZM-127 389L-126.293 389.707L275.707 -12.293L275 -13L-127 389ZM-133 389L-132.293 389.707L269.707 -12.293L269 -13L-133 389ZM-139 389L-138.293 389.707L263.707 -12.293L263 -13L-139 389ZM-145 389L-144.293 389.707L257.707 -12.293L257 -13L-145 389ZM-151 389L-150.293 389.707L251.707 -12.293L251 -13L-151 389ZM-157 389L-156.293 389.707L245.707 -12.293L245 -13L-157 389ZM-163 389L-162.293 389.707L239.707 -12.293L239 -13L-163 389ZM-169 389L-168.293 389.707L233.707 -12.293L233 -13L-169 389ZM-175 389L-174.293 389.707L227.707 -12.293L227 -13L-175 389ZM-181 389L-180.293 389.707L221.707 -12.293L221 -13L-181 389ZM-187 389L-186.293 389.707L215.707 -12.293L215 -13L-187 389ZM-193 389L-192.293 389.707L209.707 -12.293L209 -13L-193 389ZM-199 389L-198.293 389.707L203.707 -12.293L203 -13L-199 389ZM-205 389L-204.293 389.707L197.707 -12.293L197 -13L-205 389ZM-211 389L-210.293 389.707L191.707 -12.293L191 -13L-211 389ZM-217 389L-216.293 389.707L185.707 -12.293L185 -13L-217 389ZM-223 389L-222.293 389.707L179.707 -12.293L179 -13L-223 389ZM-229 389L-228.293 389.707L173.707 -12.293L173 -13L-229 389ZM-235 389L-234.293 389.707L167.707 -12.293L167 -13L-235 389ZM-241 389L-240.293 389.707L161.707 -12.293L161 -13L-241 389ZM-247 389L-246.293 389.707L155.707 -12.293L155 -13L-247 389ZM-253 389L-252.293 389.707L149.707 -12.293L149 -13L-253 389ZM-259 389L-258.293 389.707L143.707 -12.293L143 -13L-259 389ZM-265 389L-264.293 389.707L137.707 -12.293L137 -13L-265 389ZM-271 389L-270.293 389.707L131.707 -12.293L131 -13L-271 389ZM-277 389L-276.293 389.707L125.707 -12.293L125 -13L-277 389ZM-283 389L-282.293 389.707L119.707 -12.293L119 -13L-283 389ZM-289 389L-288.293 389.707L113.707 -12.293L113 -13L-289 389ZM-295 389L-294.293 389.707L107.707 -12.293L107 -13L-295 389ZM-301 389L-300.293 389.707L101.707 -12.293L101 -13L-301 389ZM-307 389L-306.293 389.707L95.707 -12.293L95 -13L-307 389ZM-313 389L-312.293 389.707L89.707 -12.293L89 -13L-313 389ZM-319 389L-318.293 389.707L83.707 -12.293L83 -13L-319 389ZM-325 389L-324.293 389.707L77.707 -12.293L77 -13L-325 389ZM-331 389L-330.293 389.707L71.707 -12.293L71 -13L-331 389ZM-337 389L-336.293 389.707L65.707 -12.293L65 -13L-337 389ZM-343 389L-342.293 389.707L59.707 -12.293L59 -13L-343 389ZM-349 389L-348.293 389.707L53.707 -12.293L53 -13L-349 389ZM-355 389L-354.293 389.707L47.707 -12.293L47 -13L-355 389ZM-361 389L-360.293 389.707L41.707 -12.293L41 -13L-361 389ZM-367 389L-366.293 389.707L35.707 -12.293L35 -13L-367 389ZM-373 389L-372.293 389.707L29.707 -12.293L29 -13L-373 389ZM-379 389L-378.293 389.707L23.707 -12.293L23 -13L-379 389ZM-385 389L-384.293 389.707L17.707 -12.293L17 -13L-385 389ZM-391 389L-390.293 389.707L11.707 -12.293L11 -13L-391 389ZM-397 389L-396.293 389.707L5.70703 -12.293L5 -13L-397 389ZM-403 389L-402.293 389.707L-0.292969 -12.293L-1 -13L-403 389ZM-409 389L-408.293 389.707L-6.29297 -12.293L-7 -13L-409 389ZM-415 389L-414.293 389.707L-12.293 -12.293L-13 -13L-415 389ZM-421 389L-420.293 389.707L-18.293 -12.293L-19 -13L-421 389ZM-427 389L-426.293 389.707L-24.293 -12.293L-25 -13L-427 389ZM-433 389L-432.293 389.707L-30.293 -12.293L-31 -13L-433 389ZM-439 389L-438.293 389.707L-36.293 -12.293L-37 -13L-439 389Z" fill="url(#paint4_linear_194_1115)" fill-opacity="0.5"/>
</g>
</g>
<path d="M-42.235 212.567C-20.914 197.057 5.75691 190.789 31.7544 195.182L53.5625 198.868C63.7494 200.588 74.1341 200.812 84.3852 199.53L107.238 196.672C125.846 194.344 142.289 183.486 151.743 167.33L152.188 166.556L155.034 161.522C166.417 141.392 189.805 131.294 212.262 136.815C237.373 142.987 263.247 129.992 273.287 106.163L276.383 98.8159C283.583 81.7277 298.172 68.8479 316.021 63.8216L337.217 57.8537C345.34 55.5667 352.468 50.6369 357.476 43.8443C373.707 21.8307 407.398 24.4671 420.007 48.7379L443.873 94.678C446.062 98.892 448.233 105.608 450.286 114.203C452.336 122.788 454.259 133.216 455.963 144.832C459.371 168.064 461.898 196.029 462.803 223.483C463.709 250.94 462.993 277.866 459.921 299.025C458.385 309.606 456.263 318.723 453.471 325.737C450.672 332.768 447.235 337.598 443.127 339.732L81.0456 527.834C75.4524 530.74 69.2404 530.719 62.5556 528.311C55.8594 525.899 48.7146 521.098 41.3166 514.487C26.5217 501.267 10.8197 480.906 -4.21357 458.33C-34.2748 413.186 -61.5799 359.31 -73.5249 336.316C-87.7741 308.888 -87.5134 276.183 -72.8306 248.984L-70.8235 245.266C-63.8594 232.365 -54.0898 221.192 -42.235 212.567Z" stroke="url(#paint5_linear_194_1115)" stroke-opacity="0.5"/>
<g filter="url(#filter0_f_194_1115)">
<ellipse cx="209" cy="97" rx="26" ry="24" fill="#4244BE"/>
</g>
<g opacity="0.7">
<path fill-rule="evenodd" clip-rule="evenodd" d="M148 113.424C169.921 116.393 189.441 104.794 207.486 85.9662L198.718 78.2261L232 77L231.134 107.523L222.137 98.898C203.115 118.707 170.073 129.037 148 113.424Z" fill="white" fill-opacity="0.2"/>
<path d="M230.946 107.065L222.275 98.7539L222.132 98.6152L221.993 98.7598C212.508 108.637 199.526 116.152 186.168 119.25C173.081 122.285 159.649 121.077 148.786 113.724C170.472 116.314 189.792 104.716 207.631 86.1045L207.775 85.9541L207.619 85.8164L199.226 78.4072L231.793 77.208L230.946 107.065Z" stroke="white" stroke-opacity="0.4" stroke-width="0.4"/>
</g>
<rect y="139" width="380" height="111" fill="url(#paint6_linear_194_1115)"/>
</g>
<defs>
<filter id="filter0_f_194_1115" x="143" y="33" width="132" height="128" filterUnits="userSpaceOnUse" color-interpolation-filters="sRGB">
<feFlood flood-opacity="0" result="BackgroundImageFix"/>
<feBlend mode="normal" in="SourceGraphic" in2="BackgroundImageFix" result="shape"/>
<feGaussianBlur stdDeviation="20" result="effect1_foregroundBlur_194_1115"/>
</filter>
<radialGradient id="paint0_radial_194_1115" cx="0" cy="0" r="1" gradientUnits="userSpaceOnUse" gradientTransform="translate(126 -18) rotate(75.6275) scale(219.559 317.055)">
<stop stop-color="#B5D3FD"/>
<stop offset="0.883515" stop-color="#B5D3FD" stop-opacity="0"/>
</radialGradient>
<radialGradient id="paint1_radial_194_1115" cx="0" cy="0" r="1" gradientUnits="userSpaceOnUse" gradientTransform="translate(203.388 108.589) rotate(96.5706) scale(179.585 230.896)">
<stop offset="0.190476" stop-color="#6182FE"/>
<stop offset="1" stop-color="#0A0A0A" stop-opacity="0"/>
</radialGradient>
<linearGradient id="paint2_linear_194_1115" x1="356.96" y1="11.471" x2="95.5851" y2="454.453" gradientUnits="userSpaceOnUse">
<stop stop-color="#4244BE"/>
<stop offset="0.665361" stop-color="#4244BE" stop-opacity="0"/>
</linearGradient>
<linearGradient id="paint3_linear_194_1115" x1="134.9" y1="118.744" x2="291.042" y2="419.304" gradientUnits="userSpaceOnUse">
<stop stop-color="white"/>
<stop offset="0.705884" stop-color="white" stop-opacity="0"/>
</linearGradient>
<linearGradient id="paint4_linear_194_1115" x1="565.5" y1="-103.5" x2="6.50001" y2="364" gradientUnits="userSpaceOnUse">
<stop stop-color="white"/>
<stop offset="0.7583" stop-color="white" stop-opacity="0"/>
</linearGradient>
<linearGradient id="paint5_linear_194_1115" x1="356.96" y1="11.471" x2="95.5851" y2="454.453" gradientUnits="userSpaceOnUse">
<stop stop-color="#4244BE"/>
<stop offset="0.665361" stop-color="#4244BE" stop-opacity="0"/>
</linearGradient>
<linearGradient id="paint6_linear_194_1115" x1="190" y1="139" x2="190" y2="250" gradientUnits="userSpaceOnUse">
<stop stop-color="#000211" stop-opacity="0"/>
<stop offset="1" stop-color="#0E0E10"/>
</linearGradient>
<clipPath id="clip0_194_1115">
<rect width="377" height="250" fill="white"/>
</clipPath>
</defs>
</svg>
