<svg width="377" height="250" viewBox="0 0 377 250" fill="none" xmlns="http://www.w3.org/2000/svg">
<g clip-path="url(#clip0_199_3)">
<path d="M4.47059 -98H-19V-73.5833M4.47059 -98V-73.5833M4.47059 -98H27.9412M4.47059 -73.5833H-19M4.47059 -73.5833H27.9412M4.47059 -73.5833V-49.1667M-19 -73.5833V-49.1667M27.9412 -98V-73.5833M27.9412 -98H51.4118M27.9412 -73.5833H51.4118M27.9412 -73.5833V-49.1667M51.4118 -98V-73.5833M51.4118 -98H74.8824M51.4118 -73.5833H74.8824M51.4118 -73.5833V-49.1667M74.8824 -98V-73.5833M74.8824 -98H98.3529M74.8824 -73.5833H98.3529M74.8824 -73.5833V-49.1667M98.3529 -98V-73.5833M98.3529 -98H121.824M98.3529 -73.5833H121.824M98.3529 -73.5833V-49.1667M121.824 -98V-73.5833M121.824 -98H145.294M121.824 -73.5833H145.294M121.824 -73.5833V-49.1667M145.294 -98V-73.5833M145.294 -98H168.765M145.294 -73.5833H168.765M145.294 -73.5833V-49.1667M168.765 -98V-73.5833M168.765 -98H192.235M168.765 -73.5833H192.235M168.765 -73.5833V-49.1667M192.235 -98V-73.5833M192.235 -98H215.706M192.235 -73.5833H215.706M192.235 -73.5833V-49.1667M215.706 -98V-73.5833M215.706 -98H239.176M215.706 -73.5833H239.176M215.706 -73.5833V-49.1667M239.176 -98V-73.5833M239.176 -98H262.647M239.176 -73.5833H262.647M239.176 -73.5833V-49.1667M262.647 -98V-73.5833M262.647 -98H286.118M262.647 -73.5833H286.118M262.647 -73.5833V-49.1667M286.118 -98V-73.5833M286.118 -98H309.588M286.118 -73.5833H309.588M286.118 -73.5833V-49.1667M309.588 -98V-73.5833M309.588 -98H333.059M309.588 -73.5833H333.059M309.588 -73.5833V-49.1667M333.059 -98V-73.5833M333.059 -98H356.529M333.059 -73.5833H356.529M333.059 -73.5833V-49.1667M356.529 -98V-73.5833M356.529 -98H380V-73.5833M356.529 -73.5833H380M356.529 -73.5833V-49.1667M380 -73.5833V-49.1667M4.47059 -49.1667H-19M4.47059 -49.1667H27.9412M4.47059 -49.1667V-24.75M-19 -49.1667V-24.75M27.9412 -49.1667H51.4118M27.9412 -49.1667V-24.75M51.4118 -49.1667H74.8824M51.4118 -49.1667V-24.75M74.8824 -49.1667H98.3529M74.8824 -49.1667V-24.75M98.3529 -49.1667H121.824M98.3529 -49.1667V-24.75M121.824 -49.1667H145.294M121.824 -49.1667V-24.75M145.294 -49.1667H168.765M145.294 -49.1667V-24.75M168.765 -49.1667H192.235M168.765 -49.1667V-24.75M192.235 -49.1667H215.706M192.235 -49.1667V-24.75M215.706 -49.1667H239.176M215.706 -49.1667V-24.75M239.176 -49.1667H262.647M239.176 -49.1667V-24.75M262.647 -49.1667H286.118M262.647 -49.1667V-24.75M286.118 -49.1667H309.588M286.118 -49.1667V-24.75M309.588 -49.1667H333.059M309.588 -49.1667V-24.75M333.059 -49.1667H356.529M333.059 -49.1667V-24.75M356.529 -49.1667H380M356.529 -49.1667V-24.75M380 -49.1667V-24.75M4.47059 -24.75H-19M4.47059 -24.75H27.9412M4.47059 -24.75V-0.333337M-19 -24.75V-0.333337M27.9412 -24.75H51.4118M27.9412 -24.75V-0.333337M51.4118 -24.75H74.8824M51.4118 -24.75V-0.333337M74.8824 -24.75H98.3529M74.8824 -24.75V-0.333337M98.3529 -24.75H121.824M98.3529 -24.75V-0.333337M121.824 -24.75H145.294M121.824 -24.75V-0.333337M145.294 -24.75H168.765M145.294 -24.75V-0.333337M168.765 -24.75H192.235M168.765 -24.75V-0.333337M192.235 -24.75H215.706M192.235 -24.75V-0.333337M215.706 -24.75H239.176M215.706 -24.75V-0.333337M239.176 -24.75H262.647M239.176 -24.75V-0.333337M262.647 -24.75H286.118M262.647 -24.75V-0.333337M286.118 -24.75H309.588M286.118 -24.75V-0.333337M309.588 -24.75H333.059M309.588 -24.75V-0.333337M333.059 -24.75H356.529M333.059 -24.75V-0.333337M356.529 -24.75H380M356.529 -24.75V-0.333337M380 -24.75V-0.333337M4.47059 -0.333337H-19M4.47059 -0.333337H27.9412M4.47059 -0.333337V24.0833M-19 -0.333337V24.0833M27.9412 -0.333337H51.4118M27.9412 -0.333337V24.0833M51.4118 -0.333337H74.8824M51.4118 -0.333337V24.0833M74.8824 -0.333337H98.3529M74.8824 -0.333337V24.0833M98.3529 -0.333337H121.824M98.3529 -0.333337V24.0833M121.824 -0.333337H145.294M121.824 -0.333337V24.0833M145.294 -0.333337H168.765M145.294 -0.333337V24.0833M168.765 -0.333337H192.235M168.765 -0.333337V24.0833M192.235 -0.333337H215.706M192.235 -0.333337V24.0833M215.706 -0.333337H239.176M215.706 -0.333337V24.0833M239.176 -0.333337H262.647M239.176 -0.333337V24.0833M262.647 -0.333337H286.118M262.647 -0.333337V24.0833M286.118 -0.333337H309.588M286.118 -0.333337V24.0833M309.588 -0.333337H333.059M309.588 -0.333337V24.0833M333.059 -0.333337H356.529M333.059 -0.333337V24.0833M356.529 -0.333337H380M356.529 -0.333337V24.0833M380 -0.333337V24.0833M4.47059 24.0833H-19M4.47059 24.0833H27.9412M4.47059 24.0833V48.5M-19 24.0833V48.5M27.9412 24.0833H51.4118M27.9412 24.0833V48.5M51.4118 24.0833H74.8824M51.4118 24.0833V48.5M74.8824 24.0833H98.3529M74.8824 24.0833V48.5M98.3529 24.0833H121.824M98.3529 24.0833V48.5M121.824 24.0833H145.294M121.824 24.0833V48.5M145.294 24.0833H168.765M145.294 24.0833V48.5M168.765 24.0833H192.235M168.765 24.0833V48.5M192.235 24.0833H215.706M192.235 24.0833V48.5M215.706 24.0833H239.176M215.706 24.0833V48.5M239.176 24.0833H262.647M239.176 24.0833V48.5M262.647 24.0833H286.118M262.647 24.0833V48.5M286.118 24.0833H309.588M286.118 24.0833V48.5M309.588 24.0833H333.059M309.588 24.0833V48.5M333.059 24.0833H356.529M333.059 24.0833V48.5M356.529 24.0833H380M356.529 24.0833V48.5M380 24.0833V48.5M4.47059 48.5H-19M4.47059 48.5H27.9412M4.47059 48.5V72.9167M-19 48.5V72.9167M27.9412 48.5H51.4118M27.9412 48.5V72.9167M51.4118 48.5H74.8824M51.4118 48.5V72.9167M74.8824 48.5H98.3529M74.8824 48.5V72.9167M98.3529 48.5H121.824M98.3529 48.5V72.9167M121.824 48.5H145.294M121.824 48.5V72.9167M145.294 48.5H168.765M145.294 48.5V72.9167M168.765 48.5H192.235M168.765 48.5V72.9167M192.235 48.5H215.706M192.235 48.5V72.9167M215.706 48.5H239.176M215.706 48.5V72.9167M239.176 48.5H262.647M239.176 48.5V72.9167M262.647 48.5H286.118M262.647 48.5V72.9167M286.118 48.5H309.588M286.118 48.5V72.9167M309.588 48.5H333.059M309.588 48.5V72.9167M333.059 48.5H356.529M333.059 48.5V72.9167M356.529 48.5H380M356.529 48.5V72.9167M380 48.5V72.9167M4.47059 72.9167H-19M4.47059 72.9167H27.9412M4.47059 72.9167V97.3333M-19 72.9167V97.3333M27.9412 72.9167H51.4118M27.9412 72.9167V97.3333M51.4118 72.9167H74.8824M51.4118 72.9167V97.3333M74.8824 72.9167H98.3529M74.8824 72.9167V97.3333M98.3529 72.9167H121.824M98.3529 72.9167V97.3333M121.824 72.9167H145.294M121.824 72.9167V97.3333M145.294 72.9167H168.765M145.294 72.9167V97.3333M168.765 72.9167H192.235M168.765 72.9167V97.3333M192.235 72.9167H215.706M192.235 72.9167V97.3333M215.706 72.9167H239.176M215.706 72.9167V97.3333M239.176 72.9167H262.647M239.176 72.9167V97.3333M262.647 72.9167H286.118M262.647 72.9167V97.3333M286.118 72.9167H309.588M286.118 72.9167V97.3333M309.588 72.9167H333.059M309.588 72.9167V97.3333M333.059 72.9167H356.529M333.059 72.9167V97.3333M356.529 72.9167H380M356.529 72.9167V97.3333M380 72.9167V97.3333M4.47059 97.3333H-19M4.47059 97.3333H27.9412M4.47059 97.3333V121.75M-19 97.3333V121.75M27.9412 97.3333H51.4118M27.9412 97.3333V121.75M51.4118 97.3333H74.8824M51.4118 97.3333V121.75M74.8824 97.3333H98.3529M74.8824 97.3333V121.75M98.3529 97.3333H121.824M98.3529 97.3333V121.75M121.824 97.3333H145.294M121.824 97.3333V121.75M145.294 97.3333H168.765M145.294 97.3333V121.75M168.765 97.3333H192.235M168.765 97.3333V121.75M192.235 97.3333H215.706M192.235 97.3333V121.75M215.706 97.3333H239.176M215.706 97.3333V121.75M239.176 97.3333H262.647M239.176 97.3333V121.75M262.647 97.3333H286.118M262.647 97.3333V121.75M286.118 97.3333H309.588M286.118 97.3333V121.75M309.588 97.3333H333.059M309.588 97.3333V121.75M333.059 97.3333H356.529M333.059 97.3333V121.75M356.529 97.3333H380M356.529 97.3333V121.75M380 97.3333V121.75M4.47059 121.75H-19M4.47059 121.75H27.9412M4.47059 121.75V146.167M-19 121.75V146.167M27.9412 121.75H51.4118M27.9412 121.75V146.167M51.4118 121.75H74.8824M51.4118 121.75V146.167M74.8824 121.75H98.3529M74.8824 121.75V146.167M98.3529 121.75H121.824M98.3529 121.75V146.167M121.824 121.75H145.294M121.824 121.75V146.167M145.294 121.75H168.765M145.294 121.75V146.167M168.765 121.75H192.235M168.765 121.75V146.167M192.235 121.75H215.706M192.235 121.75V146.167M215.706 121.75H239.176M215.706 121.75V146.167M239.176 121.75H262.647M239.176 121.75V146.167M262.647 121.75H286.118M262.647 121.75V146.167M286.118 121.75H309.588M286.118 121.75V146.167M309.588 121.75H333.059M309.588 121.75V146.167M333.059 121.75H356.529M333.059 121.75V146.167M356.529 121.75H380M356.529 121.75V146.167M380 121.75V146.167M4.47059 146.167H-19M4.47059 146.167H27.9412M4.47059 146.167V170.583M-19 146.167V170.583M27.9412 146.167H51.4118M27.9412 146.167V170.583M51.4118 146.167H74.8824M51.4118 146.167V170.583M74.8824 146.167H98.3529M74.8824 146.167V170.583M98.3529 146.167H121.824M98.3529 146.167V170.583M121.824 146.167H145.294M121.824 146.167V170.583M145.294 146.167H168.765M145.294 146.167V170.583M168.765 146.167H192.235M168.765 146.167V170.583M192.235 146.167H215.706M192.235 146.167V170.583M215.706 146.167H239.176M215.706 146.167V170.583M239.176 146.167H262.647M239.176 146.167V170.583M262.647 146.167H286.118M262.647 146.167V170.583M286.118 146.167H309.588M286.118 146.167V170.583M309.588 146.167H333.059M309.588 146.167V170.583M333.059 146.167H356.529M333.059 146.167V170.583M356.529 146.167H380M356.529 146.167V170.583M380 146.167V170.583M4.47059 170.583H-19M4.47059 170.583H27.9412M4.47059 170.583V195M-19 170.583V195H4.47059M27.9412 170.583H51.4118M27.9412 170.583V195M51.4118 170.583H74.8824M51.4118 170.583V195M74.8824 170.583H98.3529M74.8824 170.583V195M98.3529 170.583H121.824M98.3529 170.583V195M121.824 170.583H145.294M121.824 170.583V195M145.294 170.583H168.765M145.294 170.583V195M168.765 170.583H192.235M168.765 170.583V195M192.235 170.583H215.706M192.235 170.583V195M215.706 170.583H239.176M215.706 170.583V195M239.176 170.583H262.647M239.176 170.583V195M262.647 170.583H286.118M262.647 170.583V195M286.118 170.583H309.588M286.118 170.583V195M309.588 170.583H333.059M309.588 170.583V195M333.059 170.583H356.529M333.059 170.583V195M356.529 170.583H380M356.529 170.583V195M380 170.583V195H356.529M4.47059 195H27.9412M27.9412 195H51.4118M51.4118 195H74.8824M74.8824 195H98.3529M98.3529 195H121.824M121.824 195H145.294M145.294 195H168.765M168.765 195H192.235M192.235 195H215.706M215.706 195H239.176M239.176 195H262.647M262.647 195H286.118M286.118 195H309.588M309.588 195H333.059M333.059 195H356.529" stroke="url(#paint0_radial_199_3)" stroke-opacity="0.1"/>
<circle cx="189.5" cy="102.5" r="39.5" fill="white" fill-opacity="0.2"/>
<circle cx="189.5" cy="102.5" r="39.35" stroke="white" stroke-opacity="0.4" stroke-width="0.3"/>
<g opacity="0.5">
<circle cx="348.091" cy="18.0912" r="39.5" transform="rotate(8.82297 348.091 18.0912)" fill="url(#paint1_linear_199_3)" fill-opacity="0.2"/>
<circle cx="348.091" cy="18.0912" r="39.35" transform="rotate(8.82297 348.091 18.0912)" stroke="url(#paint2_linear_199_3)" stroke-opacity="0.4" stroke-width="0.3"/>
</g>
<g opacity="0.5">
<ellipse cx="24.5102" cy="143.969" rx="42.246" ry="40.019" transform="rotate(8.82297 24.5102 143.969)" fill="url(#paint3_linear_199_3)" fill-opacity="0.2"/>
<path d="M30.6255 104.572C53.6068 108.14 69.4839 128.675 66.108 150.426C62.7318 172.177 41.3767 186.933 18.3952 183.366C-4.58631 179.799 -20.4633 159.263 -17.0872 137.512C-13.7108 115.761 7.64411 101.005 30.6255 104.572Z" stroke="url(#paint4_linear_199_3)" stroke-opacity="0.4" stroke-width="0.3"/>
</g>
<line x1="320.087" y1="46.18" x2="227.087" y2="91.18" stroke="white" stroke-opacity="0.3" stroke-width="0.4"/>
<line x1="150.05" y1="107.194" x2="64.0496" y2="129.194" stroke="white" stroke-opacity="0.3" stroke-width="0.4"/>
<rect y="139" width="380" height="111" fill="url(#paint5_linear_199_3)"/>
<path fill-rule="evenodd" clip-rule="evenodd" d="M184.555 116.2C184.555 118.4 186.544 120.6 189 120.6C191.456 120.6 193.445 118.4 193.445 116.2C193.445 109.6 184.555 109.6 184.555 116.2ZM179.57 106.866L182.715 109.979C186.18 106.547 191.82 106.547 195.285 109.979L198.43 106.866C193.22 101.711 184.78 101.711 179.57 106.866ZM167 94.4203L170.143 97.5334C180.541 87.2398 197.459 87.2398 207.857 97.5334L211 94.4203C198.85 82.3931 179.15 82.3931 167 94.4203ZM204.715 100.644L201.572 103.755C194.641 96.8931 183.359 96.8931 176.428 103.755L173.285 100.644C181.964 92.0535 196.036 92.0535 204.715 100.644Z" fill="white" fill-opacity="0.2"/>
<path d="M189 111.45C190.062 111.45 191.122 111.844 191.915 112.629C192.706 113.413 193.245 114.597 193.245 116.2C193.245 118.294 191.341 120.4 189 120.4C186.659 120.4 184.755 118.294 184.755 116.2C184.755 114.597 185.294 113.413 186.085 112.629C186.878 111.844 187.938 111.45 189 111.45ZM179.856 106.867C184.95 101.978 193.049 101.978 198.143 106.867L195.281 109.701C191.776 106.376 186.223 106.375 182.718 109.701L179.856 106.867ZM173.57 100.646C182.134 92.3206 195.865 92.321 204.429 100.646L201.57 103.475C194.597 96.721 183.402 96.7207 176.429 103.475L173.57 100.646ZM167.285 94.4214C179.32 82.6603 198.679 82.6606 210.714 94.4214L207.855 97.2534C197.414 87.0679 180.584 87.0676 170.144 97.2534L167.285 94.4214Z" stroke="white" stroke-opacity="0.6" stroke-width="0.4"/>
<g filter="url(#filter0_f_199_3)">
<ellipse cx="190" cy="102.5" rx="26" ry="25.5" fill="#4244BE"/>
</g>
</g>
<defs>
<filter id="filter0_f_199_3" x="124" y="37" width="132" height="131" filterUnits="userSpaceOnUse" color-interpolation-filters="sRGB">
<feFlood flood-opacity="0" result="BackgroundImageFix"/>
<feBlend mode="normal" in="SourceGraphic" in2="BackgroundImageFix" result="shape"/>
<feGaussianBlur stdDeviation="20" result="effect1_foregroundBlur_199_3"/>
</filter>
<radialGradient id="paint0_radial_199_3" cx="0" cy="0" r="1" gradientUnits="userSpaceOnUse" gradientTransform="translate(126 -18) rotate(75.6275) scale(219.559 317.055)">
<stop stop-color="#B5D3FD"/>
<stop offset="0.883515" stop-color="#B5D3FD" stop-opacity="0"/>
</radialGradient>
<linearGradient id="paint1_linear_199_3" x1="348.643" y1="55.6826" x2="351.385" y2="17.0694" gradientUnits="userSpaceOnUse">
<stop stop-color="#E7E7E7"/>
<stop offset="1" stop-color="#818181"/>
</linearGradient>
<linearGradient id="paint2_linear_199_3" x1="349.746" y1="59.8399" x2="348.636" y2="18.0395" gradientUnits="userSpaceOnUse">
<stop stop-color="white"/>
<stop offset="1" stop-color="#999999"/>
</linearGradient>
<linearGradient id="paint3_linear_199_3" x1="25.1006" y1="182.055" x2="27.7332" y2="142.914" gradientUnits="userSpaceOnUse">
<stop stop-color="#E7E7E7"/>
<stop offset="1" stop-color="#818181"/>
</linearGradient>
<linearGradient id="paint4_linear_199_3" x1="19.772" y1="186.038" x2="25.2145" y2="144.023" gradientUnits="userSpaceOnUse">
<stop stop-color="white"/>
<stop offset="1" stop-color="#999999"/>
</linearGradient>
<linearGradient id="paint5_linear_199_3" x1="190" y1="139" x2="190" y2="250" gradientUnits="userSpaceOnUse">
<stop stop-color="#000211" stop-opacity="0"/>
<stop offset="1" stop-color="#0E0E10"/>
</linearGradient>
<clipPath id="clip0_199_3">
<rect width="377" height="250" fill="white"/>
</clipPath>
</defs>
</svg>
