<svg width="38" height="33" viewBox="0 0 38 33" fill="none" xmlns="http://www.w3.org/2000/svg">
<path d="M9.0498 14.1777V25.1758H28.9382V14.1777H9.0498ZM21.696 18.9507L19.1961 23.4539C19.0675 23.6868 18.7121 23.5887 18.7244 23.3191L18.8224 21.0399C18.8285 20.899 18.7121 20.7764 18.5712 20.7764H16.5186C16.3287 20.7764 16.2062 20.5681 16.2981 20.4027L18.7918 15.9054C18.9204 15.6725 19.2758 15.7706 19.2635 16.0402L19.1655 18.3133C19.1655 18.4542 19.2758 18.5767 19.4167 18.5767H21.4754C21.6653 18.5767 21.7879 18.7853 21.696 18.9507Z" fill="#6182FE" fill-opacity="0.3"/>
<path d="M28.7881 14.3281V25.0254H9.2002V14.3281H28.7881ZM19.4131 16.0469C19.4325 15.6182 18.8652 15.462 18.6602 15.833L16.167 20.3301C16.0196 20.5957 16.2147 20.9267 16.5186 20.9268H18.5713C18.6124 20.9268 18.6497 20.9551 18.665 20.9932L18.6729 21.0332L18.5742 23.3125C18.5549 23.7411 19.1221 23.8973 19.3271 23.5264L21.8271 19.0234C21.9745 18.758 21.7796 18.4269 21.4756 18.4268H19.417C19.3802 18.4268 19.3412 18.4009 19.3242 18.3594L19.3154 18.3135L19.4131 16.0469Z" stroke="white" stroke-opacity="0.6" stroke-width="0.3"/>
<path d="M37.3868 9.30068C37.7176 9.30068 37.9872 9.03109 37.9872 8.70025V7.07048C37.9872 6.73962 37.7176 6.47005 37.3868 6.47005H36.4861V4.4849C36.4861 4.15404 36.2165 3.88447 35.8857 3.88447H31.8358V2.7142C31.8358 2.38334 31.5662 2.11377 31.2353 2.11377H30.4817C30.1508 2.11377 29.8813 1.84418 29.8813 1.51334V0.600428C29.8813 0.269569 29.6117 0 29.2808 0H27.7123C27.3815 0 27.1119 0.269589 27.1119 0.600428V1.51334C27.1119 1.8442 26.8423 2.11377 26.5115 2.11377H25.7578C25.427 2.11377 25.1574 2.38336 25.1574 2.7142V3.88447H12.8481V2.7142C12.8481 2.38334 12.5785 2.11377 12.2476 2.11377H11.494C11.1632 2.11377 10.8936 1.84418 10.8936 1.51334V0.600428C10.8936 0.269569 10.624 0 10.2932 0H8.72464C8.39378 0 8.12421 0.269589 8.12421 0.600428V1.51334C8.12421 1.8442 7.85462 2.11377 7.52378 2.11377H6.77015C6.43929 2.11377 6.16972 2.38336 6.16972 2.7142V3.88447H2.10766C1.7768 3.88447 1.50723 4.15406 1.50723 4.4849V6.47005H0.600428C0.269569 6.47005 0 6.73964 0 7.07048V8.70025C0 9.03111 0.269589 9.30068 0.600428 9.30068H1.50111V27.59H0.612702C0.275714 27.59 0 27.8657 0 28.2027V30.5738C0 30.9108 0.275714 31.1866 0.612702 31.1866H3.89067V32.2833C3.89067 32.6203 4.16638 32.896 4.50337 32.896H9.50929C9.84628 32.896 10.122 32.6203 10.122 32.2833V31.1866H27.8658V32.2833C27.8658 32.6203 28.1416 32.896 28.4785 32.896H33.4845C33.8214 32.896 34.0972 32.6203 34.0972 32.2833V31.1866H37.3751C37.7121 31.1866 37.9878 30.9108 37.9878 30.5738V28.2027C37.9878 27.8657 37.7121 27.59 37.3751 27.59H36.4867V9.30068H37.3868ZM27.0075 6.80697H29.9669C30.3406 6.80697 30.6409 7.10719 30.6409 7.48096C30.6409 7.85473 30.3406 8.15495 29.9669 8.15495H27.0075C26.6338 8.15495 26.3335 7.85473 26.3335 7.48096C26.3335 7.10719 26.6337 6.80697 27.0075 6.80697ZM8.0261 6.80697H8.82875V6.00432C8.82875 5.63058 9.12897 5.33033 9.50274 5.33033C9.87651 5.33033 10.1767 5.63055 10.1767 6.00432V6.80697H10.9794C11.3531 6.80697 11.6534 7.10719 11.6534 7.48096C11.6534 7.85473 11.3532 8.15495 10.9794 8.15495H10.1767V8.9576C10.1767 9.33135 9.87651 9.6316 9.50274 9.6316C9.12897 9.6316 8.82875 9.33137 8.82875 8.9576V8.15495H8.0261C7.65235 8.15495 7.35211 7.85473 7.35211 7.48096C7.35211 7.10719 7.65233 6.80697 8.0261 6.80697ZM6.65365 11.531H31.3394V27.5898H6.64737V11.531H6.65365Z" fill="#6182FE" fill-opacity="0.3"/>
<path d="M8.72461 0.150391H10.293C10.541 0.150391 10.7432 0.352572 10.7432 0.600586V1.51367C10.7433 1.9272 11.0805 2.26367 11.4941 2.26367H12.248C12.4958 2.26389 12.6981 2.46614 12.6982 2.71387V4.03418H25.3076V2.71387C25.3078 2.46602 25.5099 2.26368 25.7578 2.26367H26.5117C26.9252 2.26353 27.2615 1.92714 27.2617 1.51367V0.600586C27.2617 0.35272 27.4641 0.150611 27.7119 0.150391H29.2812C29.5291 0.150617 29.7314 0.352712 29.7314 0.600586V1.51367C29.7316 1.92712 30.068 2.26354 30.4814 2.26367H31.2354C31.4832 2.26369 31.6854 2.46602 31.6855 2.71387V4.03418H35.8857C36.1337 4.03422 36.3359 4.23736 36.3359 4.48535V6.62012H37.3867C37.6347 6.62012 37.8368 6.82238 37.8369 7.07031V8.7002C37.8369 8.9482 37.6347 9.15039 37.3867 9.15039H36.3369V27.7402H37.375C37.6291 27.7402 37.8379 27.949 37.8379 28.2031V30.5742C37.8377 30.8282 37.629 31.0361 37.375 31.0361H33.9473V32.2832C33.9473 32.5373 33.7385 32.7461 33.4844 32.7461H28.4785C28.2244 32.7461 28.0156 32.5373 28.0156 32.2832V31.0361H9.97168V32.2832C9.97168 32.5372 9.7637 32.7458 9.50977 32.7461H4.50293C4.24898 32.7459 4.04102 32.5372 4.04102 32.2832V31.0361H0.612305C0.358463 31.0359 0.150593 30.8281 0.150391 30.5742V28.2031C0.150391 27.9491 0.358339 27.7405 0.612305 27.7402H1.65137V9.15039H0.600586C0.352586 9.15039 0.150391 8.94821 0.150391 8.7002V7.07031C0.150483 6.82239 0.352629 6.62012 0.600586 6.62012H1.65723V4.48535C1.65723 4.23743 1.85952 4.03431 2.10742 4.03418H6.31934V2.71387C6.31952 2.46602 6.52261 2.26367 6.77051 2.26367H7.52344C7.93701 2.26367 8.27424 1.92723 8.27441 1.51367V0.600586C8.27441 0.352596 8.47661 0.150407 8.72461 0.150391ZM6.49707 27.7402H31.4893V11.3809H6.49707V27.7402ZM9.50293 5.18066C9.04645 5.18066 8.67893 5.54751 8.67871 6.00391V6.65723H8.02637C7.56975 6.65723 7.20215 7.02483 7.20215 7.48145C7.20241 7.93784 7.56994 8.30469 8.02637 8.30469H8.67871V8.95801C8.67893 9.41443 9.04645 9.78125 9.50293 9.78125C9.95932 9.78115 10.3269 9.41434 10.3271 8.95801V8.30469H10.9795C11.4359 8.30463 11.8035 7.9378 11.8037 7.48145C11.8037 7.02487 11.436 6.65728 10.9795 6.65723H10.3271V6.00391C10.3269 5.54755 9.95932 5.18076 9.50293 5.18066ZM27.0078 6.65723C26.5512 6.65723 26.1836 7.02483 26.1836 7.48145C26.1839 7.93784 26.5514 8.30469 27.0078 8.30469H29.9668C30.4232 8.30469 30.7908 7.93783 30.791 7.48145C30.791 7.02483 30.4234 6.65723 29.9668 6.65723H27.0078Z" stroke="white" stroke-opacity="0.6" stroke-width="0.3"/>
</svg>
