<svg width="25" height="36" viewBox="0 0 25 36" fill="none" xmlns="http://www.w3.org/2000/svg">
<mask id="path-1-inside-1_218_306" fill="white">
<path d="M7.29425 8.57043C6.73911 8.00599 6.43334 7.25549 6.43334 6.45722C6.43334 5.65898 6.73908 4.90848 7.29425 4.34401C7.47284 4.16247 7.76239 4.16247 7.94094 4.34401C8.11953 4.52556 8.11953 4.81995 7.94094 5.00153C7.55853 5.3904 7.34794 5.90735 7.34794 6.45725C7.34794 7.00715 7.55856 7.5241 7.94097 7.91294C8.11956 8.09448 8.11956 8.38888 7.94097 8.57046C7.85168 8.66125 7.73465 8.70665 7.61764 8.70665C7.50058 8.70662 7.38355 8.66121 7.29425 8.57043ZM4.9451 10.3932C5.06414 10.5142 5.22017 10.5747 5.37622 10.5747C5.53228 10.5747 5.6883 10.5142 5.80735 10.3932C6.04547 10.1511 6.04547 9.75856 5.80735 9.51648C5.00366 8.69937 4.56104 7.6129 4.56104 6.45728C4.56104 5.30166 5.00366 4.21519 5.80735 3.39802C6.04547 3.15591 6.04547 2.76341 5.80735 2.52133C5.56923 2.27925 5.18319 2.27925 4.9451 2.52136C3.91109 3.57268 3.34162 4.9705 3.34162 6.45728C3.34162 7.94406 3.91109 9.34188 4.9451 10.3932ZM3.61599 12.6875C3.91362 12.3849 3.91362 11.8942 3.61599 11.5917C0.831495 8.76056 0.831495 4.15398 3.61599 1.32284C3.91362 1.0202 3.91362 0.529565 3.61599 0.226983C3.31833 -0.075661 2.83577 -0.075661 2.53817 0.226983C0.901399 1.89115 0 4.10379 0 6.45728C0 8.81077 0.901399 11.0234 2.53817 12.6875C2.687 12.8389 2.88205 12.9145 3.07709 12.9145C3.27214 12.9145 3.46716 12.8388 3.61599 12.6875ZM17.059 8.57043C17.1483 8.66125 17.2653 8.70662 17.3824 8.70662C17.4994 8.70662 17.6164 8.66121 17.7057 8.57043C18.2609 8.00599 18.5666 7.25549 18.5666 6.45722C18.5666 5.65898 18.2609 4.90848 17.7057 4.34401C17.5271 4.16244 17.2376 4.16244 17.059 4.34401C16.8804 4.52556 16.8804 4.81995 17.059 5.00153C17.4414 5.39037 17.652 5.90735 17.652 6.45722C17.652 7.00712 17.4414 7.52407 17.059 7.91291C16.8804 8.09449 16.8804 8.38888 17.059 8.57043ZM19.1927 10.3932C19.3117 10.5142 19.4677 10.5747 19.6238 10.5747C19.7798 10.5747 19.9359 10.5142 20.0549 10.3932C21.0889 9.34188 21.6584 7.94406 21.6584 6.45728C21.6584 4.9705 21.0889 3.57268 20.0549 2.52136C19.8168 2.27919 19.4308 2.27922 19.1927 2.52133C18.9546 2.76344 18.9546 3.15594 19.1927 3.39802C19.9964 4.21519 20.439 5.30166 20.439 6.45728C20.439 7.6129 19.9964 8.69937 19.1927 9.51648C18.9546 9.75856 18.9546 10.1511 19.1927 10.3932ZM22.4618 0.226983C22.1642 -0.075599 21.6816 -0.075599 21.384 0.226983C21.0864 0.529596 21.0864 1.02023 21.384 1.32284C24.1685 4.15398 24.1685 8.76056 21.384 11.5917C21.0864 11.8943 21.0864 12.3849 21.384 12.6875C21.5328 12.8388 21.7279 12.9145 21.9229 12.9145C22.118 12.9145 22.313 12.8388 22.4618 12.6875C24.0986 11.0233 25 8.81074 25 6.45725C25 4.10376 24.0986 1.89115 22.4618 0.226983ZM5.50917 27.811L10.5368 26.0619L6.55132 24.6753L5.50917 27.811ZM8.62501 18.4356L8.12514 19.9398L10.5368 19.1008L8.62501 18.4356ZM15.9681 17.2112L14.7723 13.6132L12.5 12.8226L10.2277 13.6132L9.03193 17.2112L12.5 18.4177L15.9681 17.2112ZM16.8749 19.9398L16.375 18.4356L14.4632 19.1008L16.8749 19.9398ZM12.5 19.7838L7.61176 21.4844L6.95824 23.4508L12.5 25.3789L18.0418 23.4509L17.3882 21.4845L12.5 19.7838ZM4.88452 29.6905L12.5 32.34L20.1155 29.6905L20.0042 29.3556L12.5 26.7449L4.99582 29.3557L4.88452 29.6905ZM12.846 33.5857C12.7363 33.6239 12.6181 33.643 12.5 33.643C12.3819 33.643 12.2638 33.6239 12.154 33.5857L4.47757 30.915L2.7876 36H22.2123L20.5224 30.915L12.846 33.5857ZM12.4024 7.06957L10.8387 11.7749C10.785 11.9364 10.8709 12.0234 11.0295 11.9682L11.8656 11.6773C12.0242 11.6221 12.2603 11.5597 12.3903 11.5387C12.5202 11.5178 12.9758 11.6221 13.1345 11.6773L13.9705 11.9682C14.1292 12.0233 14.2151 11.9364 14.1614 11.7749L12.5976 7.06957C12.5439 6.90806 12.4561 6.90806 12.4024 7.06957ZM18.4487 24.6753L14.4632 26.0619L19.4908 27.811L18.4487 24.6753ZM11.2739 8.52864L11.8248 6.87114C11.9577 6.47107 12.2607 6.32852 12.5 6.32852C12.7392 6.32852 13.0422 6.47107 13.1752 6.87114L13.726 8.52864C14.4161 8.10549 14.8778 7.33639 14.8778 6.45725C14.8778 5.12201 13.8132 4.03957 12.5 4.03957C11.1867 4.03957 10.1221 5.12201 10.1221 6.45725C10.1221 7.33639 10.5839 8.10546 11.2739 8.52864ZM13.5834 3.62643L12.6868 2.0474C12.5841 1.86648 12.4159 1.86648 12.3132 2.0474L11.4166 3.62643C11.7526 3.49299 12.118 3.41962 12.5 3.41962C12.882 3.41962 13.2474 3.49302 13.5834 3.62643Z"/>
</mask>
<path d="M7.29425 8.57043C6.73911 8.00599 6.43334 7.25549 6.43334 6.45722C6.43334 5.65898 6.73908 4.90848 7.29425 4.34401C7.47284 4.16247 7.76239 4.16247 7.94094 4.34401C8.11953 4.52556 8.11953 4.81995 7.94094 5.00153C7.55853 5.3904 7.34794 5.90735 7.34794 6.45725C7.34794 7.00715 7.55856 7.5241 7.94097 7.91294C8.11956 8.09448 8.11956 8.38888 7.94097 8.57046C7.85168 8.66125 7.73465 8.70665 7.61764 8.70665C7.50058 8.70662 7.38355 8.66121 7.29425 8.57043ZM4.9451 10.3932C5.06414 10.5142 5.22017 10.5747 5.37622 10.5747C5.53228 10.5747 5.6883 10.5142 5.80735 10.3932C6.04547 10.1511 6.04547 9.75856 5.80735 9.51648C5.00366 8.69937 4.56104 7.6129 4.56104 6.45728C4.56104 5.30166 5.00366 4.21519 5.80735 3.39802C6.04547 3.15591 6.04547 2.76341 5.80735 2.52133C5.56923 2.27925 5.18319 2.27925 4.9451 2.52136C3.91109 3.57268 3.34162 4.9705 3.34162 6.45728C3.34162 7.94406 3.91109 9.34188 4.9451 10.3932ZM3.61599 12.6875C3.91362 12.3849 3.91362 11.8942 3.61599 11.5917C0.831495 8.76056 0.831495 4.15398 3.61599 1.32284C3.91362 1.0202 3.91362 0.529565 3.61599 0.226983C3.31833 -0.075661 2.83577 -0.075661 2.53817 0.226983C0.901399 1.89115 0 4.10379 0 6.45728C0 8.81077 0.901399 11.0234 2.53817 12.6875C2.687 12.8389 2.88205 12.9145 3.07709 12.9145C3.27214 12.9145 3.46716 12.8388 3.61599 12.6875ZM17.059 8.57043C17.1483 8.66125 17.2653 8.70662 17.3824 8.70662C17.4994 8.70662 17.6164 8.66121 17.7057 8.57043C18.2609 8.00599 18.5666 7.25549 18.5666 6.45722C18.5666 5.65898 18.2609 4.90848 17.7057 4.34401C17.5271 4.16244 17.2376 4.16244 17.059 4.34401C16.8804 4.52556 16.8804 4.81995 17.059 5.00153C17.4414 5.39037 17.652 5.90735 17.652 6.45722C17.652 7.00712 17.4414 7.52407 17.059 7.91291C16.8804 8.09449 16.8804 8.38888 17.059 8.57043ZM19.1927 10.3932C19.3117 10.5142 19.4677 10.5747 19.6238 10.5747C19.7798 10.5747 19.9359 10.5142 20.0549 10.3932C21.0889 9.34188 21.6584 7.94406 21.6584 6.45728C21.6584 4.9705 21.0889 3.57268 20.0549 2.52136C19.8168 2.27919 19.4308 2.27922 19.1927 2.52133C18.9546 2.76344 18.9546 3.15594 19.1927 3.39802C19.9964 4.21519 20.439 5.30166 20.439 6.45728C20.439 7.6129 19.9964 8.69937 19.1927 9.51648C18.9546 9.75856 18.9546 10.1511 19.1927 10.3932ZM22.4618 0.226983C22.1642 -0.075599 21.6816 -0.075599 21.384 0.226983C21.0864 0.529596 21.0864 1.02023 21.384 1.32284C24.1685 4.15398 24.1685 8.76056 21.384 11.5917C21.0864 11.8943 21.0864 12.3849 21.384 12.6875C21.5328 12.8388 21.7279 12.9145 21.9229 12.9145C22.118 12.9145 22.313 12.8388 22.4618 12.6875C24.0986 11.0233 25 8.81074 25 6.45725C25 4.10376 24.0986 1.89115 22.4618 0.226983ZM5.50917 27.811L10.5368 26.0619L6.55132 24.6753L5.50917 27.811ZM8.62501 18.4356L8.12514 19.9398L10.5368 19.1008L8.62501 18.4356ZM15.9681 17.2112L14.7723 13.6132L12.5 12.8226L10.2277 13.6132L9.03193 17.2112L12.5 18.4177L15.9681 17.2112ZM16.8749 19.9398L16.375 18.4356L14.4632 19.1008L16.8749 19.9398ZM12.5 19.7838L7.61176 21.4844L6.95824 23.4508L12.5 25.3789L18.0418 23.4509L17.3882 21.4845L12.5 19.7838ZM4.88452 29.6905L12.5 32.34L20.1155 29.6905L20.0042 29.3556L12.5 26.7449L4.99582 29.3557L4.88452 29.6905ZM12.846 33.5857C12.7363 33.6239 12.6181 33.643 12.5 33.643C12.3819 33.643 12.2638 33.6239 12.154 33.5857L4.47757 30.915L2.7876 36H22.2123L20.5224 30.915L12.846 33.5857ZM12.4024 7.06957L10.8387 11.7749C10.785 11.9364 10.8709 12.0234 11.0295 11.9682L11.8656 11.6773C12.0242 11.6221 12.2603 11.5597 12.3903 11.5387C12.5202 11.5178 12.9758 11.6221 13.1345 11.6773L13.9705 11.9682C14.1292 12.0233 14.2151 11.9364 14.1614 11.7749L12.5976 7.06957C12.5439 6.90806 12.4561 6.90806 12.4024 7.06957ZM18.4487 24.6753L14.4632 26.0619L19.4908 27.811L18.4487 24.6753ZM11.2739 8.52864L11.8248 6.87114C11.9577 6.47107 12.2607 6.32852 12.5 6.32852C12.7392 6.32852 13.0422 6.47107 13.1752 6.87114L13.726 8.52864C14.4161 8.10549 14.8778 7.33639 14.8778 6.45725C14.8778 5.12201 13.8132 4.03957 12.5 4.03957C11.1867 4.03957 10.1221 5.12201 10.1221 6.45725C10.1221 7.33639 10.5839 8.10546 11.2739 8.52864ZM13.5834 3.62643L12.6868 2.0474C12.5841 1.86648 12.4159 1.86648 12.3132 2.0474L11.4166 3.62643C11.7526 3.49299 12.118 3.41962 12.5 3.41962C12.882 3.41962 13.2474 3.49302 13.5834 3.62643Z" fill="#6182FE" fill-opacity="0.3" stroke="white" stroke-opacity="0.6" stroke-width="0.6" mask="url(#path-1-inside-1_218_306)"/>
</svg>
