<svg width="20" height="33" viewBox="0 0 20 33" fill="none" xmlns="http://www.w3.org/2000/svg">
<path d="M18.8635 13.1088H12.5754L14.8498 1.42218C15.084 0.170043 13.5454 -0.525588 12.8096 0.483078L0.233466 18.013C-0.335134 18.7782 0.200019 19.8912 1.13654 19.8912H7.42458L5.15018 31.5778C4.91605 32.83 6.45461 33.5256 7.19045 32.5169L19.7665 14.9522C20.3351 14.2218 19.8 13.1088 18.8635 13.1088Z" fill="#6182FE" fill-opacity="0.3"/>
<path d="M12.9307 0.569336C13.2526 0.129284 13.7425 0.0639124 14.1309 0.241211C14.52 0.418945 14.8051 0.840603 14.7021 1.39355L12.4277 13.0801L12.3936 13.2588H18.8633C19.6741 13.2588 20.1409 14.2278 19.6484 14.8604L19.6445 14.8652L7.06934 32.4287C6.74742 32.8699 6.2579 32.9363 5.86914 32.7588C5.48004 32.5811 5.19489 32.1594 5.29785 31.6064L7.57227 19.9199L7.60645 19.7412H1.13672C0.331427 19.7412 -0.145999 18.7751 0.353516 18.1025L0.355469 18.1006L12.9316 0.570312L12.9307 0.569336Z" stroke="white" stroke-opacity="0.6" stroke-width="0.3"/>
</svg>
